%
M48
M72
T01C0.0100
T02C0.0276
T03C0.0400
T04C0.1102
%
T01
X9365Y3433
X10865Y4533
X13065Y5733
X13565Y5733
X14065Y5733
X14565Y5533
X15465Y5433
X15465Y6533
X14365Y7033
X14165Y7333
X13365Y7133
X10765Y6733
X9465Y6733
X10565Y5833
X12165Y6033
X7965Y5733
X19365Y5033
X21265Y6233
X22465Y5533
X18665Y6633
X16965Y7133
X16765Y7833
X16065Y8333
X16165Y8933
X16765Y8933
X17565Y9133
X18665Y9433
X19765Y9633
X21365Y8833
X19965Y8233
X19365Y8233
X21665Y7833
X17765Y10333
X17965Y11033
X19265Y11533
X17765Y12533
X16865Y13133
X15865Y12333
X14365Y11533
X14765Y11233
X14965Y10733
X14565Y10533
X13865Y10533
X12465Y10633
X11565Y10933
X12465Y11333
X8765Y10533
X7565Y10233
X7565Y9533
X8065Y9133
X7565Y8533
X9565Y8333
X10265Y8533
X10765Y7733
X12465Y8633
X12765Y9133
X13965Y9133
X11965Y9833
X11265Y9733
X14065Y13133
T02
X10759Y12233
X9972Y12233
T03
X7965Y12933
X7965Y11933
X11065Y3433
X12065Y3433
X13065Y3433
X14065Y3433
X15065Y3433
X16065Y3433
X6979Y6229
X5979Y6229
X4979Y6229
X4979Y7229
X5979Y7229
X6979Y7229
T04
X5865Y4333
X21365Y4333
X21365Y12033
X5865Y12033
M30
