G75*
%MOIN*%
%OFA0B0*%
%FSLAX24Y24*%
%IPPOS*%
%LPD*%
%AMOC8*
5,1,8,0,0,1.08239X$1,22.5*
%
%ADD10C,0.0000*%
%ADD11R,0.0220X0.0500*%
%ADD12R,0.0500X0.0220*%
%ADD13R,0.0276X0.0787*%
%ADD14R,0.0433X0.0394*%
%ADD15R,0.0551X0.0236*%
%ADD16R,0.0394X0.0433*%
%ADD17R,0.0669X0.0335*%
%ADD18C,0.0740*%
%ADD19C,0.0570*%
%ADD20OC8,0.0740*%
%ADD21C,0.2100*%
%ADD22R,0.0787X0.0472*%
%ADD23R,0.0610X0.0236*%
%ADD24C,0.0100*%
%ADD25C,0.0160*%
%ADD26C,0.0260*%
%ADD27C,0.0240*%
D10*
X005835Y002933D02*
X021395Y002933D01*
X021467Y002935D01*
X021538Y002941D01*
X021609Y002950D01*
X021680Y002963D01*
X021750Y002980D01*
X021818Y003000D01*
X021886Y003024D01*
X021952Y003051D01*
X022017Y003082D01*
X022080Y003117D01*
X022141Y003154D01*
X022200Y003195D01*
X022257Y003238D01*
X022312Y003285D01*
X022364Y003334D01*
X022413Y003386D01*
X022460Y003441D01*
X022503Y003498D01*
X022544Y003557D01*
X022581Y003618D01*
X022616Y003681D01*
X022647Y003746D01*
X022674Y003812D01*
X022698Y003880D01*
X022718Y003948D01*
X022735Y004018D01*
X022748Y004089D01*
X022757Y004160D01*
X022763Y004231D01*
X022765Y004303D01*
X022765Y012063D01*
X022763Y012135D01*
X022757Y012206D01*
X022748Y012277D01*
X022735Y012348D01*
X022718Y012418D01*
X022698Y012486D01*
X022674Y012554D01*
X022647Y012620D01*
X022616Y012685D01*
X022581Y012748D01*
X022544Y012809D01*
X022503Y012868D01*
X022460Y012925D01*
X022413Y012980D01*
X022364Y013032D01*
X022312Y013081D01*
X022257Y013128D01*
X022200Y013171D01*
X022141Y013212D01*
X022080Y013249D01*
X022017Y013284D01*
X021952Y013315D01*
X021886Y013342D01*
X021818Y013366D01*
X021750Y013386D01*
X021680Y013403D01*
X021609Y013416D01*
X021538Y013425D01*
X021467Y013431D01*
X021395Y013433D01*
X005835Y013433D01*
X005763Y013431D01*
X005692Y013425D01*
X005621Y013416D01*
X005550Y013403D01*
X005480Y013386D01*
X005412Y013366D01*
X005344Y013342D01*
X005278Y013315D01*
X005213Y013284D01*
X005150Y013249D01*
X005089Y013212D01*
X005030Y013171D01*
X004973Y013128D01*
X004918Y013081D01*
X004866Y013032D01*
X004817Y012980D01*
X004770Y012925D01*
X004727Y012868D01*
X004686Y012809D01*
X004649Y012748D01*
X004614Y012685D01*
X004583Y012620D01*
X004556Y012554D01*
X004532Y012486D01*
X004512Y012418D01*
X004495Y012348D01*
X004482Y012277D01*
X004473Y012206D01*
X004467Y012135D01*
X004465Y012063D01*
X004465Y004303D01*
X004467Y004231D01*
X004473Y004160D01*
X004482Y004089D01*
X004495Y004018D01*
X004512Y003948D01*
X004532Y003880D01*
X004556Y003812D01*
X004583Y003746D01*
X004614Y003681D01*
X004649Y003618D01*
X004686Y003557D01*
X004727Y003498D01*
X004770Y003441D01*
X004817Y003386D01*
X004866Y003334D01*
X004918Y003285D01*
X004973Y003238D01*
X005030Y003195D01*
X005089Y003154D01*
X005150Y003117D01*
X005213Y003082D01*
X005278Y003051D01*
X005344Y003024D01*
X005412Y003000D01*
X005480Y002980D01*
X005550Y002963D01*
X005621Y002950D01*
X005692Y002941D01*
X005763Y002935D01*
X005835Y002933D01*
D11*
X012463Y006443D03*
X012778Y006443D03*
X013093Y006443D03*
X013408Y006443D03*
X013723Y006443D03*
X014038Y006443D03*
X014353Y006443D03*
X014668Y006443D03*
X014668Y009823D03*
X014353Y009823D03*
X014038Y009823D03*
X013723Y009823D03*
X013408Y009823D03*
X013093Y009823D03*
X012778Y009823D03*
X012463Y009823D03*
D12*
X011875Y009236D03*
X011875Y008921D03*
X011875Y008606D03*
X011875Y008291D03*
X011875Y007976D03*
X011875Y007661D03*
X011875Y007346D03*
X011875Y007031D03*
X015255Y007031D03*
X015255Y007346D03*
X015255Y007661D03*
X015255Y007976D03*
X015255Y008291D03*
X015255Y008606D03*
X015255Y008921D03*
X015255Y009236D03*
D13*
G36*
X011511Y006242D02*
X011706Y006047D01*
X011151Y005492D01*
X010956Y005687D01*
X011511Y006242D01*
G37*
G36*
X011845Y005908D02*
X012040Y005713D01*
X011485Y005158D01*
X011290Y005353D01*
X011845Y005908D01*
G37*
G36*
X012179Y005574D02*
X012374Y005379D01*
X011819Y004824D01*
X011624Y005019D01*
X012179Y005574D01*
G37*
D14*
X013331Y005033D03*
X014000Y005033D03*
X013854Y011159D03*
X013184Y011159D03*
D15*
X013314Y011959D03*
X013314Y012333D03*
X013314Y012707D03*
X014417Y012707D03*
X014417Y011959D03*
D16*
X015365Y011999D03*
X015365Y012668D03*
X011865Y012668D03*
X011865Y011999D03*
D17*
X009825Y010546D03*
X008644Y009759D03*
X009825Y008971D03*
X008644Y008184D03*
X009825Y007396D03*
X008644Y006609D03*
X009825Y005822D03*
X008644Y005034D03*
X009825Y004247D03*
X008644Y003459D03*
X017305Y003459D03*
X018487Y004247D03*
X017305Y005034D03*
X018487Y005822D03*
X017305Y006609D03*
X018487Y007396D03*
X017305Y008184D03*
X018487Y008971D03*
X017305Y009759D03*
X018487Y010546D03*
D18*
X007965Y011933D03*
X007965Y012933D03*
X011065Y003433D03*
X012065Y003433D03*
X013065Y003433D03*
X014065Y003433D03*
X015065Y003433D03*
X016065Y003433D03*
D19*
X010759Y012233D03*
X009972Y012233D03*
D20*
X006979Y007229D03*
X005979Y007229D03*
X004979Y007229D03*
X004979Y006229D03*
X005979Y006229D03*
X006979Y006229D03*
D21*
X005865Y004333D03*
X021365Y004333D03*
X021365Y012033D03*
X005865Y012033D03*
D22*
X022253Y010229D03*
X022253Y007237D03*
D23*
X020757Y007749D03*
X020757Y008143D03*
X020757Y008536D03*
X020757Y008930D03*
X020757Y009324D03*
X020757Y009718D03*
D24*
X020757Y009324D02*
X021175Y009324D01*
X021365Y009133D01*
X021365Y008833D01*
X020757Y008930D02*
X020168Y008930D01*
X020053Y009046D01*
X020015Y009083D01*
X019865Y009233D01*
X019865Y009533D01*
X019765Y009633D01*
X019265Y009433D02*
X020162Y008536D01*
X020757Y008536D01*
X020434Y007765D02*
X019965Y008233D01*
X020434Y007765D02*
X020757Y007749D01*
X019065Y007633D02*
X019065Y006233D01*
X019465Y005833D01*
X022165Y005833D01*
X022465Y005533D01*
X018665Y006633D02*
X017330Y006633D01*
X017305Y006609D01*
X015865Y007133D02*
X015653Y007346D01*
X015255Y007346D01*
X014893Y007661D02*
X014765Y007533D01*
X014765Y006933D01*
X015065Y006633D01*
X015065Y004433D01*
X014065Y003433D01*
X013252Y004247D01*
X009825Y004247D01*
X009339Y003459D02*
X008644Y003459D01*
X009339Y003459D02*
X009365Y003433D01*
X008644Y005034D02*
X007965Y005713D01*
X007965Y005733D01*
X008465Y007033D02*
X007665Y007833D01*
X007665Y008433D01*
X007565Y008533D01*
X007565Y008933D02*
X008065Y008433D01*
X008065Y007733D01*
X008402Y007396D01*
X009825Y007396D01*
X009888Y007333D01*
X011863Y007333D01*
X011875Y007346D01*
X011873Y007033D02*
X008465Y007033D01*
X009825Y007396D02*
X009876Y007346D01*
X010765Y007733D02*
X011008Y007976D01*
X011875Y007976D01*
X011875Y007661D02*
X012293Y007661D01*
X012465Y007833D01*
X012465Y008633D01*
X011875Y008606D02*
X010738Y008606D01*
X010265Y008133D01*
X009765Y008133D01*
X009565Y008333D01*
X009265Y008433D02*
X009265Y008133D01*
X009465Y007933D01*
X010365Y007933D01*
X010723Y008291D01*
X011875Y008291D01*
X011875Y008921D02*
X011453Y008921D01*
X011265Y009108D01*
X011265Y009733D01*
X011965Y009833D02*
X011965Y009326D01*
X011875Y009236D01*
X012765Y009133D02*
X012778Y009146D01*
X012778Y009823D01*
X012465Y009826D02*
X012463Y009823D01*
X012465Y009826D02*
X012465Y010633D01*
X013165Y010633D02*
X013165Y011140D01*
X013184Y011159D01*
X013165Y010633D02*
X013408Y010391D01*
X013408Y009823D01*
X014665Y009233D02*
X014665Y008433D01*
X014808Y008291D01*
X014665Y008148D01*
X014665Y007833D01*
X014165Y007333D01*
X014365Y007033D02*
X014668Y006731D01*
X014668Y006443D01*
X014353Y006443D02*
X014353Y005946D01*
X014565Y005733D01*
X014565Y005533D01*
X013723Y005891D02*
X013565Y005733D01*
X013723Y005891D02*
X013723Y006443D01*
X013093Y006443D02*
X013093Y005761D01*
X013065Y005733D01*
X013065Y005299D01*
X013331Y005033D01*
X012778Y005978D02*
X011999Y005199D01*
X011331Y005867D02*
X011907Y006443D01*
X012463Y006443D01*
X012778Y006443D02*
X012778Y005978D01*
X015255Y006743D02*
X015465Y006533D01*
X015255Y006743D02*
X015255Y007031D01*
X015865Y007133D02*
X015865Y004233D01*
X015065Y003433D01*
X011875Y007031D02*
X011873Y007033D01*
X014893Y007661D02*
X015255Y007661D01*
X015255Y007976D02*
X016623Y007976D01*
X016765Y007833D01*
X018865Y007833D01*
X019065Y007633D01*
X016765Y008933D02*
X016438Y008606D01*
X015255Y008606D01*
X015793Y008606D01*
X016065Y008333D01*
X015255Y008291D02*
X014808Y008291D01*
X016165Y008933D02*
X016165Y009333D01*
X015865Y009633D01*
X015065Y009633D01*
X014665Y009233D01*
X017265Y009718D02*
X017565Y009418D01*
X017565Y009133D01*
X018487Y008971D02*
X018665Y009150D01*
X018665Y009433D01*
X019265Y009433D02*
X019265Y011533D01*
X017305Y009759D02*
X017265Y009718D01*
X009265Y008433D02*
X008565Y009133D01*
X008065Y009133D01*
X007565Y008933D02*
X007565Y009533D01*
X008619Y009733D02*
X008644Y009759D01*
X008765Y009880D01*
X008765Y010533D01*
D25*
X008555Y010333D02*
X008555Y010086D01*
X008243Y010086D01*
X008149Y009992D01*
X008149Y009525D01*
X008243Y009431D01*
X009045Y009431D01*
X009139Y009525D01*
X009139Y009992D01*
X009045Y010086D01*
X008975Y010086D01*
X008975Y010333D01*
X009011Y010369D01*
X009055Y010476D01*
X009055Y010591D01*
X009011Y010698D01*
X008930Y010779D01*
X008823Y010823D01*
X008708Y010823D01*
X008601Y010779D01*
X008519Y010698D01*
X008475Y010591D01*
X008475Y010476D01*
X008519Y010369D01*
X008555Y010333D01*
X008514Y010383D02*
X007817Y010383D01*
X007811Y010398D02*
X007730Y010479D01*
X007623Y010523D01*
X007508Y010523D01*
X007401Y010479D01*
X007319Y010398D01*
X007275Y010291D01*
X007275Y010176D01*
X007319Y010069D01*
X007401Y009987D01*
X007508Y009943D01*
X007623Y009943D01*
X007730Y009987D01*
X007811Y010069D01*
X007855Y010176D01*
X007855Y010291D01*
X007811Y010398D01*
X007855Y010224D02*
X008555Y010224D01*
X008223Y010066D02*
X007808Y010066D01*
X008149Y009907D02*
X006579Y009907D01*
X006420Y009749D02*
X007371Y009749D01*
X007401Y009779D02*
X007319Y009698D01*
X007275Y009591D01*
X007275Y009476D01*
X007319Y009369D01*
X007355Y009333D01*
X007355Y008846D01*
X007416Y008785D01*
X007401Y008779D01*
X007319Y008698D01*
X007275Y008591D01*
X007275Y008476D01*
X007319Y008369D01*
X007401Y008287D01*
X007455Y008265D01*
X007455Y007983D01*
X007301Y008137D01*
X007213Y008173D01*
X006765Y008173D01*
X006305Y008633D01*
X006305Y009634D01*
X007469Y010797D01*
X007505Y010886D01*
X007505Y011631D01*
X007546Y011575D01*
X007607Y011514D01*
X007677Y011463D01*
X007754Y011424D01*
X007837Y011397D01*
X007922Y011383D01*
X007945Y011383D01*
X007945Y011913D01*
X007985Y011913D01*
X007985Y011383D01*
X008009Y011383D01*
X008094Y011397D01*
X008176Y011424D01*
X008254Y011463D01*
X008324Y011514D01*
X008385Y011575D01*
X008436Y011645D01*
X008475Y011722D01*
X008502Y011805D01*
X008515Y011890D01*
X008515Y011913D01*
X007985Y011913D01*
X007985Y011953D01*
X008515Y011953D01*
X008515Y011977D01*
X008502Y012062D01*
X008475Y012144D01*
X008436Y012222D01*
X008385Y012292D01*
X008324Y012353D01*
X008254Y012404D01*
X008176Y012443D01*
X008171Y012445D01*
X008266Y012484D01*
X008415Y012633D01*
X008423Y012653D01*
X009772Y012653D01*
X009728Y012631D01*
X009669Y012588D01*
X009617Y012536D01*
X009574Y012477D01*
X009541Y012412D01*
X009518Y012342D01*
X009507Y012270D01*
X009507Y012233D01*
X009507Y012197D01*
X009518Y012124D01*
X009541Y012055D01*
X009574Y011990D01*
X009617Y011930D01*
X009669Y011879D01*
X009728Y011836D01*
X009793Y011802D01*
X009863Y011780D01*
X009935Y011768D01*
X009972Y011768D01*
X010008Y011768D01*
X010081Y011780D01*
X010150Y011802D01*
X010215Y011836D01*
X010275Y011879D01*
X010326Y011930D01*
X010369Y011990D01*
X010374Y011999D01*
X010382Y011981D01*
X010507Y011856D01*
X010671Y011788D01*
X010808Y011788D01*
X010835Y011761D01*
X010938Y011719D01*
X011508Y011719D01*
X011508Y011716D01*
X011602Y011622D01*
X012128Y011622D01*
X012186Y011679D01*
X013370Y011679D01*
X013374Y011681D01*
X013656Y011681D01*
X013750Y011775D01*
X013750Y012132D01*
X013757Y012146D01*
X013770Y012192D01*
X013770Y012333D01*
X013314Y012333D01*
X012859Y012333D01*
X012859Y012239D01*
X012745Y012239D01*
X012745Y012417D01*
X012755Y012427D01*
X012859Y012427D01*
X012859Y012333D01*
X013314Y012333D01*
X013314Y012333D01*
X013314Y012333D01*
X013770Y012333D01*
X013770Y012475D01*
X013757Y012521D01*
X013750Y012534D01*
X013750Y012892D01*
X013656Y012985D01*
X013374Y012985D01*
X013370Y012987D01*
X012584Y012987D01*
X012481Y012945D01*
X012307Y012771D01*
X012242Y012706D01*
X012242Y012908D01*
X012230Y012954D01*
X012206Y012995D01*
X012173Y013029D01*
X012132Y013052D01*
X012086Y013065D01*
X011884Y013065D01*
X011884Y012686D01*
X011847Y012686D01*
X011847Y012650D01*
X011488Y012650D01*
X011488Y012428D01*
X011501Y012382D01*
X011524Y012341D01*
X011546Y012319D01*
X011508Y012281D01*
X011508Y012279D01*
X011204Y012279D01*
X011204Y012322D01*
X011136Y012485D01*
X011045Y012576D01*
X011045Y012789D01*
X011003Y012892D01*
X010924Y012971D01*
X010724Y013171D01*
X010621Y013213D01*
X008423Y013213D01*
X008415Y013234D01*
X008395Y013253D01*
X021208Y013253D01*
X021159Y013248D01*
X021024Y013217D01*
X020894Y013171D01*
X020769Y013112D01*
X020652Y013038D01*
X020544Y012952D01*
X020447Y012854D01*
X020361Y012746D01*
X020287Y012629D01*
X020227Y012505D01*
X020182Y012374D01*
X020151Y012240D01*
X020137Y012113D01*
X021285Y012113D01*
X021285Y011953D01*
X021445Y011953D01*
X021445Y010805D01*
X021572Y010819D01*
X021706Y010850D01*
X021837Y010895D01*
X021961Y010955D01*
X022078Y011029D01*
X022186Y011115D01*
X022284Y011212D01*
X022370Y011320D01*
X022444Y011437D01*
X022503Y011562D01*
X022549Y011692D01*
X022580Y011827D01*
X022585Y011876D01*
X022585Y010626D01*
X021793Y010626D01*
X021699Y010532D01*
X021699Y009927D01*
X021793Y009833D01*
X022585Y009833D01*
X022585Y007633D01*
X021793Y007633D01*
X021699Y007540D01*
X021699Y006935D01*
X021793Y006841D01*
X022585Y006841D01*
X022585Y005798D01*
X022523Y005823D01*
X022472Y005823D01*
X022375Y005920D01*
X022252Y006043D01*
X019552Y006043D01*
X019275Y006320D01*
X019275Y007720D01*
X019152Y007843D01*
X018952Y008043D01*
X017800Y008043D01*
X017800Y008417D01*
X017706Y008511D01*
X016905Y008511D01*
X016811Y008417D01*
X016811Y008123D01*
X016772Y008123D01*
X016710Y008186D01*
X016318Y008186D01*
X016355Y008276D01*
X016355Y008391D01*
X016353Y008396D01*
X016525Y008396D01*
X016772Y008643D01*
X016823Y008643D01*
X016930Y008687D01*
X017011Y008769D01*
X017055Y008876D01*
X017055Y008991D01*
X017011Y009098D01*
X016930Y009179D01*
X016823Y009223D01*
X016708Y009223D01*
X016601Y009179D01*
X016519Y009098D01*
X016475Y008991D01*
X016475Y008940D01*
X016455Y008920D01*
X016455Y008991D01*
X016411Y009098D01*
X016375Y009133D01*
X016375Y009420D01*
X016075Y009720D01*
X015952Y009843D01*
X014978Y009843D01*
X014938Y009803D01*
X014938Y010140D01*
X014844Y010233D01*
X013916Y010233D01*
X013902Y010241D01*
X013857Y010253D01*
X013723Y010253D01*
X013723Y009823D01*
X013723Y009393D01*
X013835Y009393D01*
X013801Y009379D01*
X013719Y009298D01*
X013675Y009191D01*
X013675Y009076D01*
X013719Y008969D01*
X013801Y008887D01*
X013908Y008843D01*
X014023Y008843D01*
X014130Y008887D01*
X014211Y008969D01*
X014255Y009076D01*
X014255Y009191D01*
X014211Y009298D01*
X014130Y009379D01*
X014047Y009413D01*
X014548Y009413D01*
X014455Y009320D01*
X014455Y008346D01*
X014511Y008291D01*
X014455Y008235D01*
X014455Y007920D01*
X014158Y007623D01*
X014108Y007623D01*
X014001Y007579D01*
X013919Y007498D01*
X013875Y007391D01*
X013875Y007276D01*
X013919Y007169D01*
X014001Y007087D01*
X014075Y007057D01*
X014075Y006976D01*
X014118Y006873D01*
X014038Y006873D01*
X014038Y006443D01*
X014038Y006013D01*
X014143Y006013D01*
X014143Y005859D01*
X014315Y005687D01*
X014275Y005591D01*
X014275Y005476D01*
X014314Y005382D01*
X014286Y005398D01*
X014240Y005410D01*
X014018Y005410D01*
X014018Y005052D01*
X013982Y005052D01*
X013982Y005410D01*
X013760Y005410D01*
X013714Y005398D01*
X013673Y005374D01*
X013651Y005352D01*
X013613Y005390D01*
X013275Y005390D01*
X013275Y005533D01*
X013311Y005569D01*
X013315Y005579D01*
X013319Y005569D01*
X013401Y005487D01*
X013508Y005443D01*
X013623Y005443D01*
X013730Y005487D01*
X013811Y005569D01*
X013855Y005676D01*
X013855Y005726D01*
X013933Y005804D01*
X013933Y006013D01*
X014038Y006013D01*
X014038Y006443D01*
X014038Y006443D01*
X014038Y006443D01*
X014038Y006873D01*
X013904Y006873D01*
X013858Y006861D01*
X013845Y006853D01*
X013601Y006853D01*
X013587Y006861D01*
X013542Y006873D01*
X013408Y006873D01*
X013408Y006443D01*
X013408Y006013D01*
X013483Y006013D01*
X013401Y005979D01*
X013319Y005898D01*
X013315Y005888D01*
X013311Y005898D01*
X013303Y005906D01*
X013303Y006013D01*
X013408Y006013D01*
X013408Y006443D01*
X013408Y006443D01*
X013408Y006443D01*
X013408Y006873D01*
X013274Y006873D01*
X013228Y006861D01*
X013215Y006853D01*
X012287Y006853D01*
X012193Y006760D01*
X012193Y006653D01*
X011820Y006653D01*
X011570Y006403D01*
X011446Y006403D01*
X010855Y005813D01*
X010855Y005891D01*
X010811Y005998D01*
X010730Y006079D01*
X010623Y006123D01*
X010508Y006123D01*
X010401Y006079D01*
X010320Y005998D01*
X010320Y006055D01*
X010226Y006149D01*
X009424Y006149D01*
X009331Y006055D01*
X009331Y005588D01*
X009424Y005494D01*
X010226Y005494D01*
X010320Y005588D01*
X010320Y005669D01*
X010401Y005587D01*
X010508Y005543D01*
X010623Y005543D01*
X010730Y005587D01*
X010795Y005653D01*
X010795Y005620D01*
X011084Y005332D01*
X011109Y005332D01*
X011109Y005329D01*
X011122Y005283D01*
X011145Y005242D01*
X011260Y005128D01*
X011374Y005013D01*
X011415Y004990D01*
X011461Y004978D01*
X011464Y004978D01*
X011464Y004952D01*
X011752Y004663D01*
X011885Y004663D01*
X012535Y005314D01*
X012535Y005438D01*
X012775Y005678D01*
X012775Y005676D01*
X012819Y005569D01*
X012855Y005533D01*
X012855Y005212D01*
X012954Y005113D01*
X012954Y004770D01*
X013048Y004676D01*
X013613Y004676D01*
X013651Y004714D01*
X013673Y004692D01*
X013714Y004669D01*
X013760Y004656D01*
X013982Y004656D01*
X013982Y005015D01*
X014018Y005015D01*
X014018Y004656D01*
X014240Y004656D01*
X014286Y004669D01*
X014327Y004692D01*
X014361Y004726D01*
X014384Y004767D01*
X014397Y004813D01*
X014397Y005015D01*
X014018Y005015D01*
X014018Y005052D01*
X014397Y005052D01*
X014397Y005254D01*
X014384Y005300D01*
X014378Y005311D01*
X014401Y005287D01*
X014508Y005243D01*
X014623Y005243D01*
X014730Y005287D01*
X014811Y005369D01*
X014855Y005476D01*
X014855Y005591D01*
X014811Y005698D01*
X014775Y005733D01*
X014775Y005820D01*
X014652Y005943D01*
X014563Y006033D01*
X014563Y006033D01*
X014844Y006033D01*
X014855Y006045D01*
X014855Y004520D01*
X014261Y003926D01*
X014171Y003963D01*
X013960Y003963D01*
X013870Y003926D01*
X013339Y004457D01*
X010320Y004457D01*
X010320Y004480D01*
X010226Y004574D01*
X009424Y004574D01*
X009331Y004480D01*
X009331Y004013D01*
X009424Y003919D01*
X010226Y003919D01*
X010320Y004013D01*
X010320Y004037D01*
X013165Y004037D01*
X013286Y003916D01*
X013171Y003963D01*
X012960Y003963D01*
X012765Y003883D01*
X012616Y003734D01*
X012577Y003639D01*
X012575Y003644D01*
X012536Y003722D01*
X012485Y003792D01*
X012424Y003853D01*
X012354Y003904D01*
X012276Y003943D01*
X012194Y003970D01*
X012109Y003983D01*
X012085Y003983D01*
X012085Y003453D01*
X012045Y003453D01*
X012045Y003413D01*
X011085Y003413D01*
X011085Y003453D01*
X011045Y003453D01*
X011045Y003413D01*
X010515Y003413D01*
X010515Y003390D01*
X010529Y003305D01*
X010556Y003222D01*
X010595Y003145D01*
X010618Y003113D01*
X006023Y003113D01*
X006072Y003119D01*
X006206Y003150D01*
X006337Y003195D01*
X006461Y003255D01*
X006578Y003329D01*
X006686Y003415D01*
X006784Y003512D01*
X006870Y003620D01*
X006944Y003737D01*
X007003Y003862D01*
X007049Y003992D01*
X007080Y004127D01*
X007094Y004253D01*
X005945Y004253D01*
X005945Y004413D01*
X005785Y004413D01*
X005785Y005562D01*
X005659Y005548D01*
X005524Y005517D01*
X005394Y005471D01*
X005269Y005412D01*
X005152Y005338D01*
X005044Y005252D01*
X004947Y005154D01*
X004861Y005046D01*
X004787Y004929D01*
X004727Y004805D01*
X004682Y004674D01*
X004651Y004540D01*
X004645Y004491D01*
X004645Y005786D01*
X004752Y005679D01*
X004959Y005679D01*
X004959Y006209D01*
X004999Y006209D01*
X004999Y005679D01*
X005207Y005679D01*
X005494Y005966D01*
X005760Y005699D01*
X006199Y005699D01*
X006479Y005980D01*
X006760Y005699D01*
X007199Y005699D01*
X007509Y006010D01*
X007509Y006038D01*
X007869Y006397D01*
X007905Y006486D01*
X007905Y007296D01*
X008265Y006936D01*
X008243Y006936D01*
X008149Y006843D01*
X008149Y006375D01*
X008243Y006282D01*
X009045Y006282D01*
X009139Y006375D01*
X009139Y006823D01*
X010489Y006823D01*
X010475Y006791D01*
X010475Y006676D01*
X010519Y006569D01*
X010601Y006487D01*
X010708Y006443D01*
X010823Y006443D01*
X010930Y006487D01*
X011011Y006569D01*
X011055Y006676D01*
X011055Y006791D01*
X011042Y006823D01*
X011497Y006823D01*
X011559Y006761D01*
X012192Y006761D01*
X012285Y006855D01*
X012285Y007451D01*
X012380Y007451D01*
X012552Y007623D01*
X012675Y007746D01*
X012675Y008433D01*
X012711Y008469D01*
X012755Y008576D01*
X012755Y008691D01*
X012711Y008798D01*
X014455Y008798D01*
X014455Y008956D02*
X014198Y008956D01*
X014255Y009115D02*
X014455Y009115D01*
X014455Y009273D02*
X014221Y009273D01*
X013709Y009273D02*
X013021Y009273D01*
X013011Y009298D02*
X012988Y009321D01*
X012988Y009413D01*
X013530Y009413D01*
X013543Y009406D01*
X013589Y009393D01*
X013723Y009393D01*
X013723Y009823D01*
X013723Y009823D01*
X013723Y009823D01*
X013723Y010253D01*
X013618Y010253D01*
X013618Y010478D01*
X013375Y010720D01*
X013375Y010802D01*
X013467Y010802D01*
X013505Y010839D01*
X013526Y010818D01*
X013567Y010794D01*
X013613Y010782D01*
X013835Y010782D01*
X013835Y011140D01*
X013872Y011140D01*
X013872Y010782D01*
X014094Y010782D01*
X014140Y010794D01*
X014181Y010818D01*
X014214Y010851D01*
X014238Y010892D01*
X014250Y010938D01*
X014250Y011140D01*
X013872Y011140D01*
X013872Y011177D01*
X014250Y011177D01*
X014250Y011267D01*
X014308Y011243D01*
X014423Y011243D01*
X014475Y011265D01*
X014475Y011176D01*
X014519Y011069D01*
X014601Y010987D01*
X014708Y010943D01*
X014823Y010943D01*
X014930Y010987D01*
X015011Y011069D01*
X015055Y011176D01*
X015055Y011291D01*
X015055Y011292D01*
X015385Y011622D01*
X015628Y011622D01*
X015722Y011716D01*
X015722Y012079D01*
X015808Y012043D01*
X015923Y012043D01*
X016030Y012087D01*
X016111Y012169D01*
X016155Y012276D01*
X016155Y012391D01*
X016111Y012498D01*
X016030Y012579D01*
X015923Y012623D01*
X015808Y012623D01*
X015742Y012596D01*
X015742Y012650D01*
X015384Y012650D01*
X015384Y012686D01*
X015742Y012686D01*
X015742Y012908D01*
X015730Y012954D01*
X015706Y012995D01*
X015673Y013029D01*
X015632Y013052D01*
X015586Y013065D01*
X015384Y013065D01*
X015384Y012686D01*
X015347Y012686D01*
X015347Y012650D01*
X014988Y012650D01*
X014988Y012428D01*
X015001Y012382D01*
X015024Y012341D01*
X015046Y012319D01*
X015008Y012281D01*
X015008Y012239D01*
X014361Y012239D01*
X014356Y012237D01*
X014075Y012237D01*
X013981Y012144D01*
X013981Y011775D01*
X014075Y011681D01*
X014113Y011681D01*
X014075Y011591D01*
X014075Y011535D01*
X013872Y011535D01*
X013872Y011177D01*
X013835Y011177D01*
X013835Y011535D01*
X013613Y011535D01*
X013567Y011523D01*
X013526Y011499D01*
X013505Y011478D01*
X013467Y011515D01*
X012901Y011515D01*
X012808Y011422D01*
X012808Y010895D01*
X012901Y010802D01*
X012955Y010802D01*
X012955Y010546D01*
X013078Y010423D01*
X013198Y010304D01*
X013198Y010233D01*
X012675Y010233D01*
X012675Y010433D01*
X012711Y010469D01*
X012755Y010576D01*
X012755Y010691D01*
X012711Y010798D01*
X012630Y010879D01*
X012523Y010923D01*
X012408Y010923D01*
X012301Y010879D01*
X012219Y010798D01*
X012175Y010691D01*
X012175Y010576D01*
X012219Y010469D01*
X012255Y010433D01*
X012255Y010202D01*
X012193Y010140D01*
X012193Y010016D01*
X012130Y010079D01*
X012023Y010123D01*
X011908Y010123D01*
X011801Y010079D01*
X011719Y009998D01*
X011675Y009891D01*
X011675Y009776D01*
X011719Y009669D01*
X011755Y009633D01*
X011755Y009506D01*
X011559Y009506D01*
X011475Y009422D01*
X011475Y009533D01*
X011511Y009569D01*
X011555Y009676D01*
X011555Y009791D01*
X011511Y009898D01*
X011430Y009979D01*
X011323Y010023D01*
X011208Y010023D01*
X011101Y009979D01*
X011019Y009898D01*
X010975Y009791D01*
X010975Y009676D01*
X011019Y009569D01*
X011055Y009533D01*
X011055Y009021D01*
X011178Y008898D01*
X011261Y008816D01*
X010651Y008816D01*
X010517Y008682D01*
X010511Y008698D01*
X010430Y008779D01*
X010323Y008823D01*
X010320Y008823D01*
X010320Y009205D01*
X010226Y009298D01*
X009424Y009298D01*
X009331Y009205D01*
X009331Y008738D01*
X009424Y008644D01*
X009997Y008644D01*
X009975Y008591D01*
X009975Y008476D01*
X010019Y008369D01*
X010045Y008343D01*
X009855Y008343D01*
X009855Y008391D01*
X009811Y008498D01*
X009730Y008579D01*
X009623Y008623D01*
X009508Y008623D01*
X009412Y008584D01*
X008775Y009220D01*
X008652Y009343D01*
X008265Y009343D01*
X008230Y009379D01*
X008123Y009423D01*
X008008Y009423D01*
X007901Y009379D01*
X007819Y009298D01*
X007775Y009191D01*
X007775Y009076D01*
X007814Y008981D01*
X007775Y009020D01*
X007775Y009333D01*
X007811Y009369D01*
X007855Y009476D01*
X007855Y009591D01*
X007811Y009698D01*
X007730Y009779D01*
X007623Y009823D01*
X007508Y009823D01*
X007401Y009779D01*
X007275Y009590D02*
X006305Y009590D01*
X006305Y009432D02*
X007293Y009432D01*
X007355Y009273D02*
X006305Y009273D01*
X006305Y009115D02*
X007355Y009115D01*
X007355Y008956D02*
X006305Y008956D01*
X006305Y008798D02*
X007404Y008798D01*
X007295Y008639D02*
X006305Y008639D01*
X006457Y008481D02*
X007275Y008481D01*
X007366Y008322D02*
X006616Y008322D01*
X006665Y007933D02*
X006065Y008533D01*
X006065Y009733D01*
X007265Y010933D01*
X007265Y012733D01*
X007465Y012933D01*
X007965Y012933D01*
X008412Y013236D02*
X021106Y013236D01*
X020715Y013077D02*
X010817Y013077D01*
X010976Y012919D02*
X011491Y012919D01*
X011488Y012908D02*
X011488Y012686D01*
X011847Y012686D01*
X011847Y013065D01*
X011645Y013065D01*
X011599Y013052D01*
X011558Y013029D01*
X011524Y012995D01*
X011501Y012954D01*
X011488Y012908D01*
X011488Y012760D02*
X011045Y012760D01*
X011045Y012602D02*
X011488Y012602D01*
X011488Y012443D02*
X011154Y012443D01*
X011204Y012285D02*
X011512Y012285D01*
X011847Y012760D02*
X011884Y012760D01*
X011884Y012919D02*
X011847Y012919D01*
X012239Y012919D02*
X012455Y012919D01*
X012296Y012760D02*
X012242Y012760D01*
X012745Y012285D02*
X012859Y012285D01*
X013750Y012126D02*
X013981Y012126D01*
X013981Y011968D02*
X013750Y011968D01*
X013750Y011809D02*
X013981Y011809D01*
X014100Y011651D02*
X012157Y011651D01*
X012301Y011579D02*
X012219Y011498D01*
X012175Y011391D01*
X012175Y011276D01*
X012219Y011169D01*
X012301Y011087D01*
X012408Y011043D01*
X012523Y011043D01*
X012630Y011087D01*
X012711Y011169D01*
X012755Y011276D01*
X012755Y011391D01*
X012711Y011498D01*
X012630Y011579D01*
X012523Y011623D01*
X012408Y011623D01*
X012301Y011579D01*
X012217Y011492D02*
X008294Y011492D01*
X008439Y011651D02*
X011574Y011651D01*
X012175Y011334D02*
X007505Y011334D01*
X007505Y011492D02*
X007637Y011492D01*
X007945Y011492D02*
X007985Y011492D01*
X007985Y011651D02*
X007945Y011651D01*
X007945Y011809D02*
X007985Y011809D01*
X008503Y011809D02*
X009779Y011809D01*
X009972Y011809D02*
X009972Y011809D01*
X009972Y011768D02*
X009972Y012233D01*
X009972Y012233D01*
X009972Y011768D01*
X010164Y011809D02*
X010620Y011809D01*
X010395Y011968D02*
X010354Y011968D01*
X009972Y011968D02*
X009972Y011968D01*
X009972Y012126D02*
X009972Y012126D01*
X009972Y012233D02*
X009507Y012233D01*
X009972Y012233D01*
X009972Y012233D01*
X009590Y011968D02*
X008515Y011968D01*
X008481Y012126D02*
X009518Y012126D01*
X009509Y012285D02*
X008390Y012285D01*
X008175Y012443D02*
X009557Y012443D01*
X009688Y012602D02*
X008383Y012602D01*
X005945Y011953D02*
X005945Y010805D01*
X006072Y010819D01*
X006206Y010850D01*
X006337Y010895D01*
X006461Y010955D01*
X006578Y011029D01*
X006686Y011115D01*
X006784Y011212D01*
X006870Y011320D01*
X006944Y011437D01*
X007003Y011562D01*
X007025Y011624D01*
X007025Y011033D01*
X005929Y009937D01*
X005862Y009869D01*
X005825Y009781D01*
X005825Y008486D01*
X005862Y008397D01*
X006529Y007730D01*
X006618Y007693D01*
X006694Y007693D01*
X006479Y007479D01*
X006199Y007759D01*
X005760Y007759D01*
X005479Y007479D01*
X005199Y007759D01*
X004760Y007759D01*
X004645Y007645D01*
X004645Y011876D01*
X004651Y011827D01*
X004682Y011692D01*
X004727Y011562D01*
X004787Y011437D01*
X004861Y011320D01*
X004947Y011212D01*
X005044Y011115D01*
X005152Y011029D01*
X005269Y010955D01*
X005394Y010895D01*
X005524Y010850D01*
X005659Y010819D01*
X005785Y010805D01*
X005785Y011953D01*
X005945Y011953D01*
X005945Y011809D02*
X005785Y011809D01*
X005785Y011651D02*
X005945Y011651D01*
X005945Y011492D02*
X005785Y011492D01*
X005785Y011334D02*
X005945Y011334D01*
X005945Y011175D02*
X005785Y011175D01*
X005785Y011017D02*
X005945Y011017D01*
X005945Y010858D02*
X005785Y010858D01*
X005499Y010858D02*
X004645Y010858D01*
X004645Y010700D02*
X006692Y010700D01*
X006534Y010541D02*
X004645Y010541D01*
X004645Y010383D02*
X006375Y010383D01*
X006217Y010224D02*
X004645Y010224D01*
X004645Y010066D02*
X006058Y010066D01*
X005900Y009907D02*
X004645Y009907D01*
X004645Y009749D02*
X005825Y009749D01*
X005825Y009590D02*
X004645Y009590D01*
X004645Y009432D02*
X005825Y009432D01*
X005825Y009273D02*
X004645Y009273D01*
X004645Y009115D02*
X005825Y009115D01*
X005825Y008956D02*
X004645Y008956D01*
X004645Y008798D02*
X005825Y008798D01*
X005825Y008639D02*
X004645Y008639D01*
X004645Y008481D02*
X005827Y008481D01*
X005937Y008322D02*
X004645Y008322D01*
X004645Y008164D02*
X006095Y008164D01*
X006254Y008005D02*
X004645Y008005D01*
X004645Y007847D02*
X006412Y007847D01*
X006270Y007688D02*
X006689Y007688D01*
X006530Y007530D02*
X006429Y007530D01*
X006665Y007933D02*
X007165Y007933D01*
X007665Y007433D01*
X007665Y006533D01*
X007361Y006229D01*
X006979Y006229D01*
X006515Y005945D02*
X006444Y005945D01*
X006286Y005786D02*
X006673Y005786D01*
X006461Y005412D02*
X006337Y005471D01*
X006206Y005517D01*
X006072Y005548D01*
X005945Y005562D01*
X005945Y004413D01*
X007094Y004413D01*
X007080Y004540D01*
X007049Y004674D01*
X007003Y004805D01*
X006944Y004929D01*
X006870Y005046D01*
X006784Y005154D01*
X006686Y005252D01*
X006578Y005338D01*
X006461Y005412D01*
X006341Y005469D02*
X007845Y005469D01*
X007801Y005487D02*
X007908Y005443D01*
X007938Y005443D01*
X008149Y005232D01*
X008149Y004801D01*
X008243Y004707D01*
X009045Y004707D01*
X009139Y004801D01*
X009139Y005268D01*
X009045Y005361D01*
X008614Y005361D01*
X008255Y005720D01*
X008255Y005791D01*
X008211Y005898D01*
X008130Y005979D01*
X008023Y006023D01*
X007908Y006023D01*
X007801Y005979D01*
X007719Y005898D01*
X007675Y005791D01*
X007675Y005676D01*
X007719Y005569D01*
X007801Y005487D01*
X007695Y005628D02*
X004645Y005628D01*
X004645Y005469D02*
X005389Y005469D01*
X005118Y005311D02*
X004645Y005311D01*
X004645Y005152D02*
X004945Y005152D01*
X004828Y004994D02*
X004645Y004994D01*
X004645Y004835D02*
X004742Y004835D01*
X004682Y004677D02*
X004645Y004677D01*
X004645Y004518D02*
X004648Y004518D01*
X005785Y004518D02*
X005945Y004518D01*
X005945Y004360D02*
X009331Y004360D01*
X009331Y004201D02*
X007088Y004201D01*
X007061Y004043D02*
X009331Y004043D01*
X009308Y003723D02*
X009201Y003679D01*
X009191Y003669D01*
X009139Y003669D01*
X009139Y003693D01*
X009045Y003787D01*
X008243Y003787D01*
X008149Y003693D01*
X008149Y003226D01*
X008243Y003132D01*
X009045Y003132D01*
X009139Y003226D01*
X009139Y003249D01*
X009201Y003187D01*
X009308Y003143D01*
X009423Y003143D01*
X009530Y003187D01*
X009611Y003269D01*
X009655Y003376D01*
X009655Y003491D01*
X009611Y003598D01*
X009530Y003679D01*
X009423Y003723D01*
X009308Y003723D01*
X009106Y003726D02*
X010598Y003726D01*
X010595Y003722D02*
X010556Y003644D01*
X010529Y003562D01*
X010515Y003477D01*
X010515Y003453D01*
X011045Y003453D01*
X011045Y003983D01*
X011022Y003983D01*
X010937Y003970D01*
X010854Y003943D01*
X010777Y003904D01*
X010707Y003853D01*
X010646Y003792D01*
X010595Y003722D01*
X010531Y003567D02*
X009624Y003567D01*
X009655Y003409D02*
X010515Y003409D01*
X010546Y003250D02*
X009592Y003250D01*
X009139Y003249D02*
X009139Y003249D01*
X008149Y003250D02*
X006451Y003250D01*
X006679Y003409D02*
X008149Y003409D01*
X008149Y003567D02*
X006828Y003567D01*
X006936Y003726D02*
X008182Y003726D01*
X007011Y003884D02*
X010750Y003884D01*
X011045Y003884D02*
X011085Y003884D01*
X011085Y003983D02*
X011085Y003453D01*
X011615Y003453D01*
X012045Y003453D01*
X012045Y003983D01*
X012022Y003983D01*
X011937Y003970D01*
X011854Y003943D01*
X011777Y003904D01*
X011707Y003853D01*
X011646Y003792D01*
X011595Y003722D01*
X011565Y003664D01*
X011536Y003722D01*
X011485Y003792D01*
X011424Y003853D01*
X011354Y003904D01*
X011276Y003943D01*
X011194Y003970D01*
X011109Y003983D01*
X011085Y003983D01*
X011085Y003726D02*
X011045Y003726D01*
X011045Y003567D02*
X011085Y003567D01*
X011533Y003726D02*
X011598Y003726D01*
X011750Y003884D02*
X011380Y003884D01*
X012045Y003884D02*
X012085Y003884D01*
X012085Y003726D02*
X012045Y003726D01*
X012045Y003567D02*
X012085Y003567D01*
X012533Y003726D02*
X012613Y003726D01*
X012769Y003884D02*
X012380Y003884D01*
X013436Y004360D02*
X014695Y004360D01*
X014853Y004518D02*
X010282Y004518D01*
X009369Y004518D02*
X007082Y004518D01*
X007048Y004677D02*
X011739Y004677D01*
X011898Y004677D02*
X013048Y004677D01*
X012954Y004835D02*
X012057Y004835D01*
X012215Y004994D02*
X012954Y004994D01*
X012915Y005152D02*
X012374Y005152D01*
X012532Y005311D02*
X012855Y005311D01*
X012855Y005469D02*
X012566Y005469D01*
X012725Y005628D02*
X012795Y005628D01*
X012536Y006033D02*
X012238Y005735D01*
X012221Y005735D01*
X012221Y005738D01*
X012209Y005784D01*
X012185Y005825D01*
X012071Y005939D01*
X011665Y005533D01*
X011260Y005128D01*
X011665Y005533D01*
X011665Y005533D01*
X012071Y005939D01*
X011957Y006053D01*
X011916Y006077D01*
X011870Y006089D01*
X011867Y006089D01*
X011867Y006106D01*
X011994Y006233D01*
X012193Y006233D01*
X012193Y006127D01*
X012287Y006033D01*
X012536Y006033D01*
X012448Y005945D02*
X012065Y005945D01*
X012207Y005786D02*
X012289Y005786D01*
X011918Y005786D02*
X011918Y005786D01*
X011760Y005628D02*
X011760Y005628D01*
X011665Y005533D02*
X011665Y005533D01*
X011601Y005469D02*
X011601Y005469D01*
X011443Y005311D02*
X011443Y005311D01*
X011284Y005152D02*
X011284Y005152D01*
X011235Y005152D02*
X009139Y005152D01*
X009139Y004994D02*
X011408Y004994D01*
X011580Y004835D02*
X009139Y004835D01*
X009096Y005311D02*
X011114Y005311D01*
X010946Y005469D02*
X008506Y005469D01*
X008347Y005628D02*
X009331Y005628D01*
X009331Y005786D02*
X008255Y005786D01*
X008164Y005945D02*
X009331Y005945D01*
X009379Y006103D02*
X007575Y006103D01*
X007444Y005945D02*
X007767Y005945D01*
X007675Y005786D02*
X007286Y005786D01*
X006612Y005311D02*
X008070Y005311D01*
X008149Y005152D02*
X006785Y005152D01*
X006903Y004994D02*
X008149Y004994D01*
X008149Y004835D02*
X006989Y004835D01*
X005945Y004835D02*
X005785Y004835D01*
X005785Y004677D02*
X005945Y004677D01*
X005945Y004994D02*
X005785Y004994D01*
X005785Y005152D02*
X005945Y005152D01*
X005945Y005311D02*
X005785Y005311D01*
X005785Y005469D02*
X005945Y005469D01*
X005673Y005786D02*
X005314Y005786D01*
X005473Y005945D02*
X005515Y005945D01*
X004999Y005945D02*
X004959Y005945D01*
X004959Y006103D02*
X004999Y006103D01*
X004999Y005786D02*
X004959Y005786D01*
X007733Y006262D02*
X011305Y006262D01*
X011146Y006103D02*
X010671Y006103D01*
X010459Y006103D02*
X010272Y006103D01*
X010833Y005945D02*
X010988Y005945D01*
X010795Y005628D02*
X010770Y005628D01*
X010361Y005628D02*
X010320Y005628D01*
X011867Y006103D02*
X012217Y006103D01*
X011746Y006579D02*
X011015Y006579D01*
X011055Y006737D02*
X012193Y006737D01*
X012285Y006896D02*
X014108Y006896D01*
X014075Y007054D02*
X012285Y007054D01*
X012285Y007213D02*
X013901Y007213D01*
X013875Y007371D02*
X012285Y007371D01*
X012459Y007530D02*
X013952Y007530D01*
X014223Y007688D02*
X012617Y007688D01*
X012675Y007847D02*
X014382Y007847D01*
X014455Y008005D02*
X012675Y008005D01*
X012675Y008164D02*
X014455Y008164D01*
X014479Y008322D02*
X012675Y008322D01*
X012716Y008481D02*
X014455Y008481D01*
X014455Y008639D02*
X012755Y008639D01*
X012711Y008798D02*
X012636Y008873D01*
X012708Y008843D01*
X012823Y008843D01*
X012930Y008887D01*
X013011Y008969D01*
X013055Y009076D01*
X013055Y009191D01*
X013011Y009298D01*
X013055Y009115D02*
X013675Y009115D01*
X013732Y008956D02*
X012998Y008956D01*
X013723Y009432D02*
X013723Y009432D01*
X013723Y009590D02*
X013723Y009590D01*
X013723Y009749D02*
X013723Y009749D01*
X013723Y009907D02*
X013723Y009907D01*
X013723Y010066D02*
X013723Y010066D01*
X013723Y010224D02*
X013723Y010224D01*
X013618Y010383D02*
X014314Y010383D01*
X014319Y010369D02*
X014401Y010287D01*
X014508Y010243D01*
X014623Y010243D01*
X014730Y010287D01*
X014811Y010369D01*
X014855Y010476D01*
X014855Y010591D01*
X014811Y010698D01*
X014730Y010779D01*
X014623Y010823D01*
X014508Y010823D01*
X014401Y010779D01*
X014319Y010698D01*
X014275Y010591D01*
X014275Y010476D01*
X014319Y010369D01*
X014275Y010541D02*
X013554Y010541D01*
X013396Y010700D02*
X014322Y010700D01*
X014218Y010858D02*
X017730Y010858D01*
X017719Y010869D02*
X017801Y010787D01*
X017908Y010743D01*
X017992Y010743D01*
X017992Y010312D01*
X018086Y010219D01*
X018888Y010219D01*
X018981Y010312D01*
X018981Y010780D01*
X018888Y010873D01*
X018213Y010873D01*
X018255Y010976D01*
X018255Y011091D01*
X018211Y011198D01*
X018130Y011279D01*
X018023Y011323D01*
X017908Y011323D01*
X017801Y011279D01*
X017719Y011198D01*
X017675Y011091D01*
X017675Y010976D01*
X017719Y010869D01*
X017675Y011017D02*
X014959Y011017D01*
X015055Y011175D02*
X017710Y011175D01*
X018220Y011175D02*
X019055Y011175D01*
X019055Y011017D02*
X018255Y011017D01*
X017992Y010700D02*
X014809Y010700D01*
X014855Y010541D02*
X017992Y010541D01*
X017992Y010383D02*
X014817Y010383D01*
X014853Y010224D02*
X018080Y010224D01*
X017800Y009992D02*
X017706Y010086D01*
X016905Y010086D01*
X016811Y009992D01*
X016811Y009525D01*
X016905Y009431D01*
X017256Y009431D01*
X017354Y009332D01*
X017319Y009298D01*
X017275Y009191D01*
X017275Y009076D01*
X017319Y008969D01*
X017401Y008887D01*
X017508Y008843D01*
X017623Y008843D01*
X017730Y008887D01*
X017811Y008969D01*
X017855Y009076D01*
X017855Y009191D01*
X017811Y009298D01*
X017775Y009333D01*
X017775Y009500D01*
X017800Y009525D01*
X017800Y009992D01*
X017800Y009907D02*
X019055Y009907D01*
X019055Y009749D02*
X017800Y009749D01*
X017800Y009590D02*
X018416Y009590D01*
X018419Y009598D02*
X018375Y009491D01*
X018375Y009376D01*
X018407Y009298D01*
X018086Y009298D01*
X017992Y009205D01*
X017992Y008738D01*
X018086Y008644D01*
X018888Y008644D01*
X018981Y008738D01*
X018981Y009205D01*
X018913Y009273D01*
X018955Y009376D01*
X018955Y009491D01*
X018911Y009598D01*
X018830Y009679D01*
X018723Y009723D01*
X018608Y009723D01*
X018501Y009679D01*
X018419Y009598D01*
X018375Y009432D02*
X017775Y009432D01*
X017821Y009273D02*
X018061Y009273D01*
X017992Y009115D02*
X017855Y009115D01*
X017798Y008956D02*
X017992Y008956D01*
X017992Y008798D02*
X017023Y008798D01*
X017055Y008956D02*
X017332Y008956D01*
X017275Y009115D02*
X016994Y009115D01*
X016904Y009432D02*
X016364Y009432D01*
X016375Y009273D02*
X017309Y009273D01*
X016811Y009590D02*
X016205Y009590D01*
X016047Y009749D02*
X016811Y009749D01*
X016811Y009907D02*
X014938Y009907D01*
X014938Y010066D02*
X016885Y010066D01*
X017726Y010066D02*
X019055Y010066D01*
X019055Y010224D02*
X018893Y010224D01*
X018981Y010383D02*
X019055Y010383D01*
X019055Y010541D02*
X018981Y010541D01*
X018981Y010700D02*
X019055Y010700D01*
X019055Y010858D02*
X018902Y010858D01*
X019475Y010858D02*
X020999Y010858D01*
X021024Y010850D02*
X021159Y010819D01*
X021285Y010805D01*
X021285Y011953D01*
X020137Y011953D01*
X020151Y011827D01*
X020182Y011692D01*
X020227Y011562D01*
X020287Y011437D01*
X020361Y011320D01*
X020447Y011212D01*
X020544Y011115D01*
X020652Y011029D01*
X020769Y010955D01*
X020894Y010895D01*
X021024Y010850D01*
X021285Y010858D02*
X021445Y010858D01*
X021445Y011017D02*
X021285Y011017D01*
X021285Y011175D02*
X021445Y011175D01*
X021445Y011334D02*
X021285Y011334D01*
X021285Y011492D02*
X021445Y011492D01*
X021445Y011651D02*
X021285Y011651D01*
X021285Y011809D02*
X021445Y011809D01*
X021285Y011968D02*
X015722Y011968D01*
X015722Y011809D02*
X019174Y011809D01*
X019208Y011823D02*
X019101Y011779D01*
X019019Y011698D01*
X018975Y011591D01*
X018975Y011476D01*
X019019Y011369D01*
X019055Y011333D01*
X019055Y009346D01*
X019887Y008515D01*
X019801Y008479D01*
X019719Y008398D01*
X019675Y008291D01*
X019675Y008176D01*
X019719Y008069D01*
X019801Y007987D01*
X019908Y007943D01*
X019958Y007943D01*
X020282Y007620D01*
X020292Y007609D01*
X020292Y007565D01*
X020385Y007471D01*
X021128Y007471D01*
X021222Y007565D01*
X021222Y007933D01*
X021219Y007937D01*
X021230Y007955D01*
X021242Y008001D01*
X021242Y008143D01*
X021242Y008285D01*
X021230Y008330D01*
X021219Y008349D01*
X021222Y008352D01*
X021222Y008579D01*
X021308Y008543D01*
X021423Y008543D01*
X021530Y008587D01*
X021611Y008669D01*
X021655Y008776D01*
X021655Y008891D01*
X021611Y008998D01*
X021575Y009033D01*
X021575Y009220D01*
X021452Y009343D01*
X021262Y009534D01*
X021231Y009534D01*
X021242Y009576D01*
X021242Y009718D01*
X021242Y009859D01*
X021230Y009905D01*
X021206Y009946D01*
X021172Y009980D01*
X021131Y010003D01*
X021085Y010016D01*
X020757Y010016D01*
X020757Y009718D01*
X020757Y009718D01*
X021242Y009718D01*
X020757Y009718D01*
X020757Y009718D01*
X020757Y010016D01*
X020428Y010016D01*
X020382Y010003D01*
X020341Y009980D01*
X020308Y009946D01*
X020284Y009905D01*
X020272Y009859D01*
X020272Y009718D01*
X020757Y009718D01*
X020757Y009718D01*
X020272Y009718D01*
X020272Y009576D01*
X020284Y009530D01*
X020295Y009511D01*
X020292Y009508D01*
X020292Y009140D01*
X020255Y009140D01*
X020140Y009256D01*
X020140Y009256D01*
X020075Y009320D01*
X020075Y009620D01*
X020055Y009640D01*
X020055Y009691D01*
X020011Y009798D01*
X019930Y009879D01*
X019823Y009923D01*
X019708Y009923D01*
X019601Y009879D01*
X019519Y009798D01*
X019475Y009691D01*
X019475Y009576D01*
X019514Y009481D01*
X019475Y009520D01*
X019475Y011333D01*
X019511Y011369D01*
X019555Y011476D01*
X019555Y011591D01*
X019511Y011698D01*
X019430Y011779D01*
X019323Y011823D01*
X019208Y011823D01*
X019357Y011809D02*
X020155Y011809D01*
X020196Y011651D02*
X019531Y011651D01*
X019555Y011492D02*
X020261Y011492D01*
X020352Y011334D02*
X019476Y011334D01*
X019475Y011175D02*
X020484Y011175D01*
X020671Y011017D02*
X019475Y011017D01*
X019475Y010700D02*
X022585Y010700D01*
X022585Y010858D02*
X021732Y010858D01*
X021708Y010541D02*
X019475Y010541D01*
X019475Y010383D02*
X021699Y010383D01*
X021699Y010224D02*
X019475Y010224D01*
X019475Y010066D02*
X021699Y010066D01*
X021719Y009907D02*
X021228Y009907D01*
X021242Y009749D02*
X022585Y009749D01*
X022585Y009590D02*
X021242Y009590D01*
X021364Y009432D02*
X022585Y009432D01*
X022585Y009273D02*
X021522Y009273D01*
X021575Y009115D02*
X022585Y009115D01*
X022585Y008956D02*
X021628Y008956D01*
X021655Y008798D02*
X022585Y008798D01*
X022585Y008639D02*
X021581Y008639D01*
X021222Y008481D02*
X022585Y008481D01*
X022585Y008322D02*
X021232Y008322D01*
X021242Y008164D02*
X022585Y008164D01*
X022585Y008005D02*
X021242Y008005D01*
X021242Y008143D02*
X020757Y008143D01*
X021242Y008143D01*
X021222Y007847D02*
X022585Y007847D01*
X022585Y007688D02*
X021222Y007688D01*
X021187Y007530D02*
X021699Y007530D01*
X021699Y007371D02*
X020995Y007371D01*
X020995Y007387D02*
X020919Y007463D01*
X019411Y007463D01*
X019335Y007387D01*
X019335Y007279D01*
X019335Y006587D01*
X019335Y006479D01*
X019635Y006179D01*
X019711Y006103D01*
X019492Y006103D01*
X019553Y006262D02*
X019334Y006262D01*
X019275Y006420D02*
X019394Y006420D01*
X019335Y006579D02*
X019275Y006579D01*
X019275Y006737D02*
X019335Y006737D01*
X019335Y006896D02*
X019275Y006896D01*
X019275Y007054D02*
X019335Y007054D01*
X019335Y007213D02*
X019275Y007213D01*
X019275Y007371D02*
X019335Y007371D01*
X019275Y007530D02*
X020326Y007530D01*
X020213Y007688D02*
X019275Y007688D01*
X019149Y007847D02*
X020055Y007847D01*
X019783Y008005D02*
X019547Y008005D01*
X019530Y007987D02*
X019611Y008069D01*
X019655Y008176D01*
X019655Y008291D01*
X019611Y008398D01*
X019530Y008479D01*
X019423Y008523D01*
X019308Y008523D01*
X019201Y008479D01*
X019119Y008398D01*
X019075Y008291D01*
X019075Y008176D01*
X019119Y008069D01*
X019201Y007987D01*
X019308Y007943D01*
X019423Y007943D01*
X019530Y007987D01*
X019650Y008164D02*
X019680Y008164D01*
X019688Y008322D02*
X019642Y008322D01*
X019526Y008481D02*
X019805Y008481D01*
X019762Y008639D02*
X016768Y008639D01*
X016874Y008481D02*
X016610Y008481D01*
X016811Y008322D02*
X016355Y008322D01*
X016732Y008164D02*
X016811Y008164D01*
X016479Y007766D02*
X015665Y007766D01*
X015665Y007556D01*
X015740Y007556D01*
X016075Y007220D01*
X016075Y004146D01*
X015845Y003916D01*
X015960Y003963D01*
X016171Y003963D01*
X016366Y003883D01*
X016515Y003734D01*
X016595Y003539D01*
X016595Y003328D01*
X016515Y003133D01*
X016495Y003113D01*
X021208Y003113D01*
X021159Y003119D01*
X021024Y003150D01*
X020894Y003195D01*
X020769Y003255D01*
X020652Y003329D01*
X020544Y003415D01*
X020447Y003512D01*
X020361Y003620D01*
X020287Y003737D01*
X020227Y003862D01*
X020182Y003992D01*
X020151Y004127D01*
X020137Y004253D01*
X021285Y004253D01*
X021285Y004413D01*
X020137Y004413D01*
X020151Y004540D01*
X020182Y004674D01*
X020227Y004805D01*
X020287Y004929D01*
X020361Y005046D01*
X020447Y005154D01*
X020544Y005252D01*
X020652Y005338D01*
X020769Y005412D01*
X020894Y005471D01*
X021024Y005517D01*
X021159Y005548D01*
X021285Y005562D01*
X021285Y004413D01*
X021445Y004413D01*
X021445Y005562D01*
X021572Y005548D01*
X021706Y005517D01*
X021837Y005471D01*
X021961Y005412D01*
X022078Y005338D01*
X022186Y005252D01*
X022284Y005154D01*
X022370Y005046D01*
X022444Y004929D01*
X022503Y004805D01*
X022549Y004674D01*
X022580Y004540D01*
X022585Y004491D01*
X022585Y005269D01*
X022523Y005243D01*
X022408Y005243D01*
X022301Y005287D01*
X022219Y005369D01*
X022175Y005476D01*
X022175Y005526D01*
X022078Y005623D01*
X019378Y005623D01*
X019255Y005746D01*
X018981Y006020D01*
X018981Y005588D01*
X018888Y005494D01*
X018086Y005494D01*
X017992Y005588D01*
X017992Y006055D01*
X018086Y006149D01*
X018855Y006149D01*
X018855Y006413D01*
X018830Y006387D01*
X018723Y006343D01*
X018608Y006343D01*
X018501Y006387D01*
X018465Y006423D01*
X017800Y006423D01*
X017800Y006375D01*
X017706Y006282D01*
X016905Y006282D01*
X016811Y006375D01*
X016811Y006843D01*
X016840Y006871D01*
X016801Y006887D01*
X016719Y006969D01*
X016675Y007076D01*
X016675Y007191D01*
X016719Y007298D01*
X016801Y007379D01*
X016908Y007423D01*
X017023Y007423D01*
X017130Y007379D01*
X017211Y007298D01*
X017255Y007191D01*
X017255Y007076D01*
X017211Y006969D01*
X017178Y006936D01*
X017706Y006936D01*
X017799Y006843D01*
X018465Y006843D01*
X018501Y006879D01*
X018608Y006923D01*
X018723Y006923D01*
X018830Y006879D01*
X018855Y006853D01*
X018855Y007069D01*
X018086Y007069D01*
X017992Y007163D01*
X017992Y007623D01*
X016965Y007623D01*
X016930Y007587D01*
X016823Y007543D01*
X016708Y007543D01*
X016601Y007587D01*
X016519Y007669D01*
X016479Y007766D01*
X016511Y007688D02*
X015665Y007688D01*
X015766Y007530D02*
X017992Y007530D01*
X017992Y007371D02*
X017137Y007371D01*
X017246Y007213D02*
X017992Y007213D01*
X017747Y006896D02*
X018541Y006896D01*
X018789Y006896D02*
X018855Y006896D01*
X018855Y007054D02*
X017246Y007054D01*
X016793Y006896D02*
X016075Y006896D01*
X016075Y007054D02*
X016684Y007054D01*
X016684Y007213D02*
X016075Y007213D01*
X015924Y007371D02*
X016793Y007371D01*
X016811Y006737D02*
X016075Y006737D01*
X016075Y006579D02*
X016811Y006579D01*
X016811Y006420D02*
X016075Y006420D01*
X016075Y006262D02*
X018855Y006262D01*
X018468Y006420D02*
X017800Y006420D01*
X018040Y006103D02*
X016075Y006103D01*
X016075Y005945D02*
X017992Y005945D01*
X017992Y005786D02*
X016075Y005786D01*
X016075Y005628D02*
X017992Y005628D01*
X017706Y005361D02*
X016905Y005361D01*
X016811Y005268D01*
X016811Y004801D01*
X016905Y004707D01*
X017706Y004707D01*
X017800Y004801D01*
X017800Y005268D01*
X017706Y005361D01*
X017757Y005311D02*
X020618Y005311D01*
X020445Y005152D02*
X017800Y005152D01*
X017800Y004994D02*
X020328Y004994D01*
X020242Y004835D02*
X017800Y004835D01*
X018086Y004574D02*
X017992Y004480D01*
X017992Y004013D01*
X018086Y003919D01*
X018888Y003919D01*
X018981Y004013D01*
X018981Y004480D01*
X018888Y004574D01*
X018086Y004574D01*
X018030Y004518D02*
X016075Y004518D01*
X016075Y004360D02*
X017992Y004360D01*
X017992Y004201D02*
X016075Y004201D01*
X015972Y004043D02*
X017992Y004043D01*
X017706Y003787D02*
X016905Y003787D01*
X016811Y003693D01*
X016811Y003226D01*
X016905Y003132D01*
X017706Y003132D01*
X017800Y003226D01*
X017800Y003693D01*
X017706Y003787D01*
X017767Y003726D02*
X020294Y003726D01*
X020219Y003884D02*
X016361Y003884D01*
X016518Y003726D02*
X016844Y003726D01*
X016811Y003567D02*
X016583Y003567D01*
X016595Y003409D02*
X016811Y003409D01*
X016811Y003250D02*
X016563Y003250D01*
X017800Y003250D02*
X020779Y003250D01*
X020552Y003409D02*
X017800Y003409D01*
X017800Y003567D02*
X020403Y003567D01*
X020170Y004043D02*
X018981Y004043D01*
X018981Y004201D02*
X020142Y004201D01*
X020148Y004518D02*
X018943Y004518D01*
X018981Y004360D02*
X021285Y004360D01*
X021285Y004518D02*
X021445Y004518D01*
X021445Y004677D02*
X021285Y004677D01*
X021285Y004835D02*
X021445Y004835D01*
X021445Y004994D02*
X021285Y004994D01*
X021285Y005152D02*
X021445Y005152D01*
X021445Y005311D02*
X021285Y005311D01*
X021285Y005469D02*
X021445Y005469D01*
X021841Y005469D02*
X022178Y005469D01*
X022112Y005311D02*
X022278Y005311D01*
X022285Y005152D02*
X022585Y005152D01*
X022585Y004994D02*
X022403Y004994D01*
X022489Y004835D02*
X022585Y004835D01*
X022585Y004677D02*
X022548Y004677D01*
X022582Y004518D02*
X022585Y004518D01*
X020182Y004677D02*
X016075Y004677D01*
X016075Y004835D02*
X016811Y004835D01*
X016811Y004994D02*
X016075Y004994D01*
X016075Y005152D02*
X016811Y005152D01*
X016854Y005311D02*
X016075Y005311D01*
X016075Y005469D02*
X020889Y005469D01*
X020919Y006103D02*
X019711Y006103D01*
X019215Y005786D02*
X018981Y005786D01*
X018981Y005628D02*
X019374Y005628D01*
X019057Y005945D02*
X018981Y005945D01*
X020919Y006103D02*
X020995Y006179D01*
X020995Y007387D01*
X020995Y007213D02*
X021699Y007213D01*
X021699Y007054D02*
X020995Y007054D01*
X020995Y006896D02*
X021738Y006896D01*
X020995Y006737D02*
X022585Y006737D01*
X022585Y006579D02*
X020995Y006579D01*
X020995Y006420D02*
X022585Y006420D01*
X022585Y006262D02*
X020995Y006262D01*
X020919Y006103D02*
X022585Y006103D01*
X022585Y005945D02*
X022351Y005945D01*
X019183Y008005D02*
X018990Y008005D01*
X019080Y008164D02*
X017800Y008164D01*
X017800Y008322D02*
X019088Y008322D01*
X019205Y008481D02*
X017737Y008481D01*
X018981Y008798D02*
X019604Y008798D01*
X019445Y008956D02*
X018981Y008956D01*
X018981Y009115D02*
X019287Y009115D01*
X019128Y009273D02*
X018913Y009273D01*
X018955Y009432D02*
X019055Y009432D01*
X019055Y009590D02*
X018914Y009590D01*
X019475Y009590D02*
X019475Y009590D01*
X019475Y009749D02*
X019499Y009749D01*
X019475Y009907D02*
X019669Y009907D01*
X019862Y009907D02*
X020285Y009907D01*
X020272Y009749D02*
X020031Y009749D01*
X020075Y009590D02*
X020272Y009590D01*
X020292Y009432D02*
X020075Y009432D01*
X020122Y009273D02*
X020292Y009273D01*
X020757Y009749D02*
X020757Y009749D01*
X020757Y009907D02*
X020757Y009907D01*
X022059Y011017D02*
X022585Y011017D01*
X022585Y011175D02*
X022247Y011175D01*
X022378Y011334D02*
X022585Y011334D01*
X022585Y011492D02*
X022470Y011492D01*
X022535Y011651D02*
X022585Y011651D01*
X022576Y011809D02*
X022585Y011809D01*
X020274Y012602D02*
X018051Y012602D01*
X018055Y012591D02*
X018011Y012698D01*
X017930Y012779D01*
X017823Y012823D01*
X017708Y012823D01*
X017601Y012779D01*
X017519Y012698D01*
X017475Y012591D01*
X017475Y012476D01*
X017519Y012369D01*
X017601Y012287D01*
X017708Y012243D01*
X017823Y012243D01*
X017930Y012287D01*
X018011Y012369D01*
X018055Y012476D01*
X018055Y012591D01*
X018042Y012443D02*
X020206Y012443D01*
X020161Y012285D02*
X017923Y012285D01*
X017607Y012285D02*
X016155Y012285D01*
X016134Y012443D02*
X017489Y012443D01*
X017480Y012602D02*
X015975Y012602D01*
X015756Y012602D02*
X015742Y012602D01*
X015742Y012760D02*
X017582Y012760D01*
X017948Y012760D02*
X020372Y012760D01*
X020511Y012919D02*
X015739Y012919D01*
X015384Y012919D02*
X015347Y012919D01*
X015347Y013065D02*
X015145Y013065D01*
X015099Y013052D01*
X015058Y013029D01*
X015024Y012995D01*
X015001Y012954D01*
X014988Y012908D01*
X014988Y012686D01*
X015347Y012686D01*
X015347Y013065D01*
X015347Y012760D02*
X015384Y012760D01*
X014988Y012760D02*
X014852Y012760D01*
X014852Y012892D02*
X014758Y012985D01*
X014075Y012985D01*
X013981Y012892D01*
X013981Y012523D01*
X014075Y012429D01*
X014758Y012429D01*
X014852Y012523D01*
X014852Y012892D01*
X014825Y012919D02*
X014991Y012919D01*
X014988Y012602D02*
X014852Y012602D01*
X014773Y012443D02*
X014988Y012443D01*
X015012Y012285D02*
X013770Y012285D01*
X013770Y012443D02*
X014061Y012443D01*
X013981Y012602D02*
X013750Y012602D01*
X013750Y012760D02*
X013981Y012760D01*
X014008Y012919D02*
X013723Y012919D01*
X016068Y012126D02*
X020138Y012126D01*
X019000Y011651D02*
X015657Y011651D01*
X015255Y011492D02*
X018975Y011492D01*
X019055Y011334D02*
X015096Y011334D01*
X014475Y011175D02*
X013872Y011175D01*
X013872Y011017D02*
X013835Y011017D01*
X013835Y010858D02*
X013872Y010858D01*
X014250Y011017D02*
X014572Y011017D01*
X013872Y011334D02*
X013835Y011334D01*
X013835Y011492D02*
X013872Y011492D01*
X013519Y011492D02*
X013490Y011492D01*
X012878Y011492D02*
X012713Y011492D01*
X012755Y011334D02*
X012808Y011334D01*
X012808Y011175D02*
X012714Y011175D01*
X012808Y011017D02*
X007505Y011017D01*
X007505Y011175D02*
X012217Y011175D01*
X012280Y010858D02*
X010269Y010858D01*
X010270Y010857D02*
X010229Y010881D01*
X010184Y010893D01*
X009829Y010893D01*
X009829Y010550D01*
X009822Y010550D01*
X009822Y010893D01*
X009467Y010893D01*
X009421Y010881D01*
X009380Y010857D01*
X009346Y010824D01*
X009323Y010783D01*
X009311Y010737D01*
X009311Y010550D01*
X009821Y010550D01*
X009821Y010542D01*
X009311Y010542D01*
X009311Y010355D01*
X009323Y010309D01*
X009346Y010268D01*
X009380Y010235D01*
X009421Y010211D01*
X009467Y010199D01*
X009822Y010199D01*
X009822Y010542D01*
X009829Y010542D01*
X009829Y010199D01*
X010184Y010199D01*
X010229Y010211D01*
X010270Y010235D01*
X010304Y010268D01*
X010328Y010309D01*
X010340Y010355D01*
X010340Y010542D01*
X009829Y010542D01*
X009829Y010550D01*
X010340Y010550D01*
X010340Y010737D01*
X010328Y010783D01*
X010304Y010824D01*
X010270Y010857D01*
X010340Y010700D02*
X012179Y010700D01*
X012190Y010541D02*
X010340Y010541D01*
X010340Y010383D02*
X012255Y010383D01*
X012255Y010224D02*
X010253Y010224D01*
X009829Y010224D02*
X009822Y010224D01*
X009822Y010383D02*
X009829Y010383D01*
X009822Y010541D02*
X009829Y010541D01*
X009822Y010700D02*
X009829Y010700D01*
X009822Y010858D02*
X009829Y010858D01*
X009382Y010858D02*
X007494Y010858D01*
X007371Y010700D02*
X008522Y010700D01*
X008475Y010541D02*
X007213Y010541D01*
X007313Y010383D02*
X007054Y010383D01*
X006896Y010224D02*
X007275Y010224D01*
X007323Y010066D02*
X006737Y010066D01*
X007760Y009749D02*
X008149Y009749D01*
X008149Y009590D02*
X007855Y009590D01*
X007837Y009432D02*
X008243Y009432D01*
X007809Y009273D02*
X007775Y009273D01*
X007775Y009115D02*
X007775Y009115D01*
X008722Y009273D02*
X009399Y009273D01*
X009331Y009115D02*
X008881Y009115D01*
X009039Y008956D02*
X009331Y008956D01*
X009331Y008798D02*
X009198Y008798D01*
X009356Y008639D02*
X009995Y008639D01*
X009975Y008481D02*
X009818Y008481D01*
X010385Y008798D02*
X010633Y008798D01*
X010320Y008956D02*
X011120Y008956D01*
X011055Y009115D02*
X010320Y009115D01*
X010251Y009273D02*
X011055Y009273D01*
X011055Y009432D02*
X009046Y009432D01*
X009139Y009590D02*
X011011Y009590D01*
X010975Y009749D02*
X009139Y009749D01*
X009139Y009907D02*
X011029Y009907D01*
X011501Y009907D02*
X011682Y009907D01*
X011686Y009749D02*
X011555Y009749D01*
X011520Y009590D02*
X011755Y009590D01*
X011485Y009432D02*
X011475Y009432D01*
X011788Y010066D02*
X009065Y010066D01*
X008975Y010224D02*
X009398Y010224D01*
X009311Y010383D02*
X009017Y010383D01*
X009055Y010541D02*
X009311Y010541D01*
X009311Y010700D02*
X009009Y010700D01*
X007009Y011017D02*
X006559Y011017D01*
X006747Y011175D02*
X007025Y011175D01*
X007025Y011334D02*
X006878Y011334D01*
X006970Y011492D02*
X007025Y011492D01*
X006851Y010858D02*
X006232Y010858D01*
X005171Y011017D02*
X004645Y011017D01*
X004645Y011175D02*
X004984Y011175D01*
X004852Y011334D02*
X004645Y011334D01*
X004645Y011492D02*
X004761Y011492D01*
X004696Y011651D02*
X004645Y011651D01*
X004645Y011809D02*
X004655Y011809D01*
X012143Y010066D02*
X012193Y010066D01*
X012675Y010383D02*
X013119Y010383D01*
X012960Y010541D02*
X012741Y010541D01*
X012752Y010700D02*
X012955Y010700D01*
X012845Y010858D02*
X012650Y010858D01*
X016394Y009115D02*
X016537Y009115D01*
X016475Y008956D02*
X016455Y008956D01*
X020757Y008143D02*
X020757Y008143D01*
X015655Y006313D02*
X015655Y004320D01*
X015261Y003926D01*
X015171Y003963D01*
X014960Y003963D01*
X014845Y003916D01*
X015275Y004346D01*
X015275Y006313D01*
X015301Y006287D01*
X015408Y006243D01*
X015523Y006243D01*
X015630Y006287D01*
X015655Y006313D01*
X015655Y006262D02*
X015568Y006262D01*
X015655Y006103D02*
X015275Y006103D01*
X015275Y005945D02*
X015655Y005945D01*
X015655Y005786D02*
X015275Y005786D01*
X015275Y005628D02*
X015655Y005628D01*
X015655Y005469D02*
X015275Y005469D01*
X015275Y005311D02*
X015655Y005311D01*
X015655Y005152D02*
X015275Y005152D01*
X015275Y004994D02*
X015655Y004994D01*
X015655Y004835D02*
X015275Y004835D01*
X015275Y004677D02*
X015655Y004677D01*
X015655Y004518D02*
X015275Y004518D01*
X015275Y004360D02*
X015655Y004360D01*
X015536Y004201D02*
X015130Y004201D01*
X014972Y004043D02*
X015378Y004043D01*
X014536Y004201D02*
X013594Y004201D01*
X013753Y004043D02*
X014378Y004043D01*
X014300Y004677D02*
X014855Y004677D01*
X014855Y004835D02*
X014397Y004835D01*
X014397Y004994D02*
X014855Y004994D01*
X014855Y005152D02*
X014397Y005152D01*
X014018Y005152D02*
X013982Y005152D01*
X013982Y004994D02*
X014018Y004994D01*
X014018Y004835D02*
X013982Y004835D01*
X013982Y004677D02*
X014018Y004677D01*
X013700Y004677D02*
X013614Y004677D01*
X013982Y005311D02*
X014018Y005311D01*
X014278Y005469D02*
X013686Y005469D01*
X013836Y005628D02*
X014291Y005628D01*
X014215Y005786D02*
X013915Y005786D01*
X013933Y005945D02*
X014143Y005945D01*
X014038Y006103D02*
X014038Y006103D01*
X014038Y006262D02*
X014038Y006262D01*
X014038Y006420D02*
X014038Y006420D01*
X014038Y006579D02*
X014038Y006579D01*
X014038Y006737D02*
X014038Y006737D01*
X013408Y006737D02*
X013408Y006737D01*
X013408Y006579D02*
X013408Y006579D01*
X013408Y006420D02*
X013408Y006420D01*
X013408Y006262D02*
X013408Y006262D01*
X013408Y006103D02*
X013408Y006103D01*
X013367Y005945D02*
X013303Y005945D01*
X013275Y005469D02*
X013445Y005469D01*
X014651Y005945D02*
X014855Y005945D01*
X014855Y005786D02*
X014775Y005786D01*
X014840Y005628D02*
X014855Y005628D01*
X014853Y005469D02*
X014855Y005469D01*
X014855Y005311D02*
X014753Y005311D01*
X015275Y006262D02*
X015363Y006262D01*
X011587Y006420D02*
X009139Y006420D01*
X009139Y006579D02*
X010515Y006579D01*
X010475Y006737D02*
X009139Y006737D01*
X008203Y006896D02*
X007905Y006896D01*
X007905Y007054D02*
X008147Y007054D01*
X007989Y007213D02*
X007905Y007213D01*
X007905Y006737D02*
X008149Y006737D01*
X008149Y006579D02*
X007905Y006579D01*
X007878Y006420D02*
X008149Y006420D01*
X005530Y007530D02*
X005429Y007530D01*
X005270Y007688D02*
X005689Y007688D01*
X004689Y007688D02*
X004645Y007688D01*
X007236Y008164D02*
X007455Y008164D01*
X007455Y008005D02*
X007433Y008005D01*
D26*
X007565Y008533D03*
X008065Y009133D03*
X007565Y009533D03*
X007565Y010233D03*
X008765Y010533D03*
X011265Y009733D03*
X011965Y009833D03*
X012765Y009133D03*
X013965Y009133D03*
X012465Y008633D03*
X010765Y007733D03*
X009565Y008333D03*
X010265Y008533D03*
X013365Y007133D03*
X014165Y007333D03*
X014365Y007033D03*
X015465Y006533D03*
X016965Y007133D03*
X016765Y007833D03*
X016065Y008333D03*
X016165Y008933D03*
X016765Y008933D03*
X017565Y009133D03*
X018665Y009433D03*
X019765Y009633D03*
X021365Y008833D03*
X019965Y008233D03*
X019365Y008233D03*
X021665Y007833D03*
X018665Y006633D03*
X021265Y006233D03*
X022465Y005533D03*
X019365Y005033D03*
X015465Y005433D03*
X014565Y005533D03*
X014065Y005733D03*
X013565Y005733D03*
X013065Y005733D03*
X012165Y006033D03*
X010565Y005833D03*
X010765Y006733D03*
X009465Y006733D03*
X007965Y005733D03*
X010865Y004533D03*
X009365Y003433D03*
X017765Y010333D03*
X017965Y011033D03*
X019265Y011533D03*
X017765Y012533D03*
X016865Y013133D03*
X015865Y012333D03*
X014365Y011533D03*
X014765Y011233D03*
X014965Y010733D03*
X014565Y010533D03*
X013865Y010533D03*
X012465Y010633D03*
X011565Y010933D03*
X012465Y011333D03*
X014065Y013133D03*
D27*
X013314Y012707D02*
X012639Y012707D01*
X012465Y012533D01*
X012465Y012059D01*
X012565Y011959D01*
X011905Y011959D01*
X011865Y011999D01*
X010994Y011999D01*
X010759Y012233D01*
X010765Y012240D01*
X010765Y012733D01*
X010565Y012933D01*
X007965Y012933D01*
X012565Y011959D02*
X013314Y011959D01*
X014417Y011959D02*
X015326Y011959D01*
X015365Y011999D01*
X014765Y011399D01*
X014765Y011233D01*
M02*
