G75*
%MOIN*%
%OFA0B0*%
%FSLAX24Y24*%
%IPPOS*%
%LPD*%
%AMOC8*
5,1,8,0,0,1.08239X$1,22.5*
%
%ADD10C,0.0000*%
%ADD11R,0.0474X0.0513*%
%ADD12R,0.0513X0.0474*%
%ADD13R,0.0552X0.0552*%
%ADD14R,0.0474X0.1891*%
%ADD15R,0.0710X0.1419*%
%ADD16R,0.0138X0.0374*%
%ADD17R,0.0374X0.0138*%
%ADD18C,0.0820*%
%ADD19C,0.0650*%
%ADD20OC8,0.0820*%
%ADD21R,0.0710X0.0277*%
%ADD22R,0.0395X0.0552*%
%ADD23R,0.0237X0.0474*%
%ADD24R,0.0159X0.0159*%
%ADD25C,0.0050*%
%ADD26C,0.2180*%
%ADD27R,0.0710X0.0986*%
D10*
X005835Y002933D02*
X021395Y002933D01*
X021467Y002935D01*
X021538Y002941D01*
X021609Y002950D01*
X021680Y002963D01*
X021750Y002980D01*
X021818Y003000D01*
X021886Y003024D01*
X021952Y003051D01*
X022017Y003082D01*
X022080Y003117D01*
X022141Y003154D01*
X022200Y003195D01*
X022257Y003238D01*
X022312Y003285D01*
X022364Y003334D01*
X022413Y003386D01*
X022460Y003441D01*
X022503Y003498D01*
X022544Y003557D01*
X022581Y003618D01*
X022616Y003681D01*
X022647Y003746D01*
X022674Y003812D01*
X022698Y003880D01*
X022718Y003948D01*
X022735Y004018D01*
X022748Y004089D01*
X022757Y004160D01*
X022763Y004231D01*
X022765Y004303D01*
X022765Y012063D01*
X022763Y012135D01*
X022757Y012206D01*
X022748Y012277D01*
X022735Y012348D01*
X022718Y012418D01*
X022698Y012486D01*
X022674Y012554D01*
X022647Y012620D01*
X022616Y012685D01*
X022581Y012748D01*
X022544Y012809D01*
X022503Y012868D01*
X022460Y012925D01*
X022413Y012980D01*
X022364Y013032D01*
X022312Y013081D01*
X022257Y013128D01*
X022200Y013171D01*
X022141Y013212D01*
X022080Y013249D01*
X022017Y013284D01*
X021952Y013315D01*
X021886Y013342D01*
X021818Y013366D01*
X021750Y013386D01*
X021680Y013403D01*
X021609Y013416D01*
X021538Y013425D01*
X021467Y013431D01*
X021395Y013433D01*
X005835Y013433D01*
X005763Y013431D01*
X005692Y013425D01*
X005621Y013416D01*
X005550Y013403D01*
X005480Y013386D01*
X005412Y013366D01*
X005344Y013342D01*
X005278Y013315D01*
X005213Y013284D01*
X005150Y013249D01*
X005089Y013212D01*
X005030Y013171D01*
X004973Y013128D01*
X004918Y013081D01*
X004866Y013032D01*
X004817Y012980D01*
X004770Y012925D01*
X004727Y012868D01*
X004686Y012809D01*
X004649Y012748D01*
X004614Y012685D01*
X004583Y012620D01*
X004556Y012554D01*
X004532Y012486D01*
X004512Y012418D01*
X004495Y012348D01*
X004482Y012277D01*
X004473Y012206D01*
X004467Y012135D01*
X004465Y012063D01*
X004465Y004303D01*
X004467Y004231D01*
X004473Y004160D01*
X004482Y004089D01*
X004495Y004018D01*
X004512Y003948D01*
X004532Y003880D01*
X004556Y003812D01*
X004583Y003746D01*
X004614Y003681D01*
X004649Y003618D01*
X004686Y003557D01*
X004727Y003498D01*
X004770Y003441D01*
X004817Y003386D01*
X004866Y003334D01*
X004918Y003285D01*
X004973Y003238D01*
X005030Y003195D01*
X005089Y003154D01*
X005150Y003117D01*
X005213Y003082D01*
X005278Y003051D01*
X005344Y003024D01*
X005412Y003000D01*
X005480Y002980D01*
X005550Y002963D01*
X005621Y002950D01*
X005692Y002941D01*
X005763Y002935D01*
X005835Y002933D01*
D11*
X008865Y006899D03*
X008865Y007568D03*
X012965Y007899D03*
X014165Y007899D03*
X014165Y008568D03*
X012965Y008568D03*
X016865Y006568D03*
X016865Y005899D03*
X016865Y005168D03*
X016865Y004499D03*
X018565Y010399D03*
X018565Y011068D03*
D12*
X020231Y010233D03*
X020900Y010233D03*
X020900Y009533D03*
X020231Y009533D03*
X019600Y008733D03*
X018931Y008733D03*
G36*
X015389Y009645D02*
X015750Y009284D01*
X015415Y008949D01*
X015054Y009310D01*
X015389Y009645D01*
G37*
G36*
X014916Y010118D02*
X015277Y009757D01*
X014942Y009422D01*
X014581Y009783D01*
X014916Y010118D01*
G37*
X011100Y009033D03*
X010431Y009033D03*
X007000Y009333D03*
X006331Y009333D03*
X006331Y008533D03*
X007000Y008533D03*
X007000Y010133D03*
X006331Y010133D03*
X012731Y012133D03*
X013400Y012133D03*
X015531Y013033D03*
X016200Y013033D03*
X017431Y013033D03*
X018100Y013033D03*
X009500Y005733D03*
X008831Y005733D03*
D13*
X005679Y008533D03*
X004852Y008533D03*
X004852Y009333D03*
X005679Y009333D03*
X005679Y010133D03*
X004852Y010133D03*
X012652Y012833D03*
X013479Y012833D03*
X021552Y010233D03*
X022379Y010233D03*
X022379Y009533D03*
X021552Y009533D03*
D14*
X010759Y010677D03*
X009972Y010677D03*
D15*
X009027Y012724D03*
X011704Y012724D03*
D16*
X015973Y011940D03*
X016170Y011940D03*
X016367Y011940D03*
X016564Y011940D03*
X016761Y011940D03*
X016957Y011940D03*
X016957Y010326D03*
X016761Y010326D03*
X016564Y010326D03*
X016367Y010326D03*
X016170Y010326D03*
X015973Y010326D03*
D17*
X015658Y010641D03*
X015658Y010838D03*
X015658Y011035D03*
X015658Y011232D03*
X015658Y011429D03*
X015658Y011625D03*
X017272Y011625D03*
X017272Y011429D03*
X017272Y011232D03*
X017272Y011035D03*
X017272Y010838D03*
X017272Y010641D03*
D18*
X007965Y011933D03*
X007965Y012933D03*
X011065Y003433D03*
X012065Y003433D03*
X013065Y003433D03*
X014065Y003433D03*
X015065Y003433D03*
X016065Y003433D03*
D19*
X010759Y012233D03*
X009972Y012233D03*
D20*
X006979Y007229D03*
X005979Y007229D03*
X004979Y007229D03*
X004979Y006229D03*
X005979Y006229D03*
X006979Y006229D03*
D21*
X010214Y006495D03*
X010214Y006987D03*
X011317Y006987D03*
X011317Y006495D03*
X011317Y007479D03*
X011317Y007972D03*
X010214Y007972D03*
X010214Y007479D03*
D22*
X010511Y005133D03*
X011220Y005133D03*
D23*
X019772Y006103D03*
X020165Y006103D03*
X020559Y006103D03*
X020559Y007363D03*
X020165Y007363D03*
X019772Y007363D03*
D24*
X020165Y006733D03*
D25*
X019831Y006448D02*
X020648Y006448D01*
X020648Y007038D01*
X019693Y007038D01*
X019693Y006586D01*
X019831Y006448D01*
X019805Y006474D02*
X020648Y006474D01*
X020648Y006522D02*
X019756Y006522D01*
X019708Y006571D02*
X020648Y006571D01*
X020648Y006619D02*
X019693Y006619D01*
X019693Y006668D02*
X020648Y006668D01*
X020648Y006716D02*
X019693Y006716D01*
X019693Y006765D02*
X020648Y006765D01*
X020648Y006813D02*
X019693Y006813D01*
X019693Y006862D02*
X020648Y006862D01*
X020648Y006910D02*
X019693Y006910D01*
X019693Y006959D02*
X020648Y006959D01*
X020648Y007007D02*
X019693Y007007D01*
D26*
X021365Y004333D03*
X005865Y004333D03*
X005865Y012033D03*
X021365Y012033D03*
D27*
X021965Y008673D03*
X021965Y006193D03*
M02*
