G75*
%MOIN*%
%OFA0B0*%
%FSLAX24Y24*%
%IPPOS*%
%LPD*%
%AMOC8*
5,1,8,0,0,1.08239X$1,22.5*
%
%ADD10C,0.0000*%
%ADD11R,0.0394X0.0433*%
%ADD12R,0.0433X0.0394*%
%ADD13R,0.0472X0.0472*%
%ADD14R,0.0394X0.1811*%
%ADD15R,0.0630X0.1339*%
%ADD16R,0.0354X0.0118*%
%ADD17R,0.0118X0.0354*%
%ADD18C,0.0740*%
%ADD19C,0.0570*%
%ADD20OC8,0.0740*%
%ADD21R,0.0630X0.0197*%
%ADD22R,0.0630X0.0709*%
%ADD23R,0.0157X0.0394*%
%ADD24R,0.0079X0.0079*%
%ADD25C,0.0050*%
%ADD26C,0.2100*%
%ADD27R,0.0630X0.0906*%
%ADD28C,0.0160*%
%ADD29C,0.0260*%
%ADD30C,0.0100*%
%ADD31C,0.0320*%
D10*
X005835Y002933D02*
X021395Y002933D01*
X021467Y002935D01*
X021538Y002941D01*
X021609Y002950D01*
X021680Y002963D01*
X021750Y002980D01*
X021818Y003000D01*
X021886Y003024D01*
X021952Y003051D01*
X022017Y003082D01*
X022080Y003117D01*
X022141Y003154D01*
X022200Y003195D01*
X022257Y003238D01*
X022312Y003285D01*
X022364Y003334D01*
X022413Y003386D01*
X022460Y003441D01*
X022503Y003498D01*
X022544Y003557D01*
X022581Y003618D01*
X022616Y003681D01*
X022647Y003746D01*
X022674Y003812D01*
X022698Y003880D01*
X022718Y003948D01*
X022735Y004018D01*
X022748Y004089D01*
X022757Y004160D01*
X022763Y004231D01*
X022765Y004303D01*
X022765Y012063D01*
X022763Y012135D01*
X022757Y012206D01*
X022748Y012277D01*
X022735Y012348D01*
X022718Y012418D01*
X022698Y012486D01*
X022674Y012554D01*
X022647Y012620D01*
X022616Y012685D01*
X022581Y012748D01*
X022544Y012809D01*
X022503Y012868D01*
X022460Y012925D01*
X022413Y012980D01*
X022364Y013032D01*
X022312Y013081D01*
X022257Y013128D01*
X022200Y013171D01*
X022141Y013212D01*
X022080Y013249D01*
X022017Y013284D01*
X021952Y013315D01*
X021886Y013342D01*
X021818Y013366D01*
X021750Y013386D01*
X021680Y013403D01*
X021609Y013416D01*
X021538Y013425D01*
X021467Y013431D01*
X021395Y013433D01*
X005835Y013433D01*
X005763Y013431D01*
X005692Y013425D01*
X005621Y013416D01*
X005550Y013403D01*
X005480Y013386D01*
X005412Y013366D01*
X005344Y013342D01*
X005278Y013315D01*
X005213Y013284D01*
X005150Y013249D01*
X005089Y013212D01*
X005030Y013171D01*
X004973Y013128D01*
X004918Y013081D01*
X004866Y013032D01*
X004817Y012980D01*
X004770Y012925D01*
X004727Y012868D01*
X004686Y012809D01*
X004649Y012748D01*
X004614Y012685D01*
X004583Y012620D01*
X004556Y012554D01*
X004532Y012486D01*
X004512Y012418D01*
X004495Y012348D01*
X004482Y012277D01*
X004473Y012206D01*
X004467Y012135D01*
X004465Y012063D01*
X004465Y004303D01*
X004467Y004231D01*
X004473Y004160D01*
X004482Y004089D01*
X004495Y004018D01*
X004512Y003948D01*
X004532Y003880D01*
X004556Y003812D01*
X004583Y003746D01*
X004614Y003681D01*
X004649Y003618D01*
X004686Y003557D01*
X004727Y003498D01*
X004770Y003441D01*
X004817Y003386D01*
X004866Y003334D01*
X004918Y003285D01*
X004973Y003238D01*
X005030Y003195D01*
X005089Y003154D01*
X005150Y003117D01*
X005213Y003082D01*
X005278Y003051D01*
X005344Y003024D01*
X005412Y003000D01*
X005480Y002980D01*
X005550Y002963D01*
X005621Y002950D01*
X005692Y002941D01*
X005763Y002935D01*
X005835Y002933D01*
D11*
X008865Y006899D03*
X008865Y007568D03*
X012965Y007899D03*
X014165Y007899D03*
X014165Y008568D03*
X012965Y008568D03*
X016865Y006568D03*
X016865Y005899D03*
X016865Y005168D03*
X016865Y004499D03*
X018565Y010399D03*
X018565Y011068D03*
D12*
X020231Y010233D03*
X020900Y010233D03*
X020900Y009533D03*
X020231Y009533D03*
X019600Y008733D03*
X018931Y008733D03*
G36*
X015389Y009589D02*
X015694Y009284D01*
X015415Y009005D01*
X015110Y009310D01*
X015389Y009589D01*
G37*
G36*
X014916Y010062D02*
X015221Y009757D01*
X014942Y009478D01*
X014637Y009783D01*
X014916Y010062D01*
G37*
X011100Y009033D03*
X010431Y009033D03*
X007000Y009333D03*
X006331Y009333D03*
X006331Y008533D03*
X007000Y008533D03*
X007000Y010133D03*
X006331Y010133D03*
X012731Y012133D03*
X013400Y012133D03*
X015531Y013033D03*
X016200Y013033D03*
X017431Y013033D03*
X018100Y013033D03*
X009500Y005733D03*
X008831Y005733D03*
D13*
X005679Y008533D03*
X004852Y008533D03*
X004852Y009333D03*
X005679Y009333D03*
X005679Y010133D03*
X004852Y010133D03*
X012652Y012833D03*
X013479Y012833D03*
X021552Y010233D03*
X022379Y010233D03*
X022379Y009533D03*
X021552Y009533D03*
D14*
X010759Y010677D03*
X009972Y010677D03*
D15*
X009027Y012724D03*
X011704Y012724D03*
D16*
X015658Y011625D03*
X015658Y011429D03*
X015658Y011232D03*
X015658Y011035D03*
X015658Y010838D03*
X015658Y010641D03*
X017272Y010641D03*
X017272Y010838D03*
X017272Y011035D03*
X017272Y011232D03*
X017272Y011429D03*
X017272Y011625D03*
D17*
X016957Y011940D03*
X016761Y011940D03*
X016564Y011940D03*
X016367Y011940D03*
X016170Y011940D03*
X015973Y011940D03*
X015973Y010326D03*
X016170Y010326D03*
X016367Y010326D03*
X016564Y010326D03*
X016761Y010326D03*
X016957Y010326D03*
D18*
X007965Y011933D03*
X007965Y012933D03*
X011065Y003433D03*
X012065Y003433D03*
X013065Y003433D03*
X014065Y003433D03*
X015065Y003433D03*
X016065Y003433D03*
D19*
X010759Y012233D03*
X009972Y012233D03*
D20*
X006979Y007229D03*
X005979Y007229D03*
X004979Y007229D03*
X004979Y006229D03*
X005979Y006229D03*
X006979Y006229D03*
D21*
X010214Y006495D03*
X010214Y006987D03*
X011317Y006987D03*
X011317Y006495D03*
X011317Y007479D03*
X011317Y007972D03*
X010214Y007972D03*
X010214Y007479D03*
D22*
X010314Y005133D03*
X011417Y005133D03*
D23*
X019772Y006103D03*
X020165Y006103D03*
X020559Y006103D03*
X020559Y007363D03*
X020165Y007363D03*
X019772Y007363D03*
D24*
X020165Y006733D03*
D25*
X019850Y006438D02*
X019693Y006596D01*
X019693Y007029D01*
X020638Y007029D01*
X020638Y006438D01*
X019850Y006438D01*
X019815Y006474D02*
X020638Y006474D01*
X020638Y006522D02*
X019766Y006522D01*
X019718Y006571D02*
X020638Y006571D01*
X020638Y006619D02*
X019693Y006619D01*
X019693Y006668D02*
X020638Y006668D01*
X020638Y006716D02*
X019693Y006716D01*
X019693Y006765D02*
X020638Y006765D01*
X020638Y006813D02*
X019693Y006813D01*
X019693Y006862D02*
X020638Y006862D01*
X020638Y006910D02*
X019693Y006910D01*
X019693Y006959D02*
X020638Y006959D01*
X020638Y007007D02*
X019693Y007007D01*
D26*
X021365Y004333D03*
X005865Y004333D03*
X005865Y012033D03*
X021365Y012033D03*
D27*
X021965Y008673D03*
X021965Y006193D03*
D28*
X021490Y006262D02*
X020798Y006262D01*
X020798Y006308D02*
X020802Y006312D01*
X020829Y006359D01*
X020843Y006411D01*
X020843Y006733D01*
X020165Y006733D01*
X020165Y006733D01*
X020165Y006103D01*
X020165Y006103D01*
X020165Y006103D01*
X020165Y005727D01*
X020063Y005727D01*
X020017Y005739D01*
X019976Y005763D01*
X019954Y005784D01*
X019917Y005747D01*
X019627Y005747D01*
X019533Y005840D01*
X019533Y005893D01*
X019508Y005893D01*
X019385Y006016D01*
X019385Y006016D01*
X019178Y006223D01*
X019178Y006223D01*
X019055Y006346D01*
X019055Y007046D01*
X017978Y008123D01*
X016265Y008123D01*
X016230Y008087D01*
X016123Y008043D01*
X016008Y008043D01*
X015901Y008087D01*
X015819Y008169D01*
X015775Y008276D01*
X015775Y008326D01*
X015706Y008396D01*
X014925Y008396D01*
X014552Y008023D01*
X014522Y008023D01*
X014522Y007616D01*
X014428Y007522D01*
X014387Y007522D01*
X014411Y007498D01*
X014455Y007391D01*
X014455Y007310D01*
X014530Y007279D01*
X014611Y007198D01*
X014655Y007091D01*
X014655Y006976D01*
X014611Y006869D01*
X014530Y006787D01*
X014423Y006743D01*
X014308Y006743D01*
X014201Y006787D01*
X014119Y006869D01*
X014075Y006976D01*
X014075Y007057D01*
X014001Y007087D01*
X013919Y007169D01*
X013875Y007276D01*
X013875Y007312D01*
X013833Y007269D01*
X011746Y007269D01*
X011710Y007233D01*
X011791Y007152D01*
X011791Y006823D01*
X011710Y006741D01*
X011791Y006660D01*
X011791Y006330D01*
X011698Y006237D01*
X010935Y006237D01*
X010842Y006330D01*
X010842Y006451D01*
X010823Y006443D01*
X010708Y006443D01*
X010689Y006451D01*
X010689Y006330D01*
X010595Y006237D01*
X010459Y006237D01*
X010572Y006123D01*
X010623Y006123D01*
X010730Y006079D01*
X010811Y005998D01*
X010855Y005891D01*
X010855Y005776D01*
X010811Y005669D01*
X010743Y005600D01*
X010789Y005554D01*
X010789Y004713D01*
X010695Y004619D01*
X009933Y004619D01*
X009839Y004713D01*
X009839Y005433D01*
X009783Y005376D01*
X009775Y005376D01*
X009775Y004720D01*
X010052Y004443D01*
X014452Y004443D01*
X014940Y003955D01*
X014960Y003963D01*
X015171Y003963D01*
X015366Y003883D01*
X015515Y003734D01*
X015565Y003611D01*
X015616Y003734D01*
X015765Y003883D01*
X015960Y003963D01*
X016171Y003963D01*
X016366Y003883D01*
X016442Y003807D01*
X016655Y004020D01*
X016655Y004122D01*
X016602Y004122D01*
X016508Y004216D01*
X016508Y004781D01*
X016560Y004833D01*
X016508Y004885D01*
X016508Y005451D01*
X016591Y005533D01*
X016508Y005616D01*
X016508Y005689D01*
X016413Y005689D01*
X016178Y005923D01*
X016055Y006046D01*
X016055Y007420D01*
X016475Y007840D01*
X016475Y007891D01*
X016519Y007998D01*
X016601Y008079D01*
X016708Y008123D01*
X016823Y008123D01*
X016930Y008079D01*
X017011Y007998D01*
X017055Y007891D01*
X017055Y007776D01*
X017011Y007669D01*
X016930Y007587D01*
X016823Y007543D01*
X016772Y007543D01*
X016475Y007246D01*
X016475Y006220D01*
X016511Y006184D01*
X016560Y006233D01*
X016508Y006285D01*
X016508Y006851D01*
X016602Y006945D01*
X016655Y006945D01*
X016655Y007120D01*
X016675Y007140D01*
X016675Y007191D01*
X016719Y007298D01*
X016801Y007379D01*
X016908Y007423D01*
X017023Y007423D01*
X017130Y007379D01*
X017211Y007298D01*
X017255Y007191D01*
X017255Y007076D01*
X017211Y006969D01*
X017158Y006915D01*
X017222Y006851D01*
X017222Y006285D01*
X017170Y006233D01*
X017222Y006181D01*
X017222Y005616D01*
X017140Y005533D01*
X017222Y005451D01*
X017222Y004885D01*
X017170Y004833D01*
X017222Y004781D01*
X017222Y004216D01*
X017128Y004122D01*
X017075Y004122D01*
X017075Y003846D01*
X016952Y003723D01*
X016595Y003366D01*
X016595Y003328D01*
X016515Y003133D01*
X016495Y003113D01*
X021208Y003113D01*
X021159Y003119D01*
X021024Y003150D01*
X020894Y003195D01*
X020769Y003255D01*
X020652Y003329D01*
X020544Y003415D01*
X020447Y003512D01*
X020361Y003620D01*
X020287Y003737D01*
X020227Y003862D01*
X020182Y003992D01*
X020151Y004127D01*
X020137Y004253D01*
X021285Y004253D01*
X021285Y004413D01*
X020137Y004413D01*
X020151Y004540D01*
X020182Y004674D01*
X020227Y004805D01*
X020287Y004929D01*
X020361Y005046D01*
X020447Y005154D01*
X020544Y005252D01*
X020652Y005338D01*
X020769Y005412D01*
X020894Y005471D01*
X021024Y005517D01*
X021159Y005548D01*
X021285Y005562D01*
X021285Y004413D01*
X021445Y004413D01*
X021445Y005562D01*
X021572Y005548D01*
X021706Y005517D01*
X021837Y005471D01*
X021961Y005412D01*
X022078Y005338D01*
X022186Y005252D01*
X022284Y005154D01*
X022370Y005046D01*
X022444Y004929D01*
X022503Y004805D01*
X022549Y004674D01*
X022580Y004540D01*
X022585Y004491D01*
X022585Y005269D01*
X022523Y005243D01*
X022408Y005243D01*
X022301Y005287D01*
X022219Y005369D01*
X022175Y005476D01*
X022175Y005580D01*
X021584Y005580D01*
X021490Y005674D01*
X021490Y006712D01*
X021584Y006806D01*
X022347Y006806D01*
X022440Y006712D01*
X022440Y006015D01*
X022585Y005870D01*
X022585Y009117D01*
X022460Y009117D01*
X022460Y008751D01*
X022043Y008751D01*
X022043Y008596D01*
X022460Y008596D01*
X022460Y008197D01*
X022448Y008151D01*
X022424Y008110D01*
X022391Y008077D01*
X022350Y008053D01*
X022304Y008041D01*
X022043Y008041D01*
X022043Y008596D01*
X021888Y008596D01*
X021888Y008041D01*
X021627Y008041D01*
X021581Y008053D01*
X021540Y008077D01*
X021506Y008110D01*
X021483Y008151D01*
X021470Y008197D01*
X021470Y008563D01*
X021423Y008543D01*
X021308Y008543D01*
X021201Y008587D01*
X021119Y008669D01*
X021075Y008776D01*
X021075Y008891D01*
X021119Y008998D01*
X021201Y009079D01*
X021308Y009123D01*
X021423Y009123D01*
X021470Y009104D01*
X021470Y009137D01*
X021249Y009137D01*
X021196Y009190D01*
X021183Y009176D01*
X020617Y009176D01*
X020565Y009228D01*
X020513Y009176D01*
X020441Y009176D01*
X020441Y008412D01*
X020318Y008289D01*
X020255Y008226D01*
X020255Y008176D01*
X020211Y008069D01*
X020130Y007987D01*
X020044Y007952D01*
X020276Y007720D01*
X020310Y007720D01*
X020362Y007668D01*
X020414Y007720D01*
X020704Y007720D01*
X020798Y007626D01*
X020798Y007159D01*
X020802Y007154D01*
X020829Y007108D01*
X020843Y007056D01*
X020843Y006733D01*
X020165Y006733D01*
X019488Y006733D01*
X019488Y006569D01*
X019502Y006516D01*
X019529Y006470D01*
X019567Y006431D01*
X019582Y006416D01*
X019581Y006415D01*
X019475Y006520D01*
X019475Y007220D01*
X019352Y007343D01*
X018972Y007723D01*
X019115Y007723D01*
X019533Y007305D01*
X019533Y007159D01*
X019529Y007154D01*
X019502Y007108D01*
X019488Y007056D01*
X019488Y006733D01*
X020165Y006733D01*
X020165Y006733D01*
X020165Y006480D01*
X020165Y006103D01*
X020165Y005727D01*
X020268Y005727D01*
X020314Y005739D01*
X020355Y005763D01*
X020376Y005784D01*
X020414Y005747D01*
X020704Y005747D01*
X020798Y005840D01*
X020798Y006308D01*
X020843Y006420D02*
X021490Y006420D01*
X021490Y006579D02*
X020843Y006579D01*
X020843Y006737D02*
X021515Y006737D01*
X020843Y006896D02*
X022585Y006896D01*
X022585Y007054D02*
X020843Y007054D01*
X020798Y007213D02*
X022585Y007213D01*
X022585Y007371D02*
X020798Y007371D01*
X020798Y007530D02*
X022585Y007530D01*
X022585Y007688D02*
X020736Y007688D01*
X020382Y007688D02*
X020342Y007688D01*
X020149Y007847D02*
X022585Y007847D01*
X022585Y008005D02*
X020147Y008005D01*
X020250Y008164D02*
X021479Y008164D01*
X021470Y008322D02*
X020351Y008322D01*
X020441Y008481D02*
X021470Y008481D01*
X021149Y008639D02*
X020441Y008639D01*
X020441Y008798D02*
X021075Y008798D01*
X021102Y008956D02*
X020441Y008956D01*
X020441Y009115D02*
X021287Y009115D01*
X021444Y009115D02*
X021470Y009115D01*
X021888Y009115D02*
X022043Y009115D01*
X022043Y009147D02*
X022043Y008751D01*
X021888Y008751D01*
X021888Y009171D01*
X021948Y009231D01*
X021948Y009836D01*
X021901Y009883D01*
X021948Y009931D01*
X021948Y010536D01*
X021854Y010630D01*
X021249Y010630D01*
X021196Y010577D01*
X021183Y010590D01*
X020617Y010590D01*
X020565Y010538D01*
X020513Y010590D01*
X019948Y010590D01*
X019854Y010496D01*
X019854Y010443D01*
X019378Y010443D01*
X019255Y010320D01*
X018658Y009723D01*
X018608Y009723D01*
X018501Y009679D01*
X018419Y009598D01*
X018375Y009491D01*
X018375Y009376D01*
X018419Y009269D01*
X018501Y009187D01*
X018608Y009143D01*
X018723Y009143D01*
X018830Y009187D01*
X018911Y009269D01*
X018955Y009376D01*
X018955Y009426D01*
X019552Y010023D01*
X019854Y010023D01*
X019854Y009970D01*
X019941Y009883D01*
X019933Y009876D01*
X019930Y009879D01*
X019823Y009923D01*
X019708Y009923D01*
X019601Y009879D01*
X019519Y009798D01*
X019475Y009691D01*
X019475Y009576D01*
X019519Y009469D01*
X019601Y009387D01*
X019708Y009343D01*
X019823Y009343D01*
X019854Y009356D01*
X019854Y009270D01*
X019948Y009176D01*
X020021Y009176D01*
X020021Y008586D01*
X019977Y008541D01*
X019977Y008996D01*
X019883Y009090D01*
X019317Y009090D01*
X019279Y009052D01*
X019258Y009074D01*
X019217Y009098D01*
X019171Y009110D01*
X018949Y009110D01*
X018949Y008752D01*
X018912Y008752D01*
X018912Y009110D01*
X018690Y009110D01*
X018645Y009098D01*
X018604Y009074D01*
X018570Y009041D01*
X018546Y009000D01*
X018534Y008954D01*
X018534Y008752D01*
X018912Y008752D01*
X018912Y008715D01*
X018534Y008715D01*
X018534Y008513D01*
X018546Y008467D01*
X018570Y008426D01*
X018604Y008392D01*
X018645Y008369D01*
X018690Y008356D01*
X018912Y008356D01*
X018912Y008715D01*
X018949Y008715D01*
X018949Y008356D01*
X019102Y008356D01*
X019075Y008291D01*
X019075Y008176D01*
X019089Y008143D01*
X018852Y008143D01*
X018252Y008743D01*
X016985Y008743D01*
X017011Y008769D01*
X017055Y008876D01*
X017055Y008991D01*
X017011Y009098D01*
X016975Y009133D01*
X016975Y009146D01*
X017175Y009346D01*
X017175Y010082D01*
X017177Y010083D01*
X017177Y010246D01*
X017191Y010273D01*
X017177Y010324D01*
X017177Y010402D01*
X017272Y010402D01*
X017272Y010619D01*
X017272Y010619D01*
X017272Y010402D01*
X017473Y010402D01*
X017519Y010414D01*
X017560Y010438D01*
X017594Y010472D01*
X017617Y010513D01*
X017630Y010558D01*
X017630Y010641D01*
X017538Y010641D01*
X017538Y010641D01*
X017630Y010641D01*
X017630Y010724D01*
X017617Y010770D01*
X017610Y010783D01*
X017610Y010823D01*
X017765Y010823D01*
X017801Y010787D01*
X017908Y010743D01*
X018023Y010743D01*
X018130Y010787D01*
X018165Y010823D01*
X018208Y010823D01*
X018208Y010785D01*
X018246Y010747D01*
X018224Y010726D01*
X018201Y010685D01*
X018188Y010639D01*
X018188Y010417D01*
X018547Y010417D01*
X018547Y010380D01*
X018584Y010380D01*
X018584Y010417D01*
X018942Y010417D01*
X018942Y010639D01*
X018930Y010685D01*
X018906Y010726D01*
X018884Y010747D01*
X018922Y010785D01*
X018922Y011351D01*
X018828Y011445D01*
X018302Y011445D01*
X018208Y011351D01*
X018208Y011243D01*
X018165Y011243D01*
X018130Y011279D01*
X018023Y011323D01*
X017908Y011323D01*
X017801Y011279D01*
X017765Y011243D01*
X017610Y011243D01*
X017610Y011751D01*
X017516Y011845D01*
X017177Y011845D01*
X017177Y012184D01*
X017083Y012278D01*
X017007Y012278D01*
X017052Y012323D01*
X017565Y012323D01*
X017601Y012287D01*
X017708Y012243D01*
X017823Y012243D01*
X017930Y012287D01*
X018011Y012369D01*
X018020Y012391D01*
X018075Y012446D01*
X018305Y012676D01*
X018383Y012676D01*
X018477Y012770D01*
X018477Y013253D01*
X021208Y013253D01*
X021159Y013248D01*
X021024Y013217D01*
X020894Y013171D01*
X020769Y013112D01*
X020652Y013038D01*
X020544Y012952D01*
X020447Y012854D01*
X020361Y012746D01*
X020287Y012629D01*
X020227Y012505D01*
X020182Y012374D01*
X020151Y012240D01*
X020137Y012113D01*
X021285Y012113D01*
X021285Y011953D01*
X021445Y011953D01*
X021445Y010805D01*
X021572Y010819D01*
X021706Y010850D01*
X021837Y010895D01*
X021961Y010955D01*
X022078Y011029D01*
X022186Y011115D01*
X022284Y011212D01*
X022370Y011320D01*
X022444Y011437D01*
X022503Y011562D01*
X022549Y011692D01*
X022580Y011827D01*
X022585Y011876D01*
X022585Y010650D01*
X022417Y010650D01*
X022417Y010271D01*
X022341Y010271D01*
X022341Y010195D01*
X022417Y010195D01*
X022417Y009571D01*
X022341Y009571D01*
X022341Y009495D01*
X021962Y009495D01*
X021962Y009273D01*
X021963Y009273D02*
X021948Y009273D01*
X021962Y009273D02*
X021975Y009228D01*
X021998Y009187D01*
X022032Y009153D01*
X022043Y009147D01*
X022043Y008956D02*
X021888Y008956D01*
X021888Y008798D02*
X022043Y008798D01*
X022043Y008639D02*
X022585Y008639D01*
X022585Y008481D02*
X022460Y008481D01*
X022460Y008322D02*
X022585Y008322D01*
X022585Y008164D02*
X022451Y008164D01*
X022043Y008164D02*
X021888Y008164D01*
X021888Y008322D02*
X022043Y008322D01*
X022043Y008481D02*
X021888Y008481D01*
X022460Y008798D02*
X022585Y008798D01*
X022585Y008956D02*
X022460Y008956D01*
X022460Y009115D02*
X022585Y009115D01*
X021962Y009432D02*
X021948Y009432D01*
X021962Y009571D02*
X022341Y009571D01*
X022341Y009950D01*
X022341Y010195D01*
X021962Y010195D01*
X021962Y009973D01*
X021975Y009928D01*
X021998Y009887D01*
X022002Y009883D01*
X021998Y009880D01*
X021975Y009839D01*
X021962Y009793D01*
X021962Y009571D01*
X021962Y009590D02*
X021948Y009590D01*
X021948Y009749D02*
X021962Y009749D01*
X021986Y009907D02*
X021925Y009907D01*
X021948Y010066D02*
X021962Y010066D01*
X021948Y010224D02*
X022341Y010224D01*
X022341Y010271D02*
X021962Y010271D01*
X021962Y010493D01*
X021975Y010539D01*
X021998Y010580D01*
X022032Y010614D01*
X022073Y010637D01*
X022119Y010650D01*
X022341Y010650D01*
X022341Y010271D01*
X022341Y010383D02*
X022417Y010383D01*
X022417Y010541D02*
X022341Y010541D01*
X022585Y010700D02*
X018921Y010700D01*
X018922Y010858D02*
X020999Y010858D01*
X021024Y010850D02*
X021159Y010819D01*
X021285Y010805D01*
X021285Y011953D01*
X020137Y011953D01*
X020151Y011827D01*
X020182Y011692D01*
X020227Y011562D01*
X020287Y011437D01*
X020361Y011320D01*
X020447Y011212D01*
X020544Y011115D01*
X020652Y011029D01*
X020769Y010955D01*
X020894Y010895D01*
X021024Y010850D01*
X021285Y010858D02*
X021445Y010858D01*
X021445Y011017D02*
X021285Y011017D01*
X021285Y011175D02*
X021445Y011175D01*
X021445Y011334D02*
X021285Y011334D01*
X021285Y011492D02*
X021445Y011492D01*
X021445Y011651D02*
X021285Y011651D01*
X021285Y011809D02*
X021445Y011809D01*
X021285Y011968D02*
X017177Y011968D01*
X017177Y012126D02*
X020138Y012126D01*
X020161Y012285D02*
X017923Y012285D01*
X018072Y012443D02*
X020206Y012443D01*
X020274Y012602D02*
X018231Y012602D01*
X018467Y012760D02*
X020372Y012760D01*
X020511Y012919D02*
X018477Y012919D01*
X018477Y013077D02*
X020715Y013077D01*
X021106Y013236D02*
X018477Y013236D01*
X017412Y013052D02*
X017412Y013015D01*
X017034Y013015D01*
X017034Y012813D01*
X017046Y012767D01*
X017060Y012743D01*
X016878Y012743D01*
X016755Y012620D01*
X016577Y012442D01*
X016577Y012953D01*
X016577Y012954D01*
X016577Y013253D01*
X017034Y013253D01*
X017034Y013052D01*
X017412Y013052D01*
X017034Y013077D02*
X016577Y013077D01*
X016577Y012919D02*
X017034Y012919D01*
X017050Y012760D02*
X016577Y012760D01*
X016577Y012602D02*
X016737Y012602D01*
X016578Y012443D02*
X016577Y012443D01*
X016157Y012443D02*
X016134Y012443D01*
X016155Y012391D02*
X016111Y012498D01*
X016030Y012579D01*
X015923Y012623D01*
X015808Y012623D01*
X015701Y012579D01*
X015619Y012498D01*
X015575Y012391D01*
X015575Y012276D01*
X015619Y012169D01*
X015701Y012087D01*
X015754Y012065D01*
X015754Y011845D01*
X015415Y011845D01*
X015406Y011835D01*
X015070Y011835D01*
X014758Y011523D01*
X014708Y011523D01*
X014655Y011502D01*
X014655Y011591D01*
X014611Y011698D01*
X014530Y011779D01*
X014423Y011823D01*
X014308Y011823D01*
X014201Y011779D01*
X014119Y011698D01*
X014075Y011591D01*
X014075Y011476D01*
X014119Y011369D01*
X014201Y011287D01*
X014308Y011243D01*
X014423Y011243D01*
X014475Y011265D01*
X014475Y011176D01*
X014519Y011069D01*
X014601Y010987D01*
X014708Y010943D01*
X014823Y010943D01*
X014930Y010987D01*
X015011Y011069D01*
X015055Y011176D01*
X015055Y011226D01*
X015244Y011415D01*
X015321Y011415D01*
X015321Y011374D01*
X015313Y011360D01*
X015301Y011315D01*
X015301Y011232D01*
X015393Y011232D01*
X015393Y011232D01*
X015393Y011232D01*
X015301Y011232D01*
X015301Y011149D01*
X015313Y011103D01*
X015321Y011090D01*
X015321Y010980D01*
X015313Y010967D01*
X015301Y010921D01*
X015301Y010838D01*
X015301Y010755D01*
X015305Y010740D01*
X015301Y010724D01*
X015301Y010641D01*
X015301Y010558D01*
X015313Y010513D01*
X015337Y010472D01*
X015371Y010438D01*
X015412Y010414D01*
X015457Y010402D01*
X015658Y010402D01*
X015658Y010641D01*
X015658Y010641D01*
X015658Y010402D01*
X015754Y010402D01*
X015754Y010083D01*
X015848Y009989D01*
X015924Y009989D01*
X015569Y009634D01*
X015454Y009749D01*
X015401Y009749D01*
X015401Y009780D01*
X015389Y009826D01*
X015365Y009867D01*
X015208Y010023D01*
X014955Y009770D01*
X014929Y009796D01*
X015182Y010049D01*
X015025Y010206D01*
X014984Y010230D01*
X014938Y010242D01*
X014891Y010242D01*
X014845Y010230D01*
X014804Y010206D01*
X014661Y010063D01*
X014929Y009796D01*
X014903Y009770D01*
X014929Y009744D01*
X014675Y009490D01*
X014832Y009334D01*
X014873Y009310D01*
X014919Y009298D01*
X014950Y009298D01*
X014950Y009244D01*
X015350Y008844D01*
X015482Y008844D01*
X015854Y009217D01*
X015854Y009325D01*
X016252Y009723D01*
X016375Y009846D01*
X016375Y009989D01*
X016555Y009989D01*
X016555Y009620D01*
X016158Y009223D01*
X016108Y009223D01*
X016001Y009179D01*
X015919Y009098D01*
X015875Y008991D01*
X015875Y008876D01*
X015914Y008781D01*
X015880Y008816D01*
X014751Y008816D01*
X014628Y008693D01*
X014522Y008587D01*
X014522Y008851D01*
X014428Y008945D01*
X014375Y008945D01*
X014375Y009020D01*
X014255Y009140D01*
X014255Y009191D01*
X014211Y009298D01*
X014130Y009379D01*
X014023Y009423D01*
X013908Y009423D01*
X013801Y009379D01*
X013719Y009298D01*
X013675Y009191D01*
X013675Y009076D01*
X013719Y008969D01*
X013801Y008887D01*
X013832Y008875D01*
X013808Y008851D01*
X013808Y008443D01*
X013478Y008443D01*
X013322Y008287D01*
X013322Y008851D01*
X013228Y008945D01*
X013175Y008945D01*
X013175Y009020D01*
X013055Y009140D01*
X013055Y009191D01*
X013011Y009298D01*
X012930Y009379D01*
X012823Y009423D01*
X012708Y009423D01*
X012601Y009379D01*
X012519Y009298D01*
X012475Y009191D01*
X012475Y009076D01*
X012519Y008969D01*
X012595Y008893D01*
X012523Y008923D01*
X012408Y008923D01*
X012301Y008879D01*
X012219Y008798D01*
X012175Y008691D01*
X012175Y008576D01*
X012219Y008469D01*
X012301Y008387D01*
X012408Y008343D01*
X012523Y008343D01*
X012608Y008379D01*
X012608Y008285D01*
X012660Y008233D01*
X012608Y008182D01*
X011746Y008182D01*
X011698Y008230D01*
X010935Y008230D01*
X010842Y008136D01*
X010842Y008016D01*
X010823Y008023D01*
X010708Y008023D01*
X010689Y008016D01*
X010689Y008136D01*
X010595Y008230D01*
X010475Y008230D01*
X010475Y008333D01*
X010511Y008369D01*
X010555Y008476D01*
X010555Y008526D01*
X010641Y008612D01*
X010641Y008676D01*
X010713Y008676D01*
X010751Y008714D01*
X010773Y008692D01*
X010814Y008669D01*
X010860Y008656D01*
X011082Y008656D01*
X011082Y009015D01*
X011118Y009015D01*
X011118Y008656D01*
X011340Y008656D01*
X011386Y008669D01*
X011427Y008692D01*
X011461Y008726D01*
X011484Y008767D01*
X011497Y008813D01*
X011497Y009015D01*
X011118Y009015D01*
X011118Y009052D01*
X011082Y009052D01*
X011082Y009410D01*
X010860Y009410D01*
X010814Y009398D01*
X010773Y009374D01*
X010751Y009352D01*
X010713Y009390D01*
X010148Y009390D01*
X010054Y009296D01*
X010054Y008770D01*
X010073Y008751D01*
X010019Y008698D01*
X009975Y008591D01*
X009975Y008476D01*
X010019Y008369D01*
X010055Y008333D01*
X010055Y008230D01*
X009836Y008230D01*
X009855Y008276D01*
X009855Y008391D01*
X009811Y008498D01*
X009775Y008533D01*
X009775Y008720D01*
X009652Y008843D01*
X008875Y009620D01*
X008752Y009743D01*
X008352Y009743D01*
X007855Y010240D01*
X007855Y010291D01*
X007811Y010398D01*
X007730Y010479D01*
X007623Y010523D01*
X007508Y010523D01*
X007401Y010479D01*
X007347Y010426D01*
X007283Y010490D01*
X006717Y010490D01*
X006665Y010438D01*
X006613Y010490D01*
X006048Y010490D01*
X006034Y010477D01*
X005981Y010530D01*
X005376Y010530D01*
X005282Y010436D01*
X005282Y009831D01*
X005376Y009737D01*
X005981Y009737D01*
X006034Y009790D01*
X006048Y009776D01*
X006613Y009776D01*
X006665Y009828D01*
X006717Y009776D01*
X007060Y009776D01*
X007146Y009690D01*
X006717Y009690D01*
X006665Y009638D01*
X006613Y009690D01*
X006048Y009690D01*
X006034Y009677D01*
X005981Y009730D01*
X005376Y009730D01*
X005282Y009636D01*
X005282Y009031D01*
X005376Y008937D01*
X005981Y008937D01*
X006034Y008990D01*
X006048Y008976D01*
X006613Y008976D01*
X006665Y009028D01*
X006717Y008976D01*
X007060Y008976D01*
X007146Y008890D01*
X006717Y008890D01*
X006665Y008838D01*
X006613Y008890D01*
X006048Y008890D01*
X006034Y008877D01*
X005981Y008930D01*
X005376Y008930D01*
X005282Y008836D01*
X005282Y008231D01*
X005376Y008137D01*
X005981Y008137D01*
X006034Y008190D01*
X006048Y008176D01*
X006211Y008176D01*
X005928Y007893D01*
X005805Y007770D01*
X005805Y007759D01*
X005760Y007759D01*
X005479Y007479D01*
X005199Y007759D01*
X004760Y007759D01*
X004645Y007645D01*
X004645Y008117D01*
X004814Y008117D01*
X004814Y008495D01*
X004890Y008495D01*
X004890Y008117D01*
X005112Y008117D01*
X005158Y008129D01*
X005199Y008153D01*
X005232Y008187D01*
X005256Y008228D01*
X005268Y008273D01*
X005268Y008495D01*
X004890Y008495D01*
X004890Y008571D01*
X005268Y008571D01*
X005268Y008793D01*
X005256Y008839D01*
X005232Y008880D01*
X005199Y008914D01*
X005164Y008933D01*
X005199Y008953D01*
X005232Y008987D01*
X005256Y009028D01*
X005268Y009073D01*
X005268Y009295D01*
X004890Y009295D01*
X004890Y008571D01*
X004814Y008571D01*
X004814Y008950D01*
X004814Y009295D01*
X004890Y009295D01*
X004890Y009371D01*
X005268Y009371D01*
X005268Y009593D01*
X005256Y009639D01*
X005232Y009680D01*
X005199Y009714D01*
X005164Y009733D01*
X005199Y009753D01*
X005232Y009787D01*
X005256Y009828D01*
X005268Y009873D01*
X005268Y010095D01*
X004890Y010095D01*
X004890Y009371D01*
X004814Y009371D01*
X004814Y009717D01*
X004814Y010095D01*
X004890Y010095D01*
X004890Y010171D01*
X005268Y010171D01*
X005268Y010393D01*
X005256Y010439D01*
X005232Y010480D01*
X005199Y010514D01*
X005158Y010537D01*
X005112Y010550D01*
X004890Y010550D01*
X004890Y010171D01*
X004814Y010171D01*
X004814Y010550D01*
X004645Y010550D01*
X004645Y011876D01*
X004651Y011827D01*
X004682Y011692D01*
X004727Y011562D01*
X004787Y011437D01*
X004861Y011320D01*
X004947Y011212D01*
X005044Y011115D01*
X005152Y011029D01*
X005269Y010955D01*
X005394Y010895D01*
X005524Y010850D01*
X005659Y010819D01*
X005785Y010805D01*
X005785Y011953D01*
X005945Y011953D01*
X005945Y010805D01*
X006072Y010819D01*
X006206Y010850D01*
X006337Y010895D01*
X006461Y010955D01*
X006578Y011029D01*
X006686Y011115D01*
X006784Y011212D01*
X006870Y011320D01*
X006944Y011437D01*
X007003Y011562D01*
X007049Y011692D01*
X007080Y011827D01*
X007094Y011953D01*
X005945Y011953D01*
X005945Y012113D01*
X007094Y012113D01*
X007080Y012240D01*
X007049Y012374D01*
X007003Y012505D01*
X006944Y012629D01*
X006870Y012746D01*
X006784Y012854D01*
X006686Y012952D01*
X006578Y013038D01*
X006461Y013112D01*
X006337Y013171D01*
X006206Y013217D01*
X006072Y013248D01*
X006023Y013253D01*
X007536Y013253D01*
X007516Y013234D01*
X007435Y013039D01*
X007435Y012828D01*
X007516Y012633D01*
X007665Y012484D01*
X007760Y012445D01*
X007754Y012443D01*
X007677Y012404D01*
X007607Y012353D01*
X007546Y012292D01*
X007495Y012222D01*
X007456Y012144D01*
X007429Y012062D01*
X007415Y011977D01*
X007415Y011953D01*
X007945Y011953D01*
X007945Y011913D01*
X007985Y011913D01*
X007985Y011383D01*
X008009Y011383D01*
X008094Y011397D01*
X008176Y011424D01*
X008254Y011463D01*
X008324Y011514D01*
X008385Y011575D01*
X008436Y011645D01*
X008475Y011722D01*
X008502Y011805D01*
X008515Y011890D01*
X008515Y011913D01*
X007985Y011913D01*
X007985Y011953D01*
X008515Y011953D01*
X008515Y011977D01*
X008502Y012062D01*
X008475Y012144D01*
X008436Y012222D01*
X008385Y012292D01*
X008324Y012353D01*
X008254Y012404D01*
X008176Y012443D01*
X008171Y012445D01*
X008266Y012484D01*
X008415Y012633D01*
X008495Y012828D01*
X008495Y013039D01*
X008415Y013234D01*
X008395Y013253D01*
X008552Y013253D01*
X008552Y011988D01*
X008646Y011895D01*
X009408Y011895D01*
X009502Y011988D01*
X009502Y013253D01*
X011229Y013253D01*
X011229Y011988D01*
X011323Y011895D01*
X012085Y011895D01*
X012179Y011988D01*
X012179Y013253D01*
X015134Y013253D01*
X015134Y013052D01*
X015512Y013052D01*
X015512Y013015D01*
X015134Y013015D01*
X015134Y012813D01*
X015146Y012767D01*
X015170Y012726D01*
X015204Y012692D01*
X015245Y012669D01*
X015290Y012656D01*
X015512Y012656D01*
X015512Y013015D01*
X015549Y013015D01*
X015549Y012656D01*
X015771Y012656D01*
X015817Y012669D01*
X015858Y012692D01*
X015879Y012714D01*
X015917Y012676D01*
X016157Y012676D01*
X016157Y012339D01*
X016155Y012340D01*
X016155Y012391D01*
X016157Y012602D02*
X015975Y012602D01*
X015756Y012602D02*
X013875Y012602D01*
X013875Y012531D02*
X013875Y013136D01*
X013781Y013230D01*
X013176Y013230D01*
X013082Y013136D01*
X013082Y012531D01*
X013123Y012490D01*
X013117Y012490D01*
X013065Y012438D01*
X013025Y012479D01*
X013032Y012487D01*
X013056Y012528D01*
X013068Y012573D01*
X013068Y012795D01*
X012690Y012795D01*
X012690Y012871D01*
X013068Y012871D01*
X013068Y013093D01*
X013056Y013139D01*
X013032Y013180D01*
X012999Y013214D01*
X012958Y013237D01*
X012912Y013250D01*
X012690Y013250D01*
X012690Y012871D01*
X012614Y012871D01*
X012614Y012795D01*
X012236Y012795D01*
X012236Y012573D01*
X012248Y012528D01*
X012272Y012487D01*
X012305Y012453D01*
X012346Y012429D01*
X012378Y012421D01*
X012354Y012396D01*
X012354Y011870D01*
X012448Y011776D01*
X012521Y011776D01*
X012521Y011686D01*
X012458Y011623D01*
X012408Y011623D01*
X012301Y011579D01*
X012219Y011498D01*
X012175Y011391D01*
X012175Y011276D01*
X012219Y011169D01*
X012301Y011087D01*
X012408Y011043D01*
X012523Y011043D01*
X012630Y011087D01*
X012711Y011169D01*
X012755Y011276D01*
X012755Y011326D01*
X012941Y011512D01*
X012941Y011776D01*
X013013Y011776D01*
X013065Y011828D01*
X013117Y011776D01*
X013683Y011776D01*
X013777Y011870D01*
X013777Y012396D01*
X013736Y012437D01*
X013781Y012437D01*
X013875Y012531D01*
X013787Y012443D02*
X015597Y012443D01*
X015575Y012285D02*
X013777Y012285D01*
X013777Y012126D02*
X015662Y012126D01*
X015754Y011968D02*
X013777Y011968D01*
X013716Y011809D02*
X014274Y011809D01*
X014457Y011809D02*
X015044Y011809D01*
X014886Y011651D02*
X014631Y011651D01*
X014100Y011651D02*
X012941Y011651D01*
X012921Y011492D02*
X014075Y011492D01*
X014155Y011334D02*
X012763Y011334D01*
X012714Y011175D02*
X014475Y011175D01*
X014572Y011017D02*
X011116Y011017D01*
X011116Y011175D02*
X012217Y011175D01*
X012175Y011334D02*
X011116Y011334D01*
X011116Y011492D02*
X012217Y011492D01*
X012486Y011651D02*
X011113Y011651D01*
X011116Y011648D02*
X011116Y009985D01*
X011208Y010023D01*
X011323Y010023D01*
X011430Y009979D01*
X011511Y009898D01*
X011555Y009791D01*
X011555Y009676D01*
X011511Y009569D01*
X011430Y009487D01*
X011323Y009443D01*
X011208Y009443D01*
X011101Y009487D01*
X011019Y009569D01*
X011002Y009611D01*
X010496Y009611D01*
X010402Y009705D01*
X010402Y011648D01*
X010439Y011685D01*
X010439Y011924D01*
X010382Y011981D01*
X010374Y011999D01*
X010369Y011990D01*
X010326Y011930D01*
X010275Y011879D01*
X010215Y011836D01*
X010150Y011802D01*
X010081Y011780D01*
X010008Y011768D01*
X009972Y011768D01*
X009972Y012233D01*
X009972Y012233D01*
X009972Y011768D01*
X009935Y011768D01*
X009863Y011780D01*
X009793Y011802D01*
X009728Y011836D01*
X009669Y011879D01*
X009617Y011930D01*
X009574Y011990D01*
X009541Y012055D01*
X009518Y012124D01*
X009507Y012197D01*
X009507Y012233D01*
X009972Y012233D01*
X009972Y012233D01*
X009972Y012233D01*
X009972Y012698D01*
X010008Y012698D01*
X010081Y012687D01*
X010150Y012664D01*
X010215Y012631D01*
X010275Y012588D01*
X010326Y012536D01*
X010369Y012477D01*
X010374Y012467D01*
X010382Y012485D01*
X010507Y012611D01*
X010671Y012678D01*
X010848Y012678D01*
X011011Y012611D01*
X011136Y012485D01*
X011204Y012322D01*
X011204Y012145D01*
X011136Y011981D01*
X011079Y011924D01*
X011079Y011685D01*
X011116Y011648D01*
X011079Y011809D02*
X012415Y011809D01*
X012354Y011968D02*
X012158Y011968D01*
X012179Y012126D02*
X012354Y012126D01*
X012354Y012285D02*
X012179Y012285D01*
X012179Y012443D02*
X012322Y012443D01*
X012236Y012602D02*
X012179Y012602D01*
X012179Y012760D02*
X012236Y012760D01*
X012236Y012871D02*
X012236Y013093D01*
X012248Y013139D01*
X012272Y013180D01*
X012305Y013214D01*
X012346Y013237D01*
X012392Y013250D01*
X012614Y013250D01*
X012614Y012871D01*
X012236Y012871D01*
X012236Y012919D02*
X012179Y012919D01*
X012179Y013077D02*
X012236Y013077D01*
X012179Y013236D02*
X012344Y013236D01*
X012614Y013236D02*
X012690Y013236D01*
X012690Y013077D02*
X012614Y013077D01*
X012614Y012919D02*
X012690Y012919D01*
X013068Y012919D02*
X013082Y012919D01*
X013068Y013077D02*
X013082Y013077D01*
X012960Y013236D02*
X015134Y013236D01*
X015134Y013077D02*
X013875Y013077D01*
X013875Y012919D02*
X015134Y012919D01*
X015150Y012760D02*
X013875Y012760D01*
X013479Y012291D02*
X013361Y012173D01*
X013070Y012443D02*
X013060Y012443D01*
X013068Y012602D02*
X013082Y012602D01*
X013068Y012760D02*
X013082Y012760D01*
X011229Y012760D02*
X009502Y012760D01*
X009502Y012602D02*
X009688Y012602D01*
X009669Y012588D02*
X009617Y012536D01*
X009574Y012477D01*
X009541Y012412D01*
X009518Y012342D01*
X009507Y012270D01*
X009507Y012233D01*
X009972Y012233D01*
X009972Y012698D01*
X009935Y012698D01*
X009863Y012687D01*
X009793Y012664D01*
X009728Y012631D01*
X009669Y012588D01*
X009557Y012443D02*
X009502Y012443D01*
X009502Y012285D02*
X009509Y012285D01*
X009502Y012126D02*
X009518Y012126D01*
X009481Y011968D02*
X009590Y011968D01*
X009705Y011750D02*
X009664Y011726D01*
X009631Y011693D01*
X009607Y011652D01*
X009595Y011606D01*
X009595Y010695D01*
X009953Y010695D01*
X009953Y010658D01*
X009990Y010658D01*
X009990Y009591D01*
X010192Y009591D01*
X010238Y009603D01*
X010279Y009627D01*
X010313Y009661D01*
X010336Y009702D01*
X010348Y009747D01*
X010348Y010658D01*
X009990Y010658D01*
X009990Y010695D01*
X010348Y010695D01*
X010348Y011606D01*
X010336Y011652D01*
X010313Y011693D01*
X010279Y011726D01*
X010238Y011750D01*
X010192Y011762D01*
X009990Y011762D01*
X009990Y010695D01*
X009953Y010695D01*
X009953Y011762D01*
X009751Y011762D01*
X009705Y011750D01*
X009779Y011809D02*
X008503Y011809D01*
X008515Y011968D02*
X008572Y011968D01*
X008552Y012126D02*
X008481Y012126D01*
X008552Y012285D02*
X008390Y012285D01*
X008552Y012443D02*
X008175Y012443D01*
X008383Y012602D02*
X008552Y012602D01*
X008552Y012760D02*
X008467Y012760D01*
X008495Y012919D02*
X008552Y012919D01*
X008552Y013077D02*
X008479Y013077D01*
X008412Y013236D02*
X008552Y013236D01*
X009502Y013236D02*
X011229Y013236D01*
X011229Y013077D02*
X009502Y013077D01*
X009502Y012919D02*
X011229Y012919D01*
X011229Y012602D02*
X011020Y012602D01*
X011154Y012443D02*
X011229Y012443D01*
X011229Y012285D02*
X011204Y012285D01*
X011196Y012126D02*
X011229Y012126D01*
X011249Y011968D02*
X011123Y011968D01*
X010439Y011809D02*
X010164Y011809D01*
X009972Y011809D02*
X009972Y011809D01*
X009972Y011968D02*
X009972Y011968D01*
X009972Y012126D02*
X009972Y012126D01*
X009972Y012285D02*
X009972Y012285D01*
X009972Y012443D02*
X009972Y012443D01*
X009972Y012602D02*
X009972Y012602D01*
X010256Y012602D02*
X010498Y012602D01*
X010395Y011968D02*
X010354Y011968D01*
X010336Y011651D02*
X010405Y011651D01*
X010402Y011492D02*
X010348Y011492D01*
X010348Y011334D02*
X010402Y011334D01*
X010402Y011175D02*
X010348Y011175D01*
X010348Y011017D02*
X010402Y011017D01*
X010402Y010858D02*
X010348Y010858D01*
X010348Y010700D02*
X010402Y010700D01*
X010402Y010541D02*
X010348Y010541D01*
X010348Y010383D02*
X010402Y010383D01*
X010402Y010224D02*
X010348Y010224D01*
X010348Y010066D02*
X010402Y010066D01*
X010402Y009907D02*
X010348Y009907D01*
X010348Y009749D02*
X010402Y009749D01*
X009990Y009749D02*
X009953Y009749D01*
X009953Y009591D02*
X009953Y010658D01*
X009595Y010658D01*
X009595Y009747D01*
X009607Y009702D01*
X009631Y009661D01*
X009664Y009627D01*
X009705Y009603D01*
X009751Y009591D01*
X009953Y009591D01*
X010054Y009273D02*
X009222Y009273D01*
X009381Y009115D02*
X010054Y009115D01*
X010054Y008956D02*
X009539Y008956D01*
X009698Y008798D02*
X010054Y008798D01*
X009995Y008639D02*
X009775Y008639D01*
X009818Y008481D02*
X009975Y008481D01*
X010055Y008322D02*
X009855Y008322D01*
X009739Y008097D02*
X009739Y007807D01*
X009821Y007725D01*
X009784Y007689D01*
X009222Y007689D01*
X009222Y007851D01*
X009128Y007945D01*
X008602Y007945D01*
X008508Y007851D01*
X008508Y007285D01*
X008546Y007247D01*
X008524Y007226D01*
X008501Y007185D01*
X008488Y007139D01*
X008488Y006917D01*
X008847Y006917D01*
X008847Y006880D01*
X008884Y006880D01*
X008884Y006917D01*
X009242Y006917D01*
X009242Y007139D01*
X009230Y007185D01*
X009206Y007226D01*
X009184Y007247D01*
X009206Y007269D01*
X009784Y007269D01*
X009811Y007243D01*
X009789Y007230D01*
X009755Y007196D01*
X009731Y007155D01*
X009719Y007109D01*
X009719Y006987D01*
X009719Y006865D01*
X009731Y006819D01*
X009755Y006778D01*
X009789Y006745D01*
X009811Y006732D01*
X009739Y006660D01*
X009739Y006330D01*
X009833Y006237D01*
X010004Y006237D01*
X010004Y006098D01*
X010268Y005833D01*
X010104Y005669D01*
X010104Y005648D01*
X009933Y005648D01*
X009877Y005591D01*
X009877Y005996D01*
X009783Y006090D01*
X009217Y006090D01*
X009165Y006038D01*
X009113Y006090D01*
X008548Y006090D01*
X008454Y005996D01*
X008454Y005943D01*
X008165Y005943D01*
X008130Y005979D01*
X008023Y006023D01*
X007908Y006023D01*
X007801Y005979D01*
X007719Y005898D01*
X007675Y005791D01*
X007675Y005676D01*
X007719Y005569D01*
X007801Y005487D01*
X007908Y005443D01*
X008023Y005443D01*
X008130Y005487D01*
X008165Y005523D01*
X008454Y005523D01*
X008454Y005470D01*
X008548Y005376D01*
X009113Y005376D01*
X009165Y005428D01*
X009217Y005376D01*
X009355Y005376D01*
X009355Y004546D01*
X009755Y004146D01*
X009878Y004023D01*
X014278Y004023D01*
X014602Y003700D01*
X014565Y003611D01*
X014515Y003734D01*
X014366Y003883D01*
X014171Y003963D01*
X013960Y003963D01*
X013765Y003883D01*
X013616Y003734D01*
X013565Y003611D01*
X013515Y003734D01*
X013366Y003883D01*
X013171Y003963D01*
X012960Y003963D01*
X012765Y003883D01*
X012616Y003734D01*
X012577Y003639D01*
X012575Y003644D01*
X012536Y003722D01*
X012485Y003792D01*
X012424Y003853D01*
X012354Y003904D01*
X012276Y003943D01*
X012194Y003970D01*
X012109Y003983D01*
X012085Y003983D01*
X012085Y003453D01*
X012045Y003453D01*
X012045Y003413D01*
X011085Y003413D01*
X011085Y003453D01*
X011045Y003453D01*
X011045Y003413D01*
X010515Y003413D01*
X010515Y003390D01*
X010529Y003305D01*
X010556Y003222D01*
X010595Y003145D01*
X010618Y003113D01*
X006023Y003113D01*
X006072Y003119D01*
X006206Y003150D01*
X006337Y003195D01*
X006461Y003255D01*
X006578Y003329D01*
X006686Y003415D01*
X006784Y003512D01*
X006870Y003620D01*
X006944Y003737D01*
X007003Y003862D01*
X007049Y003992D01*
X007080Y004127D01*
X007094Y004253D01*
X005945Y004253D01*
X005945Y004413D01*
X005785Y004413D01*
X005785Y005562D01*
X005659Y005548D01*
X005524Y005517D01*
X005394Y005471D01*
X005269Y005412D01*
X005152Y005338D01*
X005044Y005252D01*
X004947Y005154D01*
X004861Y005046D01*
X004787Y004929D01*
X004727Y004805D01*
X004682Y004674D01*
X004651Y004540D01*
X004645Y004491D01*
X004645Y005786D01*
X004752Y005679D01*
X004959Y005679D01*
X004959Y006209D01*
X004999Y006209D01*
X004999Y005679D01*
X005207Y005679D01*
X005494Y005966D01*
X005760Y005699D01*
X006199Y005699D01*
X006479Y005980D01*
X006760Y005699D01*
X007199Y005699D01*
X007509Y006010D01*
X007509Y006449D01*
X007229Y006729D01*
X007509Y007010D01*
X007509Y007449D01*
X007199Y007759D01*
X006760Y007759D01*
X006479Y007479D01*
X006294Y007665D01*
X006452Y007823D01*
X006752Y007823D01*
X006875Y007946D01*
X007105Y008176D01*
X007283Y008176D01*
X007377Y008270D01*
X007377Y008312D01*
X007401Y008287D01*
X007508Y008243D01*
X007623Y008243D01*
X007730Y008287D01*
X007811Y008369D01*
X007855Y008476D01*
X007855Y008591D01*
X007811Y008698D01*
X007775Y008733D01*
X007775Y008855D01*
X007377Y009254D01*
X007377Y009312D01*
X007401Y009287D01*
X007508Y009243D01*
X007623Y009243D01*
X007730Y009287D01*
X007811Y009369D01*
X007855Y009476D01*
X007855Y009591D01*
X007816Y009685D01*
X008078Y009423D01*
X008008Y009423D01*
X007901Y009379D01*
X007819Y009298D01*
X007775Y009191D01*
X007775Y009076D01*
X007819Y008969D01*
X007901Y008887D01*
X008008Y008843D01*
X008123Y008843D01*
X008230Y008887D01*
X008311Y008969D01*
X008355Y009076D01*
X008355Y009191D01*
X008311Y009298D01*
X008285Y009323D01*
X008578Y009323D01*
X009355Y008546D01*
X009355Y008533D01*
X009319Y008498D01*
X009275Y008391D01*
X009275Y008276D01*
X009319Y008169D01*
X009401Y008087D01*
X009508Y008043D01*
X009623Y008043D01*
X009730Y008087D01*
X009739Y008097D01*
X009739Y008005D02*
X006934Y008005D01*
X006776Y007847D02*
X008508Y007847D01*
X008508Y007688D02*
X007270Y007688D01*
X007429Y007530D02*
X008508Y007530D01*
X008508Y007371D02*
X007509Y007371D01*
X007509Y007213D02*
X008517Y007213D01*
X008488Y007054D02*
X007509Y007054D01*
X007395Y006896D02*
X008847Y006896D01*
X008847Y006880D02*
X008488Y006880D01*
X008488Y006658D01*
X008501Y006613D01*
X008524Y006572D01*
X008558Y006538D01*
X008599Y006514D01*
X008645Y006502D01*
X008847Y006502D01*
X008847Y006880D01*
X008884Y006880D02*
X008884Y006502D01*
X009086Y006502D01*
X009132Y006514D01*
X009173Y006538D01*
X009206Y006572D01*
X009230Y006613D01*
X009242Y006658D01*
X009242Y006880D01*
X008884Y006880D01*
X008884Y006896D02*
X009719Y006896D01*
X009719Y006987D02*
X010214Y006987D01*
X010214Y006987D01*
X009719Y006987D01*
X009719Y007054D02*
X009242Y007054D01*
X009214Y007213D02*
X009772Y007213D01*
X009802Y006737D02*
X009242Y006737D01*
X009210Y006579D02*
X009739Y006579D01*
X009739Y006420D02*
X007509Y006420D01*
X007509Y006262D02*
X009808Y006262D01*
X010004Y006103D02*
X007509Y006103D01*
X007444Y005945D02*
X007767Y005945D01*
X007675Y005786D02*
X007286Y005786D01*
X007695Y005628D02*
X004645Y005628D01*
X004645Y005469D02*
X005389Y005469D01*
X005118Y005311D02*
X004645Y005311D01*
X004645Y005152D02*
X004945Y005152D01*
X004828Y004994D02*
X004645Y004994D01*
X004645Y004835D02*
X004742Y004835D01*
X004682Y004677D02*
X004645Y004677D01*
X004645Y004518D02*
X004648Y004518D01*
X005785Y004518D02*
X005945Y004518D01*
X005945Y004413D02*
X005945Y005562D01*
X006072Y005548D01*
X006206Y005517D01*
X006337Y005471D01*
X006461Y005412D01*
X006578Y005338D01*
X006686Y005252D01*
X006784Y005154D01*
X006870Y005046D01*
X006944Y004929D01*
X007003Y004805D01*
X007049Y004674D01*
X007080Y004540D01*
X007094Y004413D01*
X005945Y004413D01*
X005945Y004360D02*
X009542Y004360D01*
X009383Y004518D02*
X007082Y004518D01*
X007048Y004677D02*
X009355Y004677D01*
X009355Y004835D02*
X006989Y004835D01*
X006903Y004994D02*
X009355Y004994D01*
X009355Y005152D02*
X006785Y005152D01*
X006612Y005311D02*
X009355Y005311D01*
X009775Y005311D02*
X009839Y005311D01*
X009839Y005152D02*
X009775Y005152D01*
X009775Y004994D02*
X009839Y004994D01*
X009839Y004835D02*
X009775Y004835D01*
X009819Y004677D02*
X009875Y004677D01*
X009977Y004518D02*
X016508Y004518D01*
X016508Y004360D02*
X014536Y004360D01*
X014694Y004201D02*
X016523Y004201D01*
X016655Y004043D02*
X014853Y004043D01*
X014417Y003884D02*
X014361Y003884D01*
X014518Y003726D02*
X014576Y003726D01*
X015361Y003884D02*
X015769Y003884D01*
X015613Y003726D02*
X015518Y003726D01*
X016361Y003884D02*
X016519Y003884D01*
X016955Y003726D02*
X020294Y003726D01*
X020219Y003884D02*
X017075Y003884D01*
X017075Y004043D02*
X020170Y004043D01*
X020142Y004201D02*
X017208Y004201D01*
X017222Y004360D02*
X021285Y004360D01*
X021285Y004518D02*
X021445Y004518D01*
X021445Y004677D02*
X021285Y004677D01*
X021285Y004835D02*
X021445Y004835D01*
X021445Y004994D02*
X021285Y004994D01*
X021285Y005152D02*
X021445Y005152D01*
X021445Y005311D02*
X021285Y005311D01*
X021285Y005469D02*
X021445Y005469D01*
X021537Y005628D02*
X017222Y005628D01*
X017222Y005786D02*
X019587Y005786D01*
X019457Y005945D02*
X017222Y005945D01*
X017222Y006103D02*
X019298Y006103D01*
X019140Y006262D02*
X017199Y006262D01*
X017222Y006420D02*
X018468Y006420D01*
X018501Y006387D02*
X018608Y006343D01*
X018723Y006343D01*
X018830Y006387D01*
X018911Y006469D01*
X018955Y006576D01*
X018955Y006691D01*
X018911Y006798D01*
X018830Y006879D01*
X018723Y006923D01*
X018608Y006923D01*
X018501Y006879D01*
X018419Y006798D01*
X018375Y006691D01*
X018375Y006576D01*
X018419Y006469D01*
X018501Y006387D01*
X018375Y006579D02*
X017222Y006579D01*
X017222Y006737D02*
X018395Y006737D01*
X018541Y006896D02*
X017177Y006896D01*
X017246Y007054D02*
X019047Y007054D01*
X019055Y006896D02*
X018789Y006896D01*
X018936Y006737D02*
X019055Y006737D01*
X019055Y006579D02*
X018955Y006579D01*
X018862Y006420D02*
X019055Y006420D01*
X019475Y006579D02*
X019488Y006579D01*
X019502Y006516D02*
X019502Y006516D01*
X019567Y006431D02*
X019567Y006431D01*
X019575Y006420D02*
X019578Y006420D01*
X019488Y006737D02*
X019475Y006737D01*
X019475Y006896D02*
X019488Y006896D01*
X019475Y007054D02*
X019488Y007054D01*
X019475Y007213D02*
X019533Y007213D01*
X019467Y007371D02*
X019324Y007371D01*
X019352Y007343D02*
X019352Y007343D01*
X019308Y007530D02*
X019166Y007530D01*
X019150Y007688D02*
X019007Y007688D01*
X018572Y007530D02*
X016759Y007530D01*
X016793Y007371D02*
X016600Y007371D01*
X016684Y007213D02*
X016475Y007213D01*
X016475Y007054D02*
X016655Y007054D01*
X016554Y006896D02*
X016475Y006896D01*
X016475Y006737D02*
X016508Y006737D01*
X016508Y006579D02*
X016475Y006579D01*
X016475Y006420D02*
X016508Y006420D01*
X016532Y006262D02*
X016475Y006262D01*
X016055Y006262D02*
X015568Y006262D01*
X015523Y006243D02*
X015630Y006287D01*
X015711Y006369D01*
X015755Y006476D01*
X015755Y006591D01*
X015711Y006698D01*
X015630Y006779D01*
X015523Y006823D01*
X015408Y006823D01*
X015301Y006779D01*
X015219Y006698D01*
X015175Y006591D01*
X015175Y006476D01*
X015219Y006369D01*
X015301Y006287D01*
X015408Y006243D01*
X015523Y006243D01*
X015363Y006262D02*
X011723Y006262D01*
X011791Y006420D02*
X015198Y006420D01*
X015175Y006579D02*
X011791Y006579D01*
X011714Y006737D02*
X015259Y006737D01*
X015671Y006737D02*
X016055Y006737D01*
X016055Y006579D02*
X015755Y006579D01*
X015732Y006420D02*
X016055Y006420D01*
X016055Y006103D02*
X010671Y006103D01*
X010620Y006262D02*
X010910Y006262D01*
X010842Y006420D02*
X010689Y006420D01*
X010833Y005945D02*
X012867Y005945D01*
X012901Y005979D02*
X012819Y005898D01*
X012775Y005791D01*
X012775Y005676D01*
X012819Y005569D01*
X012901Y005487D01*
X013008Y005443D01*
X013123Y005443D01*
X013230Y005487D01*
X013311Y005569D01*
X013315Y005579D01*
X013319Y005569D01*
X013401Y005487D01*
X013508Y005443D01*
X013623Y005443D01*
X013730Y005487D01*
X013811Y005569D01*
X013855Y005676D01*
X013855Y005791D01*
X013811Y005898D01*
X013730Y005979D01*
X013623Y006023D01*
X013508Y006023D01*
X013401Y005979D01*
X013319Y005898D01*
X013315Y005888D01*
X013311Y005898D01*
X013230Y005979D01*
X013123Y006023D01*
X013008Y006023D01*
X012901Y005979D01*
X012775Y005786D02*
X010855Y005786D01*
X010770Y005628D02*
X010987Y005628D01*
X010991Y005632D02*
X010958Y005598D01*
X010934Y005557D01*
X010922Y005511D01*
X010922Y005211D01*
X011339Y005211D01*
X011339Y005668D01*
X011078Y005668D01*
X011032Y005655D01*
X010991Y005632D01*
X010922Y005469D02*
X010789Y005469D01*
X010789Y005311D02*
X010922Y005311D01*
X010789Y005152D02*
X011339Y005152D01*
X011339Y005211D02*
X011339Y005056D01*
X010922Y005056D01*
X010922Y004755D01*
X010934Y004710D01*
X010958Y004668D01*
X010991Y004635D01*
X011032Y004611D01*
X011078Y004599D01*
X011339Y004599D01*
X011339Y005056D01*
X011494Y005056D01*
X011494Y005211D01*
X011339Y005211D01*
X011339Y005311D02*
X011494Y005311D01*
X011494Y005211D02*
X011494Y005668D01*
X011755Y005668D01*
X011801Y005655D01*
X011842Y005632D01*
X011876Y005598D01*
X011899Y005557D01*
X011911Y005511D01*
X011911Y005211D01*
X011494Y005211D01*
X011494Y005152D02*
X016508Y005152D01*
X016508Y004994D02*
X011911Y004994D01*
X011911Y005056D02*
X011494Y005056D01*
X011494Y004599D01*
X011755Y004599D01*
X011801Y004611D01*
X011842Y004635D01*
X011876Y004668D01*
X011899Y004710D01*
X011911Y004755D01*
X011911Y005056D01*
X011911Y004835D02*
X016558Y004835D01*
X016508Y004677D02*
X011880Y004677D01*
X011494Y004677D02*
X011339Y004677D01*
X011339Y004835D02*
X011494Y004835D01*
X011494Y004994D02*
X011339Y004994D01*
X010922Y004994D02*
X010789Y004994D01*
X010789Y004835D02*
X010922Y004835D01*
X010953Y004677D02*
X010753Y004677D01*
X009859Y004043D02*
X007061Y004043D01*
X007088Y004201D02*
X009700Y004201D01*
X009530Y003679D02*
X009423Y003723D01*
X009308Y003723D01*
X009201Y003679D01*
X009119Y003598D01*
X009075Y003491D01*
X009075Y003376D01*
X009119Y003269D01*
X009201Y003187D01*
X009308Y003143D01*
X009423Y003143D01*
X009530Y003187D01*
X009611Y003269D01*
X009655Y003376D01*
X009655Y003491D01*
X009611Y003598D01*
X009530Y003679D01*
X009624Y003567D02*
X010531Y003567D01*
X010529Y003562D02*
X010515Y003477D01*
X010515Y003453D01*
X011045Y003453D01*
X011045Y003983D01*
X011022Y003983D01*
X010937Y003970D01*
X010854Y003943D01*
X010777Y003904D01*
X010707Y003853D01*
X010646Y003792D01*
X010595Y003722D01*
X010556Y003644D01*
X010529Y003562D01*
X010515Y003409D02*
X009655Y003409D01*
X009592Y003250D02*
X010546Y003250D01*
X011085Y003453D02*
X011085Y003983D01*
X011109Y003983D01*
X011194Y003970D01*
X011276Y003943D01*
X011354Y003904D01*
X011424Y003853D01*
X011485Y003792D01*
X011536Y003722D01*
X011565Y003664D01*
X011595Y003722D01*
X011646Y003792D01*
X011707Y003853D01*
X011777Y003904D01*
X011854Y003943D01*
X011937Y003970D01*
X012022Y003983D01*
X012045Y003983D01*
X012045Y003453D01*
X011515Y003453D01*
X011085Y003453D01*
X011085Y003567D02*
X011045Y003567D01*
X011045Y003726D02*
X011085Y003726D01*
X011085Y003884D02*
X011045Y003884D01*
X010750Y003884D02*
X007011Y003884D01*
X006936Y003726D02*
X010598Y003726D01*
X011380Y003884D02*
X011750Y003884D01*
X011598Y003726D02*
X011533Y003726D01*
X012045Y003726D02*
X012085Y003726D01*
X012085Y003884D02*
X012045Y003884D01*
X012380Y003884D02*
X012769Y003884D01*
X012613Y003726D02*
X012533Y003726D01*
X012085Y003567D02*
X012045Y003567D01*
X013361Y003884D02*
X013769Y003884D01*
X013613Y003726D02*
X013518Y003726D01*
X016563Y003250D02*
X020779Y003250D01*
X020552Y003409D02*
X016638Y003409D01*
X016796Y003567D02*
X020403Y003567D01*
X020148Y004518D02*
X017222Y004518D01*
X017222Y004677D02*
X020182Y004677D01*
X020242Y004835D02*
X017172Y004835D01*
X017222Y004994D02*
X020328Y004994D01*
X020445Y005152D02*
X017222Y005152D01*
X017222Y005311D02*
X020618Y005311D01*
X020889Y005469D02*
X017204Y005469D01*
X016527Y005469D02*
X014853Y005469D01*
X014855Y005476D02*
X014811Y005369D01*
X014730Y005287D01*
X014623Y005243D01*
X014508Y005243D01*
X014401Y005287D01*
X014319Y005369D01*
X014275Y005476D01*
X014275Y005591D01*
X014319Y005698D01*
X014401Y005779D01*
X014508Y005823D01*
X014623Y005823D01*
X014730Y005779D01*
X014811Y005698D01*
X014855Y005591D01*
X014855Y005476D01*
X014840Y005628D02*
X016508Y005628D01*
X016315Y005786D02*
X014712Y005786D01*
X014418Y005786D02*
X013855Y005786D01*
X013836Y005628D02*
X014291Y005628D01*
X014278Y005469D02*
X013686Y005469D01*
X013445Y005469D02*
X013186Y005469D01*
X012945Y005469D02*
X011911Y005469D01*
X011911Y005311D02*
X014378Y005311D01*
X014753Y005311D02*
X016508Y005311D01*
X016157Y005945D02*
X013764Y005945D01*
X013367Y005945D02*
X013264Y005945D01*
X012795Y005628D02*
X011846Y005628D01*
X011494Y005628D02*
X011339Y005628D01*
X011339Y005469D02*
X011494Y005469D01*
X010221Y005786D02*
X009877Y005786D01*
X009877Y005628D02*
X009913Y005628D01*
X009877Y005945D02*
X010157Y005945D01*
X008884Y006579D02*
X008847Y006579D01*
X008847Y006737D02*
X008884Y006737D01*
X008488Y006737D02*
X007237Y006737D01*
X007380Y006579D02*
X008520Y006579D01*
X008454Y005945D02*
X008164Y005945D01*
X008086Y005469D02*
X008455Y005469D01*
X007845Y005469D02*
X006341Y005469D01*
X006286Y005786D02*
X006673Y005786D01*
X006515Y005945D02*
X006444Y005945D01*
X005945Y005469D02*
X005785Y005469D01*
X005785Y005311D02*
X005945Y005311D01*
X005945Y005152D02*
X005785Y005152D01*
X005785Y004994D02*
X005945Y004994D01*
X005945Y004835D02*
X005785Y004835D01*
X005785Y004677D02*
X005945Y004677D01*
X005673Y005786D02*
X005314Y005786D01*
X005473Y005945D02*
X005515Y005945D01*
X004999Y005945D02*
X004959Y005945D01*
X004959Y006103D02*
X004999Y006103D01*
X004999Y005786D02*
X004959Y005786D01*
X005429Y007530D02*
X005530Y007530D01*
X005689Y007688D02*
X005270Y007688D01*
X004689Y007688D02*
X004645Y007688D01*
X004645Y007847D02*
X005882Y007847D01*
X006040Y008005D02*
X004645Y008005D01*
X004814Y008164D02*
X004890Y008164D01*
X004890Y008322D02*
X004814Y008322D01*
X004814Y008481D02*
X004890Y008481D01*
X004890Y008639D02*
X004814Y008639D01*
X004814Y008798D02*
X004890Y008798D01*
X004890Y008956D02*
X004814Y008956D01*
X004814Y009115D02*
X004890Y009115D01*
X004890Y009273D02*
X004814Y009273D01*
X004814Y009432D02*
X004890Y009432D01*
X004890Y009590D02*
X004814Y009590D01*
X004814Y009749D02*
X004890Y009749D01*
X004890Y009907D02*
X004814Y009907D01*
X004814Y010066D02*
X004890Y010066D01*
X004890Y010224D02*
X004814Y010224D01*
X004814Y010383D02*
X004890Y010383D01*
X004890Y010541D02*
X004814Y010541D01*
X004645Y010700D02*
X008522Y010700D01*
X008519Y010698D02*
X008475Y010591D01*
X008475Y010476D01*
X008519Y010369D01*
X008601Y010287D01*
X008708Y010243D01*
X008823Y010243D01*
X008930Y010287D01*
X009011Y010369D01*
X009055Y010476D01*
X009055Y010591D01*
X009011Y010698D01*
X008930Y010779D01*
X008823Y010823D01*
X008708Y010823D01*
X008601Y010779D01*
X008519Y010698D01*
X008475Y010541D02*
X005142Y010541D01*
X005268Y010383D02*
X005282Y010383D01*
X005268Y010224D02*
X005282Y010224D01*
X005268Y010066D02*
X005282Y010066D01*
X005268Y009907D02*
X005282Y009907D01*
X005364Y009749D02*
X005191Y009749D01*
X005268Y009590D02*
X005282Y009590D01*
X005268Y009432D02*
X005282Y009432D01*
X005268Y009273D02*
X005282Y009273D01*
X005268Y009115D02*
X005282Y009115D01*
X005357Y008956D02*
X005202Y008956D01*
X005267Y008798D02*
X005282Y008798D01*
X005268Y008639D02*
X005282Y008639D01*
X005268Y008481D02*
X005282Y008481D01*
X005268Y008322D02*
X005282Y008322D01*
X005349Y008164D02*
X005209Y008164D01*
X006008Y008164D02*
X006199Y008164D01*
X006317Y007688D02*
X006689Y007688D01*
X006530Y007530D02*
X006429Y007530D01*
X007093Y008164D02*
X009325Y008164D01*
X009275Y008322D02*
X007764Y008322D01*
X007855Y008481D02*
X009313Y008481D01*
X009262Y008639D02*
X007835Y008639D01*
X007775Y008798D02*
X009104Y008798D01*
X008945Y008956D02*
X008298Y008956D01*
X008355Y009115D02*
X008787Y009115D01*
X008628Y009273D02*
X008321Y009273D01*
X008070Y009432D02*
X007837Y009432D01*
X007855Y009590D02*
X007911Y009590D01*
X007809Y009273D02*
X007695Y009273D01*
X007775Y009115D02*
X007515Y009115D01*
X007435Y009273D02*
X007377Y009273D01*
X007674Y008956D02*
X007832Y008956D01*
X007080Y008956D02*
X006000Y008956D01*
X005993Y009749D02*
X007087Y009749D01*
X007871Y010224D02*
X009595Y010224D01*
X009595Y010066D02*
X008030Y010066D01*
X008188Y009907D02*
X009595Y009907D01*
X009595Y009749D02*
X008347Y009749D01*
X008905Y009590D02*
X011011Y009590D01*
X011118Y009410D02*
X011118Y009052D01*
X011497Y009052D01*
X011497Y009254D01*
X011484Y009300D01*
X011461Y009341D01*
X011427Y009374D01*
X011386Y009398D01*
X011340Y009410D01*
X011118Y009410D01*
X011118Y009273D02*
X011082Y009273D01*
X011082Y009115D02*
X011118Y009115D01*
X011118Y008956D02*
X011082Y008956D01*
X011082Y008798D02*
X011118Y008798D01*
X011492Y008798D02*
X012220Y008798D01*
X012175Y008639D02*
X010641Y008639D01*
X010555Y008481D02*
X012215Y008481D01*
X012608Y008322D02*
X010475Y008322D01*
X010661Y008164D02*
X010869Y008164D01*
X009739Y007847D02*
X009222Y007847D01*
X011497Y008956D02*
X012532Y008956D01*
X012475Y009115D02*
X011497Y009115D01*
X011491Y009273D02*
X012509Y009273D01*
X012132Y009590D02*
X014575Y009590D01*
X014649Y009517D02*
X014903Y009770D01*
X014635Y010037D01*
X014492Y009894D01*
X014469Y009853D01*
X014456Y009808D01*
X014456Y009760D01*
X014469Y009714D01*
X014492Y009673D01*
X014649Y009517D01*
X014723Y009590D02*
X014775Y009590D01*
X014734Y009432D02*
X009064Y009432D01*
X009953Y009907D02*
X009990Y009907D01*
X009990Y010066D02*
X009953Y010066D01*
X009953Y010224D02*
X009990Y010224D01*
X009990Y010383D02*
X009953Y010383D01*
X009953Y010541D02*
X009990Y010541D01*
X009990Y010700D02*
X009953Y010700D01*
X009953Y010858D02*
X009990Y010858D01*
X009990Y011017D02*
X009953Y011017D01*
X009953Y011175D02*
X009990Y011175D01*
X009990Y011334D02*
X009953Y011334D01*
X009953Y011492D02*
X009990Y011492D01*
X009990Y011651D02*
X009953Y011651D01*
X009607Y011651D02*
X008439Y011651D01*
X008294Y011492D02*
X009595Y011492D01*
X009595Y011334D02*
X006878Y011334D01*
X006970Y011492D02*
X007637Y011492D01*
X007607Y011514D02*
X007677Y011463D01*
X007754Y011424D01*
X007837Y011397D01*
X007922Y011383D01*
X007945Y011383D01*
X007945Y011913D01*
X007415Y011913D01*
X007415Y011890D01*
X007429Y011805D01*
X007456Y011722D01*
X007495Y011645D01*
X007546Y011575D01*
X007607Y011514D01*
X007492Y011651D02*
X007035Y011651D01*
X007076Y011809D02*
X007428Y011809D01*
X007415Y011968D02*
X005945Y011968D01*
X005945Y011809D02*
X005785Y011809D01*
X005785Y011651D02*
X005945Y011651D01*
X005945Y011492D02*
X005785Y011492D01*
X005785Y011334D02*
X005945Y011334D01*
X005945Y011175D02*
X005785Y011175D01*
X005785Y011017D02*
X005945Y011017D01*
X005945Y010858D02*
X005785Y010858D01*
X005499Y010858D02*
X004645Y010858D01*
X004645Y011017D02*
X005171Y011017D01*
X004984Y011175D02*
X004645Y011175D01*
X004645Y011334D02*
X004852Y011334D01*
X004761Y011492D02*
X004645Y011492D01*
X004645Y011651D02*
X004696Y011651D01*
X004655Y011809D02*
X004645Y011809D01*
X006559Y011017D02*
X009595Y011017D01*
X009595Y011175D02*
X006747Y011175D01*
X006232Y010858D02*
X009595Y010858D01*
X009595Y010700D02*
X009009Y010700D01*
X009055Y010541D02*
X009595Y010541D01*
X009595Y010383D02*
X009017Y010383D01*
X008514Y010383D02*
X007817Y010383D01*
X007945Y011492D02*
X007985Y011492D01*
X007985Y011651D02*
X007945Y011651D01*
X007945Y011809D02*
X007985Y011809D01*
X007450Y012126D02*
X007093Y012126D01*
X007070Y012285D02*
X007541Y012285D01*
X007755Y012443D02*
X007025Y012443D01*
X006957Y012602D02*
X007547Y012602D01*
X007463Y012760D02*
X006859Y012760D01*
X006719Y012919D02*
X007435Y012919D01*
X007451Y013077D02*
X006516Y013077D01*
X006124Y013236D02*
X007518Y013236D01*
X013046Y011809D02*
X013084Y011809D01*
X012630Y010879D02*
X012523Y010923D01*
X012408Y010923D01*
X012301Y010879D01*
X012219Y010798D01*
X012175Y010691D01*
X012175Y010576D01*
X012219Y010469D01*
X012301Y010387D01*
X012408Y010343D01*
X012523Y010343D01*
X012630Y010387D01*
X012711Y010469D01*
X012755Y010576D01*
X012755Y010691D01*
X012711Y010798D01*
X012630Y010879D01*
X012650Y010858D02*
X015301Y010858D01*
X015301Y010838D02*
X015364Y010838D01*
X015301Y010838D01*
X015364Y010838D02*
X015364Y010838D01*
X015301Y010700D02*
X014809Y010700D01*
X014811Y010698D02*
X014730Y010779D01*
X014623Y010823D01*
X014508Y010823D01*
X014401Y010779D01*
X014319Y010698D01*
X014275Y010591D01*
X014275Y010476D01*
X014319Y010369D01*
X014401Y010287D01*
X014508Y010243D01*
X014623Y010243D01*
X014730Y010287D01*
X014811Y010369D01*
X014855Y010476D01*
X014855Y010591D01*
X014811Y010698D01*
X014855Y010541D02*
X015306Y010541D01*
X015301Y010641D02*
X015364Y010641D01*
X015364Y010641D01*
X015301Y010641D01*
X015658Y010641D02*
X015658Y010816D01*
X015658Y010816D01*
X015658Y010641D01*
X015658Y010641D01*
X015658Y010700D02*
X015658Y010700D01*
X015658Y010541D02*
X015658Y010541D01*
X015754Y010383D02*
X014817Y010383D01*
X014835Y010224D02*
X011116Y010224D01*
X011116Y010066D02*
X011788Y010066D01*
X011801Y010079D02*
X011719Y009998D01*
X011675Y009891D01*
X011675Y009776D01*
X011719Y009669D01*
X011801Y009587D01*
X011908Y009543D01*
X012023Y009543D01*
X012130Y009587D01*
X012211Y009669D01*
X012255Y009776D01*
X012255Y009891D01*
X012211Y009998D01*
X012130Y010079D01*
X012023Y010123D01*
X011908Y010123D01*
X011801Y010079D01*
X011682Y009907D02*
X011501Y009907D01*
X011555Y009749D02*
X011686Y009749D01*
X011798Y009590D02*
X011520Y009590D01*
X012244Y009749D02*
X014459Y009749D01*
X014505Y009907D02*
X012249Y009907D01*
X012143Y010066D02*
X014664Y010066D01*
X014765Y009907D02*
X014817Y009907D01*
X014882Y009749D02*
X014924Y009749D01*
X015040Y009907D02*
X015092Y009907D01*
X015166Y010066D02*
X015771Y010066D01*
X015754Y010224D02*
X014994Y010224D01*
X015324Y009907D02*
X015842Y009907D01*
X015684Y009749D02*
X015454Y009749D01*
X016119Y009590D02*
X016525Y009590D01*
X016555Y009749D02*
X016278Y009749D01*
X016375Y009907D02*
X016555Y009907D01*
X017175Y009907D02*
X018842Y009907D01*
X018832Y010014D02*
X018873Y010038D01*
X018906Y010072D01*
X018930Y010113D01*
X018942Y010158D01*
X018942Y010380D01*
X018584Y010380D01*
X018584Y010002D01*
X018786Y010002D01*
X018832Y010014D01*
X018900Y010066D02*
X019001Y010066D01*
X018942Y010224D02*
X019159Y010224D01*
X019318Y010383D02*
X018584Y010383D01*
X018547Y010383D02*
X017177Y010383D01*
X017177Y010224D02*
X018188Y010224D01*
X018188Y010158D02*
X018201Y010113D01*
X018224Y010072D01*
X018258Y010038D01*
X018299Y010014D01*
X018345Y010002D01*
X018547Y010002D01*
X018547Y010380D01*
X018188Y010380D01*
X018188Y010158D01*
X018230Y010066D02*
X017175Y010066D01*
X017175Y009749D02*
X018684Y009749D01*
X018416Y009590D02*
X017175Y009590D01*
X017175Y009432D02*
X018375Y009432D01*
X018418Y009273D02*
X017821Y009273D01*
X017811Y009298D02*
X017730Y009379D01*
X017623Y009423D01*
X017508Y009423D01*
X017401Y009379D01*
X017319Y009298D01*
X017275Y009191D01*
X017275Y009076D01*
X017319Y008969D01*
X017401Y008887D01*
X017508Y008843D01*
X017623Y008843D01*
X017730Y008887D01*
X017811Y008969D01*
X017855Y009076D01*
X017855Y009191D01*
X017811Y009298D01*
X017855Y009115D02*
X020021Y009115D01*
X020021Y008956D02*
X019977Y008956D01*
X019977Y008798D02*
X020021Y008798D01*
X020021Y008639D02*
X019977Y008639D01*
X019088Y008322D02*
X018673Y008322D01*
X018543Y008481D02*
X018515Y008481D01*
X018534Y008639D02*
X018356Y008639D01*
X018534Y008798D02*
X017023Y008798D01*
X017055Y008956D02*
X017332Y008956D01*
X017275Y009115D02*
X016994Y009115D01*
X017102Y009273D02*
X017309Y009273D01*
X017798Y008956D02*
X018535Y008956D01*
X018912Y008956D02*
X018949Y008956D01*
X018949Y008798D02*
X018912Y008798D01*
X018912Y008639D02*
X018949Y008639D01*
X018949Y008481D02*
X018912Y008481D01*
X018832Y008164D02*
X019080Y008164D01*
X018255Y007847D02*
X017055Y007847D01*
X017019Y007688D02*
X018413Y007688D01*
X018096Y008005D02*
X017003Y008005D01*
X016527Y008005D02*
X014522Y008005D01*
X014522Y007847D02*
X016475Y007847D01*
X016323Y007688D02*
X014522Y007688D01*
X014436Y007530D02*
X016165Y007530D01*
X016055Y007371D02*
X014455Y007371D01*
X014596Y007213D02*
X016055Y007213D01*
X016055Y007054D02*
X014655Y007054D01*
X014622Y006896D02*
X016055Y006896D01*
X017137Y007371D02*
X018730Y007371D01*
X018889Y007213D02*
X017246Y007213D01*
X015825Y008164D02*
X014693Y008164D01*
X014851Y008322D02*
X015775Y008322D01*
X015898Y008798D02*
X015908Y008798D01*
X015875Y008956D02*
X015594Y008956D01*
X015753Y009115D02*
X015937Y009115D01*
X015854Y009273D02*
X016208Y009273D01*
X016367Y009432D02*
X015961Y009432D01*
X015238Y008956D02*
X014375Y008956D01*
X014281Y009115D02*
X015079Y009115D01*
X014950Y009273D02*
X014221Y009273D01*
X013709Y009273D02*
X013021Y009273D01*
X013081Y009115D02*
X013675Y009115D01*
X013732Y008956D02*
X013175Y008956D01*
X013322Y008798D02*
X013808Y008798D01*
X013808Y008639D02*
X013322Y008639D01*
X013322Y008481D02*
X013808Y008481D01*
X013357Y008322D02*
X013322Y008322D01*
X014522Y008639D02*
X014574Y008639D01*
X014522Y008798D02*
X014733Y008798D01*
X018547Y010066D02*
X018584Y010066D01*
X018584Y010224D02*
X018547Y010224D01*
X018188Y010541D02*
X017625Y010541D01*
X017630Y010700D02*
X018209Y010700D01*
X018942Y010541D02*
X019899Y010541D01*
X020562Y010541D02*
X020568Y010541D01*
X020671Y011017D02*
X018922Y011017D01*
X018922Y011175D02*
X020484Y011175D01*
X020352Y011334D02*
X019476Y011334D01*
X019511Y011369D02*
X019555Y011476D01*
X019555Y011591D01*
X019511Y011698D01*
X019430Y011779D01*
X019323Y011823D01*
X019208Y011823D01*
X019101Y011779D01*
X019019Y011698D01*
X018975Y011591D01*
X018975Y011476D01*
X019019Y011369D01*
X019101Y011287D01*
X019208Y011243D01*
X019323Y011243D01*
X019430Y011287D01*
X019511Y011369D01*
X019555Y011492D02*
X020261Y011492D01*
X020196Y011651D02*
X019531Y011651D01*
X019357Y011809D02*
X020155Y011809D01*
X019174Y011809D02*
X017551Y011809D01*
X017610Y011651D02*
X019000Y011651D01*
X018975Y011492D02*
X017610Y011492D01*
X017610Y011334D02*
X018208Y011334D01*
X018922Y011334D02*
X019055Y011334D01*
X017272Y010541D02*
X017272Y010541D01*
X015321Y011017D02*
X014959Y011017D01*
X015055Y011175D02*
X015301Y011175D01*
X015306Y011334D02*
X015163Y011334D01*
X014322Y010700D02*
X012752Y010700D01*
X012741Y010541D02*
X014275Y010541D01*
X014314Y010383D02*
X012618Y010383D01*
X012312Y010383D02*
X011116Y010383D01*
X011116Y010541D02*
X012190Y010541D01*
X012179Y010700D02*
X011116Y010700D01*
X011116Y010858D02*
X012280Y010858D01*
X017014Y012285D02*
X017607Y012285D01*
X017034Y013236D02*
X016577Y013236D01*
X015549Y012919D02*
X015512Y012919D01*
X015512Y012760D02*
X015549Y012760D01*
X021732Y010858D02*
X022585Y010858D01*
X022585Y011017D02*
X022059Y011017D01*
X022247Y011175D02*
X022585Y011175D01*
X022585Y011334D02*
X022378Y011334D01*
X022470Y011492D02*
X022585Y011492D01*
X022585Y011651D02*
X022535Y011651D01*
X022576Y011809D02*
X022585Y011809D01*
X021976Y010541D02*
X021943Y010541D01*
X021948Y010383D02*
X021962Y010383D01*
X022341Y010066D02*
X022417Y010066D01*
X022417Y009907D02*
X022341Y009907D01*
X022341Y009749D02*
X022417Y009749D01*
X022417Y009590D02*
X022341Y009590D01*
X019917Y009907D02*
X019862Y009907D01*
X019669Y009907D02*
X019436Y009907D01*
X019499Y009749D02*
X019278Y009749D01*
X019119Y009590D02*
X019475Y009590D01*
X019557Y009432D02*
X018961Y009432D01*
X018913Y009273D02*
X019854Y009273D01*
X014075Y007054D02*
X011791Y007054D01*
X011791Y006896D02*
X014108Y006896D01*
X013901Y007213D02*
X011731Y007213D01*
X020165Y007006D02*
X020165Y006733D01*
X020165Y006733D01*
X020165Y006733D01*
X020165Y007006D01*
X020165Y007006D01*
X020165Y006896D02*
X020165Y006896D01*
X020165Y006737D02*
X020165Y006737D01*
X020165Y006579D02*
X020165Y006579D01*
X020165Y006420D02*
X020165Y006420D01*
X020165Y006262D02*
X020165Y006262D01*
X020165Y006103D02*
X020165Y006103D01*
X020165Y005945D02*
X020165Y005945D01*
X020165Y005786D02*
X020165Y005786D01*
X020744Y005786D02*
X021490Y005786D01*
X021490Y005945D02*
X020798Y005945D01*
X020798Y006103D02*
X021490Y006103D01*
X022440Y006103D02*
X022585Y006103D01*
X022585Y005945D02*
X022511Y005945D01*
X022440Y006262D02*
X022585Y006262D01*
X022585Y006420D02*
X022440Y006420D01*
X022440Y006579D02*
X022585Y006579D01*
X022585Y006737D02*
X022415Y006737D01*
X022178Y005469D02*
X021841Y005469D01*
X022112Y005311D02*
X022278Y005311D01*
X022285Y005152D02*
X022585Y005152D01*
X022585Y004994D02*
X022403Y004994D01*
X022489Y004835D02*
X022585Y004835D01*
X022585Y004677D02*
X022548Y004677D01*
X022582Y004518D02*
X022585Y004518D01*
X009138Y003250D02*
X006451Y003250D01*
X006679Y003409D02*
X009075Y003409D01*
X009107Y003567D02*
X006828Y003567D01*
D29*
X009365Y003433D03*
X010865Y004533D03*
X013065Y005733D03*
X013565Y005733D03*
X014065Y005733D03*
X014565Y005533D03*
X015465Y005433D03*
X015465Y006533D03*
X014365Y007033D03*
X014165Y007333D03*
X013365Y007133D03*
X010765Y006733D03*
X009465Y006733D03*
X010565Y005833D03*
X012165Y006033D03*
X007965Y005733D03*
X010765Y007733D03*
X009565Y008333D03*
X010265Y008533D03*
X012465Y008633D03*
X012765Y009133D03*
X013965Y009133D03*
X011965Y009833D03*
X011265Y009733D03*
X012465Y010633D03*
X011565Y010933D03*
X012465Y011333D03*
X013865Y010533D03*
X014565Y010533D03*
X014965Y010733D03*
X014765Y011233D03*
X014365Y011533D03*
X015865Y012333D03*
X016865Y013133D03*
X017765Y012533D03*
X019265Y011533D03*
X017965Y011033D03*
X017765Y010333D03*
X019765Y009633D03*
X018665Y009433D03*
X017565Y009133D03*
X016765Y008933D03*
X016165Y008933D03*
X016065Y008333D03*
X016765Y007833D03*
X016965Y007133D03*
X018665Y006633D03*
X021265Y006233D03*
X022465Y005533D03*
X019365Y005033D03*
X021665Y007833D03*
X019965Y008233D03*
X019365Y008233D03*
X021365Y008833D03*
X014065Y013133D03*
X008765Y010533D03*
X007565Y010233D03*
X007565Y009533D03*
X008065Y009133D03*
X007565Y008533D03*
D30*
X007565Y008768D01*
X007000Y009333D01*
X007565Y009533D02*
X007565Y009568D01*
X007000Y010133D01*
X006865Y010133D01*
X006331Y010133D02*
X005679Y010133D01*
X005679Y009333D02*
X006331Y009333D01*
X006331Y008533D02*
X005679Y008533D01*
X006365Y008033D02*
X006015Y007683D01*
X006015Y007265D01*
X005979Y007229D01*
X006365Y008033D02*
X006665Y008033D01*
X007000Y008368D01*
X007000Y008533D01*
X008265Y009533D02*
X007565Y010233D01*
X008265Y009533D02*
X008665Y009533D01*
X009565Y008633D01*
X009565Y008333D01*
X010265Y008533D02*
X010265Y008023D01*
X010214Y007972D01*
X010214Y007479D02*
X008954Y007479D01*
X008865Y007568D01*
X010765Y006733D02*
X011019Y006987D01*
X011317Y006987D01*
X010214Y006495D02*
X010214Y006185D01*
X010565Y005833D01*
X010314Y005582D01*
X010314Y005133D01*
X009565Y004633D02*
X009965Y004233D01*
X014365Y004233D01*
X015065Y003533D01*
X015065Y003433D01*
X016065Y003433D02*
X016365Y003433D01*
X016865Y003933D01*
X016865Y004499D01*
X016865Y005168D02*
X016865Y005899D01*
X016500Y005899D01*
X016265Y006133D01*
X016265Y007333D01*
X016765Y007833D01*
X016965Y007133D02*
X016865Y007033D01*
X016865Y006568D01*
X018065Y008333D02*
X019265Y007133D01*
X019265Y006433D01*
X019595Y006103D01*
X019772Y006103D01*
X021965Y006193D02*
X022065Y005933D01*
X021965Y006193D02*
X022465Y005693D01*
X022465Y005533D01*
X020165Y007363D02*
X020165Y007533D01*
X019465Y008233D01*
X019365Y008233D01*
X019600Y008468D01*
X019600Y008733D01*
X019965Y008233D02*
X020231Y008499D01*
X020231Y009533D01*
X020900Y009533D02*
X021552Y009533D01*
X021552Y010233D02*
X020900Y010233D01*
X020231Y010233D02*
X019465Y010233D01*
X018665Y009433D01*
X016965Y009433D02*
X016765Y009233D01*
X016765Y008933D01*
X016565Y008533D02*
X016165Y008933D01*
X016765Y009533D01*
X016765Y010302D01*
X016761Y010326D01*
X016957Y010326D02*
X016965Y010299D01*
X016965Y009433D01*
X016165Y009933D02*
X016165Y010302D01*
X016170Y010326D01*
X015658Y010641D02*
X015639Y010638D01*
X015634Y010633D01*
X015265Y010633D01*
X015065Y010833D02*
X014965Y010733D01*
X014965Y011033D01*
X015165Y011233D01*
X015637Y011233D01*
X015658Y011232D01*
X015658Y011625D02*
X015157Y011625D01*
X014765Y011233D01*
X015065Y010833D02*
X015634Y010833D01*
X015658Y010838D01*
X017272Y011035D02*
X017294Y011033D01*
X017965Y011033D01*
X018531Y011033D01*
X018565Y011068D01*
X016761Y011940D02*
X016761Y012329D01*
X016965Y012533D01*
X017765Y012533D01*
X017865Y012533D01*
X018100Y012768D01*
X018100Y013033D01*
X016865Y013133D02*
X016565Y012733D01*
X016565Y012533D01*
X016564Y012532D01*
X016564Y011940D01*
X016367Y011940D02*
X016367Y012866D01*
X016200Y013033D01*
X016065Y012633D02*
X015865Y012633D01*
X015831Y012668D01*
X015365Y012668D01*
X015865Y012333D02*
X015973Y012225D01*
X015973Y011940D01*
X016170Y011940D02*
X016170Y012529D01*
X016065Y012633D01*
X016165Y012433D02*
X016170Y012429D01*
X016170Y011940D01*
X013479Y012291D02*
X013479Y012833D01*
X013361Y012173D02*
X013400Y012133D01*
X012731Y012133D02*
X012731Y011599D01*
X012465Y011333D01*
X015529Y009297D02*
X016165Y009933D01*
X015529Y009297D02*
X015402Y009297D01*
X014165Y008933D02*
X013965Y009133D01*
X014165Y008933D02*
X014165Y008568D01*
X014465Y008233D02*
X014838Y008606D01*
X015793Y008606D01*
X016065Y008333D01*
X018065Y008333D01*
X018165Y008533D02*
X018765Y007933D01*
X019202Y007933D01*
X019772Y007363D01*
X018165Y008533D02*
X016565Y008533D01*
X014465Y008233D02*
X013565Y008233D01*
X013231Y007899D01*
X012965Y007899D01*
X012892Y007972D01*
X011317Y007972D01*
X011317Y007479D02*
X013746Y007479D01*
X014165Y007899D01*
X014165Y007333D01*
X012965Y008568D02*
X012965Y008933D01*
X012765Y009133D01*
X010431Y009033D02*
X010431Y008699D01*
X010265Y008533D01*
X009500Y005733D02*
X009565Y005668D01*
X009565Y004633D01*
X008831Y005733D02*
X007965Y005733D01*
D31*
X010759Y010677D02*
X010759Y012233D01*
M02*
