G75*
%MOIN*%
%OFA0B0*%
%FSLAX24Y24*%
%IPPOS*%
%LPD*%
%AMOC8*
5,1,8,0,0,1.08239X$1,22.5*
%
%ADD10C,0.0000*%
%ADD11C,0.0600*%
%ADD12C,0.0476*%
%ADD13C,0.1502*%
%ADD14C,0.0260*%
%ADD15C,0.0100*%
%ADD16C,0.0160*%
D10*
X005835Y002933D02*
X021395Y002933D01*
X021467Y002935D01*
X021538Y002941D01*
X021609Y002950D01*
X021680Y002963D01*
X021750Y002980D01*
X021818Y003000D01*
X021886Y003024D01*
X021952Y003051D01*
X022017Y003082D01*
X022080Y003117D01*
X022141Y003154D01*
X022200Y003195D01*
X022257Y003238D01*
X022312Y003285D01*
X022364Y003334D01*
X022413Y003386D01*
X022460Y003441D01*
X022503Y003498D01*
X022544Y003557D01*
X022581Y003618D01*
X022616Y003681D01*
X022647Y003746D01*
X022674Y003812D01*
X022698Y003880D01*
X022718Y003948D01*
X022735Y004018D01*
X022748Y004089D01*
X022757Y004160D01*
X022763Y004231D01*
X022765Y004303D01*
X022765Y012063D01*
X022763Y012135D01*
X022757Y012206D01*
X022748Y012277D01*
X022735Y012348D01*
X022718Y012418D01*
X022698Y012486D01*
X022674Y012554D01*
X022647Y012620D01*
X022616Y012685D01*
X022581Y012748D01*
X022544Y012809D01*
X022503Y012868D01*
X022460Y012925D01*
X022413Y012980D01*
X022364Y013032D01*
X022312Y013081D01*
X022257Y013128D01*
X022200Y013171D01*
X022141Y013212D01*
X022080Y013249D01*
X022017Y013284D01*
X021952Y013315D01*
X021886Y013342D01*
X021818Y013366D01*
X021750Y013386D01*
X021680Y013403D01*
X021609Y013416D01*
X021538Y013425D01*
X021467Y013431D01*
X021395Y013433D01*
X005835Y013433D01*
X005763Y013431D01*
X005692Y013425D01*
X005621Y013416D01*
X005550Y013403D01*
X005480Y013386D01*
X005412Y013366D01*
X005344Y013342D01*
X005278Y013315D01*
X005213Y013284D01*
X005150Y013249D01*
X005089Y013212D01*
X005030Y013171D01*
X004973Y013128D01*
X004918Y013081D01*
X004866Y013032D01*
X004817Y012980D01*
X004770Y012925D01*
X004727Y012868D01*
X004686Y012809D01*
X004649Y012748D01*
X004614Y012685D01*
X004583Y012620D01*
X004556Y012554D01*
X004532Y012486D01*
X004512Y012418D01*
X004495Y012348D01*
X004482Y012277D01*
X004473Y012206D01*
X004467Y012135D01*
X004465Y012063D01*
X004465Y004303D01*
X004467Y004231D01*
X004473Y004160D01*
X004482Y004089D01*
X004495Y004018D01*
X004512Y003948D01*
X004532Y003880D01*
X004556Y003812D01*
X004583Y003746D01*
X004614Y003681D01*
X004649Y003618D01*
X004686Y003557D01*
X004727Y003498D01*
X004770Y003441D01*
X004817Y003386D01*
X004866Y003334D01*
X004918Y003285D01*
X004973Y003238D01*
X005030Y003195D01*
X005089Y003154D01*
X005150Y003117D01*
X005213Y003082D01*
X005278Y003051D01*
X005344Y003024D01*
X005412Y003000D01*
X005480Y002980D01*
X005550Y002963D01*
X005621Y002950D01*
X005692Y002941D01*
X005763Y002935D01*
X005835Y002933D01*
D11*
X011065Y003433D03*
X012065Y003433D03*
X013065Y003433D03*
X014065Y003433D03*
X015065Y003433D03*
X016065Y003433D03*
X006979Y006229D03*
X005979Y006229D03*
X004979Y006229D03*
X004979Y007229D03*
X005979Y007229D03*
X006979Y007229D03*
X007965Y011933D03*
X007965Y012933D03*
D12*
X009972Y012233D03*
X010759Y012233D03*
D13*
X005865Y012033D03*
X021365Y012033D03*
X021365Y004333D03*
X005865Y004333D03*
D14*
X009365Y003433D03*
X010465Y003933D03*
X012565Y005033D03*
X013065Y005733D03*
X013565Y005733D03*
X014065Y005733D03*
X014565Y005533D03*
X015465Y005433D03*
X017765Y005733D03*
X019165Y005933D03*
X018665Y006633D03*
X016965Y007133D03*
X016765Y007833D03*
X016065Y008333D03*
X016165Y008933D03*
X016765Y008933D03*
X017565Y009133D03*
X018665Y009433D03*
X019765Y009633D03*
X017765Y010333D03*
X017965Y011033D03*
X019265Y011533D03*
X017765Y012533D03*
X016865Y013133D03*
X015865Y012333D03*
X014365Y011533D03*
X014765Y011233D03*
X014965Y010733D03*
X014565Y010533D03*
X013865Y010533D03*
X012465Y010633D03*
X011565Y010933D03*
X012465Y011333D03*
X008765Y010533D03*
X007565Y010233D03*
X007565Y009533D03*
X008065Y009133D03*
X007565Y008533D03*
X009565Y008333D03*
X010265Y008533D03*
X010765Y007733D03*
X012465Y008633D03*
X013565Y008133D03*
X013965Y009133D03*
X012765Y009133D03*
X011965Y009833D03*
X011265Y009733D03*
X013365Y007033D03*
X014365Y007033D03*
X015465Y006533D03*
X012165Y006033D03*
X010465Y005833D03*
X010765Y006733D03*
X009465Y006733D03*
X007965Y005733D03*
X014465Y004533D03*
X016165Y004533D03*
X019265Y003433D03*
X021365Y008033D03*
X019965Y008233D03*
X019365Y008233D03*
X014065Y013133D03*
D15*
X015465Y012033D02*
X015765Y012333D01*
X015865Y012333D01*
X015465Y012033D02*
X015465Y006533D01*
X014365Y007033D02*
X014215Y006883D01*
X014165Y006833D01*
X014065Y006733D01*
X010765Y006733D01*
X011165Y007433D02*
X007183Y007433D01*
X006979Y007229D01*
X006465Y006933D02*
X006465Y007733D01*
X006665Y007933D01*
X007965Y007933D01*
X008965Y008933D01*
X010465Y008933D01*
X011265Y009733D01*
X010965Y009933D02*
X011365Y010333D01*
X012165Y010333D01*
X012465Y010633D01*
X012165Y011033D02*
X011765Y010633D01*
X011265Y010633D01*
X010865Y010233D01*
X009365Y010233D01*
X008265Y009133D01*
X008065Y009133D01*
X007865Y008233D02*
X009565Y009933D01*
X010965Y009933D01*
X011965Y009833D02*
X011965Y008233D01*
X011165Y007433D01*
X007865Y008233D02*
X006565Y008233D01*
X005979Y007648D01*
X005979Y007229D01*
X006465Y006933D02*
X005979Y006448D01*
X005979Y006229D01*
X014565Y005533D02*
X015065Y006033D01*
X017165Y006033D01*
X017365Y006233D01*
X017365Y008933D01*
X017565Y009133D01*
X014565Y010533D02*
X014465Y010633D01*
X014465Y010833D01*
X014265Y011033D01*
X012165Y011033D01*
X011765Y011233D02*
X011365Y011233D01*
X010665Y010533D01*
X009265Y010533D01*
X008965Y010233D01*
X007565Y010233D01*
X011765Y011233D02*
X012265Y011733D01*
X014165Y011733D01*
X014365Y011533D01*
D16*
X014155Y011334D02*
X012163Y011334D01*
X012078Y011243D02*
X011955Y011120D01*
X011847Y011012D01*
X011842Y011023D01*
X011852Y011023D01*
X012352Y011523D01*
X014075Y011523D01*
X014075Y011476D01*
X014119Y011369D01*
X014201Y011287D01*
X014308Y011243D01*
X014423Y011243D01*
X014530Y011287D01*
X014611Y011369D01*
X014655Y011476D01*
X014655Y011591D01*
X014611Y011698D01*
X014530Y011779D01*
X014423Y011823D01*
X014372Y011823D01*
X014252Y011943D01*
X012178Y011943D01*
X012055Y011820D01*
X011678Y011443D01*
X011278Y011443D01*
X011155Y011320D01*
X010578Y010743D01*
X009178Y010743D01*
X009055Y010620D01*
X009047Y010612D01*
X009011Y010698D01*
X008930Y010779D01*
X008823Y010823D01*
X008708Y010823D01*
X008601Y010779D01*
X008519Y010698D01*
X008475Y010591D01*
X008475Y010476D01*
X008489Y010443D01*
X007765Y010443D01*
X007730Y010479D01*
X007623Y010523D01*
X007508Y010523D01*
X007401Y010479D01*
X007319Y010398D01*
X007275Y010291D01*
X007275Y010176D01*
X007319Y010069D01*
X007401Y009987D01*
X007508Y009943D01*
X007623Y009943D01*
X007730Y009987D01*
X007765Y010023D01*
X008858Y010023D01*
X008219Y009384D01*
X008123Y009423D01*
X008008Y009423D01*
X007901Y009379D01*
X007819Y009298D01*
X007775Y009191D01*
X007775Y009076D01*
X007819Y008969D01*
X007901Y008887D01*
X008008Y008843D01*
X008123Y008843D01*
X008217Y008882D01*
X007855Y008520D01*
X007855Y008591D01*
X007811Y008698D01*
X007730Y008779D01*
X007623Y008823D01*
X007508Y008823D01*
X007401Y008779D01*
X007319Y008698D01*
X007275Y008591D01*
X007275Y008476D01*
X007289Y008443D01*
X006478Y008443D01*
X006355Y008320D01*
X005893Y007858D01*
X005769Y007734D01*
X005769Y007640D01*
X005719Y007619D01*
X005590Y007490D01*
X005519Y007321D01*
X005519Y007138D01*
X005590Y006969D01*
X005719Y006839D01*
X005888Y006769D01*
X006004Y006769D01*
X005924Y006689D01*
X005888Y006689D01*
X005719Y006619D01*
X005590Y006490D01*
X005519Y006321D01*
X005519Y006138D01*
X005590Y005969D01*
X005719Y005839D01*
X005888Y005769D01*
X006071Y005769D01*
X006240Y005839D01*
X006369Y005969D01*
X006439Y006138D01*
X006439Y006321D01*
X006369Y006490D01*
X006344Y006515D01*
X006552Y006723D01*
X006675Y006846D01*
X006675Y006883D01*
X006719Y006839D01*
X006888Y006769D01*
X007071Y006769D01*
X007240Y006839D01*
X007369Y006969D01*
X007439Y007138D01*
X007439Y007223D01*
X011252Y007223D01*
X012052Y008023D01*
X012175Y008146D01*
X012175Y009633D01*
X012211Y009669D01*
X012255Y009776D01*
X012255Y009891D01*
X012211Y009998D01*
X012130Y010079D01*
X012023Y010123D01*
X011908Y010123D01*
X011801Y010079D01*
X011719Y009998D01*
X011675Y009891D01*
X011675Y009776D01*
X011719Y009669D01*
X011755Y009633D01*
X011755Y008320D01*
X011078Y007643D01*
X011042Y007643D01*
X011055Y007676D01*
X011055Y007791D01*
X011011Y007898D01*
X010930Y007979D01*
X010823Y008023D01*
X010708Y008023D01*
X010601Y007979D01*
X010519Y007898D01*
X010475Y007791D01*
X010475Y007676D01*
X010489Y007643D01*
X007182Y007643D01*
X007071Y007689D01*
X006888Y007689D01*
X006719Y007619D01*
X006675Y007576D01*
X006675Y007646D01*
X006752Y007723D01*
X008052Y007723D01*
X009052Y008723D01*
X010552Y008723D01*
X011272Y009443D01*
X011323Y009443D01*
X011430Y009487D01*
X011511Y009569D01*
X011555Y009676D01*
X011555Y009791D01*
X011511Y009898D01*
X011430Y009979D01*
X011344Y010015D01*
X011452Y010123D01*
X012252Y010123D01*
X012472Y010343D01*
X012523Y010343D01*
X012630Y010387D01*
X012711Y010469D01*
X012755Y010576D01*
X012755Y010691D01*
X012711Y010798D01*
X012685Y010823D01*
X014178Y010823D01*
X014255Y010746D01*
X014255Y010546D01*
X014275Y010526D01*
X014275Y010476D01*
X014319Y010369D01*
X014401Y010287D01*
X014508Y010243D01*
X014623Y010243D01*
X014730Y010287D01*
X014811Y010369D01*
X014852Y010467D01*
X014908Y010443D01*
X015023Y010443D01*
X015130Y010487D01*
X015211Y010569D01*
X015255Y010676D01*
X015255Y010791D01*
X015211Y010898D01*
X015130Y010979D01*
X015023Y011023D01*
X014908Y011023D01*
X014801Y010979D01*
X014719Y010898D01*
X014679Y010800D01*
X014675Y010802D01*
X014675Y010920D01*
X014552Y011043D01*
X014475Y011120D01*
X014352Y011243D01*
X012078Y011243D01*
X012010Y011175D02*
X012004Y011175D01*
X011852Y011017D02*
X011845Y011017D01*
X011169Y011334D02*
X006454Y011334D01*
X006381Y011261D02*
X006047Y011122D01*
X005684Y011122D01*
X005349Y011261D01*
X005093Y011517D01*
X004954Y011852D01*
X004954Y012215D01*
X005093Y012549D01*
X005349Y012806D01*
X005684Y012945D01*
X006047Y012945D01*
X006381Y012806D01*
X006638Y012549D01*
X006777Y012215D01*
X006777Y011852D01*
X006638Y011517D01*
X006381Y011261D01*
X006175Y011175D02*
X011010Y011175D01*
X010852Y011017D02*
X004645Y011017D01*
X004645Y011175D02*
X005556Y011175D01*
X005276Y011334D02*
X004645Y011334D01*
X004645Y011492D02*
X005118Y011492D01*
X005037Y011651D02*
X004645Y011651D01*
X004645Y011809D02*
X004972Y011809D01*
X004954Y011968D02*
X004645Y011968D01*
X004645Y012063D02*
X004656Y012219D01*
X004736Y012519D01*
X004891Y012788D01*
X005111Y013007D01*
X005380Y013163D01*
X005680Y013243D01*
X005835Y013253D01*
X007635Y013253D01*
X007575Y013194D01*
X007505Y013025D01*
X007505Y012842D01*
X007575Y012673D01*
X007705Y012543D01*
X007874Y012473D01*
X008057Y012473D01*
X008226Y012543D01*
X008355Y012673D01*
X008425Y012842D01*
X008425Y013025D01*
X008355Y013194D01*
X008296Y013253D01*
X013801Y013253D01*
X013775Y013191D01*
X013775Y013076D01*
X013819Y012969D01*
X013901Y012887D01*
X014008Y012843D01*
X014123Y012843D01*
X014230Y012887D01*
X014311Y012969D01*
X014355Y013076D01*
X014355Y013191D01*
X014330Y013253D01*
X016601Y013253D01*
X016575Y013191D01*
X016575Y013076D01*
X016619Y012969D01*
X016701Y012887D01*
X016808Y012843D01*
X016923Y012843D01*
X017030Y012887D01*
X017111Y012969D01*
X017155Y013076D01*
X017155Y013191D01*
X017130Y013253D01*
X021395Y013253D01*
X021551Y013243D01*
X021851Y013163D01*
X022120Y013007D01*
X022339Y012788D01*
X022495Y012519D01*
X022575Y012219D01*
X022585Y012063D01*
X022585Y004303D01*
X022575Y004148D01*
X022495Y003848D01*
X022495Y003848D01*
X022339Y003579D01*
X022120Y003359D01*
X021851Y003204D01*
X021551Y003124D01*
X021395Y003113D01*
X016396Y003113D01*
X016455Y003173D01*
X016525Y003342D01*
X016525Y003525D01*
X016455Y003694D01*
X016326Y003823D01*
X016157Y003893D01*
X015974Y003893D01*
X015805Y003823D01*
X015675Y003694D01*
X015605Y003525D01*
X015605Y003342D01*
X015675Y003173D01*
X015735Y003113D01*
X015396Y003113D01*
X015455Y003173D01*
X015525Y003342D01*
X015525Y003525D01*
X015455Y003694D01*
X015326Y003823D01*
X015157Y003893D01*
X014974Y003893D01*
X014805Y003823D01*
X014675Y003694D01*
X014605Y003525D01*
X014605Y003342D01*
X014675Y003173D01*
X014735Y003113D01*
X014396Y003113D01*
X014455Y003173D01*
X014525Y003342D01*
X014525Y003525D01*
X014455Y003694D01*
X014326Y003823D01*
X014157Y003893D01*
X013974Y003893D01*
X013805Y003823D01*
X013675Y003694D01*
X013605Y003525D01*
X013605Y003342D01*
X013675Y003173D01*
X013735Y003113D01*
X013424Y003113D01*
X013431Y003121D01*
X013476Y003182D01*
X013510Y003249D01*
X013534Y003321D01*
X013545Y003396D01*
X013545Y003413D01*
X013085Y003413D01*
X013085Y003453D01*
X013545Y003453D01*
X013545Y003471D01*
X013534Y003546D01*
X013510Y003618D01*
X013476Y003685D01*
X013431Y003746D01*
X013378Y003799D01*
X013317Y003844D01*
X013250Y003878D01*
X013178Y003902D01*
X013103Y003913D01*
X013085Y003913D01*
X013085Y003453D01*
X013045Y003453D01*
X013045Y003413D01*
X012585Y003413D01*
X012585Y003396D01*
X012597Y003321D01*
X012620Y003249D01*
X012655Y003182D01*
X012699Y003121D01*
X012707Y003113D01*
X012396Y003113D01*
X012455Y003173D01*
X012525Y003342D01*
X012525Y003525D01*
X012455Y003694D01*
X012326Y003823D01*
X012157Y003893D01*
X011974Y003893D01*
X011805Y003823D01*
X011675Y003694D01*
X011605Y003525D01*
X011605Y003342D01*
X011675Y003173D01*
X011735Y003113D01*
X011396Y003113D01*
X011455Y003173D01*
X011525Y003342D01*
X011525Y003525D01*
X011455Y003694D01*
X011326Y003823D01*
X011157Y003893D01*
X010974Y003893D01*
X010805Y003823D01*
X010675Y003694D01*
X010605Y003525D01*
X010605Y003342D01*
X010675Y003173D01*
X010735Y003113D01*
X005835Y003113D01*
X005680Y003124D01*
X005380Y003204D01*
X005111Y003359D01*
X004891Y003579D01*
X004736Y003848D01*
X004656Y004148D01*
X004645Y004303D01*
X004645Y005913D01*
X004719Y005839D01*
X004888Y005769D01*
X005071Y005769D01*
X005240Y005839D01*
X005369Y005969D01*
X005439Y006138D01*
X005439Y006321D01*
X005369Y006490D01*
X005240Y006619D01*
X005071Y006689D01*
X004888Y006689D01*
X004719Y006619D01*
X004645Y006546D01*
X004645Y006913D01*
X004719Y006839D01*
X004888Y006769D01*
X005071Y006769D01*
X005240Y006839D01*
X005369Y006969D01*
X005439Y007138D01*
X005439Y007321D01*
X005369Y007490D01*
X005240Y007619D01*
X005071Y007689D01*
X004888Y007689D01*
X004719Y007619D01*
X004645Y007546D01*
X004645Y012063D01*
X004649Y012126D02*
X004954Y012126D01*
X004983Y012285D02*
X004673Y012285D01*
X004716Y012443D02*
X005049Y012443D01*
X005145Y012602D02*
X004784Y012602D01*
X004875Y012760D02*
X005304Y012760D01*
X005022Y012919D02*
X005622Y012919D01*
X005653Y013236D02*
X007617Y013236D01*
X007527Y013077D02*
X005232Y013077D01*
X006109Y012919D02*
X007505Y012919D01*
X007539Y012760D02*
X006427Y012760D01*
X006585Y012602D02*
X007646Y012602D01*
X007705Y012323D02*
X007575Y012194D01*
X007505Y012025D01*
X007505Y011842D01*
X007575Y011673D01*
X007705Y011543D01*
X007874Y011473D01*
X008057Y011473D01*
X008226Y011543D01*
X008355Y011673D01*
X008425Y011842D01*
X008425Y012025D01*
X008355Y012194D01*
X008226Y012323D01*
X008057Y012393D01*
X007874Y012393D01*
X007705Y012323D01*
X007666Y012285D02*
X006747Y012285D01*
X006777Y012126D02*
X007547Y012126D01*
X007505Y011968D02*
X006777Y011968D01*
X006759Y011809D02*
X007519Y011809D01*
X007597Y011651D02*
X006693Y011651D01*
X006613Y011492D02*
X007828Y011492D01*
X008103Y011492D02*
X011727Y011492D01*
X011886Y011651D02*
X008333Y011651D01*
X008412Y011809D02*
X012044Y011809D01*
X012321Y011492D02*
X014075Y011492D01*
X014457Y011809D02*
X015255Y011809D01*
X015255Y011651D02*
X014631Y011651D01*
X014655Y011492D02*
X015255Y011492D01*
X015255Y011334D02*
X014576Y011334D01*
X014420Y011175D02*
X015255Y011175D01*
X015255Y011017D02*
X015039Y011017D01*
X014892Y011017D02*
X014579Y011017D01*
X014552Y011043D02*
X014552Y011043D01*
X014475Y011120D02*
X014475Y011120D01*
X014675Y010858D02*
X014703Y010858D01*
X014255Y010700D02*
X014109Y010700D01*
X014111Y010698D02*
X014030Y010779D01*
X013923Y010823D01*
X013808Y010823D01*
X013701Y010779D01*
X013619Y010698D01*
X013575Y010591D01*
X013575Y010476D01*
X013619Y010369D01*
X013701Y010287D01*
X013808Y010243D01*
X013923Y010243D01*
X014030Y010287D01*
X014111Y010369D01*
X014155Y010476D01*
X014155Y010591D01*
X014111Y010698D01*
X014155Y010541D02*
X014260Y010541D01*
X014314Y010383D02*
X014117Y010383D01*
X013614Y010383D02*
X012618Y010383D01*
X012741Y010541D02*
X013575Y010541D01*
X013622Y010700D02*
X012752Y010700D01*
X012353Y010224D02*
X015255Y010224D01*
X015255Y010066D02*
X012143Y010066D01*
X012249Y009907D02*
X015255Y009907D01*
X015255Y009749D02*
X012244Y009749D01*
X012175Y009590D02*
X015255Y009590D01*
X015255Y009432D02*
X012175Y009432D01*
X012175Y009273D02*
X015255Y009273D01*
X015255Y009115D02*
X012175Y009115D01*
X012175Y008956D02*
X015255Y008956D01*
X015255Y008798D02*
X012711Y008798D01*
X012630Y008879D01*
X012523Y008923D01*
X012408Y008923D01*
X012301Y008879D01*
X012219Y008798D01*
X012175Y008691D01*
X012175Y008576D01*
X012219Y008469D01*
X012301Y008387D01*
X012408Y008343D01*
X012523Y008343D01*
X012630Y008387D01*
X012711Y008469D01*
X012755Y008576D01*
X012755Y008691D01*
X012711Y008798D01*
X012755Y008639D02*
X015255Y008639D01*
X015255Y008481D02*
X012716Y008481D01*
X012215Y008481D02*
X012175Y008481D01*
X012175Y008639D02*
X012175Y008639D01*
X012175Y008798D02*
X012220Y008798D01*
X011755Y008798D02*
X010627Y008798D01*
X010785Y008956D02*
X011755Y008956D01*
X011755Y009115D02*
X010944Y009115D01*
X011102Y009273D02*
X011755Y009273D01*
X011755Y009432D02*
X011261Y009432D01*
X011520Y009590D02*
X011755Y009590D01*
X011686Y009749D02*
X011555Y009749D01*
X011501Y009907D02*
X011682Y009907D01*
X011788Y010066D02*
X011395Y010066D01*
X010693Y010858D02*
X004645Y010858D01*
X004645Y010700D02*
X008522Y010700D01*
X008475Y010541D02*
X004645Y010541D01*
X004645Y010383D02*
X007313Y010383D01*
X007275Y010224D02*
X004645Y010224D01*
X004645Y010066D02*
X007323Y010066D01*
X007401Y009779D02*
X007319Y009698D01*
X007275Y009591D01*
X007275Y009476D01*
X007319Y009369D01*
X007401Y009287D01*
X007508Y009243D01*
X007623Y009243D01*
X007730Y009287D01*
X007811Y009369D01*
X007855Y009476D01*
X007855Y009591D01*
X007811Y009698D01*
X007730Y009779D01*
X007623Y009823D01*
X007508Y009823D01*
X007401Y009779D01*
X007371Y009749D02*
X004645Y009749D01*
X004645Y009907D02*
X008742Y009907D01*
X008584Y009749D02*
X007760Y009749D01*
X007855Y009590D02*
X008425Y009590D01*
X008267Y009432D02*
X007837Y009432D01*
X007809Y009273D02*
X007695Y009273D01*
X007775Y009115D02*
X004645Y009115D01*
X004645Y009273D02*
X007435Y009273D01*
X007293Y009432D02*
X004645Y009432D01*
X004645Y009590D02*
X007275Y009590D01*
X007832Y008956D02*
X004645Y008956D01*
X004645Y008798D02*
X007446Y008798D01*
X007295Y008639D02*
X004645Y008639D01*
X004645Y008481D02*
X007275Y008481D01*
X007685Y008798D02*
X008133Y008798D01*
X007974Y008639D02*
X007835Y008639D01*
X008493Y008164D02*
X009325Y008164D01*
X009319Y008169D02*
X009401Y008087D01*
X009508Y008043D01*
X009623Y008043D01*
X009730Y008087D01*
X009811Y008169D01*
X009855Y008276D01*
X009855Y008391D01*
X009811Y008498D01*
X009730Y008579D01*
X009623Y008623D01*
X009508Y008623D01*
X009401Y008579D01*
X009319Y008498D01*
X009275Y008391D01*
X009275Y008276D01*
X009319Y008169D01*
X009275Y008322D02*
X008651Y008322D01*
X008810Y008481D02*
X009313Y008481D01*
X008968Y008639D02*
X011755Y008639D01*
X011755Y008481D02*
X009818Y008481D01*
X009855Y008322D02*
X011755Y008322D01*
X011599Y008164D02*
X009806Y008164D01*
X010498Y007847D02*
X008176Y007847D01*
X008334Y008005D02*
X010664Y008005D01*
X010866Y008005D02*
X011440Y008005D01*
X011282Y007847D02*
X011032Y007847D01*
X011055Y007688D02*
X011123Y007688D01*
X011559Y007530D02*
X015255Y007530D01*
X015255Y007688D02*
X011717Y007688D01*
X011876Y007847D02*
X013499Y007847D01*
X013508Y007843D02*
X013401Y007887D01*
X013319Y007969D01*
X013275Y008076D01*
X013275Y008191D01*
X013319Y008298D01*
X013401Y008379D01*
X013508Y008423D01*
X013623Y008423D01*
X013730Y008379D01*
X013811Y008298D01*
X013855Y008191D01*
X013855Y008076D01*
X013811Y007969D01*
X013730Y007887D01*
X013623Y007843D01*
X013508Y007843D01*
X013631Y007847D02*
X015255Y007847D01*
X015255Y008005D02*
X013826Y008005D01*
X013855Y008164D02*
X015255Y008164D01*
X015255Y008322D02*
X013786Y008322D01*
X013344Y008322D02*
X012175Y008322D01*
X012175Y008164D02*
X013275Y008164D01*
X013304Y008005D02*
X012034Y008005D01*
X011400Y007371D02*
X015255Y007371D01*
X015255Y007213D02*
X014596Y007213D01*
X014611Y007198D02*
X014530Y007279D01*
X014423Y007323D01*
X014308Y007323D01*
X014201Y007279D01*
X014119Y007198D01*
X014075Y007091D01*
X014075Y007040D01*
X013978Y006943D01*
X013642Y006943D01*
X013655Y006976D01*
X013655Y007091D01*
X013611Y007198D01*
X013530Y007279D01*
X013423Y007323D01*
X013308Y007323D01*
X013201Y007279D01*
X013119Y007198D01*
X013075Y007091D01*
X013075Y006976D01*
X013089Y006943D01*
X010965Y006943D01*
X010930Y006979D01*
X010823Y007023D01*
X010708Y007023D01*
X010601Y006979D01*
X010519Y006898D01*
X010475Y006791D01*
X010475Y006676D01*
X010519Y006569D01*
X010601Y006487D01*
X010708Y006443D01*
X010823Y006443D01*
X010930Y006487D01*
X010965Y006523D01*
X014152Y006523D01*
X014372Y006743D01*
X014423Y006743D01*
X014530Y006787D01*
X014611Y006869D01*
X014655Y006976D01*
X014655Y007091D01*
X014611Y007198D01*
X014655Y007054D02*
X015255Y007054D01*
X015255Y006896D02*
X014622Y006896D01*
X014366Y006737D02*
X015255Y006737D01*
X015255Y006733D02*
X015219Y006698D01*
X015175Y006591D01*
X015175Y006476D01*
X015219Y006369D01*
X015301Y006287D01*
X015408Y006243D01*
X015523Y006243D01*
X015630Y006287D01*
X015711Y006369D01*
X015755Y006476D01*
X015755Y006591D01*
X015711Y006698D01*
X015675Y006733D01*
X015675Y011946D01*
X015783Y012054D01*
X015808Y012043D01*
X015923Y012043D01*
X016030Y012087D01*
X016111Y012169D01*
X016155Y012276D01*
X016155Y012391D01*
X016111Y012498D01*
X016030Y012579D01*
X015923Y012623D01*
X015808Y012623D01*
X015701Y012579D01*
X015619Y012498D01*
X015610Y012475D01*
X015255Y012120D01*
X015255Y006733D01*
X015175Y006579D02*
X014208Y006579D01*
X014838Y006103D02*
X012450Y006103D01*
X012455Y006091D02*
X012411Y006198D01*
X012330Y006279D01*
X012223Y006323D01*
X012108Y006323D01*
X012001Y006279D01*
X011919Y006198D01*
X011875Y006091D01*
X011875Y005976D01*
X011919Y005869D01*
X012001Y005787D01*
X012108Y005743D01*
X012223Y005743D01*
X012330Y005787D01*
X012411Y005869D01*
X012455Y005976D01*
X012455Y006091D01*
X012443Y005945D02*
X013867Y005945D01*
X013901Y005979D02*
X013819Y005898D01*
X013775Y005791D01*
X013775Y005676D01*
X013819Y005569D01*
X013901Y005487D01*
X014008Y005443D01*
X014123Y005443D01*
X014230Y005487D01*
X014275Y005533D01*
X014275Y005476D01*
X014319Y005369D01*
X014401Y005287D01*
X014508Y005243D01*
X014623Y005243D01*
X014730Y005287D01*
X014811Y005369D01*
X014855Y005476D01*
X014855Y005526D01*
X015152Y005823D01*
X017252Y005823D01*
X017452Y006023D01*
X017575Y006146D01*
X017575Y008843D01*
X017623Y008843D01*
X017730Y008887D01*
X017811Y008969D01*
X017855Y009076D01*
X017855Y009191D01*
X017811Y009298D01*
X017730Y009379D01*
X017623Y009423D01*
X017508Y009423D01*
X017401Y009379D01*
X017319Y009298D01*
X017275Y009191D01*
X017275Y009140D01*
X017155Y009020D01*
X017155Y006320D01*
X017078Y006243D01*
X014978Y006243D01*
X014855Y006120D01*
X014558Y005823D01*
X014508Y005823D01*
X014401Y005779D01*
X014355Y005733D01*
X014355Y005791D01*
X014311Y005898D01*
X014230Y005979D01*
X014123Y006023D01*
X014008Y006023D01*
X013901Y005979D01*
X013775Y005786D02*
X012327Y005786D01*
X012004Y005786D02*
X008255Y005786D01*
X008255Y005791D02*
X008211Y005898D01*
X008130Y005979D01*
X008023Y006023D01*
X007908Y006023D01*
X007801Y005979D01*
X007719Y005898D01*
X007675Y005791D01*
X007675Y005676D01*
X007719Y005569D01*
X007801Y005487D01*
X007908Y005443D01*
X008023Y005443D01*
X008130Y005487D01*
X008211Y005569D01*
X008255Y005676D01*
X008255Y005791D01*
X008236Y005628D02*
X013795Y005628D01*
X013945Y005469D02*
X008086Y005469D01*
X007845Y005469D02*
X004645Y005469D01*
X004645Y005311D02*
X012477Y005311D01*
X012508Y005323D02*
X012401Y005279D01*
X012319Y005198D01*
X012275Y005091D01*
X012275Y004976D01*
X012319Y004869D01*
X012401Y004787D01*
X012508Y004743D01*
X012623Y004743D01*
X012730Y004787D01*
X012811Y004869D01*
X012855Y004976D01*
X012855Y005091D01*
X012811Y005198D01*
X012730Y005279D01*
X012623Y005323D01*
X012508Y005323D01*
X012653Y005311D02*
X014378Y005311D01*
X014278Y005469D02*
X014186Y005469D01*
X014355Y005786D02*
X014418Y005786D01*
X014264Y005945D02*
X014680Y005945D01*
X015115Y005786D02*
X017475Y005786D01*
X017475Y005791D02*
X017475Y005676D01*
X017519Y005569D01*
X017601Y005487D01*
X017708Y005443D01*
X017823Y005443D01*
X017930Y005487D01*
X018011Y005569D01*
X018055Y005676D01*
X018055Y005791D01*
X018011Y005898D01*
X017930Y005979D01*
X017823Y006023D01*
X017708Y006023D01*
X017601Y005979D01*
X017519Y005898D01*
X017475Y005791D01*
X017495Y005628D02*
X015681Y005628D01*
X015711Y005598D02*
X015630Y005679D01*
X015523Y005723D01*
X015408Y005723D01*
X015301Y005679D01*
X015219Y005598D01*
X015175Y005491D01*
X015175Y005376D01*
X015219Y005269D01*
X015301Y005187D01*
X015408Y005143D01*
X015523Y005143D01*
X015630Y005187D01*
X015711Y005269D01*
X015755Y005376D01*
X015755Y005491D01*
X015711Y005598D01*
X015755Y005469D02*
X017645Y005469D01*
X017886Y005469D02*
X022585Y005469D01*
X022585Y005311D02*
X015728Y005311D01*
X015545Y005152D02*
X020962Y005152D01*
X020849Y005106D02*
X020593Y004849D01*
X020454Y004515D01*
X020454Y004152D01*
X020593Y003817D01*
X020849Y003561D01*
X021184Y003422D01*
X021547Y003422D01*
X021881Y003561D01*
X022138Y003817D01*
X022277Y004152D01*
X022277Y004515D01*
X022138Y004849D01*
X021881Y005106D01*
X021547Y005245D01*
X021184Y005245D01*
X020849Y005106D01*
X020737Y004994D02*
X012855Y004994D01*
X012830Y005152D02*
X015386Y005152D01*
X015202Y005311D02*
X014753Y005311D01*
X014853Y005469D02*
X015175Y005469D01*
X015250Y005628D02*
X014957Y005628D01*
X015363Y006262D02*
X012347Y006262D01*
X011984Y006262D02*
X007439Y006262D01*
X007439Y006321D02*
X007369Y006490D01*
X007240Y006619D01*
X007071Y006689D01*
X006888Y006689D01*
X006719Y006619D01*
X006590Y006490D01*
X006519Y006321D01*
X006519Y006138D01*
X006590Y005969D01*
X006719Y005839D01*
X006888Y005769D01*
X007071Y005769D01*
X007240Y005839D01*
X007369Y005969D01*
X007439Y006138D01*
X007439Y006321D01*
X007398Y006420D02*
X015198Y006420D01*
X015568Y006262D02*
X017097Y006262D01*
X017155Y006420D02*
X015732Y006420D01*
X015755Y006579D02*
X017155Y006579D01*
X017155Y006737D02*
X015675Y006737D01*
X015675Y006896D02*
X017155Y006896D01*
X017155Y007054D02*
X015675Y007054D01*
X015675Y007213D02*
X017155Y007213D01*
X017155Y007371D02*
X015675Y007371D01*
X015675Y007530D02*
X017155Y007530D01*
X017155Y007688D02*
X017019Y007688D01*
X017011Y007669D02*
X017055Y007776D01*
X017055Y007891D01*
X017011Y007998D01*
X016930Y008079D01*
X016823Y008123D01*
X016708Y008123D01*
X016601Y008079D01*
X016519Y007998D01*
X016475Y007891D01*
X016475Y007776D01*
X016519Y007669D01*
X016601Y007587D01*
X016708Y007543D01*
X016823Y007543D01*
X016930Y007587D01*
X017011Y007669D01*
X017055Y007847D02*
X017155Y007847D01*
X017155Y008005D02*
X017003Y008005D01*
X017155Y008164D02*
X016306Y008164D01*
X016311Y008169D02*
X016355Y008276D01*
X016355Y008391D01*
X016311Y008498D01*
X016230Y008579D01*
X016123Y008623D01*
X016008Y008623D01*
X015901Y008579D01*
X015819Y008498D01*
X015775Y008391D01*
X015775Y008276D01*
X015819Y008169D01*
X015901Y008087D01*
X016008Y008043D01*
X016123Y008043D01*
X016230Y008087D01*
X016311Y008169D01*
X016355Y008322D02*
X017155Y008322D01*
X017155Y008481D02*
X016318Y008481D01*
X016223Y008643D02*
X016330Y008687D01*
X016411Y008769D01*
X016455Y008876D01*
X016455Y008991D01*
X016411Y009098D01*
X016330Y009179D01*
X016223Y009223D01*
X016108Y009223D01*
X016001Y009179D01*
X015919Y009098D01*
X015875Y008991D01*
X015875Y008876D01*
X015919Y008769D01*
X016001Y008687D01*
X016108Y008643D01*
X016223Y008643D01*
X016423Y008798D02*
X016508Y008798D01*
X016519Y008769D02*
X016601Y008687D01*
X016708Y008643D01*
X016823Y008643D01*
X016930Y008687D01*
X017011Y008769D01*
X017055Y008876D01*
X017055Y008991D01*
X017011Y009098D01*
X016930Y009179D01*
X016823Y009223D01*
X016708Y009223D01*
X016601Y009179D01*
X016519Y009098D01*
X016475Y008991D01*
X016475Y008876D01*
X016519Y008769D01*
X016475Y008956D02*
X016455Y008956D01*
X016394Y009115D02*
X016537Y009115D01*
X016994Y009115D02*
X017250Y009115D01*
X017309Y009273D02*
X015675Y009273D01*
X015675Y009115D02*
X015937Y009115D01*
X015875Y008956D02*
X015675Y008956D01*
X015675Y008798D02*
X015908Y008798D01*
X015675Y008639D02*
X017155Y008639D01*
X017155Y008798D02*
X017023Y008798D01*
X017055Y008956D02*
X017155Y008956D01*
X017575Y008798D02*
X022585Y008798D01*
X022585Y008956D02*
X017798Y008956D01*
X017855Y009115D02*
X022585Y009115D01*
X022585Y009273D02*
X018913Y009273D01*
X018911Y009269D02*
X018955Y009376D01*
X018955Y009491D01*
X018911Y009598D01*
X018830Y009679D01*
X018723Y009723D01*
X018608Y009723D01*
X018501Y009679D01*
X018419Y009598D01*
X018375Y009491D01*
X018375Y009376D01*
X018419Y009269D01*
X018501Y009187D01*
X018608Y009143D01*
X018723Y009143D01*
X018830Y009187D01*
X018911Y009269D01*
X018955Y009432D02*
X019557Y009432D01*
X019519Y009469D02*
X019601Y009387D01*
X019708Y009343D01*
X019823Y009343D01*
X019930Y009387D01*
X020011Y009469D01*
X020055Y009576D01*
X020055Y009691D01*
X020011Y009798D01*
X019930Y009879D01*
X019823Y009923D01*
X019708Y009923D01*
X019601Y009879D01*
X019519Y009798D01*
X019475Y009691D01*
X019475Y009576D01*
X019519Y009469D01*
X019475Y009590D02*
X018914Y009590D01*
X018416Y009590D02*
X015675Y009590D01*
X015675Y009432D02*
X018375Y009432D01*
X018418Y009273D02*
X017821Y009273D01*
X017823Y010043D02*
X017930Y010087D01*
X018011Y010169D01*
X018055Y010276D01*
X018055Y010391D01*
X018011Y010498D01*
X017930Y010579D01*
X017823Y010623D01*
X017708Y010623D01*
X017601Y010579D01*
X017519Y010498D01*
X017475Y010391D01*
X017475Y010276D01*
X017519Y010169D01*
X017601Y010087D01*
X017708Y010043D01*
X017823Y010043D01*
X017877Y010066D02*
X022585Y010066D01*
X022585Y010224D02*
X018034Y010224D01*
X018055Y010383D02*
X022585Y010383D01*
X022585Y010541D02*
X017967Y010541D01*
X017563Y010541D02*
X015675Y010541D01*
X015675Y010383D02*
X017475Y010383D01*
X017497Y010224D02*
X015675Y010224D01*
X015675Y010066D02*
X017653Y010066D01*
X019499Y009749D02*
X015675Y009749D01*
X015675Y009907D02*
X019669Y009907D01*
X019862Y009907D02*
X022585Y009907D01*
X022585Y009749D02*
X020031Y009749D01*
X020055Y009590D02*
X022585Y009590D01*
X022585Y009432D02*
X019974Y009432D01*
X020023Y008523D02*
X019908Y008523D01*
X019801Y008479D01*
X019719Y008398D01*
X019675Y008291D01*
X019675Y008176D01*
X019719Y008069D01*
X019801Y007987D01*
X019908Y007943D01*
X020023Y007943D01*
X020130Y007987D01*
X020211Y008069D01*
X020255Y008176D01*
X020255Y008291D01*
X020211Y008398D01*
X020130Y008479D01*
X020023Y008523D01*
X020126Y008481D02*
X022585Y008481D01*
X022585Y008639D02*
X017575Y008639D01*
X017575Y008481D02*
X019805Y008481D01*
X019688Y008322D02*
X017575Y008322D01*
X017575Y008164D02*
X019680Y008164D01*
X019783Y008005D02*
X017575Y008005D01*
X017575Y007847D02*
X021142Y007847D01*
X021119Y007869D02*
X021201Y007787D01*
X021308Y007743D01*
X021423Y007743D01*
X021530Y007787D01*
X021611Y007869D01*
X021655Y007976D01*
X021655Y008091D01*
X021611Y008198D01*
X021530Y008279D01*
X021423Y008323D01*
X021308Y008323D01*
X021201Y008279D01*
X021119Y008198D01*
X021075Y008091D01*
X021075Y007976D01*
X021119Y007869D01*
X021075Y008005D02*
X020147Y008005D01*
X020250Y008164D02*
X021105Y008164D01*
X021305Y008322D02*
X020242Y008322D01*
X021425Y008322D02*
X022585Y008322D01*
X022585Y008164D02*
X021625Y008164D01*
X021655Y008005D02*
X022585Y008005D01*
X022585Y007847D02*
X021589Y007847D01*
X022585Y007688D02*
X017575Y007688D01*
X017575Y007530D02*
X022585Y007530D01*
X022585Y007371D02*
X017575Y007371D01*
X017575Y007213D02*
X022585Y007213D01*
X022585Y007054D02*
X017575Y007054D01*
X017575Y006896D02*
X018541Y006896D01*
X018501Y006879D02*
X018419Y006798D01*
X018375Y006691D01*
X018375Y006576D01*
X018419Y006469D01*
X018501Y006387D01*
X018608Y006343D01*
X018723Y006343D01*
X018830Y006387D01*
X018911Y006469D01*
X018955Y006576D01*
X018955Y006691D01*
X018911Y006798D01*
X018830Y006879D01*
X018723Y006923D01*
X018608Y006923D01*
X018501Y006879D01*
X018395Y006737D02*
X017575Y006737D01*
X017575Y006579D02*
X018375Y006579D01*
X018468Y006420D02*
X017575Y006420D01*
X017575Y006262D02*
X022585Y006262D01*
X022585Y006420D02*
X018862Y006420D01*
X018955Y006579D02*
X022585Y006579D01*
X022585Y006737D02*
X018936Y006737D01*
X018789Y006896D02*
X022585Y006896D01*
X022585Y006103D02*
X019405Y006103D01*
X019411Y006098D02*
X019330Y006179D01*
X019223Y006223D01*
X019108Y006223D01*
X019001Y006179D01*
X018919Y006098D01*
X018875Y005991D01*
X018875Y005876D01*
X018919Y005769D01*
X019001Y005687D01*
X019108Y005643D01*
X019223Y005643D01*
X019330Y005687D01*
X019411Y005769D01*
X019455Y005876D01*
X019455Y005991D01*
X019411Y006098D01*
X019455Y005945D02*
X022585Y005945D01*
X022585Y005786D02*
X019418Y005786D01*
X018912Y005786D02*
X018055Y005786D01*
X018036Y005628D02*
X022585Y005628D01*
X022585Y005152D02*
X021769Y005152D01*
X021993Y004994D02*
X022585Y004994D01*
X022585Y004835D02*
X022144Y004835D01*
X022209Y004677D02*
X022585Y004677D01*
X022585Y004518D02*
X022275Y004518D01*
X022277Y004360D02*
X022585Y004360D01*
X022579Y004201D02*
X022277Y004201D01*
X022231Y004043D02*
X022547Y004043D01*
X022504Y003884D02*
X022166Y003884D01*
X022046Y003726D02*
X022424Y003726D01*
X022328Y003567D02*
X021888Y003567D01*
X021931Y003250D02*
X019492Y003250D01*
X019511Y003269D02*
X019555Y003376D01*
X019555Y003491D01*
X019511Y003598D01*
X019430Y003679D01*
X019323Y003723D01*
X019208Y003723D01*
X019101Y003679D01*
X019019Y003598D01*
X018975Y003491D01*
X018975Y003376D01*
X019019Y003269D01*
X019101Y003187D01*
X019208Y003143D01*
X019323Y003143D01*
X019430Y003187D01*
X019511Y003269D01*
X019555Y003409D02*
X022169Y003409D01*
X020843Y003567D02*
X019524Y003567D01*
X019007Y003567D02*
X016508Y003567D01*
X016525Y003409D02*
X018975Y003409D01*
X019038Y003250D02*
X016487Y003250D01*
X016423Y003726D02*
X020684Y003726D01*
X020565Y003884D02*
X016179Y003884D01*
X015952Y003884D02*
X015179Y003884D01*
X014952Y003884D02*
X014179Y003884D01*
X013952Y003884D02*
X013231Y003884D01*
X013085Y003884D02*
X013045Y003884D01*
X013045Y003913D02*
X013028Y003913D01*
X012953Y003902D01*
X012881Y003878D01*
X012814Y003844D01*
X012753Y003799D01*
X012699Y003746D01*
X012655Y003685D01*
X012620Y003618D01*
X012597Y003546D01*
X012585Y003471D01*
X012585Y003453D01*
X013045Y003453D01*
X013045Y003913D01*
X012900Y003884D02*
X012179Y003884D01*
X011952Y003884D02*
X011179Y003884D01*
X010952Y003884D02*
X010755Y003884D01*
X010755Y003876D02*
X010711Y003769D01*
X010630Y003687D01*
X010523Y003643D01*
X010408Y003643D01*
X010301Y003687D01*
X010219Y003769D01*
X010175Y003876D01*
X010175Y003991D01*
X010219Y004098D01*
X010301Y004179D01*
X010408Y004223D01*
X010523Y004223D01*
X010630Y004179D01*
X010711Y004098D01*
X010755Y003991D01*
X010755Y003876D01*
X010707Y003726D02*
X010668Y003726D01*
X010623Y003567D02*
X006388Y003567D01*
X006381Y003561D02*
X006638Y003817D01*
X006777Y004152D01*
X006777Y004515D01*
X006638Y004849D01*
X006381Y005106D01*
X006047Y005245D01*
X005684Y005245D01*
X005349Y005106D01*
X005093Y004849D01*
X004954Y004515D01*
X004954Y004152D01*
X005093Y003817D01*
X005349Y003561D01*
X005684Y003422D01*
X006047Y003422D01*
X006381Y003561D01*
X006546Y003726D02*
X010263Y003726D01*
X010175Y003884D02*
X006666Y003884D01*
X006731Y004043D02*
X010197Y004043D01*
X010355Y004201D02*
X006777Y004201D01*
X006777Y004360D02*
X014229Y004360D01*
X014219Y004369D02*
X014301Y004287D01*
X014408Y004243D01*
X014523Y004243D01*
X014630Y004287D01*
X014711Y004369D01*
X014755Y004476D01*
X014755Y004591D01*
X014711Y004698D01*
X014630Y004779D01*
X014523Y004823D01*
X014408Y004823D01*
X014301Y004779D01*
X014219Y004698D01*
X014175Y004591D01*
X014175Y004476D01*
X014219Y004369D01*
X014175Y004518D02*
X006775Y004518D01*
X006709Y004677D02*
X014211Y004677D01*
X014720Y004677D02*
X015911Y004677D01*
X015919Y004698D02*
X015875Y004591D01*
X015875Y004476D01*
X015919Y004369D01*
X016001Y004287D01*
X016108Y004243D01*
X016223Y004243D01*
X016330Y004287D01*
X016411Y004369D01*
X016455Y004476D01*
X016455Y004591D01*
X016411Y004698D01*
X016330Y004779D01*
X016223Y004823D01*
X016108Y004823D01*
X016001Y004779D01*
X015919Y004698D01*
X015875Y004518D02*
X014755Y004518D01*
X014702Y004360D02*
X015929Y004360D01*
X016402Y004360D02*
X020454Y004360D01*
X020456Y004518D02*
X016455Y004518D01*
X016420Y004677D02*
X020521Y004677D01*
X020587Y004835D02*
X012777Y004835D01*
X012353Y004835D02*
X006644Y004835D01*
X006493Y004994D02*
X012275Y004994D01*
X012301Y005152D02*
X006269Y005152D01*
X005462Y005152D02*
X004645Y005152D01*
X004645Y004994D02*
X005237Y004994D01*
X005087Y004835D02*
X004645Y004835D01*
X004645Y004677D02*
X005021Y004677D01*
X004956Y004518D02*
X004645Y004518D01*
X004645Y004360D02*
X004954Y004360D01*
X004954Y004201D02*
X004652Y004201D01*
X004684Y004043D02*
X004999Y004043D01*
X005065Y003884D02*
X004726Y003884D01*
X004806Y003726D02*
X005184Y003726D01*
X005343Y003567D02*
X004903Y003567D01*
X005061Y003409D02*
X010605Y003409D01*
X010643Y003250D02*
X005300Y003250D01*
X010576Y004201D02*
X020454Y004201D01*
X020499Y004043D02*
X010734Y004043D01*
X011423Y003726D02*
X011707Y003726D01*
X011623Y003567D02*
X011508Y003567D01*
X011525Y003409D02*
X011605Y003409D01*
X011643Y003250D02*
X011487Y003250D01*
X012487Y003250D02*
X012620Y003250D01*
X012585Y003409D02*
X012525Y003409D01*
X012508Y003567D02*
X012604Y003567D01*
X012685Y003726D02*
X012423Y003726D01*
X013045Y003726D02*
X013085Y003726D01*
X013085Y003567D02*
X013045Y003567D01*
X013446Y003726D02*
X013707Y003726D01*
X013623Y003567D02*
X013526Y003567D01*
X013545Y003409D02*
X013605Y003409D01*
X013643Y003250D02*
X013511Y003250D01*
X014487Y003250D02*
X014643Y003250D01*
X014605Y003409D02*
X014525Y003409D01*
X014508Y003567D02*
X014623Y003567D01*
X014707Y003726D02*
X014423Y003726D01*
X015423Y003726D02*
X015707Y003726D01*
X015623Y003567D02*
X015508Y003567D01*
X015525Y003409D02*
X015605Y003409D01*
X015643Y003250D02*
X015487Y003250D01*
X017374Y005945D02*
X017567Y005945D01*
X017532Y006103D02*
X018925Y006103D01*
X018875Y005945D02*
X017964Y005945D01*
X014135Y007213D02*
X013596Y007213D01*
X013655Y007054D02*
X014075Y007054D01*
X013135Y007213D02*
X007439Y007213D01*
X007405Y007054D02*
X013075Y007054D01*
X011880Y006103D02*
X007425Y006103D01*
X007345Y005945D02*
X007767Y005945D01*
X007675Y005786D02*
X007112Y005786D01*
X006847Y005786D02*
X006112Y005786D01*
X005847Y005786D02*
X005112Y005786D01*
X004847Y005786D02*
X004645Y005786D01*
X004645Y005628D02*
X007695Y005628D01*
X008164Y005945D02*
X011888Y005945D01*
X010515Y006579D02*
X009715Y006579D01*
X009711Y006569D02*
X009755Y006676D01*
X009755Y006791D01*
X009711Y006898D01*
X009630Y006979D01*
X009523Y007023D01*
X009408Y007023D01*
X009301Y006979D01*
X009219Y006898D01*
X009175Y006791D01*
X009175Y006676D01*
X009219Y006569D01*
X009301Y006487D01*
X009408Y006443D01*
X009523Y006443D01*
X009630Y006487D01*
X009711Y006569D01*
X009755Y006737D02*
X010475Y006737D01*
X010519Y006896D02*
X009712Y006896D01*
X009219Y006896D02*
X007296Y006896D01*
X006566Y006737D02*
X009175Y006737D01*
X009215Y006579D02*
X007281Y006579D01*
X006678Y006579D02*
X006408Y006579D01*
X006398Y006420D02*
X006561Y006420D01*
X006519Y006262D02*
X006439Y006262D01*
X006425Y006103D02*
X006534Y006103D01*
X006614Y005945D02*
X006345Y005945D01*
X005614Y005945D02*
X005345Y005945D01*
X005425Y006103D02*
X005534Y006103D01*
X005519Y006262D02*
X005439Y006262D01*
X005398Y006420D02*
X005561Y006420D01*
X005678Y006579D02*
X005281Y006579D01*
X004678Y006579D02*
X004645Y006579D01*
X004645Y006737D02*
X005972Y006737D01*
X005663Y006896D02*
X005296Y006896D01*
X005405Y007054D02*
X005554Y007054D01*
X005519Y007213D02*
X005439Y007213D01*
X005419Y007371D02*
X005540Y007371D01*
X005629Y007530D02*
X005330Y007530D01*
X005074Y007688D02*
X005769Y007688D01*
X005882Y007847D02*
X004645Y007847D01*
X004645Y008005D02*
X006040Y008005D01*
X006199Y008164D02*
X004645Y008164D01*
X004645Y008322D02*
X006357Y008322D01*
X006717Y007688D02*
X006885Y007688D01*
X007074Y007688D02*
X010475Y007688D01*
X015675Y007688D02*
X016511Y007688D01*
X016475Y007847D02*
X015675Y007847D01*
X015675Y008005D02*
X016527Y008005D01*
X015825Y008164D02*
X015675Y008164D01*
X015675Y008322D02*
X015775Y008322D01*
X015813Y008481D02*
X015675Y008481D01*
X015255Y010383D02*
X014817Y010383D01*
X015183Y010541D02*
X015255Y010541D01*
X015255Y010700D02*
X015255Y010700D01*
X015255Y010858D02*
X015227Y010858D01*
X015675Y010858D02*
X022585Y010858D01*
X022585Y010700D02*
X015675Y010700D01*
X015675Y011017D02*
X022585Y011017D01*
X022585Y011175D02*
X021675Y011175D01*
X021547Y011122D02*
X021881Y011261D01*
X022138Y011517D01*
X022277Y011852D01*
X022277Y012215D01*
X022138Y012549D01*
X021881Y012806D01*
X021547Y012945D01*
X021184Y012945D01*
X020849Y012806D01*
X020593Y012549D01*
X020454Y012215D01*
X020454Y011852D01*
X020593Y011517D01*
X020849Y011261D01*
X021184Y011122D01*
X021547Y011122D01*
X021954Y011334D02*
X022585Y011334D01*
X022585Y011492D02*
X022113Y011492D01*
X022193Y011651D02*
X022585Y011651D01*
X022585Y011809D02*
X022259Y011809D01*
X022277Y011968D02*
X022585Y011968D01*
X022581Y012126D02*
X022277Y012126D01*
X022247Y012285D02*
X022557Y012285D01*
X022515Y012443D02*
X022182Y012443D01*
X022085Y012602D02*
X022447Y012602D01*
X022355Y012760D02*
X021927Y012760D01*
X022208Y012919D02*
X021609Y012919D01*
X021578Y013236D02*
X017137Y013236D01*
X017155Y013077D02*
X021999Y013077D01*
X021122Y012919D02*
X017061Y012919D01*
X016670Y012919D02*
X014261Y012919D01*
X014355Y013077D02*
X016575Y013077D01*
X016594Y013236D02*
X014337Y013236D01*
X013794Y013236D02*
X008313Y013236D01*
X008404Y013077D02*
X013775Y013077D01*
X013870Y012919D02*
X008425Y012919D01*
X008392Y012760D02*
X020804Y012760D01*
X020645Y012602D02*
X015975Y012602D01*
X015756Y012602D02*
X010909Y012602D01*
X010838Y012631D02*
X010680Y012631D01*
X010534Y012571D01*
X010422Y012459D01*
X010365Y012322D01*
X010309Y012459D01*
X010197Y012571D01*
X010051Y012631D01*
X009892Y012631D01*
X009746Y012571D01*
X009634Y012459D01*
X009574Y012312D01*
X009574Y012154D01*
X009634Y012008D01*
X009746Y011896D01*
X009892Y011836D01*
X010051Y011836D01*
X010197Y011896D01*
X010309Y012008D01*
X010365Y012144D01*
X010422Y012008D01*
X010534Y011896D01*
X010680Y011836D01*
X010838Y011836D01*
X010984Y011896D01*
X011096Y012008D01*
X011157Y012154D01*
X011157Y012312D01*
X011096Y012459D01*
X010984Y012571D01*
X010838Y012631D01*
X010609Y012602D02*
X010121Y012602D01*
X010315Y012443D02*
X010415Y012443D01*
X010373Y012126D02*
X010358Y012126D01*
X010269Y011968D02*
X010462Y011968D01*
X011056Y011968D02*
X015255Y011968D01*
X015261Y012126D02*
X011145Y012126D01*
X011157Y012285D02*
X015420Y012285D01*
X015578Y012443D02*
X011103Y012443D01*
X009822Y012602D02*
X008284Y012602D01*
X008264Y012285D02*
X009574Y012285D01*
X009585Y012126D02*
X008383Y012126D01*
X008425Y011968D02*
X009675Y011968D01*
X009628Y012443D02*
X006682Y012443D01*
X009009Y010700D02*
X009135Y010700D01*
X015675Y011175D02*
X021056Y011175D01*
X020776Y011334D02*
X019476Y011334D01*
X019511Y011369D02*
X019555Y011476D01*
X019555Y011591D01*
X019511Y011698D01*
X019430Y011779D01*
X019323Y011823D01*
X019208Y011823D01*
X019101Y011779D01*
X019019Y011698D01*
X018975Y011591D01*
X018975Y011476D01*
X019019Y011369D01*
X019101Y011287D01*
X019208Y011243D01*
X019323Y011243D01*
X019430Y011287D01*
X019511Y011369D01*
X019555Y011492D02*
X020618Y011492D01*
X020537Y011651D02*
X019531Y011651D01*
X019357Y011809D02*
X020472Y011809D01*
X020454Y011968D02*
X015697Y011968D01*
X015675Y011809D02*
X019174Y011809D01*
X019000Y011651D02*
X015675Y011651D01*
X015675Y011492D02*
X018975Y011492D01*
X019055Y011334D02*
X015675Y011334D01*
X016068Y012126D02*
X020454Y012126D01*
X020483Y012285D02*
X016155Y012285D01*
X016134Y012443D02*
X020549Y012443D01*
X004885Y007688D02*
X004645Y007688D01*
X004645Y006896D02*
X004663Y006896D01*
M02*
