G75*
%MOIN*%
%OFA0B0*%
%FSLAX24Y24*%
%IPPOS*%
%LPD*%
%AMOC8*
5,1,8,0,0,1.08239X$1,22.5*
%
%ADD10C,0.0000*%
%ADD11C,0.0080*%
%ADD12C,0.0040*%
%ADD13C,0.0160*%
%ADD14C,0.0050*%
%ADD15C,0.0100*%
%ADD16C,0.0060*%
%ADD17C,0.0059*%
%ADD18R,0.0050X0.0003*%
%ADD19R,0.0077X0.0003*%
%ADD20R,0.0095X0.0003*%
%ADD21R,0.0105X0.0003*%
%ADD22R,0.0115X0.0003*%
%ADD23R,0.0123X0.0003*%
%ADD24R,0.0130X0.0003*%
%ADD25R,0.0135X0.0003*%
%ADD26R,0.0140X0.0003*%
%ADD27R,0.0022X0.0003*%
%ADD28R,0.0025X0.0003*%
%ADD29R,0.0145X0.0003*%
%ADD30R,0.0043X0.0003*%
%ADD31R,0.0003X0.0003*%
%ADD32R,0.0147X0.0003*%
%ADD33R,0.0047X0.0003*%
%ADD34R,0.0035X0.0003*%
%ADD35R,0.0152X0.0003*%
%ADD36R,0.0045X0.0003*%
%ADD37R,0.0155X0.0003*%
%ADD38R,0.0055X0.0003*%
%ADD39R,0.0053X0.0003*%
%ADD40R,0.0088X0.0003*%
%ADD41R,0.0065X0.0003*%
%ADD42R,0.0075X0.0003*%
%ADD43R,0.0070X0.0003*%
%ADD44R,0.0073X0.0003*%
%ADD45R,0.0063X0.0003*%
%ADD46R,0.0060X0.0003*%
%ADD47R,0.0080X0.0003*%
%ADD48R,0.0057X0.0003*%
%ADD49R,0.0083X0.0003*%
%ADD50R,0.0085X0.0003*%
%ADD51R,0.0015X0.0003*%
%ADD52R,0.0040X0.0003*%
%ADD53R,0.0037X0.0003*%
%ADD54R,0.0032X0.0003*%
%ADD55R,0.0018X0.0003*%
%ADD56R,0.0010X0.0003*%
%ADD57R,0.0005X0.0003*%
%ADD58R,0.0008X0.0003*%
%ADD59R,0.0013X0.0003*%
%ADD60R,0.0020X0.0003*%
%ADD61R,0.0030X0.0003*%
%ADD62R,0.0067X0.0003*%
%ADD63R,0.0027X0.0003*%
%ADD64R,0.0125X0.0003*%
%ADD65R,0.0092X0.0003*%
%ADD66R,0.0127X0.0003*%
%ADD67R,0.0097X0.0003*%
%ADD68R,0.0103X0.0003*%
%ADD69R,0.0100X0.0003*%
%ADD70R,0.0090X0.0003*%
%ADD71R,0.0132X0.0003*%
%ADD72R,0.0120X0.0003*%
%ADD73R,0.0107X0.0003*%
%ADD74R,0.0138X0.0003*%
%ADD75R,0.0112X0.0003*%
%ADD76R,0.0110X0.0003*%
%ADD77R,0.0118X0.0003*%
%ADD78R,0.0150X0.0003*%
%ADD79R,0.0143X0.0003*%
%ADD80R,0.0160X0.0003*%
%ADD81R,0.0165X0.0003*%
%ADD82R,0.0158X0.0003*%
%ADD83R,0.0168X0.0003*%
%ADD84R,0.0163X0.0003*%
%ADD85R,0.0170X0.0003*%
%ADD86R,0.0173X0.0003*%
%ADD87R,0.0175X0.0003*%
%ADD88R,0.0177X0.0003*%
%ADD89R,0.3335X0.0003*%
%ADD90R,0.3367X0.0003*%
%ADD91R,0.3387X0.0003*%
%ADD92R,0.3402X0.0003*%
%ADD93R,0.3415X0.0003*%
%ADD94R,0.3427X0.0003*%
%ADD95R,0.3440X0.0003*%
%ADD96R,0.3448X0.0003*%
%ADD97R,0.3455X0.0003*%
%ADD98R,0.3465X0.0003*%
%ADD99R,0.3473X0.0003*%
%ADD100R,0.3480X0.0003*%
%ADD101R,0.3485X0.0003*%
%ADD102R,0.3493X0.0003*%
%ADD103R,0.3498X0.0003*%
%ADD104R,0.3505X0.0003*%
%ADD105R,0.3510X0.0003*%
%ADD106R,0.3515X0.0003*%
%ADD107R,0.3520X0.0003*%
%ADD108R,0.3525X0.0003*%
%ADD109R,0.3528X0.0003*%
%ADD110R,0.3533X0.0003*%
%ADD111R,0.3535X0.0003*%
%ADD112R,0.3540X0.0003*%
%ADD113R,0.3545X0.0003*%
%ADD114R,0.3548X0.0003*%
%ADD115R,0.3550X0.0003*%
%ADD116R,0.3555X0.0003*%
%ADD117R,0.3558X0.0003*%
%ADD118R,0.3560X0.0003*%
%ADD119R,0.3565X0.0003*%
%ADD120R,0.3568X0.0003*%
%ADD121R,0.3570X0.0003*%
%ADD122R,0.3575X0.0003*%
%ADD123R,0.3580X0.0003*%
%ADD124R,0.3583X0.0003*%
%ADD125R,0.3585X0.0003*%
%ADD126R,0.3588X0.0003*%
%ADD127R,0.3590X0.0003*%
%ADD128R,0.3593X0.0003*%
%ADD129R,0.3595X0.0003*%
%ADD130R,0.3598X0.0003*%
%ADD131R,0.3600X0.0003*%
%ADD132R,0.3603X0.0003*%
%ADD133R,0.3605X0.0003*%
%ADD134R,0.0767X0.0003*%
%ADD135R,0.2792X0.0003*%
%ADD136R,0.0757X0.0003*%
%ADD137R,0.2782X0.0003*%
%ADD138R,0.2775X0.0003*%
%ADD139R,0.2772X0.0003*%
%ADD140R,0.2770X0.0003*%
%ADD141R,0.0755X0.0003*%
%ADD142R,0.0230X0.0003*%
%ADD143R,0.0198X0.0003*%
%ADD144R,0.0520X0.0003*%
%ADD145R,0.0683X0.0003*%
%ADD146R,0.0185X0.0003*%
%ADD147R,0.0265X0.0003*%
%ADD148R,0.0248X0.0003*%
%ADD149R,0.0210X0.0003*%
%ADD150R,0.0495X0.0003*%
%ADD151R,0.0648X0.0003*%
%ADD152R,0.0235X0.0003*%
%ADD153R,0.0232X0.0003*%
%ADD154R,0.0473X0.0003*%
%ADD155R,0.0628X0.0003*%
%ADD156R,0.0213X0.0003*%
%ADD157R,0.0222X0.0003*%
%ADD158R,0.0195X0.0003*%
%ADD159R,0.0255X0.0003*%
%ADD160R,0.0357X0.0003*%
%ADD161R,0.0215X0.0003*%
%ADD162R,0.0300X0.0003*%
%ADD163R,0.0182X0.0003*%
%ADD164R,0.0208X0.0003*%
%ADD165R,0.0280X0.0003*%
%ADD166R,0.0203X0.0003*%
%ADD167R,0.0275X0.0003*%
%ADD168R,0.0272X0.0003*%
%ADD169R,0.0192X0.0003*%
%ADD170R,0.0267X0.0003*%
%ADD171R,0.0187X0.0003*%
%ADD172R,0.0262X0.0003*%
%ADD173R,0.0180X0.0003*%
%ADD174R,0.0253X0.0003*%
%ADD175R,0.0250X0.0003*%
%ADD176R,0.0245X0.0003*%
%ADD177R,0.0243X0.0003*%
%ADD178R,0.0217X0.0003*%
%ADD179R,0.0220X0.0003*%
%ADD180R,0.0395X0.0003*%
%ADD181R,0.0398X0.0003*%
%ADD182R,0.0225X0.0003*%
%ADD183R,0.0400X0.0003*%
%ADD184R,0.0227X0.0003*%
%ADD185R,0.0403X0.0003*%
%ADD186R,0.0405X0.0003*%
%ADD187R,0.0408X0.0003*%
%ADD188R,0.0238X0.0003*%
%ADD189R,0.0410X0.0003*%
%ADD190R,0.0240X0.0003*%
%ADD191R,0.0200X0.0003*%
%ADD192R,0.0413X0.0003*%
%ADD193R,0.0190X0.0003*%
%ADD194R,0.0415X0.0003*%
%ADD195R,0.0257X0.0003*%
%ADD196R,0.0260X0.0003*%
%ADD197R,0.0418X0.0003*%
%ADD198R,0.0270X0.0003*%
%ADD199R,0.0335X0.0003*%
%ADD200R,0.0285X0.0003*%
%ADD201R,0.0205X0.0003*%
%ADD202R,0.0278X0.0003*%
%ADD203R,0.0283X0.0003*%
%ADD204R,0.0288X0.0003*%
%ADD205R,0.0290X0.0003*%
%ADD206R,0.0295X0.0003*%
%ADD207R,0.0307X0.0003*%
%ADD208R,0.0355X0.0003*%
%ADD209R,0.0352X0.0003*%
%ADD210R,0.0293X0.0003*%
%ADD211R,0.0297X0.0003*%
%ADD212R,0.0385X0.0003*%
%ADD213R,0.0305X0.0003*%
%ADD214R,0.0660X0.0003*%
%ADD215R,0.0315X0.0003*%
%ADD216R,0.0673X0.0003*%
%ADD217R,0.0540X0.0003*%
%ADD218R,0.0330X0.0003*%
%ADD219R,0.0887X0.0003*%
%ADD220R,0.1133X0.0003*%
%ADD221R,0.0515X0.0003*%
%ADD222R,0.0617X0.0003*%
%ADD223R,0.0752X0.0003*%
%ADD224R,0.0750X0.0003*%
%ADD225R,0.0747X0.0003*%
%ADD226R,0.0745X0.0003*%
%ADD227R,0.0742X0.0003*%
%ADD228R,0.0740X0.0003*%
%ADD229R,0.1130X0.0003*%
%ADD230R,0.0735X0.0003*%
%ADD231R,0.0512X0.0003*%
%ADD232R,0.1135X0.0003*%
%ADD233R,0.1138X0.0003*%
%ADD234R,0.1140X0.0003*%
%ADD235R,0.0517X0.0003*%
%ADD236R,0.1145X0.0003*%
%ADD237R,0.1153X0.0003*%
%ADD238R,0.1103X0.0003*%
%ADD239R,0.1172X0.0003*%
%ADD240R,0.0522X0.0003*%
%ADD241R,0.1725X0.0003*%
%ADD242R,0.0620X0.0003*%
%ADD243R,0.1105X0.0003*%
%ADD244R,0.1727X0.0003*%
%ADD245R,0.1732X0.0003*%
%ADD246R,0.1108X0.0003*%
%ADD247R,0.1110X0.0003*%
%ADD248R,0.1735X0.0003*%
%ADD249R,0.1113X0.0003*%
%ADD250R,0.1740X0.0003*%
%ADD251R,0.0622X0.0003*%
%ADD252R,0.1115X0.0003*%
%ADD253R,0.1742X0.0003*%
%ADD254R,0.1120X0.0003*%
%ADD255R,0.1747X0.0003*%
%ADD256R,0.1760X0.0003*%
%ADD257R,0.1772X0.0003*%
%ADD258R,0.0625X0.0003*%
%ADD259R,0.3573X0.0003*%
%ADD260R,0.3538X0.0003*%
%ADD261R,0.3530X0.0003*%
%ADD262R,0.3500X0.0003*%
%ADD263R,0.3458X0.0003*%
%ADD264R,0.3450X0.0003*%
%ADD265R,0.3430X0.0003*%
%ADD266R,0.3420X0.0003*%
%ADD267R,0.3405X0.0003*%
%ADD268R,0.3390X0.0003*%
%ADD269R,0.3372X0.0003*%
%ADD270R,0.3347X0.0003*%
D10*
X005835Y002933D02*
X021395Y002933D01*
X021467Y002935D01*
X021538Y002941D01*
X021609Y002950D01*
X021680Y002963D01*
X021750Y002980D01*
X021818Y003000D01*
X021886Y003024D01*
X021952Y003051D01*
X022017Y003082D01*
X022080Y003117D01*
X022141Y003154D01*
X022200Y003195D01*
X022257Y003238D01*
X022312Y003285D01*
X022364Y003334D01*
X022413Y003386D01*
X022460Y003441D01*
X022503Y003498D01*
X022544Y003557D01*
X022581Y003618D01*
X022616Y003681D01*
X022647Y003746D01*
X022674Y003812D01*
X022698Y003880D01*
X022718Y003948D01*
X022735Y004018D01*
X022748Y004089D01*
X022757Y004160D01*
X022763Y004231D01*
X022765Y004303D01*
X022765Y012063D01*
X022763Y012135D01*
X022757Y012206D01*
X022748Y012277D01*
X022735Y012348D01*
X022718Y012418D01*
X022698Y012486D01*
X022674Y012554D01*
X022647Y012620D01*
X022616Y012685D01*
X022581Y012748D01*
X022544Y012809D01*
X022503Y012868D01*
X022460Y012925D01*
X022413Y012980D01*
X022364Y013032D01*
X022312Y013081D01*
X022257Y013128D01*
X022200Y013171D01*
X022141Y013212D01*
X022080Y013249D01*
X022017Y013284D01*
X021952Y013315D01*
X021886Y013342D01*
X021818Y013366D01*
X021750Y013386D01*
X021680Y013403D01*
X021609Y013416D01*
X021538Y013425D01*
X021467Y013431D01*
X021395Y013433D01*
X005835Y013433D01*
X005763Y013431D01*
X005692Y013425D01*
X005621Y013416D01*
X005550Y013403D01*
X005480Y013386D01*
X005412Y013366D01*
X005344Y013342D01*
X005278Y013315D01*
X005213Y013284D01*
X005150Y013249D01*
X005089Y013212D01*
X005030Y013171D01*
X004973Y013128D01*
X004918Y013081D01*
X004866Y013032D01*
X004817Y012980D01*
X004770Y012925D01*
X004727Y012868D01*
X004686Y012809D01*
X004649Y012748D01*
X004614Y012685D01*
X004583Y012620D01*
X004556Y012554D01*
X004532Y012486D01*
X004512Y012418D01*
X004495Y012348D01*
X004482Y012277D01*
X004473Y012206D01*
X004467Y012135D01*
X004465Y012063D01*
X004465Y004303D01*
X004467Y004231D01*
X004473Y004160D01*
X004482Y004089D01*
X004495Y004018D01*
X004512Y003948D01*
X004532Y003880D01*
X004556Y003812D01*
X004583Y003746D01*
X004614Y003681D01*
X004649Y003618D01*
X004686Y003557D01*
X004727Y003498D01*
X004770Y003441D01*
X004817Y003386D01*
X004866Y003334D01*
X004918Y003285D01*
X004973Y003238D01*
X005030Y003195D01*
X005089Y003154D01*
X005150Y003117D01*
X005213Y003082D01*
X005278Y003051D01*
X005344Y003024D01*
X005412Y003000D01*
X005480Y002980D01*
X005550Y002963D01*
X005621Y002950D01*
X005692Y002941D01*
X005763Y002935D01*
X005835Y002933D01*
D11*
X008742Y004667D02*
X010097Y002967D01*
X017034Y002967D01*
X018388Y004567D01*
X018388Y004723D01*
X017404Y004723D02*
X017404Y004567D01*
X016565Y003683D02*
X016315Y003933D01*
X015815Y003933D01*
X015565Y003683D01*
X015315Y003933D01*
X014815Y003933D01*
X014565Y003683D01*
X014315Y003933D01*
X013815Y003933D01*
X013565Y003683D01*
X013315Y003933D01*
X012815Y003933D01*
X012565Y003683D01*
X012315Y003933D01*
X011815Y003933D01*
X011565Y003683D01*
X011315Y003933D01*
X010815Y003933D01*
X010565Y003683D01*
X010565Y003183D01*
X010815Y002933D01*
X011315Y002933D01*
X011565Y003183D01*
X011815Y002933D01*
X012315Y002933D01*
X012565Y003183D01*
X012815Y002933D01*
X013315Y002933D01*
X013565Y003183D01*
X013815Y002933D01*
X014315Y002933D01*
X014565Y003183D01*
X014815Y002933D01*
X015315Y002933D01*
X015565Y003183D01*
X015815Y002933D01*
X016315Y002933D01*
X016565Y003183D01*
X016565Y003683D01*
X018929Y003534D02*
X019196Y003133D01*
X018929Y003133D02*
X019196Y003534D01*
X019855Y003823D02*
X019922Y003823D01*
X019922Y003890D01*
X019855Y003890D01*
X019855Y003823D01*
X019655Y003853D02*
X019657Y003884D01*
X019663Y003914D01*
X019673Y003943D01*
X019686Y003971D01*
X019703Y003997D01*
X019723Y004020D01*
X019745Y004041D01*
X019771Y004058D01*
X019798Y004072D01*
X019827Y004083D01*
X019857Y004090D01*
X019887Y004093D01*
X019918Y004092D01*
X019948Y004087D01*
X019978Y004078D01*
X020006Y004066D01*
X020032Y004050D01*
X020056Y004031D01*
X020078Y004009D01*
X020096Y003984D01*
X020111Y003957D01*
X020123Y003929D01*
X020131Y003899D01*
X020135Y003868D01*
X020135Y003838D01*
X020131Y003807D01*
X020123Y003777D01*
X020111Y003749D01*
X020096Y003722D01*
X020078Y003697D01*
X020056Y003675D01*
X020032Y003656D01*
X020006Y003640D01*
X019978Y003628D01*
X019948Y003619D01*
X019918Y003614D01*
X019887Y003613D01*
X019857Y003616D01*
X019827Y003623D01*
X019798Y003634D01*
X019771Y003648D01*
X019745Y003665D01*
X019723Y003686D01*
X019703Y003709D01*
X019686Y003735D01*
X019673Y003763D01*
X019663Y003792D01*
X019657Y003822D01*
X019655Y003853D01*
X019679Y004383D02*
X019946Y004383D01*
X019946Y004450D01*
X019679Y004717D01*
X019679Y004784D01*
X019946Y004784D01*
X020763Y005333D02*
X020763Y005534D01*
X020629Y005667D01*
X020629Y005734D01*
X020763Y005534D02*
X020896Y005667D01*
X020896Y005734D01*
X020765Y007433D02*
X020315Y007433D01*
X020315Y008033D01*
X022515Y007733D02*
X022515Y009733D01*
X020765Y010033D02*
X020315Y010033D01*
X020315Y009533D01*
X018388Y010822D02*
X018388Y011038D01*
X017404Y011038D01*
X017404Y010822D01*
X018388Y011038D02*
X018388Y011333D01*
X008742Y011333D01*
X008742Y011038D01*
X009727Y011038D01*
X009727Y010822D01*
X008742Y010822D02*
X008742Y011038D01*
X007355Y011934D02*
X007075Y011934D01*
X007215Y012893D02*
X007215Y013174D01*
X007075Y013034D02*
X007355Y013034D01*
X009775Y012934D02*
X010055Y012934D01*
X010675Y012934D02*
X010955Y012934D01*
X010815Y013074D02*
X010815Y012793D01*
X011853Y012333D02*
X011877Y012333D01*
X013696Y011773D02*
X014034Y011773D01*
X013717Y011940D02*
X013719Y011952D01*
X013724Y011964D01*
X013733Y011973D01*
X013744Y011979D01*
X013756Y011982D01*
X013768Y011981D01*
X013780Y011976D01*
X013790Y011969D01*
X013797Y011958D01*
X013801Y011946D01*
X013801Y011934D01*
X013797Y011922D01*
X013790Y011911D01*
X013780Y011904D01*
X013768Y011899D01*
X013756Y011898D01*
X013744Y011901D01*
X013733Y011907D01*
X013724Y011916D01*
X013719Y011928D01*
X013717Y011940D01*
X014184Y012228D02*
X014184Y012439D01*
X015353Y012333D02*
X015377Y012333D01*
X014034Y012893D02*
X013696Y012893D01*
X013519Y011171D02*
X013519Y011147D01*
X014504Y007053D02*
X014506Y007076D01*
X014512Y007099D01*
X014521Y007120D01*
X014534Y007140D01*
X014550Y007157D01*
X014568Y007171D01*
X014588Y007182D01*
X014610Y007190D01*
X014633Y007194D01*
X014657Y007194D01*
X014680Y007190D01*
X014702Y007182D01*
X014722Y007171D01*
X014740Y007157D01*
X014756Y007140D01*
X014769Y007120D01*
X014778Y007099D01*
X014784Y007076D01*
X014786Y007053D01*
X014784Y007030D01*
X014778Y007007D01*
X014769Y006986D01*
X014756Y006966D01*
X014740Y006949D01*
X014722Y006935D01*
X014702Y006924D01*
X014680Y006916D01*
X014657Y006912D01*
X014633Y006912D01*
X014610Y006916D01*
X014588Y006924D01*
X014568Y006935D01*
X014550Y006949D01*
X014534Y006966D01*
X014521Y006986D01*
X014512Y007007D01*
X014506Y007030D01*
X014504Y007053D01*
X014805Y006753D02*
X014945Y006893D01*
X014904Y006553D02*
X014906Y006576D01*
X014912Y006599D01*
X014921Y006620D01*
X014934Y006640D01*
X014950Y006657D01*
X014968Y006671D01*
X014988Y006682D01*
X015010Y006690D01*
X015033Y006694D01*
X015057Y006694D01*
X015080Y006690D01*
X015102Y006682D01*
X015122Y006671D01*
X015140Y006657D01*
X015156Y006640D01*
X015169Y006620D01*
X015178Y006599D01*
X015184Y006576D01*
X015186Y006553D01*
X015184Y006530D01*
X015178Y006507D01*
X015169Y006486D01*
X015156Y006466D01*
X015140Y006449D01*
X015122Y006435D01*
X015102Y006424D01*
X015080Y006416D01*
X015057Y006412D01*
X015033Y006412D01*
X015010Y006416D01*
X014988Y006424D01*
X014968Y006435D01*
X014950Y006449D01*
X014934Y006466D01*
X014921Y006486D01*
X014912Y006507D01*
X014906Y006530D01*
X014904Y006553D01*
X016054Y005373D02*
X016054Y005317D01*
X013665Y005045D02*
X013665Y005021D01*
X012347Y005213D02*
X011985Y004851D01*
X009727Y004823D02*
X009727Y004667D01*
X008742Y004667D02*
X008742Y004823D01*
X010983Y005853D02*
X011345Y006215D01*
D12*
X011145Y005254D02*
X011145Y005220D01*
X011079Y005153D01*
X011079Y005053D01*
X011079Y005153D02*
X011012Y005220D01*
X011012Y005254D01*
X010924Y005187D02*
X010858Y005254D01*
X010858Y005053D01*
X010924Y005053D02*
X010791Y005053D01*
X010791Y004954D02*
X010791Y004753D01*
X010703Y004753D02*
X010703Y004954D01*
X010791Y004954D02*
X010858Y004887D01*
X010924Y004954D01*
X010924Y004753D01*
X011012Y004787D02*
X011045Y004753D01*
X011112Y004753D01*
X011145Y004787D01*
X011145Y004820D01*
X011112Y004853D01*
X011045Y004853D01*
X011012Y004820D01*
X011012Y004787D01*
X011045Y004853D02*
X011012Y004887D01*
X011012Y004920D01*
X011045Y004954D01*
X011112Y004954D01*
X011145Y004920D01*
X011145Y004887D01*
X011112Y004853D01*
X010703Y004853D02*
X010570Y004853D01*
X010482Y004887D02*
X010349Y004887D01*
X010482Y004753D01*
X010349Y004753D01*
X010570Y004753D02*
X010570Y004954D01*
X010803Y004354D02*
X010903Y004354D01*
X010903Y004153D01*
X010803Y004153D01*
X010770Y004187D01*
X010770Y004320D01*
X010803Y004354D01*
X010991Y004354D02*
X010991Y004153D01*
X011124Y004354D01*
X011124Y004153D01*
X011212Y004187D02*
X011212Y004253D01*
X011279Y004253D01*
X011345Y004187D02*
X011345Y004320D01*
X011312Y004354D01*
X011245Y004354D01*
X011212Y004320D01*
X011212Y004187D02*
X011245Y004153D01*
X011312Y004153D01*
X011345Y004187D01*
X011770Y004187D02*
X011770Y004320D01*
X011803Y004354D01*
X011903Y004354D01*
X011903Y004153D01*
X011803Y004153D01*
X011770Y004187D01*
X011991Y004153D02*
X011991Y004354D01*
X012124Y004354D02*
X011991Y004153D01*
X012124Y004153D02*
X012124Y004354D01*
X012212Y004320D02*
X012245Y004354D01*
X012312Y004354D01*
X012345Y004320D01*
X012345Y004187D01*
X012312Y004153D01*
X012245Y004153D01*
X012212Y004187D01*
X012212Y004253D01*
X012279Y004253D01*
X012759Y004220D02*
X012759Y004354D01*
X012893Y004354D02*
X012893Y004220D01*
X012826Y004153D01*
X012759Y004220D01*
X012980Y004220D02*
X012980Y004187D01*
X013014Y004153D01*
X013080Y004153D01*
X013114Y004187D01*
X013191Y004187D02*
X013191Y004153D01*
X013224Y004153D01*
X013224Y004187D01*
X013191Y004187D01*
X013312Y004187D02*
X013345Y004153D01*
X013412Y004153D01*
X013445Y004187D01*
X013379Y004253D02*
X013345Y004253D01*
X013312Y004220D01*
X013312Y004187D01*
X013345Y004253D02*
X013312Y004287D01*
X013312Y004320D01*
X013345Y004354D01*
X013412Y004354D01*
X013445Y004320D01*
X013114Y004320D02*
X013080Y004354D01*
X013014Y004354D01*
X012980Y004320D01*
X012980Y004287D01*
X013014Y004253D01*
X012980Y004220D01*
X013014Y004253D02*
X013047Y004253D01*
X013891Y004287D02*
X014024Y004153D01*
X014112Y004153D02*
X014179Y004220D01*
X014145Y004220D02*
X014245Y004220D01*
X014245Y004153D02*
X014245Y004354D01*
X014145Y004354D01*
X014112Y004320D01*
X014112Y004253D01*
X014145Y004220D01*
X014024Y004287D02*
X013891Y004153D01*
X014891Y004153D02*
X015024Y004287D01*
X015112Y004354D02*
X015245Y004354D01*
X015179Y004354D02*
X015179Y004153D01*
X015024Y004153D02*
X014891Y004287D01*
X015770Y004320D02*
X015770Y004253D01*
X015803Y004220D01*
X015903Y004220D01*
X015837Y004220D02*
X015770Y004153D01*
X015903Y004153D02*
X015903Y004354D01*
X015803Y004354D01*
X015770Y004320D01*
X015991Y004354D02*
X016124Y004354D01*
X016058Y004354D02*
X016058Y004153D01*
X016212Y004187D02*
X016212Y004320D01*
X016245Y004354D01*
X016345Y004354D01*
X016345Y004153D01*
X016245Y004153D01*
X016212Y004187D01*
X016685Y003729D02*
X016885Y003729D01*
X016885Y003595D02*
X016685Y003729D01*
X016685Y003595D02*
X016885Y003595D01*
X016852Y003508D02*
X016785Y003508D01*
X016752Y003474D01*
X016752Y003374D01*
X016685Y003374D02*
X016885Y003374D01*
X016885Y003474D01*
X016852Y003508D01*
X016752Y003441D02*
X016685Y003508D01*
X016719Y003287D02*
X016785Y003287D01*
X016785Y003220D01*
X016719Y003153D02*
X016685Y003187D01*
X016685Y003253D01*
X016719Y003287D01*
X016852Y003287D02*
X016885Y003253D01*
X016885Y003187D01*
X016852Y003153D01*
X016719Y003153D01*
X015212Y004753D02*
X015245Y004787D01*
X015112Y004920D01*
X015112Y004787D01*
X015145Y004753D01*
X015212Y004753D01*
X015245Y004787D02*
X015245Y004920D01*
X015212Y004954D01*
X015145Y004954D01*
X015112Y004920D01*
X015024Y004787D02*
X014991Y004787D01*
X014991Y004753D01*
X015024Y004753D01*
X015024Y004787D01*
X014914Y004753D02*
X014780Y004753D01*
X014847Y004753D02*
X014847Y004954D01*
X014914Y004887D01*
X014693Y004887D02*
X014693Y004787D01*
X014659Y004753D01*
X014559Y004753D01*
X014559Y004887D01*
X014472Y004853D02*
X014405Y004853D01*
X014472Y004753D02*
X014472Y004954D01*
X014338Y004954D01*
X014891Y005187D02*
X014924Y005153D01*
X014991Y005153D01*
X015024Y005187D01*
X015112Y005187D02*
X015145Y005153D01*
X015212Y005153D01*
X015245Y005187D01*
X015245Y005320D01*
X015212Y005354D01*
X015145Y005354D01*
X015112Y005320D01*
X015024Y005320D02*
X014991Y005354D01*
X014924Y005354D01*
X014891Y005320D01*
X014891Y005287D01*
X014924Y005253D01*
X014891Y005220D01*
X014891Y005187D01*
X014924Y005253D02*
X014958Y005253D01*
X015885Y005813D02*
X016019Y006013D01*
X016106Y006013D02*
X016206Y006013D01*
X016240Y005980D01*
X016240Y005947D01*
X016206Y005913D01*
X016106Y005913D01*
X016106Y006013D02*
X016106Y005813D01*
X016206Y005813D01*
X016240Y005847D01*
X016240Y005880D01*
X016206Y005913D01*
X016327Y005913D02*
X016361Y005880D01*
X016427Y005880D01*
X016461Y005913D01*
X016461Y005947D01*
X016327Y005947D01*
X016327Y005980D02*
X016327Y005913D01*
X016327Y005980D02*
X016361Y006013D01*
X016427Y006013D01*
X016548Y005980D02*
X016548Y005913D01*
X016582Y005880D01*
X016648Y005880D01*
X016682Y005913D01*
X016682Y005947D01*
X016548Y005947D01*
X016548Y005980D02*
X016582Y006013D01*
X016648Y006013D01*
X016019Y005813D02*
X015885Y006013D01*
X018970Y005687D02*
X018970Y005520D01*
X019003Y005487D01*
X019037Y005487D01*
X019070Y005553D02*
X018970Y005553D01*
X019070Y005553D02*
X019103Y005587D01*
X019103Y005653D01*
X019070Y005687D01*
X018970Y005687D01*
X019191Y005653D02*
X019191Y005553D01*
X019291Y005553D01*
X019324Y005587D01*
X019291Y005620D01*
X019191Y005620D01*
X019191Y005653D02*
X019224Y005687D01*
X019291Y005687D01*
X019412Y005754D02*
X019412Y005553D01*
X019545Y005553D02*
X019545Y005754D01*
X019479Y005687D01*
X019412Y005754D01*
X014434Y007813D02*
X014434Y007947D01*
X014367Y008014D01*
X014301Y007947D01*
X014301Y007813D01*
X014301Y007913D02*
X014434Y007913D01*
X014213Y008014D02*
X014080Y008014D01*
X014147Y008014D02*
X014147Y007813D01*
X013992Y007813D02*
X013992Y008014D01*
X013926Y007947D01*
X013859Y008014D01*
X013859Y007813D01*
X013771Y007847D02*
X013771Y007913D01*
X013738Y007947D01*
X013671Y007947D01*
X013638Y007913D01*
X013638Y007880D01*
X013771Y007880D01*
X013771Y007847D02*
X013738Y007813D01*
X013671Y007813D01*
X013550Y007847D02*
X013517Y007813D01*
X013417Y007813D01*
X013417Y007780D02*
X013417Y007947D01*
X013517Y007947D01*
X013550Y007913D01*
X013550Y007847D01*
X013484Y007747D02*
X013450Y007747D01*
X013417Y007780D01*
X013329Y007847D02*
X013296Y007813D01*
X013196Y007813D01*
X013196Y007913D01*
X013229Y007947D01*
X013296Y007947D01*
X013296Y007880D02*
X013196Y007880D01*
X013108Y007847D02*
X013075Y007813D01*
X013008Y007813D01*
X012975Y007847D01*
X012975Y007880D01*
X013008Y007913D01*
X013042Y007913D01*
X013008Y007913D02*
X012975Y007947D01*
X012975Y007980D01*
X013008Y008014D01*
X013075Y008014D01*
X013108Y007980D01*
X013296Y007880D02*
X013329Y007847D01*
X012887Y007813D02*
X012754Y007947D01*
X012754Y007980D01*
X012787Y008014D01*
X012854Y008014D01*
X012887Y007980D01*
X012887Y007813D02*
X012754Y007813D01*
X012666Y007847D02*
X012666Y007880D01*
X012633Y007913D01*
X012566Y007913D01*
X012533Y007880D01*
X012533Y007847D01*
X012566Y007813D01*
X012633Y007813D01*
X012666Y007847D01*
X012633Y007913D02*
X012666Y007947D01*
X012666Y007980D01*
X012633Y008014D01*
X012566Y008014D01*
X012533Y007980D01*
X012533Y007947D01*
X012566Y007913D01*
X016572Y010103D02*
X016645Y010103D01*
X016682Y010140D01*
X016682Y010213D01*
X016645Y010250D01*
X016572Y010250D01*
X016535Y010213D01*
X016535Y010177D01*
X016682Y010177D01*
X016771Y010250D02*
X016808Y010250D01*
X016881Y010177D01*
X016881Y010250D02*
X016881Y010103D01*
X016974Y010177D02*
X017121Y010177D01*
X017121Y010213D02*
X017084Y010250D01*
X017011Y010250D01*
X016974Y010213D01*
X016974Y010177D01*
X017011Y010103D02*
X017084Y010103D01*
X017121Y010140D01*
X017121Y010213D01*
X017213Y010213D02*
X017213Y010103D01*
X017213Y010213D02*
X017250Y010250D01*
X017323Y010250D01*
X017360Y010213D01*
X017360Y010103D02*
X017360Y010324D01*
X017360Y010493D02*
X017250Y010493D01*
X017213Y010530D01*
X017213Y010677D01*
X017250Y010714D01*
X017360Y010714D01*
X017360Y010493D01*
X017121Y010493D02*
X017121Y010640D01*
X017121Y010567D02*
X017047Y010640D01*
X017011Y010640D01*
X016921Y010603D02*
X016921Y010530D01*
X016884Y010493D01*
X016811Y010493D01*
X016774Y010530D01*
X016774Y010603D01*
X016811Y010640D01*
X016884Y010640D01*
X016921Y010603D01*
X016682Y010640D02*
X016572Y010640D01*
X016535Y010603D01*
X016535Y010530D01*
X016572Y010493D01*
X016682Y010493D01*
X016682Y010420D02*
X016682Y010640D01*
X016203Y010640D02*
X016056Y010493D01*
X015964Y010493D02*
X015853Y010493D01*
X015817Y010530D01*
X015817Y010567D01*
X015853Y010603D01*
X015964Y010603D01*
X016056Y010640D02*
X016203Y010493D01*
X015964Y010493D02*
X015964Y010714D01*
X015853Y010714D01*
X015817Y010677D01*
X015817Y010640D01*
X015853Y010603D01*
X015724Y010603D02*
X015687Y010640D01*
X015614Y010640D01*
X015577Y010603D01*
X015577Y010567D01*
X015724Y010567D01*
X015724Y010603D02*
X015724Y010530D01*
X015687Y010493D01*
X015614Y010493D01*
X015485Y010530D02*
X015485Y010603D01*
X015448Y010640D01*
X015375Y010640D01*
X015338Y010603D01*
X015338Y010567D01*
X015485Y010567D01*
X015485Y010530D02*
X015448Y010493D01*
X015375Y010493D01*
X014095Y011453D02*
X014095Y011587D01*
X014029Y011654D01*
X013962Y011587D01*
X013962Y011453D01*
X013874Y011453D02*
X013774Y011453D01*
X013741Y011487D01*
X013741Y011620D01*
X013774Y011654D01*
X013874Y011654D01*
X013874Y011453D01*
X013962Y011553D02*
X014095Y011553D01*
X013653Y011520D02*
X013553Y011520D01*
X013520Y011553D01*
X013520Y011620D01*
X013553Y011654D01*
X013653Y011654D01*
X013653Y011453D01*
X013432Y011453D02*
X013299Y011453D01*
X013366Y011453D02*
X013366Y011654D01*
X013432Y011587D01*
X013211Y011620D02*
X013178Y011654D01*
X013111Y011654D01*
X013078Y011620D01*
X013078Y011587D01*
X013211Y011453D01*
X013078Y011453D01*
X012990Y011453D02*
X012857Y011587D01*
X012857Y011620D01*
X012890Y011654D01*
X012957Y011654D01*
X012990Y011620D01*
X012990Y011453D02*
X012857Y011453D01*
X012812Y011354D02*
X012845Y011320D01*
X012845Y011187D01*
X012812Y011153D01*
X012745Y011153D01*
X012712Y011187D01*
X012624Y011253D02*
X012491Y011253D01*
X012524Y011153D02*
X012524Y011354D01*
X012624Y011253D01*
X012712Y011320D02*
X012745Y011354D01*
X012812Y011354D01*
X012812Y011054D02*
X012745Y011054D01*
X012712Y011020D01*
X012845Y010887D01*
X012812Y010853D01*
X012745Y010853D01*
X012712Y010887D01*
X012712Y011020D01*
X012812Y011054D02*
X012845Y011020D01*
X012845Y010887D01*
X012624Y010887D02*
X012624Y010853D01*
X012591Y010853D01*
X012591Y010887D01*
X012624Y010887D01*
X012514Y010853D02*
X012380Y010853D01*
X012447Y010853D02*
X012447Y011054D01*
X012514Y010987D01*
X012293Y010987D02*
X012293Y010887D01*
X012259Y010853D01*
X012159Y010853D01*
X012159Y010987D01*
X012072Y010953D02*
X012005Y010953D01*
X012072Y010853D02*
X012072Y011054D01*
X011938Y011054D01*
X012172Y012253D02*
X012172Y012454D01*
X012038Y012454D01*
X012105Y012353D02*
X012172Y012353D01*
X012259Y012387D02*
X012259Y012253D01*
X012359Y012253D01*
X012393Y012287D01*
X012393Y012387D01*
X012480Y012420D02*
X012614Y012287D01*
X012614Y012253D01*
X012691Y012253D02*
X012724Y012253D01*
X012724Y012287D01*
X012691Y012287D01*
X012691Y012253D01*
X012845Y012253D02*
X012845Y012454D01*
X012945Y012353D01*
X012812Y012353D01*
X012614Y012454D02*
X012480Y012454D01*
X012480Y012420D01*
X012012Y013053D02*
X011945Y013053D01*
X011912Y013087D01*
X011824Y013053D02*
X011691Y013053D01*
X011758Y013053D02*
X011758Y013254D01*
X011824Y013187D01*
X011912Y013220D02*
X011945Y013254D01*
X012012Y013254D01*
X012045Y013220D01*
X012045Y013087D01*
X012012Y013053D01*
X013441Y013053D02*
X013574Y013053D01*
X013508Y013053D02*
X013508Y013254D01*
X013574Y013187D01*
X013662Y013254D02*
X013662Y013087D01*
X013695Y013053D01*
X013762Y013053D01*
X013795Y013087D01*
X013795Y013254D01*
X015191Y013220D02*
X015224Y013254D01*
X015291Y013254D01*
X015324Y013220D01*
X015412Y013220D02*
X015445Y013254D01*
X015512Y013254D01*
X015545Y013220D01*
X015545Y013087D01*
X015512Y013053D01*
X015445Y013053D01*
X015412Y013087D01*
X015324Y013053D02*
X015191Y013187D01*
X015191Y013220D01*
X015191Y013053D02*
X015324Y013053D01*
X015145Y012454D02*
X015245Y012353D01*
X015112Y012353D01*
X015145Y012253D02*
X015145Y012454D01*
X015024Y012287D02*
X014991Y012287D01*
X014991Y012253D01*
X015024Y012253D01*
X015024Y012287D01*
X014914Y012287D02*
X014914Y012253D01*
X014914Y012287D02*
X014780Y012420D01*
X014780Y012454D01*
X014914Y012454D01*
X014693Y012387D02*
X014693Y012287D01*
X014659Y012253D01*
X014559Y012253D01*
X014559Y012387D01*
X014472Y012353D02*
X014405Y012353D01*
X014472Y012253D02*
X014472Y012454D01*
X014338Y012454D01*
X022191Y010854D02*
X022324Y010854D01*
X022324Y010753D01*
X022258Y010787D01*
X022224Y010787D01*
X022191Y010753D01*
X022191Y010687D01*
X022224Y010653D01*
X022291Y010653D01*
X022324Y010687D01*
X022412Y010687D02*
X022412Y010854D01*
X022545Y010854D02*
X022545Y010687D01*
X022512Y010653D01*
X022445Y010653D01*
X022412Y010687D01*
X007645Y005614D02*
X007645Y005413D01*
X007545Y005413D01*
X007512Y005447D01*
X007512Y005480D01*
X007545Y005513D01*
X007645Y005513D01*
X007545Y005513D02*
X007512Y005547D01*
X007512Y005580D01*
X007545Y005614D01*
X007645Y005614D01*
X007424Y005513D02*
X007424Y005447D01*
X007391Y005413D01*
X007324Y005413D01*
X007291Y005447D01*
X007291Y005513D01*
X007324Y005547D01*
X007391Y005547D01*
X007424Y005513D01*
X007203Y005547D02*
X007137Y005547D01*
X007170Y005580D02*
X007170Y005447D01*
X007137Y005413D01*
X007023Y005447D02*
X006989Y005413D01*
X007023Y005447D02*
X007023Y005580D01*
X007056Y005547D02*
X006989Y005547D01*
X006909Y005513D02*
X006909Y005447D01*
X006875Y005413D01*
X006809Y005413D01*
X006775Y005447D01*
X006775Y005513D01*
X006809Y005547D01*
X006875Y005547D01*
X006909Y005513D01*
X006688Y005547D02*
X006688Y005413D01*
X006621Y005413D02*
X006621Y005513D01*
X006588Y005547D01*
X006554Y005513D01*
X006554Y005413D01*
X006621Y005513D02*
X006654Y005547D01*
X006688Y005547D01*
X007144Y005254D02*
X007144Y005053D01*
X007244Y005053D01*
X007277Y005087D01*
X007277Y005153D01*
X007244Y005187D01*
X007144Y005187D01*
X007056Y005153D02*
X007023Y005187D01*
X006956Y005187D01*
X006923Y005153D01*
X006923Y005120D01*
X007056Y005120D01*
X007056Y005087D02*
X007056Y005153D01*
X007056Y005087D02*
X007023Y005053D01*
X006956Y005053D01*
X007358Y005053D02*
X007424Y005053D01*
X007391Y005053D02*
X007391Y005187D01*
X007424Y005187D01*
X007391Y005254D02*
X007391Y005287D01*
X007512Y005220D02*
X007545Y005254D01*
X007612Y005254D01*
X007645Y005220D01*
X007645Y005187D01*
X007612Y005153D01*
X007545Y005153D01*
X007512Y005120D01*
X007512Y005087D01*
X007545Y005053D01*
X007612Y005053D01*
X007645Y005087D01*
X010145Y003666D02*
X010245Y003566D01*
X010212Y003532D02*
X010345Y003666D01*
X010345Y003532D02*
X010145Y003532D01*
X010145Y003445D02*
X010145Y003311D01*
X010345Y003311D01*
X010312Y003224D02*
X010279Y003224D01*
X010245Y003190D01*
X010245Y003090D01*
X010145Y003090D02*
X010145Y003190D01*
X010179Y003224D01*
X010212Y003224D01*
X010245Y003190D01*
X010312Y003224D02*
X010345Y003190D01*
X010345Y003090D01*
X010145Y003090D01*
D13*
X020024Y009733D02*
X020026Y009745D01*
X020031Y009756D01*
X020039Y009765D01*
X020050Y009771D01*
X020062Y009774D01*
X020074Y009773D01*
X020086Y009769D01*
X020095Y009761D01*
X020102Y009751D01*
X020106Y009739D01*
X020106Y009727D01*
X020102Y009715D01*
X020095Y009705D01*
X020085Y009697D01*
X020074Y009693D01*
X020062Y009692D01*
X020050Y009695D01*
X020039Y009701D01*
X020031Y009710D01*
X020026Y009721D01*
X020024Y009733D01*
D14*
X021963Y006709D02*
X022046Y006709D01*
X022088Y006667D01*
X022088Y006625D01*
X022046Y006583D01*
X021963Y006583D01*
X021921Y006542D01*
X021921Y006500D01*
X021963Y006458D01*
X022046Y006458D01*
X022088Y006500D01*
X022197Y006583D02*
X022239Y006542D01*
X022364Y006542D01*
X022364Y006458D02*
X022364Y006709D01*
X022239Y006709D01*
X022197Y006667D01*
X022197Y006583D01*
X021963Y006709D02*
X021921Y006667D01*
X022474Y006667D02*
X022515Y006709D01*
X022599Y006709D01*
X022640Y006667D01*
X022640Y006500D01*
X022599Y006458D01*
X022515Y006458D01*
X022474Y006500D01*
X022474Y006583D01*
X022557Y006583D01*
D15*
X020565Y005333D02*
X020265Y005633D01*
X020565Y005333D02*
X020265Y005033D01*
X020565Y005333D02*
X019065Y005333D01*
X019065Y003633D01*
X019365Y003933D01*
X019065Y003633D02*
X018765Y003933D01*
X016815Y005383D02*
X016515Y005083D01*
X016015Y005083D01*
X015715Y005383D01*
X015715Y006383D01*
X016815Y006383D01*
X016815Y005383D01*
X016465Y008433D02*
X016765Y008733D01*
X016465Y008433D02*
X016165Y008733D01*
X016465Y008433D02*
X016465Y010033D01*
X011065Y008733D02*
X010765Y008433D01*
X010465Y008733D01*
X010765Y008433D02*
X010765Y010033D01*
D16*
X007935Y009990D02*
X007935Y009763D01*
X007935Y009933D02*
X007708Y009933D01*
X007708Y009990D02*
X007708Y009763D01*
X007567Y009763D02*
X007567Y010104D01*
X007567Y009933D02*
X007340Y009933D01*
X007199Y009877D02*
X007029Y009877D01*
X006972Y009933D01*
X006972Y010047D01*
X007029Y010104D01*
X007199Y010104D01*
X007199Y009763D01*
X007340Y009763D02*
X007340Y010104D01*
X007265Y010363D02*
X007151Y010363D01*
X007095Y010420D01*
X007095Y010704D01*
X007321Y010704D02*
X007321Y010420D01*
X007265Y010363D01*
X007463Y010363D02*
X007463Y010704D01*
X007576Y010590D01*
X007690Y010704D01*
X007690Y010363D01*
X007822Y010363D02*
X007935Y010363D01*
X007879Y010363D02*
X007879Y010704D01*
X007935Y010704D02*
X007822Y010704D01*
X006585Y010647D02*
X006585Y010590D01*
X006528Y010533D01*
X006358Y010533D01*
X006358Y010420D02*
X006358Y010647D01*
X006415Y010704D01*
X006528Y010704D01*
X006585Y010647D01*
X006585Y010420D02*
X006528Y010363D01*
X006415Y010363D01*
X006358Y010420D01*
X006660Y010104D02*
X006774Y010104D01*
X006830Y010047D01*
X006830Y009990D01*
X006774Y009933D01*
X006660Y009933D01*
X006604Y009877D01*
X006604Y009820D01*
X006660Y009763D01*
X006774Y009763D01*
X006830Y009820D01*
X006972Y009763D02*
X007085Y009877D01*
X006660Y010104D02*
X006604Y010047D01*
X005848Y010363D02*
X005678Y010363D01*
X005621Y010420D01*
X005621Y010647D01*
X005678Y010704D01*
X005848Y010704D01*
X005848Y010363D01*
X005480Y010420D02*
X005480Y010533D01*
X005423Y010590D01*
X005310Y010590D01*
X005253Y010533D01*
X005253Y010420D01*
X005310Y010363D01*
X005423Y010363D01*
X005480Y010420D01*
X005112Y010363D02*
X005112Y010704D01*
X004885Y010704D01*
X004998Y010533D02*
X005112Y010533D01*
X007708Y009990D02*
X007822Y010104D01*
X007935Y009990D01*
D17*
X006741Y009439D02*
X006571Y009609D01*
X006324Y009407D01*
X006224Y009459D01*
X006118Y009493D01*
X006085Y009810D01*
X005845Y009810D01*
X005813Y009493D01*
X005706Y009459D01*
X005607Y009407D01*
X005359Y009609D01*
X005190Y009439D01*
X005391Y009192D01*
X005340Y009092D01*
X005800Y009092D01*
X005807Y009097D02*
X005864Y009124D01*
X005925Y009138D01*
X005988Y009140D01*
X006050Y009129D01*
X006109Y009105D01*
X006162Y009070D01*
X006206Y009025D01*
X006240Y008972D01*
X006262Y008913D01*
X006272Y008851D01*
X006269Y008787D01*
X006254Y008726D01*
X006226Y008670D01*
X006187Y008620D01*
X006139Y008579D01*
X006083Y008549D01*
X006224Y008208D01*
X006324Y008259D01*
X006571Y008058D01*
X006741Y008227D01*
X006539Y008475D01*
X006590Y008574D01*
X006129Y008574D01*
X006097Y008516D02*
X006561Y008516D01*
X006552Y008459D02*
X006121Y008459D01*
X006144Y008401D02*
X006599Y008401D01*
X006646Y008344D02*
X006168Y008344D01*
X006192Y008286D02*
X006693Y008286D01*
X006740Y008228D02*
X006362Y008228D01*
X006433Y008171D02*
X006684Y008171D01*
X006627Y008113D02*
X006503Y008113D01*
X006264Y008228D02*
X006216Y008228D01*
X005786Y008401D02*
X005331Y008401D01*
X005284Y008344D02*
X005762Y008344D01*
X005739Y008286D02*
X005238Y008286D01*
X005191Y008228D02*
X005569Y008228D01*
X005607Y008259D02*
X005706Y008208D01*
X005848Y008549D01*
X005794Y008578D01*
X005748Y008616D01*
X005710Y008662D01*
X005681Y008716D01*
X005664Y008773D01*
X005658Y008833D01*
X005664Y008896D01*
X005683Y008956D01*
X005714Y009011D01*
X005756Y009059D01*
X005807Y009097D01*
X005735Y009034D02*
X005322Y009034D01*
X005306Y008986D02*
X004988Y008953D01*
X004988Y008713D01*
X005306Y008681D01*
X005340Y008574D01*
X005391Y008475D01*
X005190Y008227D01*
X005359Y008058D01*
X005607Y008259D01*
X005667Y008228D02*
X005715Y008228D01*
X005498Y008171D02*
X005246Y008171D01*
X005304Y008113D02*
X005427Y008113D01*
X005378Y008459D02*
X005810Y008459D01*
X005834Y008516D02*
X005370Y008516D01*
X005340Y008574D02*
X005802Y008574D01*
X005735Y008631D02*
X005322Y008631D01*
X005230Y008689D02*
X005695Y008689D01*
X005672Y008746D02*
X004988Y008746D01*
X004988Y008804D02*
X005661Y008804D01*
X005661Y008862D02*
X004988Y008862D01*
X004988Y008919D02*
X005672Y008919D01*
X005695Y008977D02*
X005218Y008977D01*
X005306Y008986D02*
X005340Y009092D01*
X005370Y009149D02*
X006561Y009149D01*
X006539Y009192D02*
X006741Y009439D01*
X006739Y009437D02*
X006361Y009437D01*
X006431Y009495D02*
X006686Y009495D01*
X006628Y009552D02*
X006502Y009552D01*
X006692Y009380D02*
X005238Y009380D01*
X005192Y009437D02*
X005570Y009437D01*
X005499Y009495D02*
X005245Y009495D01*
X005303Y009552D02*
X005429Y009552D01*
X005665Y009437D02*
X006266Y009437D01*
X006117Y009495D02*
X005813Y009495D01*
X005819Y009552D02*
X006111Y009552D01*
X006106Y009610D02*
X005825Y009610D01*
X005831Y009667D02*
X006100Y009667D01*
X006094Y009725D02*
X005837Y009725D01*
X005843Y009782D02*
X006088Y009782D01*
X006645Y009322D02*
X005285Y009322D01*
X005332Y009264D02*
X006598Y009264D01*
X006551Y009207D02*
X005379Y009207D01*
X006129Y009092D02*
X006591Y009092D01*
X006590Y009092D02*
X006539Y009192D01*
X006590Y009092D02*
X006625Y008986D01*
X006942Y008953D01*
X006942Y008713D01*
X006625Y008681D01*
X006590Y008574D01*
X006609Y008631D02*
X006196Y008631D01*
X006235Y008689D02*
X006701Y008689D01*
X006942Y008746D02*
X006259Y008746D01*
X006270Y008804D02*
X006942Y008804D01*
X006942Y008862D02*
X006271Y008862D01*
X006260Y008919D02*
X006942Y008919D01*
X006712Y008977D02*
X006237Y008977D01*
X006197Y009034D02*
X006609Y009034D01*
D18*
X015229Y011518D03*
X015229Y011521D03*
X015229Y011531D03*
X015449Y011481D03*
X015449Y011478D03*
X015449Y011476D03*
X015572Y011481D03*
X015572Y011483D03*
X015572Y011486D03*
X015572Y011488D03*
X015677Y011521D03*
X015677Y011523D03*
X015677Y011526D03*
X015677Y011528D03*
X015677Y011531D03*
X015677Y011533D03*
X015677Y011536D03*
X015677Y011538D03*
X015677Y011541D03*
X015677Y011543D03*
X015677Y011546D03*
X015677Y011548D03*
X015677Y011551D03*
X015677Y011553D03*
X015677Y011556D03*
X015677Y011558D03*
X015677Y011561D03*
X015677Y011563D03*
X015677Y011566D03*
X015677Y011568D03*
X015677Y011571D03*
X015677Y011573D03*
X015677Y011576D03*
X015677Y011578D03*
X015677Y011581D03*
X015677Y011583D03*
X015677Y011586D03*
X015677Y011588D03*
X015677Y011591D03*
X015677Y011593D03*
X015677Y011596D03*
X015677Y011598D03*
X015677Y011601D03*
X015677Y011603D03*
X015677Y011606D03*
X015677Y011608D03*
X015677Y011611D03*
X015677Y011613D03*
X015677Y011616D03*
X015677Y011618D03*
X015677Y011621D03*
X015677Y011623D03*
X015677Y011626D03*
X015677Y011628D03*
X015677Y011631D03*
X015677Y011633D03*
X015677Y011636D03*
X015677Y011638D03*
X015677Y011641D03*
X015677Y011643D03*
X015677Y011646D03*
X015677Y011651D03*
X015677Y011656D03*
X015674Y011691D03*
X015792Y011658D03*
X015792Y011656D03*
X015797Y011693D03*
X015797Y011553D03*
X015752Y011468D03*
X016164Y011513D03*
X016167Y011483D03*
X016167Y011481D03*
X016167Y011478D03*
X016247Y011456D03*
X016247Y011448D03*
X016247Y011443D03*
X016247Y011441D03*
X016257Y011418D03*
X016259Y011416D03*
X016259Y011413D03*
X016262Y011411D03*
X016264Y011408D03*
X016367Y011351D03*
X016394Y011386D03*
X016382Y011526D03*
X016382Y011621D03*
X016382Y011626D03*
X016382Y011628D03*
X016382Y011631D03*
X016382Y011633D03*
X016382Y011636D03*
X016382Y011638D03*
X016382Y011641D03*
X016382Y011643D03*
X016379Y011648D03*
X016379Y011651D03*
X016377Y011656D03*
X016377Y011658D03*
X016374Y011661D03*
X016374Y011663D03*
X016372Y011666D03*
X016459Y011678D03*
X016459Y011681D03*
X016459Y011683D03*
X016459Y011686D03*
X016459Y011688D03*
X016462Y011676D03*
X016462Y011673D03*
X016462Y011671D03*
X016462Y011668D03*
X016464Y011666D03*
X016464Y011663D03*
X016464Y011661D03*
X016464Y011658D03*
X016467Y011656D03*
X016467Y011653D03*
X016467Y011651D03*
X016467Y011648D03*
X016469Y011646D03*
X016469Y011643D03*
X016469Y011641D03*
X016469Y011638D03*
X016472Y011636D03*
X016472Y011633D03*
X016472Y011631D03*
X016474Y011626D03*
X016474Y011623D03*
X016474Y011621D03*
X016477Y011613D03*
X016479Y011603D03*
X016549Y011581D03*
X016549Y011578D03*
X016549Y011576D03*
X016549Y011573D03*
X016547Y011571D03*
X016547Y011568D03*
X016547Y011566D03*
X016544Y011558D03*
X016552Y011583D03*
X016552Y011586D03*
X016552Y011588D03*
X016554Y011593D03*
X016554Y011596D03*
X016557Y011601D03*
X016557Y011603D03*
X016559Y011611D03*
X016562Y011618D03*
X016562Y011621D03*
X016564Y011628D03*
X016567Y011636D03*
X016569Y011643D03*
X016584Y011693D03*
X016672Y011651D03*
X016762Y011661D03*
X016867Y011661D03*
X016867Y011663D03*
X016867Y011666D03*
X016867Y011668D03*
X016867Y011671D03*
X016867Y011673D03*
X016867Y011676D03*
X016867Y011678D03*
X016867Y011681D03*
X016867Y011683D03*
X016867Y011686D03*
X016867Y011688D03*
X016867Y011691D03*
X016867Y011693D03*
X016867Y011696D03*
X016867Y011698D03*
X016867Y011701D03*
X016867Y011703D03*
X016867Y011706D03*
X016867Y011708D03*
X016867Y011711D03*
X016867Y011713D03*
X016867Y011716D03*
X016867Y011718D03*
X016867Y011721D03*
X016867Y011723D03*
X016867Y011726D03*
X016867Y011728D03*
X016867Y011731D03*
X016867Y011733D03*
X016867Y011736D03*
X016867Y011738D03*
X016867Y011741D03*
X016867Y011743D03*
X016867Y011746D03*
X016867Y011748D03*
X016867Y011751D03*
X016867Y011753D03*
X016867Y011756D03*
X016867Y011758D03*
X016867Y011761D03*
X016867Y011763D03*
X016867Y011766D03*
X016867Y011768D03*
X016867Y011771D03*
X016867Y011781D03*
X016867Y011783D03*
X016867Y011788D03*
X016867Y011801D03*
X016867Y011803D03*
X016867Y011658D03*
X016867Y011656D03*
X016867Y011653D03*
X016867Y011651D03*
X016867Y011648D03*
X016867Y011646D03*
X016867Y011643D03*
X016867Y011641D03*
X016867Y011638D03*
X016867Y011636D03*
X016867Y011633D03*
X016867Y011631D03*
X016867Y011628D03*
X016867Y011626D03*
X016867Y011623D03*
X016867Y011621D03*
X016867Y011618D03*
X016867Y011616D03*
X016867Y011613D03*
X016867Y011611D03*
X016867Y011608D03*
X016867Y011606D03*
X016867Y011603D03*
X016867Y011601D03*
X016867Y011598D03*
X016867Y011596D03*
X016867Y011593D03*
X016867Y011591D03*
X016867Y011588D03*
X016867Y011586D03*
X016867Y011583D03*
X016867Y011581D03*
X016867Y011578D03*
X016867Y011576D03*
X016867Y011573D03*
X016867Y011571D03*
X016867Y011568D03*
X016867Y011566D03*
X016867Y011563D03*
X016867Y011561D03*
X016867Y011558D03*
X016867Y011556D03*
X016867Y011553D03*
X016867Y011551D03*
X016867Y011548D03*
X016867Y011546D03*
X016867Y011543D03*
X016867Y011541D03*
X016867Y011538D03*
X016867Y011536D03*
X016867Y011533D03*
X016867Y011531D03*
X016867Y011528D03*
X016867Y011526D03*
X016867Y011523D03*
X016867Y011521D03*
X016867Y011518D03*
X016867Y011516D03*
X016867Y011513D03*
X016867Y011511D03*
X016867Y011508D03*
X016779Y011536D03*
X016779Y011538D03*
X016779Y011541D03*
X016672Y011541D03*
X016672Y011543D03*
X016672Y011538D03*
X016672Y011536D03*
X016672Y011533D03*
X016672Y011531D03*
X016672Y011528D03*
X016672Y011526D03*
X016672Y011523D03*
X016672Y011521D03*
X016672Y011518D03*
X016672Y011548D03*
X016519Y011481D03*
X016519Y011478D03*
X016519Y011476D03*
X016522Y011471D03*
X016522Y011468D03*
X016524Y011463D03*
X016517Y011483D03*
X016517Y011486D03*
X016547Y011416D03*
X016274Y011583D03*
X016272Y011586D03*
X016272Y011588D03*
X016269Y011591D03*
X016269Y011593D03*
X016269Y011596D03*
X016267Y011601D03*
X016267Y011603D03*
X016267Y011606D03*
X016267Y011608D03*
X016267Y011611D03*
X016267Y011613D03*
X016267Y011616D03*
X016267Y011618D03*
X016267Y011621D03*
X016267Y011623D03*
X016267Y011626D03*
X016267Y011628D03*
X016267Y011631D03*
X016267Y011633D03*
X016267Y011636D03*
X016269Y011641D03*
X016269Y011643D03*
X016269Y011646D03*
X016272Y011648D03*
X016272Y011651D03*
X016274Y011656D03*
X016164Y011648D03*
X016164Y011646D03*
X016164Y011643D03*
X016164Y011641D03*
X016164Y011638D03*
X016164Y011636D03*
X016164Y011633D03*
X016164Y011631D03*
X016164Y011628D03*
X016164Y011626D03*
X016164Y011623D03*
X016164Y011621D03*
X017017Y011703D03*
X017092Y011641D03*
X017092Y011463D03*
X017092Y011393D03*
X017092Y011388D03*
X017092Y011383D03*
X017092Y011381D03*
X017092Y011378D03*
X017299Y011506D03*
X017292Y011608D03*
X017292Y011611D03*
X017292Y011613D03*
X017292Y011616D03*
X017292Y011618D03*
X017292Y011621D03*
X017292Y011623D03*
X017292Y011626D03*
X017292Y011628D03*
X017292Y011631D03*
X017292Y011633D03*
X017292Y011636D03*
X017292Y011638D03*
X017292Y011641D03*
X017294Y011648D03*
X017294Y011651D03*
X017342Y011703D03*
X017404Y011636D03*
X017407Y011628D03*
X017409Y011613D03*
X017409Y011611D03*
X017732Y011611D03*
X017732Y011613D03*
X017732Y011616D03*
X017732Y011618D03*
X017732Y011621D03*
X017732Y011623D03*
X017732Y011626D03*
X017732Y011628D03*
X017732Y011631D03*
X017732Y011633D03*
X017732Y011636D03*
X017732Y011638D03*
X017732Y011641D03*
X017732Y011643D03*
X017732Y011646D03*
X017732Y011648D03*
X017732Y011608D03*
X017732Y011606D03*
X017732Y011603D03*
X017732Y011601D03*
X017732Y011598D03*
X017732Y011596D03*
X017732Y011593D03*
X017732Y011591D03*
X017732Y011588D03*
X017732Y011586D03*
X017732Y011583D03*
X017732Y011581D03*
X017732Y011578D03*
X017732Y011576D03*
X017732Y011573D03*
X017732Y011571D03*
X017732Y011568D03*
X017732Y011566D03*
X017732Y011563D03*
X017732Y011561D03*
X017732Y011558D03*
X017732Y011556D03*
X017732Y011553D03*
X017732Y011551D03*
X017732Y011548D03*
X017732Y011546D03*
X017732Y011543D03*
X017732Y011541D03*
X017732Y011538D03*
X017732Y011536D03*
X017732Y011528D03*
X017732Y011521D03*
X017732Y011493D03*
X017732Y011488D03*
X017734Y011481D03*
X017734Y011478D03*
X017912Y011468D03*
X017957Y011563D03*
X017957Y011566D03*
X017957Y011571D03*
X017957Y011573D03*
X017959Y011693D03*
X017837Y011688D03*
X017837Y011686D03*
X018562Y011628D03*
X018562Y011621D03*
X018562Y011513D03*
X018682Y011513D03*
X018682Y011511D03*
X018682Y011508D03*
X018682Y011506D03*
X018682Y011503D03*
X018682Y011498D03*
X018684Y011481D03*
X018684Y011478D03*
X018682Y011516D03*
X018682Y011518D03*
X018682Y011521D03*
X018682Y011523D03*
X018682Y011526D03*
X018682Y011528D03*
X018682Y011531D03*
X018682Y011533D03*
X018682Y011536D03*
X018682Y011538D03*
X018682Y011541D03*
X018682Y011543D03*
X018682Y011546D03*
X018682Y011548D03*
X018682Y011551D03*
X018682Y011553D03*
X018682Y011556D03*
X018682Y011558D03*
X018682Y011561D03*
X018682Y011563D03*
X018682Y011566D03*
X018682Y011568D03*
X018682Y011571D03*
X018682Y011573D03*
X018682Y011576D03*
X018682Y011578D03*
X018682Y011581D03*
X018682Y011583D03*
X018682Y011586D03*
X018682Y011588D03*
X018682Y011591D03*
X018682Y011593D03*
X018682Y011596D03*
X018682Y011598D03*
X018682Y011601D03*
X018682Y011603D03*
X018682Y011606D03*
X018682Y011608D03*
X018682Y011611D03*
X018682Y011613D03*
X018682Y011616D03*
X018682Y011618D03*
X018682Y011621D03*
X018682Y011623D03*
X018682Y011626D03*
X018682Y011628D03*
X018682Y011631D03*
X018682Y011633D03*
X018682Y011636D03*
X018682Y011638D03*
X018682Y011641D03*
X018682Y011643D03*
X018682Y011646D03*
X018682Y011648D03*
X018772Y011641D03*
X018772Y011638D03*
X018772Y011636D03*
X018772Y011633D03*
X018772Y011631D03*
X018772Y011628D03*
X018772Y011626D03*
X018772Y011623D03*
X018772Y011621D03*
X018772Y011618D03*
X018772Y011616D03*
X018772Y011613D03*
X018772Y011611D03*
X018772Y011608D03*
X018774Y011648D03*
X018774Y011651D03*
X018822Y011703D03*
X018884Y011636D03*
X018887Y011628D03*
X018889Y011616D03*
X018889Y011613D03*
X018892Y011566D03*
X018779Y011506D03*
X019032Y011703D03*
X019104Y011643D03*
X019104Y011638D03*
X019104Y011396D03*
X019104Y011391D03*
X019104Y011388D03*
X019104Y011386D03*
X019104Y011383D03*
X019104Y011381D03*
X019537Y011476D03*
X019537Y011478D03*
X019537Y011481D03*
X019659Y011481D03*
X019659Y011483D03*
X019659Y011486D03*
X019659Y011488D03*
X019762Y011523D03*
X019762Y011526D03*
X019762Y011528D03*
X019762Y011531D03*
X019762Y011533D03*
X019762Y011536D03*
X019762Y011538D03*
X019762Y011541D03*
X019762Y011543D03*
X019762Y011546D03*
X019762Y011548D03*
X019762Y011551D03*
X019762Y011553D03*
X019762Y011556D03*
X019762Y011558D03*
X019762Y011561D03*
X019762Y011563D03*
X019762Y011566D03*
X019762Y011568D03*
X019762Y011571D03*
X019762Y011573D03*
X019762Y011576D03*
X019762Y011613D03*
X019762Y011616D03*
X019762Y011618D03*
X019762Y011621D03*
X019762Y011623D03*
X019762Y011626D03*
X019762Y011628D03*
X019762Y011631D03*
X019762Y011633D03*
X019762Y011636D03*
X019762Y011638D03*
X019762Y011641D03*
X019762Y011643D03*
X019762Y011646D03*
X019762Y011648D03*
X019762Y011651D03*
X019869Y011546D03*
X019869Y011541D03*
X019187Y012258D03*
X019187Y012263D03*
X019187Y012266D03*
X019369Y012336D03*
X019514Y012313D03*
X019359Y012556D03*
X019097Y012621D03*
X017954Y012568D03*
X017339Y012278D03*
X016877Y012568D03*
X016702Y012528D03*
X016702Y012526D03*
X016702Y012523D03*
X016702Y012521D03*
X016699Y012513D03*
X016699Y012511D03*
X015229Y011798D03*
X015229Y011793D03*
D19*
X015495Y011698D03*
X015750Y011473D03*
X015960Y011471D03*
X016265Y011663D03*
X016518Y011523D03*
X016518Y011521D03*
X016578Y011393D03*
X016363Y011353D03*
X017018Y011698D03*
X017568Y011506D03*
X017940Y011506D03*
X018158Y011501D03*
X018288Y011568D03*
X018290Y011571D03*
X018293Y011573D03*
X018330Y011606D03*
X018605Y011698D03*
X018998Y011666D03*
X019030Y011698D03*
X019270Y011471D03*
X019308Y011501D03*
X019583Y011698D03*
X019200Y012313D03*
X019200Y012316D03*
X019035Y012316D03*
X018850Y012351D03*
X018850Y012353D03*
X018695Y012326D03*
X018695Y012323D03*
X018673Y012286D03*
X018523Y012318D03*
X018350Y012338D03*
X018350Y012341D03*
X018350Y012343D03*
X018350Y012546D03*
X018350Y012548D03*
X018523Y012558D03*
X018695Y012546D03*
X018695Y012543D03*
X018695Y012541D03*
X018850Y012556D03*
X018850Y012558D03*
X019025Y012558D03*
X019203Y012576D03*
X019203Y012578D03*
X018088Y012596D03*
X017933Y012313D03*
X017335Y012261D03*
X017213Y012323D03*
X017205Y012401D03*
X017045Y012303D03*
X016890Y012316D03*
X016683Y012461D03*
X016708Y012578D03*
D20*
X016879Y012556D03*
X017054Y012593D03*
X017054Y012596D03*
X017217Y012551D03*
X016882Y012336D03*
X016882Y012333D03*
X016729Y012291D03*
X017334Y012256D03*
X017519Y011696D03*
X017524Y011473D03*
X017342Y011473D03*
X018117Y011696D03*
X018307Y011696D03*
X018822Y011473D03*
X018667Y012271D03*
X018524Y012331D03*
X018359Y012306D03*
X018364Y012588D03*
X018367Y012591D03*
X018367Y012593D03*
X018522Y012546D03*
X018687Y012576D03*
X018687Y012578D03*
X018859Y012588D03*
X019027Y012551D03*
X019209Y012553D03*
X019359Y012598D03*
X019514Y012546D03*
X019514Y012543D03*
X019369Y012296D03*
X019369Y012293D03*
X019209Y012343D03*
X019209Y012346D03*
X019034Y012328D03*
X018859Y012316D03*
X018859Y012313D03*
X017959Y012523D03*
X017959Y012526D03*
X017959Y012528D03*
X015957Y011696D03*
X016337Y011546D03*
X016362Y011356D03*
D21*
X016359Y011358D03*
X016327Y011553D03*
X015749Y011481D03*
X015497Y011691D03*
X016672Y012441D03*
X016877Y012356D03*
X016877Y012353D03*
X016877Y012546D03*
X017059Y012611D03*
X017962Y012501D03*
X017962Y012498D03*
X017962Y012496D03*
X017962Y012493D03*
X017962Y012491D03*
X017962Y012488D03*
X017964Y012483D03*
X017964Y012481D03*
X017964Y012478D03*
X017964Y012476D03*
X018369Y012601D03*
X018522Y012536D03*
X018682Y012591D03*
X018864Y012601D03*
X019029Y012348D03*
X019029Y012346D03*
X018864Y012298D03*
X018524Y012341D03*
X018364Y012291D03*
X019214Y012361D03*
X019369Y012286D03*
X019512Y012531D03*
X019512Y012533D03*
X019359Y012606D03*
X019214Y012538D03*
X019214Y012536D03*
X019032Y011691D03*
X018822Y011476D03*
X018609Y011691D03*
X018307Y011693D03*
X018117Y011693D03*
X018122Y011478D03*
X017909Y011481D03*
X017342Y011476D03*
X017019Y011691D03*
X017334Y012253D03*
X019584Y011691D03*
X019789Y011603D03*
D22*
X018824Y011686D03*
X018822Y011478D03*
X018122Y011481D03*
X017702Y011661D03*
X017702Y011663D03*
X017519Y011688D03*
X017344Y011686D03*
X017342Y011478D03*
X017527Y011481D03*
X016702Y011601D03*
X016717Y011691D03*
X016324Y011558D03*
X016359Y011361D03*
X016134Y011661D03*
X016134Y011663D03*
X015259Y011701D03*
X016737Y012273D03*
X016872Y012381D03*
X016872Y012383D03*
X016872Y012386D03*
X016872Y012388D03*
X016872Y012518D03*
X016872Y012521D03*
X016872Y012523D03*
X016872Y012526D03*
X017064Y012621D03*
X016667Y012431D03*
X018369Y012281D03*
X018524Y012356D03*
X018522Y012521D03*
X018522Y012523D03*
X018677Y012601D03*
X018869Y012611D03*
X019024Y012531D03*
X019024Y012528D03*
X019024Y012526D03*
X019024Y012381D03*
X019024Y012378D03*
X019024Y012376D03*
X019024Y012373D03*
X018869Y012286D03*
X019219Y012376D03*
X019219Y012378D03*
X019219Y012521D03*
X019359Y012613D03*
X019509Y012521D03*
X019369Y012278D03*
X018369Y012606D03*
D23*
X018523Y012511D03*
X018523Y012508D03*
X018523Y012506D03*
X018523Y012503D03*
X018523Y012501D03*
X018523Y012373D03*
X018523Y012371D03*
X018523Y012368D03*
X018373Y012273D03*
X017928Y012323D03*
X018073Y012623D03*
X018673Y012608D03*
X018873Y012616D03*
X019020Y012498D03*
X019020Y012496D03*
X019020Y012493D03*
X019020Y012491D03*
X019020Y012488D03*
X019020Y012486D03*
X019020Y012483D03*
X019020Y012481D03*
X019020Y012478D03*
X019020Y012476D03*
X019020Y012473D03*
X019020Y012471D03*
X019020Y012468D03*
X019020Y012466D03*
X019020Y012463D03*
X019020Y012461D03*
X019020Y012458D03*
X019020Y012456D03*
X019020Y012453D03*
X019020Y012451D03*
X019020Y012448D03*
X019020Y012446D03*
X019020Y012443D03*
X019020Y012441D03*
X019020Y012438D03*
X019020Y012436D03*
X019020Y012433D03*
X019020Y012431D03*
X019020Y012428D03*
X019020Y012426D03*
X019020Y012423D03*
X019020Y012421D03*
X019020Y012418D03*
X019020Y012416D03*
X019020Y012413D03*
X018870Y012281D03*
X019223Y012391D03*
X019223Y012508D03*
X019358Y012618D03*
X019265Y011686D03*
X019798Y011596D03*
X019810Y011688D03*
X018308Y011686D03*
X017700Y011678D03*
X017700Y011676D03*
X017700Y011673D03*
X017698Y011686D03*
X017520Y011686D03*
X016718Y011688D03*
X016325Y011561D03*
X016355Y011363D03*
X016133Y011671D03*
X016133Y011673D03*
X016133Y011676D03*
X016133Y011678D03*
X015263Y011698D03*
X016663Y012426D03*
X016738Y012271D03*
X016868Y012431D03*
X016868Y012433D03*
X016868Y012436D03*
X016868Y012438D03*
X016868Y012441D03*
X016868Y012443D03*
X016868Y012446D03*
X016868Y012448D03*
X016868Y012451D03*
X016868Y012453D03*
X016868Y012456D03*
X016868Y012458D03*
X016868Y012461D03*
X016868Y012463D03*
X016868Y012466D03*
X016868Y012468D03*
X016868Y012471D03*
X016868Y012473D03*
X016868Y012476D03*
X016868Y012478D03*
X016868Y012481D03*
X016868Y012483D03*
X016708Y012608D03*
X017068Y012626D03*
D24*
X016659Y012418D03*
X017449Y012316D03*
X017927Y012326D03*
X018072Y012626D03*
X018369Y012611D03*
X018524Y012483D03*
X018524Y012481D03*
X018524Y012478D03*
X018524Y012401D03*
X018524Y012398D03*
X018524Y012396D03*
X018524Y012393D03*
X018669Y012613D03*
X018877Y012621D03*
X019227Y012496D03*
X019227Y012406D03*
X019227Y012403D03*
X019369Y012266D03*
X019509Y012506D03*
X019267Y011683D03*
X019067Y011473D03*
X018824Y011678D03*
X018314Y011673D03*
X018314Y011671D03*
X018312Y011676D03*
X018312Y011678D03*
X018324Y011486D03*
X018122Y011488D03*
X018117Y011683D03*
X017527Y011673D03*
X017524Y011678D03*
X017344Y011678D03*
X017529Y011491D03*
X017529Y011488D03*
X016354Y011366D03*
X015957Y011683D03*
X015267Y011693D03*
X019802Y011591D03*
D25*
X019804Y011586D03*
X019812Y011681D03*
X019812Y011683D03*
X019267Y011681D03*
X019064Y011476D03*
X018824Y011673D03*
X018322Y011491D03*
X018122Y011491D03*
X018117Y011681D03*
X017529Y011668D03*
X017529Y011493D03*
X017344Y011673D03*
X016722Y011681D03*
X016712Y011588D03*
X016342Y011511D03*
X016324Y011568D03*
X016354Y011368D03*
X015957Y011681D03*
X015269Y011691D03*
X016659Y012416D03*
X016739Y012266D03*
X017027Y012248D03*
X017074Y012631D03*
X018142Y012558D03*
X018167Y012448D03*
X018167Y012446D03*
X018167Y012443D03*
X018167Y012441D03*
X018167Y012438D03*
X018167Y012436D03*
X018167Y012433D03*
X018167Y012431D03*
X018167Y012428D03*
X018167Y012426D03*
X018167Y012423D03*
X018167Y012421D03*
X018167Y012418D03*
X018167Y012416D03*
X018167Y012413D03*
X018167Y012411D03*
X018167Y012408D03*
X018167Y012406D03*
X018379Y012263D03*
X018874Y012271D03*
X018879Y012623D03*
X018667Y012616D03*
X019229Y012488D03*
X019229Y012486D03*
X019229Y012413D03*
X019229Y012411D03*
X019369Y012261D03*
X019509Y012503D03*
X019849Y012756D03*
X019849Y012758D03*
X019849Y012761D03*
X019849Y012763D03*
D26*
X019847Y012766D03*
X019512Y012501D03*
X019232Y012481D03*
X019232Y012478D03*
X019232Y012421D03*
X018874Y012268D03*
X018384Y012258D03*
X018164Y012361D03*
X018164Y012363D03*
X018164Y012366D03*
X018164Y012368D03*
X018164Y012371D03*
X018164Y012373D03*
X018164Y012376D03*
X018164Y012481D03*
X018164Y012483D03*
X018164Y012486D03*
X018164Y012488D03*
X018164Y012491D03*
X018164Y012493D03*
X018164Y012496D03*
X018144Y012556D03*
X018882Y012626D03*
X019847Y012278D03*
X019847Y012276D03*
X019847Y012273D03*
X019847Y012271D03*
X019847Y012268D03*
X019847Y012266D03*
X019812Y011678D03*
X019812Y011676D03*
X019812Y011673D03*
X019809Y011668D03*
X019809Y011666D03*
X019807Y011581D03*
X019269Y011493D03*
X019267Y011678D03*
X019062Y011481D03*
X018847Y011573D03*
X018824Y011493D03*
X018824Y011491D03*
X018317Y011501D03*
X018122Y011493D03*
X018117Y011678D03*
X017532Y011498D03*
X017367Y011573D03*
X017344Y011493D03*
X017344Y011491D03*
X017047Y011481D03*
X016714Y011583D03*
X016719Y011666D03*
X016719Y011668D03*
X016719Y011671D03*
X016722Y011676D03*
X016324Y011571D03*
X016352Y011371D03*
X015957Y011678D03*
X016739Y012263D03*
X016657Y012413D03*
X016382Y012371D03*
X016382Y012368D03*
X016382Y012366D03*
X016382Y012363D03*
X016382Y012361D03*
X016382Y012358D03*
X016382Y012356D03*
X016382Y012353D03*
X016382Y012351D03*
X016382Y012348D03*
X016382Y012346D03*
X016382Y012343D03*
X016382Y012341D03*
X016382Y012338D03*
X016382Y012336D03*
D27*
X016918Y012626D03*
X017955Y012576D03*
X017938Y012308D03*
X017735Y011693D03*
X017668Y011703D03*
X017475Y011661D03*
X017288Y011511D03*
X017910Y011466D03*
X018370Y011511D03*
X018685Y011693D03*
X018768Y011511D03*
X019110Y011373D03*
X019360Y012531D03*
X016348Y011448D03*
X015748Y011466D03*
X015673Y011478D03*
X015660Y011701D03*
X015575Y011693D03*
X016168Y011693D03*
D28*
X016099Y011703D03*
X016772Y011653D03*
X017097Y011693D03*
X017834Y011478D03*
X017954Y011703D03*
X017094Y011373D03*
X016349Y011446D03*
X017164Y012256D03*
X019024Y012571D03*
X019359Y012533D03*
X019369Y012361D03*
X019369Y012358D03*
X019109Y011693D03*
X019862Y011653D03*
D29*
X019267Y011676D03*
X019269Y011496D03*
X019059Y011483D03*
X018827Y011498D03*
X018827Y011501D03*
X018122Y011496D03*
X017347Y011498D03*
X017044Y011486D03*
X016717Y011578D03*
X016337Y011508D03*
X016349Y011373D03*
X015959Y011496D03*
X015957Y011676D03*
X016294Y011696D03*
X015274Y011683D03*
X016384Y012316D03*
X016384Y012318D03*
X016384Y012321D03*
X016384Y012386D03*
X016384Y012388D03*
X016384Y012391D03*
X016654Y012408D03*
X017079Y012633D03*
X018162Y012518D03*
X018162Y012516D03*
X018162Y012513D03*
X018162Y012511D03*
X018162Y012348D03*
X018162Y012346D03*
X018162Y012343D03*
X018162Y012341D03*
X018387Y012256D03*
X018657Y012251D03*
X018874Y012266D03*
X019234Y012428D03*
X019234Y012431D03*
X019234Y012471D03*
X019357Y012628D03*
X018884Y012628D03*
D30*
X019023Y012568D03*
X019035Y012306D03*
X019370Y012343D03*
X019518Y012301D03*
X019520Y012296D03*
X019538Y012256D03*
X019855Y011658D03*
X019663Y011473D03*
X019538Y011473D03*
X019108Y011376D03*
X018685Y011473D03*
X018120Y011466D03*
X017833Y011698D03*
X017668Y011701D03*
X017483Y011666D03*
X017485Y011503D03*
X017093Y011376D03*
X016765Y011658D03*
X016583Y011698D03*
X016100Y011701D03*
X015670Y011698D03*
X015575Y011473D03*
X015450Y011473D03*
X016355Y011433D03*
X017165Y012251D03*
X017340Y012283D03*
X017340Y012286D03*
D31*
X016928Y012616D03*
X018250Y012606D03*
X019785Y011901D03*
X019788Y011706D03*
X019810Y011706D03*
X019868Y011648D03*
X019828Y011466D03*
X019665Y011696D03*
X019660Y011696D03*
X019580Y011706D03*
X019258Y011706D03*
X018828Y011706D03*
X018840Y011568D03*
X018820Y011506D03*
X018683Y011696D03*
X018603Y011706D03*
X018318Y011706D03*
X018298Y011706D03*
X018115Y011668D03*
X018110Y011706D03*
X018105Y011706D03*
X017898Y011506D03*
X017655Y011658D03*
X017650Y011658D03*
X017505Y011706D03*
X017348Y011706D03*
X017360Y011568D03*
X017340Y011506D03*
X017510Y011503D03*
X018345Y011466D03*
X016860Y011813D03*
X016720Y011706D03*
X016698Y011706D03*
X016660Y011466D03*
X016575Y011376D03*
X016243Y011661D03*
X016238Y011661D03*
X016233Y011661D03*
X016315Y011706D03*
X016333Y011706D03*
X015945Y011706D03*
X015955Y011501D03*
X015675Y011701D03*
X015575Y011696D03*
X015570Y011696D03*
X015438Y011471D03*
X015295Y011706D03*
X015218Y011813D03*
X015213Y011813D03*
X015208Y011813D03*
D32*
X015275Y011681D03*
X015955Y011673D03*
X015960Y011498D03*
X016348Y011376D03*
X017043Y011488D03*
X017348Y011501D03*
X017348Y011503D03*
X018118Y011673D03*
X018828Y011503D03*
X019058Y011486D03*
X019270Y011498D03*
X019265Y011673D03*
X019235Y012433D03*
X019235Y012436D03*
X019235Y012466D03*
X019235Y012468D03*
X018660Y012623D03*
X018368Y012616D03*
X018160Y012528D03*
X018160Y012526D03*
X018160Y012523D03*
X018160Y012521D03*
X018153Y012548D03*
X018150Y012551D03*
X018160Y012338D03*
X018160Y012336D03*
X018160Y012333D03*
X019843Y012768D03*
X016385Y012396D03*
X016385Y012393D03*
X016385Y012313D03*
X016385Y012311D03*
D33*
X016548Y012571D03*
X016905Y012633D03*
X017340Y012281D03*
X018523Y012306D03*
X019185Y012261D03*
X019370Y012338D03*
X019515Y012311D03*
X019515Y012308D03*
X018605Y011703D03*
X018560Y011476D03*
X018685Y011476D03*
X019105Y011378D03*
X019660Y011478D03*
X019753Y011473D03*
X019828Y011468D03*
X017835Y011691D03*
X017835Y011693D03*
X017735Y011476D03*
X016738Y011468D03*
X016663Y011473D03*
X016545Y011418D03*
X016543Y011421D03*
X016540Y011426D03*
X016538Y011428D03*
X016538Y011431D03*
X016535Y011433D03*
X016535Y011436D03*
X016533Y011438D03*
X016533Y011441D03*
X016530Y011446D03*
X016528Y011451D03*
X016528Y011453D03*
X016525Y011456D03*
X016525Y011458D03*
X016525Y011461D03*
X016523Y011466D03*
X016520Y011473D03*
X016543Y011551D03*
X016543Y011553D03*
X016543Y011556D03*
X016545Y011561D03*
X016545Y011563D03*
X016493Y011553D03*
X016490Y011561D03*
X016488Y011571D03*
X016485Y011578D03*
X016485Y011581D03*
X016483Y011586D03*
X016483Y011588D03*
X016483Y011591D03*
X016480Y011596D03*
X016480Y011598D03*
X016480Y011601D03*
X016478Y011606D03*
X016478Y011608D03*
X016478Y011611D03*
X016475Y011616D03*
X016475Y011618D03*
X016473Y011628D03*
X016458Y011691D03*
X016458Y011693D03*
X016378Y011653D03*
X016380Y011646D03*
X016368Y011541D03*
X016370Y011538D03*
X016373Y011536D03*
X016375Y011533D03*
X016378Y011531D03*
X016380Y011528D03*
X016360Y011428D03*
X016363Y011426D03*
X016365Y011423D03*
X016368Y011421D03*
X016370Y011418D03*
X016383Y011406D03*
X016390Y011396D03*
X016393Y011391D03*
X016255Y011421D03*
X016253Y011423D03*
X016253Y011426D03*
X016250Y011428D03*
X016250Y011431D03*
X016248Y011433D03*
X016248Y011436D03*
X016248Y011438D03*
X016245Y011446D03*
X016245Y011451D03*
X016168Y011476D03*
X016268Y011598D03*
X015675Y011688D03*
X015673Y011693D03*
X015573Y011478D03*
X015220Y011473D03*
X015285Y011703D03*
X015228Y011801D03*
X015228Y011803D03*
D34*
X015294Y011466D03*
X015579Y011471D03*
X015577Y011688D03*
X016174Y011471D03*
X016352Y011441D03*
X016579Y011378D03*
X016769Y011656D03*
X017097Y011691D03*
X017164Y012253D03*
X017219Y012308D03*
X017344Y012298D03*
X017344Y012296D03*
X016894Y012303D03*
X016877Y012571D03*
X016587Y012306D03*
X017954Y012573D03*
X019359Y012543D03*
X019369Y012351D03*
X019369Y012348D03*
X019527Y012281D03*
X019527Y012278D03*
X019527Y012276D03*
X019529Y012273D03*
X019529Y012271D03*
X019532Y012266D03*
X018269Y011666D03*
X019667Y011471D03*
X019859Y011656D03*
D35*
X019800Y011481D03*
X019055Y011491D03*
X018118Y011671D03*
X018875Y012263D03*
X019238Y012441D03*
X019238Y012443D03*
X019238Y012458D03*
X019143Y012623D03*
X018888Y012631D03*
X018158Y012541D03*
X018158Y012538D03*
X018158Y012323D03*
X018158Y012321D03*
X018158Y012318D03*
X017025Y012246D03*
X016650Y012403D03*
X016388Y012403D03*
X016388Y012406D03*
X016388Y012301D03*
X016388Y012583D03*
X016388Y012586D03*
X016388Y012588D03*
X016388Y012591D03*
X016388Y012603D03*
X015278Y011676D03*
X015278Y011673D03*
X016303Y011483D03*
X016345Y011378D03*
X016710Y011483D03*
X017040Y011493D03*
D36*
X016857Y011473D03*
X016579Y011381D03*
X016542Y011423D03*
X016532Y011443D03*
X016529Y011448D03*
X016494Y011551D03*
X016492Y011556D03*
X016492Y011558D03*
X016489Y011563D03*
X016489Y011566D03*
X016489Y011568D03*
X016487Y011573D03*
X016487Y011576D03*
X016484Y011583D03*
X016482Y011593D03*
X016457Y011696D03*
X016584Y011696D03*
X016324Y011703D03*
X016169Y011473D03*
X016359Y011431D03*
X016374Y011416D03*
X016377Y011413D03*
X016379Y011411D03*
X016382Y011408D03*
X016384Y011403D03*
X016387Y011401D03*
X016389Y011398D03*
X016392Y011393D03*
X016394Y011388D03*
X015574Y011476D03*
X015672Y011696D03*
X015797Y011696D03*
X015494Y011703D03*
X015227Y011806D03*
X016867Y011806D03*
X017522Y011466D03*
X017737Y011473D03*
X017834Y011696D03*
X017957Y011696D03*
X018562Y011473D03*
X019582Y011703D03*
X019662Y011476D03*
X019542Y012253D03*
X019517Y012303D03*
X019517Y012306D03*
X019369Y012341D03*
X019359Y012551D03*
X019359Y012553D03*
X018522Y012571D03*
X017954Y012571D03*
X017189Y012421D03*
X017217Y012311D03*
D37*
X016649Y012401D03*
X016389Y012408D03*
X016389Y012298D03*
X016389Y012296D03*
X016389Y012576D03*
X016389Y012578D03*
X016389Y012581D03*
X016389Y012606D03*
X016389Y012608D03*
X016297Y011691D03*
X016329Y011503D03*
X016307Y011486D03*
X016344Y011381D03*
X016712Y011486D03*
X017039Y011496D03*
X018877Y012261D03*
X019239Y012446D03*
X019239Y012448D03*
X019239Y012453D03*
X019239Y012456D03*
X019367Y012253D03*
X019839Y012253D03*
X019517Y012498D03*
X019839Y012771D03*
X018657Y012626D03*
X018157Y012316D03*
X018157Y012313D03*
X019054Y011493D03*
X019802Y011483D03*
X015279Y011671D03*
X015269Y011478D03*
D38*
X015219Y011476D03*
X015354Y011541D03*
X015357Y011551D03*
X015357Y011553D03*
X015357Y011556D03*
X015357Y011558D03*
X015357Y011561D03*
X015357Y011563D03*
X015357Y011566D03*
X015359Y011571D03*
X015359Y011576D03*
X015359Y011578D03*
X015357Y011583D03*
X015357Y011588D03*
X015357Y011593D03*
X015357Y011596D03*
X015357Y011598D03*
X015357Y011601D03*
X015357Y011603D03*
X015357Y011606D03*
X015357Y011608D03*
X015354Y011616D03*
X015354Y011618D03*
X015354Y011621D03*
X015352Y011626D03*
X015352Y011628D03*
X015349Y011633D03*
X015349Y011636D03*
X015347Y011638D03*
X015347Y011641D03*
X015344Y011646D03*
X015452Y011643D03*
X015452Y011641D03*
X015452Y011638D03*
X015454Y011651D03*
X015454Y011653D03*
X015569Y011651D03*
X015792Y011643D03*
X015792Y011641D03*
X015794Y011596D03*
X015794Y011528D03*
X015794Y011526D03*
X015792Y011521D03*
X015792Y011518D03*
X015892Y011546D03*
X015894Y011536D03*
X015897Y011528D03*
X015899Y011521D03*
X015902Y011518D03*
X015902Y011516D03*
X015904Y011513D03*
X015889Y011558D03*
X015889Y011561D03*
X015889Y011566D03*
X015889Y011606D03*
X015889Y011608D03*
X015889Y011611D03*
X015889Y011613D03*
X015889Y011616D03*
X015889Y011618D03*
X015892Y011628D03*
X015892Y011631D03*
X015892Y011633D03*
X015894Y011638D03*
X015894Y011641D03*
X015897Y011643D03*
X015897Y011646D03*
X015899Y011651D03*
X016017Y011648D03*
X016017Y011646D03*
X016019Y011643D03*
X016019Y011641D03*
X016022Y011636D03*
X016022Y011633D03*
X016022Y011631D03*
X016024Y011628D03*
X016024Y011626D03*
X016024Y011623D03*
X016024Y011621D03*
X016027Y011616D03*
X016027Y011613D03*
X016027Y011611D03*
X016027Y011608D03*
X016027Y011606D03*
X016027Y011603D03*
X016027Y011601D03*
X016027Y011598D03*
X016027Y011596D03*
X016027Y011593D03*
X016027Y011591D03*
X016027Y011588D03*
X016027Y011586D03*
X016027Y011583D03*
X016027Y011581D03*
X016027Y011578D03*
X016027Y011576D03*
X016027Y011571D03*
X016027Y011568D03*
X016027Y011566D03*
X016027Y011563D03*
X016027Y011561D03*
X016027Y011558D03*
X016027Y011556D03*
X016027Y011553D03*
X016027Y011551D03*
X016024Y011548D03*
X016024Y011546D03*
X016024Y011543D03*
X016024Y011541D03*
X016024Y011538D03*
X016022Y011536D03*
X016022Y011533D03*
X016022Y011531D03*
X016019Y011526D03*
X016247Y011458D03*
X016249Y011463D03*
X016269Y011403D03*
X016272Y011401D03*
X016274Y011398D03*
X016382Y011521D03*
X016377Y011593D03*
X016377Y011596D03*
X016379Y011598D03*
X016379Y011601D03*
X016379Y011603D03*
X016369Y011668D03*
X016367Y011671D03*
X016274Y011661D03*
X016579Y011673D03*
X016579Y011676D03*
X016582Y011681D03*
X016582Y011683D03*
X016584Y011688D03*
X016674Y011661D03*
X016709Y011703D03*
X016769Y011566D03*
X016772Y011563D03*
X016772Y011561D03*
X016774Y011558D03*
X016777Y011516D03*
X016777Y011513D03*
X016674Y011513D03*
X016579Y011383D03*
X016969Y011531D03*
X016969Y011533D03*
X016967Y011538D03*
X016967Y011541D03*
X016967Y011543D03*
X016964Y011546D03*
X016964Y011548D03*
X016964Y011551D03*
X016964Y011553D03*
X016962Y011556D03*
X016962Y011558D03*
X016962Y011561D03*
X016962Y011563D03*
X016962Y011566D03*
X016962Y011568D03*
X016959Y011576D03*
X016959Y011578D03*
X016959Y011581D03*
X016959Y011583D03*
X016959Y011586D03*
X016959Y011588D03*
X016959Y011591D03*
X016959Y011593D03*
X016959Y011596D03*
X016959Y011598D03*
X016959Y011601D03*
X016959Y011603D03*
X016959Y011606D03*
X016959Y011608D03*
X016959Y011611D03*
X016959Y011613D03*
X016959Y011616D03*
X016959Y011618D03*
X016959Y011621D03*
X016962Y011628D03*
X016962Y011631D03*
X016962Y011633D03*
X016964Y011641D03*
X016972Y011526D03*
X017089Y011511D03*
X017089Y011653D03*
X017299Y011663D03*
X017294Y011606D03*
X017394Y011658D03*
X017397Y011653D03*
X017409Y011568D03*
X017407Y011536D03*
X017407Y011533D03*
X017404Y011528D03*
X017404Y011526D03*
X017402Y011523D03*
X017589Y011538D03*
X017589Y011541D03*
X017589Y011543D03*
X017592Y011546D03*
X017592Y011548D03*
X017592Y011551D03*
X017592Y011553D03*
X017594Y011568D03*
X017594Y011576D03*
X017594Y011578D03*
X017594Y011581D03*
X017594Y011583D03*
X017594Y011586D03*
X017594Y011588D03*
X017594Y011591D03*
X017594Y011593D03*
X017594Y011596D03*
X017592Y011611D03*
X017592Y011613D03*
X017592Y011616D03*
X017589Y011626D03*
X017587Y011633D03*
X017587Y011636D03*
X017584Y011638D03*
X017584Y011641D03*
X017582Y011643D03*
X017582Y011646D03*
X017839Y011518D03*
X017954Y011521D03*
X017954Y011523D03*
X017954Y011618D03*
X017954Y011668D03*
X018054Y011638D03*
X018054Y011636D03*
X018054Y011633D03*
X018052Y011626D03*
X018052Y011623D03*
X018052Y011621D03*
X018052Y011618D03*
X018049Y011611D03*
X018049Y011606D03*
X018049Y011603D03*
X018049Y011601D03*
X018049Y011598D03*
X018049Y011596D03*
X018049Y011593D03*
X018049Y011591D03*
X018049Y011588D03*
X018049Y011586D03*
X018049Y011583D03*
X018049Y011581D03*
X018049Y011578D03*
X018049Y011576D03*
X018049Y011573D03*
X018049Y011571D03*
X018049Y011568D03*
X018052Y011553D03*
X018052Y011551D03*
X018052Y011548D03*
X018054Y011541D03*
X018054Y011538D03*
X018057Y011531D03*
X018059Y011523D03*
X018062Y011518D03*
X018064Y011516D03*
X018064Y011513D03*
X018067Y011511D03*
X018182Y011528D03*
X018182Y011531D03*
X018184Y011536D03*
X018184Y011538D03*
X018184Y011541D03*
X018187Y011543D03*
X018187Y011546D03*
X018187Y011548D03*
X018187Y011551D03*
X018187Y011553D03*
X018187Y011556D03*
X018187Y011558D03*
X018189Y011563D03*
X018189Y011568D03*
X018189Y011571D03*
X018189Y011573D03*
X018189Y011576D03*
X018189Y011578D03*
X018189Y011581D03*
X018189Y011583D03*
X018189Y011586D03*
X018189Y011588D03*
X018189Y011591D03*
X018189Y011593D03*
X018189Y011596D03*
X018189Y011598D03*
X018189Y011601D03*
X018189Y011603D03*
X018189Y011606D03*
X018187Y011611D03*
X018187Y011613D03*
X018187Y011616D03*
X018187Y011618D03*
X018187Y011621D03*
X018187Y011623D03*
X018184Y011628D03*
X018184Y011631D03*
X018184Y011633D03*
X018182Y011636D03*
X018182Y011638D03*
X018182Y011641D03*
X018179Y011643D03*
X018179Y011646D03*
X018177Y011651D03*
X018117Y011703D03*
X018059Y011648D03*
X018057Y011643D03*
X018057Y011641D03*
X018277Y011668D03*
X018307Y011703D03*
X018357Y011656D03*
X018357Y011653D03*
X018357Y011651D03*
X018357Y011648D03*
X018357Y011643D03*
X018357Y011641D03*
X018357Y011638D03*
X018357Y011636D03*
X018359Y011503D03*
X018269Y011516D03*
X018269Y011518D03*
X018267Y011523D03*
X018267Y011526D03*
X018267Y011528D03*
X018267Y011531D03*
X018267Y011533D03*
X018267Y011536D03*
X018267Y011538D03*
X018562Y011631D03*
X018564Y011646D03*
X018564Y011648D03*
X018564Y011651D03*
X018779Y011663D03*
X018874Y011658D03*
X018877Y011656D03*
X018877Y011653D03*
X018974Y011628D03*
X018974Y011626D03*
X018974Y011623D03*
X018974Y011621D03*
X018974Y011618D03*
X018974Y011616D03*
X018974Y011613D03*
X018972Y011611D03*
X018972Y011603D03*
X018972Y011601D03*
X018972Y011593D03*
X018972Y011591D03*
X018972Y011588D03*
X018974Y011583D03*
X018974Y011581D03*
X018974Y011576D03*
X018974Y011573D03*
X018974Y011571D03*
X018974Y011568D03*
X018974Y011566D03*
X018974Y011563D03*
X018974Y011561D03*
X018977Y011558D03*
X018977Y011556D03*
X018977Y011553D03*
X018977Y011551D03*
X018979Y011546D03*
X018979Y011543D03*
X018979Y011541D03*
X018982Y011538D03*
X018982Y011536D03*
X018982Y011533D03*
X018984Y011531D03*
X018984Y011528D03*
X018987Y011523D03*
X018889Y011546D03*
X018887Y011536D03*
X018884Y011528D03*
X018884Y011526D03*
X018882Y011523D03*
X018977Y011636D03*
X018977Y011638D03*
X019104Y011513D03*
X019202Y011543D03*
X019202Y011546D03*
X019199Y011558D03*
X019199Y011561D03*
X019199Y011563D03*
X019199Y011566D03*
X019197Y011583D03*
X019197Y011586D03*
X019197Y011591D03*
X019199Y011611D03*
X019199Y011613D03*
X019199Y011616D03*
X019199Y011618D03*
X019199Y011621D03*
X019202Y011628D03*
X019202Y011631D03*
X019202Y011633D03*
X019204Y011638D03*
X019204Y011641D03*
X019204Y011643D03*
X019207Y011646D03*
X019207Y011648D03*
X019327Y011648D03*
X019327Y011646D03*
X019329Y011643D03*
X019329Y011641D03*
X019329Y011638D03*
X019332Y011636D03*
X019332Y011633D03*
X019332Y011631D03*
X019334Y011628D03*
X019334Y011626D03*
X019334Y011623D03*
X019334Y011621D03*
X019334Y011618D03*
X019337Y011613D03*
X019337Y011611D03*
X019337Y011608D03*
X019337Y011606D03*
X019337Y011603D03*
X019337Y011601D03*
X019337Y011598D03*
X019337Y011596D03*
X019337Y011593D03*
X019337Y011591D03*
X019337Y011588D03*
X019337Y011586D03*
X019337Y011583D03*
X019337Y011581D03*
X019337Y011578D03*
X019337Y011576D03*
X019337Y011571D03*
X019337Y011568D03*
X019337Y011566D03*
X019337Y011563D03*
X019337Y011561D03*
X019337Y011558D03*
X019337Y011556D03*
X019337Y011553D03*
X019334Y011548D03*
X019334Y011546D03*
X019334Y011543D03*
X019334Y011541D03*
X019332Y011536D03*
X019332Y011533D03*
X019332Y011531D03*
X019329Y011526D03*
X019214Y011513D03*
X019212Y011516D03*
X019209Y011521D03*
X019207Y011528D03*
X019539Y011641D03*
X019542Y011651D03*
X019542Y011653D03*
X019657Y011651D03*
X019764Y011658D03*
X019764Y011661D03*
X019862Y011563D03*
X019864Y011561D03*
X019869Y011521D03*
X019867Y011513D03*
X019764Y011513D03*
X019369Y012331D03*
X019369Y012333D03*
X019189Y012276D03*
X019189Y012273D03*
X019359Y012561D03*
X019024Y012566D03*
X017954Y012566D03*
X017934Y012311D03*
X017339Y012276D03*
X017217Y012313D03*
X017167Y012248D03*
X016587Y012308D03*
X016697Y012498D03*
X016697Y012501D03*
X016704Y012541D03*
X016704Y012543D03*
X016704Y012546D03*
X015229Y011663D03*
D39*
X015228Y011661D03*
X015228Y011658D03*
X015228Y011656D03*
X015228Y011653D03*
X015228Y011651D03*
X015228Y011648D03*
X015228Y011646D03*
X015228Y011643D03*
X015228Y011641D03*
X015228Y011638D03*
X015228Y011636D03*
X015228Y011633D03*
X015228Y011631D03*
X015228Y011628D03*
X015228Y011626D03*
X015228Y011623D03*
X015228Y011621D03*
X015228Y011618D03*
X015228Y011616D03*
X015228Y011613D03*
X015228Y011611D03*
X015228Y011608D03*
X015228Y011606D03*
X015228Y011603D03*
X015228Y011601D03*
X015228Y011598D03*
X015228Y011596D03*
X015228Y011593D03*
X015228Y011591D03*
X015228Y011588D03*
X015228Y011586D03*
X015228Y011583D03*
X015228Y011581D03*
X015228Y011578D03*
X015228Y011576D03*
X015228Y011573D03*
X015228Y011571D03*
X015228Y011568D03*
X015228Y011566D03*
X015228Y011563D03*
X015228Y011561D03*
X015228Y011558D03*
X015228Y011556D03*
X015228Y011553D03*
X015228Y011551D03*
X015228Y011548D03*
X015228Y011546D03*
X015228Y011543D03*
X015228Y011541D03*
X015228Y011538D03*
X015228Y011536D03*
X015228Y011533D03*
X015228Y011528D03*
X015228Y011526D03*
X015228Y011523D03*
X015228Y011516D03*
X015295Y011468D03*
X015358Y011586D03*
X015358Y011591D03*
X015355Y011611D03*
X015355Y011613D03*
X015353Y011623D03*
X015350Y011631D03*
X015450Y011631D03*
X015450Y011633D03*
X015450Y011636D03*
X015450Y011628D03*
X015450Y011626D03*
X015450Y011623D03*
X015450Y011621D03*
X015450Y011618D03*
X015450Y011616D03*
X015450Y011613D03*
X015450Y011611D03*
X015450Y011608D03*
X015450Y011606D03*
X015450Y011603D03*
X015450Y011601D03*
X015450Y011598D03*
X015450Y011596D03*
X015450Y011593D03*
X015450Y011591D03*
X015450Y011588D03*
X015450Y011586D03*
X015450Y011583D03*
X015450Y011581D03*
X015450Y011578D03*
X015450Y011576D03*
X015450Y011573D03*
X015450Y011571D03*
X015450Y011568D03*
X015450Y011566D03*
X015450Y011563D03*
X015450Y011561D03*
X015450Y011558D03*
X015450Y011556D03*
X015450Y011553D03*
X015450Y011551D03*
X015450Y011548D03*
X015450Y011546D03*
X015450Y011543D03*
X015450Y011541D03*
X015450Y011538D03*
X015450Y011536D03*
X015450Y011533D03*
X015450Y011531D03*
X015450Y011528D03*
X015450Y011526D03*
X015450Y011523D03*
X015450Y011521D03*
X015450Y011518D03*
X015450Y011516D03*
X015450Y011513D03*
X015450Y011511D03*
X015450Y011508D03*
X015450Y011506D03*
X015450Y011503D03*
X015450Y011501D03*
X015450Y011498D03*
X015450Y011496D03*
X015450Y011493D03*
X015450Y011491D03*
X015450Y011488D03*
X015450Y011486D03*
X015450Y011483D03*
X015570Y011491D03*
X015570Y011493D03*
X015570Y011496D03*
X015570Y011498D03*
X015570Y011501D03*
X015570Y011503D03*
X015570Y011506D03*
X015570Y011508D03*
X015570Y011511D03*
X015570Y011513D03*
X015570Y011516D03*
X015570Y011518D03*
X015570Y011521D03*
X015570Y011523D03*
X015570Y011526D03*
X015570Y011528D03*
X015570Y011531D03*
X015570Y011533D03*
X015570Y011536D03*
X015570Y011538D03*
X015570Y011541D03*
X015570Y011543D03*
X015570Y011546D03*
X015570Y011548D03*
X015570Y011551D03*
X015570Y011553D03*
X015570Y011556D03*
X015570Y011558D03*
X015570Y011561D03*
X015570Y011563D03*
X015570Y011566D03*
X015570Y011568D03*
X015570Y011571D03*
X015570Y011573D03*
X015570Y011576D03*
X015570Y011578D03*
X015570Y011581D03*
X015570Y011583D03*
X015570Y011586D03*
X015570Y011588D03*
X015570Y011591D03*
X015570Y011593D03*
X015570Y011596D03*
X015570Y011598D03*
X015570Y011601D03*
X015570Y011603D03*
X015570Y011606D03*
X015570Y011608D03*
X015570Y011611D03*
X015570Y011613D03*
X015570Y011616D03*
X015570Y011618D03*
X015570Y011621D03*
X015570Y011623D03*
X015570Y011626D03*
X015570Y011628D03*
X015570Y011631D03*
X015570Y011633D03*
X015570Y011636D03*
X015570Y011638D03*
X015570Y011641D03*
X015570Y011643D03*
X015570Y011646D03*
X015570Y011648D03*
X015675Y011648D03*
X015675Y011653D03*
X015675Y011658D03*
X015675Y011661D03*
X015675Y011663D03*
X015675Y011666D03*
X015675Y011668D03*
X015675Y011671D03*
X015675Y011673D03*
X015675Y011676D03*
X015675Y011678D03*
X015675Y011681D03*
X015675Y011683D03*
X015675Y011686D03*
X015793Y011676D03*
X015793Y011673D03*
X015793Y011671D03*
X015793Y011668D03*
X015793Y011666D03*
X015793Y011663D03*
X015793Y011661D03*
X015793Y011653D03*
X015790Y011651D03*
X015793Y011648D03*
X015790Y011646D03*
X015793Y011638D03*
X015793Y011636D03*
X015793Y011633D03*
X015793Y011631D03*
X015793Y011628D03*
X015793Y011626D03*
X015793Y011623D03*
X015793Y011621D03*
X015793Y011618D03*
X015793Y011616D03*
X015793Y011613D03*
X015793Y011611D03*
X015793Y011608D03*
X015793Y011606D03*
X015793Y011603D03*
X015793Y011601D03*
X015793Y011598D03*
X015795Y011593D03*
X015795Y011591D03*
X015795Y011588D03*
X015795Y011586D03*
X015795Y011583D03*
X015795Y011581D03*
X015795Y011578D03*
X015795Y011576D03*
X015795Y011573D03*
X015795Y011571D03*
X015795Y011568D03*
X015795Y011566D03*
X015795Y011563D03*
X015795Y011561D03*
X015795Y011558D03*
X015795Y011556D03*
X015795Y011551D03*
X015795Y011548D03*
X015795Y011546D03*
X015795Y011543D03*
X015795Y011541D03*
X015795Y011538D03*
X015795Y011536D03*
X015795Y011533D03*
X015795Y011531D03*
X015793Y011523D03*
X015890Y011548D03*
X015890Y011551D03*
X015890Y011553D03*
X015890Y011556D03*
X015888Y011563D03*
X015888Y011568D03*
X015888Y011571D03*
X015888Y011573D03*
X015888Y011576D03*
X015888Y011578D03*
X015888Y011581D03*
X015888Y011583D03*
X015888Y011586D03*
X015888Y011588D03*
X015888Y011591D03*
X015888Y011593D03*
X015888Y011596D03*
X015888Y011598D03*
X015888Y011601D03*
X015888Y011603D03*
X015890Y011621D03*
X015890Y011623D03*
X015890Y011626D03*
X015893Y011636D03*
X015955Y011703D03*
X016020Y011638D03*
X016025Y011618D03*
X016028Y011573D03*
X016165Y011573D03*
X016165Y011571D03*
X016165Y011568D03*
X016165Y011566D03*
X016165Y011563D03*
X016165Y011561D03*
X016165Y011558D03*
X016165Y011556D03*
X016165Y011553D03*
X016165Y011551D03*
X016165Y011548D03*
X016165Y011546D03*
X016165Y011543D03*
X016165Y011541D03*
X016165Y011538D03*
X016165Y011536D03*
X016165Y011533D03*
X016165Y011531D03*
X016165Y011528D03*
X016165Y011526D03*
X016165Y011523D03*
X016165Y011521D03*
X016165Y011518D03*
X016165Y011516D03*
X016165Y011511D03*
X016165Y011508D03*
X016165Y011506D03*
X016165Y011503D03*
X016165Y011501D03*
X016165Y011498D03*
X016165Y011496D03*
X016165Y011493D03*
X016165Y011491D03*
X016165Y011488D03*
X016165Y011486D03*
X016248Y011461D03*
X016245Y011453D03*
X016265Y011406D03*
X016393Y011383D03*
X016383Y011523D03*
X016380Y011606D03*
X016380Y011608D03*
X016380Y011611D03*
X016380Y011613D03*
X016380Y011616D03*
X016383Y011618D03*
X016383Y011623D03*
X016275Y011658D03*
X016273Y011653D03*
X016268Y011638D03*
X016275Y011581D03*
X016278Y011578D03*
X016165Y011578D03*
X016165Y011576D03*
X016165Y011581D03*
X016165Y011583D03*
X016165Y011586D03*
X016165Y011588D03*
X016165Y011591D03*
X016165Y011593D03*
X016165Y011596D03*
X016165Y011598D03*
X016165Y011601D03*
X016165Y011603D03*
X016165Y011606D03*
X016165Y011608D03*
X016165Y011611D03*
X016165Y011613D03*
X016165Y011616D03*
X016165Y011618D03*
X016163Y011651D03*
X016100Y011698D03*
X015893Y011543D03*
X015893Y011541D03*
X015893Y011538D03*
X015895Y011533D03*
X015895Y011531D03*
X015898Y011526D03*
X015898Y011523D03*
X015795Y011678D03*
X015795Y011681D03*
X015795Y011683D03*
X015795Y011686D03*
X015798Y011688D03*
X015798Y011691D03*
X015678Y011518D03*
X015453Y011646D03*
X015453Y011648D03*
X015228Y011703D03*
X015228Y011706D03*
X015228Y011708D03*
X015228Y011711D03*
X015228Y011713D03*
X015228Y011716D03*
X015228Y011718D03*
X015228Y011721D03*
X015228Y011723D03*
X015228Y011726D03*
X015228Y011728D03*
X015228Y011731D03*
X015228Y011733D03*
X015228Y011736D03*
X015228Y011738D03*
X015228Y011741D03*
X015228Y011743D03*
X015228Y011746D03*
X015228Y011748D03*
X015228Y011751D03*
X015228Y011753D03*
X015228Y011756D03*
X015228Y011758D03*
X015228Y011761D03*
X015228Y011763D03*
X015228Y011766D03*
X015228Y011768D03*
X015228Y011771D03*
X015228Y011773D03*
X015228Y011776D03*
X015228Y011778D03*
X015228Y011781D03*
X015228Y011783D03*
X015228Y011786D03*
X015228Y011788D03*
X015228Y011791D03*
X015228Y011796D03*
X016518Y011488D03*
X016550Y011413D03*
X016663Y011476D03*
X016673Y011516D03*
X016670Y011546D03*
X016670Y011551D03*
X016670Y011553D03*
X016670Y011556D03*
X016670Y011558D03*
X016670Y011561D03*
X016670Y011563D03*
X016670Y011566D03*
X016670Y011568D03*
X016670Y011571D03*
X016670Y011573D03*
X016670Y011576D03*
X016670Y011611D03*
X016670Y011613D03*
X016670Y011616D03*
X016670Y011618D03*
X016670Y011621D03*
X016670Y011623D03*
X016670Y011626D03*
X016670Y011628D03*
X016670Y011631D03*
X016670Y011633D03*
X016670Y011636D03*
X016670Y011638D03*
X016670Y011641D03*
X016670Y011643D03*
X016670Y011646D03*
X016670Y011648D03*
X016673Y011653D03*
X016673Y011656D03*
X016673Y011658D03*
X016583Y011686D03*
X016583Y011691D03*
X016580Y011678D03*
X016578Y011671D03*
X016578Y011668D03*
X016575Y011666D03*
X016575Y011663D03*
X016575Y011661D03*
X016573Y011658D03*
X016573Y011656D03*
X016573Y011653D03*
X016570Y011651D03*
X016570Y011648D03*
X016570Y011646D03*
X016568Y011641D03*
X016568Y011638D03*
X016565Y011633D03*
X016565Y011631D03*
X016563Y011626D03*
X016563Y011623D03*
X016560Y011616D03*
X016560Y011613D03*
X016558Y011608D03*
X016558Y011606D03*
X016555Y011598D03*
X016553Y011591D03*
X016775Y011556D03*
X016775Y011553D03*
X016778Y011551D03*
X016778Y011548D03*
X016778Y011546D03*
X016778Y011543D03*
X016780Y011533D03*
X016780Y011531D03*
X016780Y011528D03*
X016778Y011526D03*
X016778Y011523D03*
X016778Y011521D03*
X016778Y011518D03*
X016865Y011506D03*
X016865Y011503D03*
X016858Y011476D03*
X016960Y011571D03*
X016960Y011573D03*
X017090Y011573D03*
X017090Y011571D03*
X017090Y011568D03*
X017090Y011566D03*
X017090Y011563D03*
X017090Y011561D03*
X017090Y011558D03*
X017090Y011556D03*
X017090Y011553D03*
X017090Y011551D03*
X017090Y011548D03*
X017090Y011546D03*
X017090Y011543D03*
X017090Y011541D03*
X017090Y011538D03*
X017090Y011536D03*
X017090Y011533D03*
X017090Y011531D03*
X017090Y011528D03*
X017090Y011526D03*
X017090Y011523D03*
X017090Y011521D03*
X017090Y011518D03*
X017090Y011516D03*
X017090Y011513D03*
X017090Y011468D03*
X017090Y011466D03*
X017090Y011461D03*
X017090Y011458D03*
X017090Y011456D03*
X017090Y011453D03*
X017090Y011451D03*
X017090Y011448D03*
X017090Y011446D03*
X017090Y011443D03*
X017090Y011441D03*
X017090Y011438D03*
X017090Y011436D03*
X017090Y011433D03*
X017090Y011431D03*
X017090Y011428D03*
X017090Y011426D03*
X017090Y011423D03*
X017090Y011421D03*
X017090Y011418D03*
X017090Y011416D03*
X017090Y011413D03*
X017090Y011411D03*
X017090Y011408D03*
X017090Y011406D03*
X017090Y011403D03*
X017090Y011401D03*
X017090Y011398D03*
X017090Y011396D03*
X017090Y011391D03*
X017090Y011386D03*
X017090Y011576D03*
X017090Y011578D03*
X017090Y011581D03*
X017090Y011583D03*
X017090Y011586D03*
X017090Y011588D03*
X017090Y011591D03*
X017090Y011593D03*
X017090Y011596D03*
X017090Y011598D03*
X017090Y011601D03*
X017090Y011603D03*
X017090Y011606D03*
X017090Y011608D03*
X017090Y011611D03*
X017090Y011613D03*
X017090Y011616D03*
X017090Y011618D03*
X017090Y011621D03*
X017090Y011623D03*
X017090Y011626D03*
X017090Y011628D03*
X017090Y011631D03*
X017090Y011633D03*
X017090Y011636D03*
X017090Y011638D03*
X017090Y011643D03*
X017090Y011646D03*
X017090Y011648D03*
X017090Y011651D03*
X017293Y011646D03*
X017293Y011643D03*
X017295Y011653D03*
X017295Y011656D03*
X017298Y011658D03*
X017298Y011661D03*
X017395Y011656D03*
X017398Y011651D03*
X017400Y011648D03*
X017400Y011646D03*
X017403Y011643D03*
X017403Y011641D03*
X017403Y011638D03*
X017405Y011633D03*
X017405Y011631D03*
X017408Y011626D03*
X017408Y011623D03*
X017408Y011621D03*
X017408Y011618D03*
X017408Y011616D03*
X017410Y011608D03*
X017410Y011606D03*
X017410Y011566D03*
X017410Y011563D03*
X017410Y011561D03*
X017410Y011558D03*
X017410Y011556D03*
X017410Y011553D03*
X017410Y011551D03*
X017410Y011548D03*
X017408Y011546D03*
X017408Y011543D03*
X017408Y011541D03*
X017408Y011538D03*
X017405Y011531D03*
X017593Y011556D03*
X017593Y011558D03*
X017593Y011561D03*
X017593Y011563D03*
X017593Y011566D03*
X017593Y011571D03*
X017593Y011573D03*
X017593Y011598D03*
X017593Y011601D03*
X017593Y011603D03*
X017593Y011606D03*
X017593Y011608D03*
X017590Y011618D03*
X017590Y011621D03*
X017590Y011623D03*
X017588Y011628D03*
X017588Y011631D03*
X017518Y011703D03*
X017668Y011698D03*
X017730Y011651D03*
X017838Y011651D03*
X017838Y011653D03*
X017838Y011656D03*
X017838Y011658D03*
X017838Y011661D03*
X017838Y011663D03*
X017838Y011666D03*
X017838Y011668D03*
X017838Y011671D03*
X017838Y011673D03*
X017838Y011676D03*
X017838Y011678D03*
X017838Y011681D03*
X017838Y011683D03*
X017838Y011648D03*
X017838Y011646D03*
X017838Y011643D03*
X017838Y011641D03*
X017838Y011638D03*
X017838Y011636D03*
X017838Y011633D03*
X017838Y011631D03*
X017838Y011628D03*
X017838Y011626D03*
X017838Y011623D03*
X017838Y011621D03*
X017838Y011618D03*
X017838Y011616D03*
X017838Y011613D03*
X017838Y011611D03*
X017838Y011608D03*
X017838Y011606D03*
X017838Y011603D03*
X017838Y011601D03*
X017838Y011598D03*
X017838Y011596D03*
X017838Y011593D03*
X017838Y011591D03*
X017838Y011588D03*
X017838Y011586D03*
X017838Y011583D03*
X017838Y011581D03*
X017838Y011578D03*
X017838Y011576D03*
X017838Y011573D03*
X017838Y011571D03*
X017838Y011568D03*
X017838Y011566D03*
X017838Y011563D03*
X017838Y011561D03*
X017838Y011558D03*
X017838Y011556D03*
X017838Y011553D03*
X017838Y011551D03*
X017838Y011548D03*
X017838Y011546D03*
X017838Y011543D03*
X017838Y011541D03*
X017838Y011538D03*
X017838Y011536D03*
X017838Y011533D03*
X017838Y011531D03*
X017838Y011528D03*
X017838Y011526D03*
X017838Y011523D03*
X017838Y011521D03*
X017733Y011523D03*
X017733Y011526D03*
X017733Y011531D03*
X017733Y011533D03*
X017733Y011518D03*
X017733Y011516D03*
X017733Y011513D03*
X017733Y011511D03*
X017733Y011508D03*
X017733Y011506D03*
X017733Y011503D03*
X017733Y011501D03*
X017733Y011498D03*
X017733Y011496D03*
X017733Y011491D03*
X017733Y011486D03*
X017733Y011483D03*
X017955Y011526D03*
X017955Y011528D03*
X017955Y011531D03*
X017955Y011533D03*
X017955Y011536D03*
X017958Y011538D03*
X017958Y011541D03*
X017958Y011543D03*
X017958Y011546D03*
X017958Y011548D03*
X017958Y011551D03*
X017958Y011553D03*
X017958Y011556D03*
X017958Y011558D03*
X017958Y011561D03*
X017958Y011568D03*
X017955Y011576D03*
X017955Y011578D03*
X017955Y011581D03*
X017955Y011583D03*
X017955Y011586D03*
X017955Y011588D03*
X017955Y011591D03*
X017955Y011593D03*
X017955Y011596D03*
X017955Y011598D03*
X017955Y011601D03*
X017955Y011603D03*
X017955Y011606D03*
X017955Y011608D03*
X017955Y011611D03*
X017955Y011613D03*
X017955Y011616D03*
X017953Y011621D03*
X017953Y011623D03*
X017953Y011626D03*
X017953Y011628D03*
X017953Y011631D03*
X017953Y011633D03*
X017953Y011636D03*
X017953Y011638D03*
X017953Y011641D03*
X017953Y011643D03*
X017953Y011646D03*
X017953Y011648D03*
X017953Y011651D03*
X017953Y011653D03*
X017953Y011656D03*
X017953Y011658D03*
X017953Y011661D03*
X017953Y011663D03*
X017953Y011666D03*
X017955Y011671D03*
X017955Y011673D03*
X017955Y011676D03*
X017955Y011678D03*
X017955Y011681D03*
X017958Y011683D03*
X017958Y011686D03*
X017958Y011688D03*
X017958Y011691D03*
X018053Y011631D03*
X018053Y011628D03*
X018050Y011616D03*
X018050Y011613D03*
X018050Y011608D03*
X018050Y011566D03*
X018050Y011563D03*
X018050Y011561D03*
X018050Y011558D03*
X018050Y011556D03*
X018053Y011546D03*
X018053Y011543D03*
X018055Y011536D03*
X018055Y011533D03*
X018058Y011528D03*
X018058Y011526D03*
X018060Y011521D03*
X018188Y011561D03*
X018188Y011566D03*
X018188Y011608D03*
X018185Y011626D03*
X018268Y011521D03*
X018358Y011646D03*
X018560Y011626D03*
X018560Y011623D03*
X018560Y011618D03*
X018560Y011616D03*
X018560Y011613D03*
X018560Y011611D03*
X018560Y011608D03*
X018560Y011606D03*
X018560Y011603D03*
X018560Y011601D03*
X018560Y011598D03*
X018560Y011596D03*
X018560Y011593D03*
X018560Y011591D03*
X018560Y011588D03*
X018560Y011586D03*
X018560Y011583D03*
X018560Y011581D03*
X018560Y011578D03*
X018560Y011576D03*
X018560Y011573D03*
X018560Y011571D03*
X018560Y011568D03*
X018560Y011566D03*
X018560Y011563D03*
X018560Y011561D03*
X018560Y011558D03*
X018560Y011556D03*
X018560Y011553D03*
X018560Y011551D03*
X018560Y011548D03*
X018560Y011546D03*
X018560Y011543D03*
X018560Y011541D03*
X018560Y011538D03*
X018560Y011536D03*
X018560Y011533D03*
X018560Y011531D03*
X018560Y011528D03*
X018560Y011526D03*
X018560Y011523D03*
X018560Y011521D03*
X018560Y011518D03*
X018560Y011516D03*
X018560Y011511D03*
X018560Y011508D03*
X018560Y011506D03*
X018560Y011503D03*
X018560Y011501D03*
X018560Y011498D03*
X018560Y011496D03*
X018560Y011493D03*
X018560Y011491D03*
X018560Y011488D03*
X018560Y011486D03*
X018560Y011483D03*
X018560Y011481D03*
X018560Y011478D03*
X018683Y011483D03*
X018683Y011486D03*
X018683Y011488D03*
X018683Y011491D03*
X018683Y011493D03*
X018683Y011496D03*
X018683Y011501D03*
X018680Y011651D03*
X018773Y011646D03*
X018773Y011643D03*
X018775Y011653D03*
X018775Y011656D03*
X018778Y011658D03*
X018778Y011661D03*
X018878Y011651D03*
X018880Y011648D03*
X018880Y011646D03*
X018883Y011643D03*
X018883Y011641D03*
X018883Y011638D03*
X018885Y011633D03*
X018885Y011631D03*
X018888Y011626D03*
X018888Y011623D03*
X018888Y011621D03*
X018888Y011618D03*
X018890Y011611D03*
X018890Y011608D03*
X018890Y011606D03*
X018890Y011568D03*
X018890Y011563D03*
X018890Y011561D03*
X018890Y011558D03*
X018890Y011556D03*
X018890Y011553D03*
X018890Y011551D03*
X018890Y011548D03*
X018888Y011543D03*
X018888Y011541D03*
X018888Y011538D03*
X018885Y011533D03*
X018885Y011531D03*
X018978Y011548D03*
X018973Y011578D03*
X018973Y011586D03*
X018973Y011596D03*
X018973Y011598D03*
X018973Y011608D03*
X019105Y011608D03*
X019105Y011606D03*
X019105Y011603D03*
X019105Y011601D03*
X019105Y011598D03*
X019105Y011596D03*
X019105Y011593D03*
X019105Y011591D03*
X019105Y011588D03*
X019105Y011586D03*
X019105Y011583D03*
X019105Y011581D03*
X019105Y011578D03*
X019105Y011576D03*
X019105Y011573D03*
X019105Y011571D03*
X019105Y011568D03*
X019105Y011566D03*
X019105Y011563D03*
X019105Y011561D03*
X019105Y011558D03*
X019105Y011556D03*
X019105Y011553D03*
X019105Y011551D03*
X019105Y011548D03*
X019105Y011546D03*
X019105Y011543D03*
X019105Y011541D03*
X019105Y011538D03*
X019105Y011536D03*
X019105Y011533D03*
X019105Y011531D03*
X019105Y011528D03*
X019105Y011526D03*
X019105Y011523D03*
X019105Y011521D03*
X019105Y011518D03*
X019105Y011516D03*
X019105Y011471D03*
X019105Y011468D03*
X019105Y011466D03*
X019105Y011463D03*
X019105Y011461D03*
X019105Y011458D03*
X019105Y011456D03*
X019105Y011453D03*
X019105Y011451D03*
X019105Y011448D03*
X019105Y011446D03*
X019105Y011443D03*
X019105Y011441D03*
X019105Y011438D03*
X019105Y011436D03*
X019105Y011433D03*
X019105Y011431D03*
X019105Y011428D03*
X019105Y011426D03*
X019105Y011423D03*
X019105Y011421D03*
X019105Y011418D03*
X019105Y011416D03*
X019105Y011413D03*
X019105Y011411D03*
X019105Y011408D03*
X019105Y011406D03*
X019105Y011403D03*
X019105Y011401D03*
X019105Y011398D03*
X019105Y011393D03*
X019210Y011518D03*
X019208Y011523D03*
X019208Y011526D03*
X019205Y011531D03*
X019205Y011533D03*
X019203Y011536D03*
X019203Y011538D03*
X019203Y011541D03*
X019200Y011548D03*
X019200Y011551D03*
X019200Y011553D03*
X019200Y011556D03*
X019198Y011568D03*
X019198Y011571D03*
X019198Y011573D03*
X019198Y011576D03*
X019198Y011578D03*
X019198Y011581D03*
X019198Y011588D03*
X019198Y011593D03*
X019198Y011596D03*
X019198Y011598D03*
X019198Y011601D03*
X019198Y011603D03*
X019198Y011606D03*
X019198Y011608D03*
X019200Y011623D03*
X019200Y011626D03*
X019203Y011636D03*
X019265Y011703D03*
X019335Y011616D03*
X019338Y011573D03*
X019538Y011573D03*
X019538Y011571D03*
X019538Y011568D03*
X019538Y011566D03*
X019538Y011563D03*
X019538Y011561D03*
X019538Y011558D03*
X019538Y011556D03*
X019538Y011553D03*
X019538Y011551D03*
X019538Y011548D03*
X019538Y011546D03*
X019538Y011543D03*
X019538Y011541D03*
X019538Y011538D03*
X019538Y011536D03*
X019538Y011533D03*
X019538Y011531D03*
X019538Y011528D03*
X019538Y011526D03*
X019538Y011523D03*
X019538Y011521D03*
X019538Y011518D03*
X019538Y011516D03*
X019538Y011513D03*
X019538Y011511D03*
X019538Y011508D03*
X019538Y011506D03*
X019538Y011503D03*
X019538Y011501D03*
X019538Y011498D03*
X019538Y011496D03*
X019538Y011493D03*
X019538Y011491D03*
X019538Y011488D03*
X019538Y011486D03*
X019538Y011483D03*
X019538Y011576D03*
X019538Y011578D03*
X019538Y011581D03*
X019538Y011583D03*
X019538Y011586D03*
X019538Y011588D03*
X019538Y011591D03*
X019538Y011593D03*
X019538Y011596D03*
X019538Y011598D03*
X019538Y011601D03*
X019538Y011603D03*
X019538Y011606D03*
X019538Y011608D03*
X019538Y011611D03*
X019538Y011613D03*
X019538Y011616D03*
X019538Y011618D03*
X019538Y011621D03*
X019538Y011623D03*
X019538Y011626D03*
X019538Y011628D03*
X019538Y011631D03*
X019538Y011633D03*
X019538Y011636D03*
X019538Y011638D03*
X019540Y011643D03*
X019540Y011646D03*
X019540Y011648D03*
X019658Y011648D03*
X019658Y011646D03*
X019658Y011643D03*
X019658Y011641D03*
X019658Y011638D03*
X019658Y011636D03*
X019658Y011633D03*
X019658Y011631D03*
X019658Y011628D03*
X019658Y011626D03*
X019658Y011623D03*
X019658Y011621D03*
X019658Y011618D03*
X019658Y011616D03*
X019658Y011613D03*
X019658Y011611D03*
X019658Y011608D03*
X019658Y011606D03*
X019658Y011603D03*
X019658Y011601D03*
X019658Y011598D03*
X019658Y011596D03*
X019658Y011593D03*
X019658Y011591D03*
X019658Y011588D03*
X019658Y011586D03*
X019658Y011583D03*
X019658Y011581D03*
X019658Y011578D03*
X019658Y011576D03*
X019658Y011573D03*
X019658Y011571D03*
X019658Y011568D03*
X019658Y011566D03*
X019658Y011563D03*
X019658Y011561D03*
X019658Y011558D03*
X019658Y011556D03*
X019658Y011553D03*
X019658Y011551D03*
X019658Y011548D03*
X019658Y011546D03*
X019658Y011543D03*
X019658Y011541D03*
X019658Y011538D03*
X019658Y011536D03*
X019658Y011533D03*
X019658Y011531D03*
X019658Y011528D03*
X019658Y011526D03*
X019658Y011523D03*
X019658Y011521D03*
X019658Y011518D03*
X019658Y011516D03*
X019658Y011513D03*
X019658Y011511D03*
X019658Y011508D03*
X019658Y011506D03*
X019658Y011503D03*
X019658Y011501D03*
X019658Y011498D03*
X019658Y011496D03*
X019658Y011493D03*
X019658Y011491D03*
X019753Y011476D03*
X019763Y011516D03*
X019763Y011518D03*
X019763Y011521D03*
X019868Y011518D03*
X019868Y011516D03*
X019870Y011523D03*
X019870Y011526D03*
X019870Y011528D03*
X019870Y011531D03*
X019870Y011533D03*
X019870Y011536D03*
X019870Y011538D03*
X019870Y011543D03*
X019868Y011548D03*
X019868Y011551D03*
X019868Y011553D03*
X019865Y011556D03*
X019865Y011558D03*
X019853Y011661D03*
X019763Y011656D03*
X019763Y011653D03*
X019105Y011651D03*
X019105Y011648D03*
X019105Y011646D03*
X019105Y011641D03*
X019105Y011636D03*
X019105Y011633D03*
X019105Y011631D03*
X019105Y011628D03*
X019105Y011626D03*
X019105Y011623D03*
X019105Y011621D03*
X019105Y011618D03*
X019105Y011616D03*
X019105Y011613D03*
X019105Y011611D03*
X018563Y011633D03*
X018563Y011636D03*
X018563Y011638D03*
X018563Y011641D03*
X018563Y011643D03*
X019188Y012256D03*
X019188Y012268D03*
X019188Y012271D03*
X019035Y012308D03*
X019360Y012558D03*
X018523Y012568D03*
X017203Y012563D03*
X017193Y012418D03*
X016895Y012306D03*
X016698Y012503D03*
X016698Y012506D03*
X016698Y012508D03*
X016700Y012516D03*
X016700Y012518D03*
X016703Y012531D03*
X016703Y012533D03*
X016703Y012536D03*
X016703Y012538D03*
X016868Y011798D03*
X016868Y011796D03*
X016868Y011793D03*
X016868Y011791D03*
X016868Y011786D03*
X016868Y011778D03*
X016868Y011776D03*
X016868Y011773D03*
D40*
X017018Y011696D03*
X016713Y011698D03*
X016688Y011608D03*
X016738Y011478D03*
X016570Y011408D03*
X016518Y011538D03*
X016518Y011541D03*
X016305Y011383D03*
X015960Y011473D03*
X015750Y011476D03*
X015495Y011696D03*
X015298Y011476D03*
X016720Y012306D03*
X016720Y012308D03*
X016718Y012311D03*
X016715Y012316D03*
X016723Y012303D03*
X016678Y012453D03*
X016708Y012588D03*
X016880Y012558D03*
X017050Y012568D03*
X017050Y012571D03*
X017050Y012573D03*
X017050Y012576D03*
X017215Y012553D03*
X017210Y012383D03*
X017210Y012381D03*
X017210Y012378D03*
X017210Y012376D03*
X017213Y012343D03*
X017213Y012341D03*
X017213Y012338D03*
X016885Y012326D03*
X017958Y012538D03*
X017958Y012541D03*
X018080Y012608D03*
X018358Y012576D03*
X018358Y012573D03*
X018523Y012551D03*
X018690Y012563D03*
X018690Y012566D03*
X018855Y012576D03*
X018855Y012578D03*
X018855Y012328D03*
X018855Y012326D03*
X018670Y012278D03*
X018523Y012323D03*
X018355Y012321D03*
X018355Y012318D03*
X019205Y012331D03*
X019205Y012563D03*
X019205Y012566D03*
X019518Y012558D03*
X019583Y011696D03*
X019780Y011608D03*
X019803Y011698D03*
X019828Y011478D03*
X019270Y011473D03*
X018823Y011696D03*
X018120Y011473D03*
X017343Y011696D03*
D41*
X017384Y011668D03*
X017567Y011663D03*
X017569Y011661D03*
X017577Y011513D03*
X017844Y011511D03*
X017912Y011471D03*
X017947Y011508D03*
X018072Y011666D03*
X018164Y011666D03*
X018277Y011556D03*
X018277Y011506D03*
X018169Y011506D03*
X018347Y011621D03*
X018349Y011623D03*
X018349Y011666D03*
X018677Y011658D03*
X018864Y011668D03*
X018987Y011658D03*
X018989Y011661D03*
X019032Y011701D03*
X019099Y011658D03*
X019099Y011506D03*
X019314Y011503D03*
X019549Y011663D03*
X019582Y011701D03*
X019652Y011658D03*
X019769Y011508D03*
X019847Y011663D03*
X019369Y012321D03*
X019369Y012323D03*
X019194Y012293D03*
X019194Y012291D03*
X019199Y012593D03*
X019192Y012608D03*
X019359Y012571D03*
X019024Y012563D03*
X018844Y012518D03*
X018844Y012516D03*
X018844Y012513D03*
X018844Y012511D03*
X018844Y012508D03*
X018844Y012506D03*
X018844Y012503D03*
X018844Y012418D03*
X018844Y012416D03*
X018844Y012413D03*
X018844Y012411D03*
X018844Y012408D03*
X018844Y012406D03*
X018844Y012403D03*
X018844Y012401D03*
X018702Y012376D03*
X018702Y012373D03*
X018702Y012371D03*
X018702Y012368D03*
X018702Y012366D03*
X018702Y012493D03*
X018702Y012496D03*
X018702Y012498D03*
X018702Y012501D03*
X018702Y012503D03*
X018702Y012506D03*
X018344Y012501D03*
X018344Y012498D03*
X018344Y012496D03*
X018344Y012493D03*
X018344Y012491D03*
X018344Y012488D03*
X018344Y012486D03*
X018344Y012403D03*
X018344Y012401D03*
X018344Y012398D03*
X018344Y012396D03*
X018344Y012393D03*
X018344Y012391D03*
X018344Y012388D03*
X018344Y012386D03*
X018107Y012561D03*
X018104Y012563D03*
X018104Y012566D03*
X018102Y012568D03*
X018099Y012573D03*
X018097Y012578D03*
X017337Y012268D03*
X017037Y012281D03*
X017037Y012283D03*
X016897Y012308D03*
X016689Y012476D03*
X016689Y012478D03*
X016707Y012563D03*
X016707Y012566D03*
X017017Y011701D03*
X016977Y011661D03*
X016987Y011506D03*
X017084Y011506D03*
X016859Y011498D03*
X016859Y011496D03*
X016859Y011491D03*
X016579Y011386D03*
X016519Y011503D03*
X016364Y011576D03*
X016254Y011471D03*
X016289Y011388D03*
X016004Y011503D03*
X016004Y011666D03*
X015564Y011658D03*
X015494Y011701D03*
X015462Y011663D03*
X015234Y011508D03*
D42*
X015334Y011506D03*
X015322Y011668D03*
X015559Y011663D03*
X015779Y011506D03*
X015917Y011668D03*
X015999Y011501D03*
X016107Y011691D03*
X016324Y011698D03*
X016519Y011518D03*
X016754Y011576D03*
X016712Y011701D03*
X016984Y011666D03*
X017562Y011666D03*
X017674Y011691D03*
X018122Y011471D03*
X018284Y011503D03*
X018334Y011608D03*
X018337Y011611D03*
X018344Y011668D03*
X018307Y011701D03*
X018672Y011663D03*
X019094Y011663D03*
X019227Y011668D03*
X019647Y011663D03*
X019802Y011701D03*
X019844Y011576D03*
X019539Y012251D03*
X019369Y012311D03*
X019369Y012313D03*
X019199Y012311D03*
X019199Y012308D03*
X019202Y012581D03*
X019359Y012581D03*
X019359Y012578D03*
X018849Y012553D03*
X018849Y012551D03*
X018849Y012548D03*
X018697Y012538D03*
X018697Y012536D03*
X018697Y012333D03*
X018697Y012331D03*
X018697Y012328D03*
X018674Y012291D03*
X018674Y012288D03*
X018524Y012316D03*
X018349Y012346D03*
X018349Y012348D03*
X018349Y012351D03*
X018349Y012538D03*
X018349Y012541D03*
X018349Y012543D03*
X018089Y012593D03*
X017957Y012553D03*
X017957Y012551D03*
X017204Y012403D03*
X017044Y012301D03*
X017034Y012263D03*
X016892Y012313D03*
X016684Y012463D03*
X016707Y012576D03*
X018849Y012363D03*
X018849Y012361D03*
X018849Y012358D03*
X018849Y012356D03*
X016297Y011386D03*
D43*
X016519Y011511D03*
X016579Y011388D03*
X016979Y011663D03*
X017082Y011503D03*
X017389Y011508D03*
X017572Y011508D03*
X017672Y011693D03*
X017847Y011508D03*
X018117Y011701D03*
X018159Y011668D03*
X018342Y011616D03*
X018344Y011618D03*
X018869Y011508D03*
X019004Y011503D03*
X019042Y011471D03*
X019097Y011503D03*
X019229Y011501D03*
X019097Y011661D03*
X018992Y011663D03*
X019649Y011661D03*
X019772Y011611D03*
X019369Y012316D03*
X019369Y012318D03*
X019197Y012301D03*
X019202Y012586D03*
X019187Y012613D03*
X019359Y012576D03*
X019359Y012573D03*
X018847Y012538D03*
X018847Y012536D03*
X018847Y012533D03*
X018847Y012531D03*
X018847Y012383D03*
X018847Y012381D03*
X018847Y012378D03*
X018847Y012376D03*
X018847Y012373D03*
X018699Y012351D03*
X018699Y012348D03*
X018699Y012346D03*
X018699Y012343D03*
X018677Y012296D03*
X018524Y012313D03*
X018347Y012363D03*
X018347Y012366D03*
X018347Y012368D03*
X018347Y012371D03*
X018347Y012518D03*
X018347Y012521D03*
X018347Y012523D03*
X018347Y012526D03*
X018094Y012583D03*
X018092Y012588D03*
X018699Y012526D03*
X018699Y012523D03*
X018699Y012521D03*
X018699Y012518D03*
X017337Y012266D03*
X017214Y012318D03*
X017202Y012408D03*
X017037Y012273D03*
X017037Y012271D03*
X017037Y012268D03*
X016894Y012311D03*
X016687Y012471D03*
X016707Y012568D03*
X016707Y012571D03*
X016547Y012566D03*
X016589Y012311D03*
X016157Y011658D03*
X015562Y011661D03*
X015337Y011508D03*
D44*
X015238Y011506D03*
X015238Y011668D03*
X015685Y011508D03*
X015955Y011701D03*
X015998Y011668D03*
X016373Y011516D03*
X016518Y011516D03*
X016518Y011513D03*
X016578Y011391D03*
X016680Y011506D03*
X016738Y011473D03*
X017080Y011663D03*
X018075Y011668D03*
X018080Y011501D03*
X018280Y011561D03*
X018283Y011563D03*
X018285Y011566D03*
X018340Y011613D03*
X019265Y011701D03*
X019308Y011668D03*
X019770Y011506D03*
X019828Y011473D03*
X019198Y012303D03*
X019198Y012306D03*
X019200Y012583D03*
X019183Y012616D03*
X019025Y012561D03*
X018848Y012546D03*
X018848Y012543D03*
X018848Y012541D03*
X018698Y012533D03*
X018698Y012531D03*
X018698Y012528D03*
X018523Y012561D03*
X018348Y012536D03*
X018348Y012533D03*
X018348Y012531D03*
X018348Y012528D03*
X018348Y012361D03*
X018348Y012358D03*
X018348Y012356D03*
X018348Y012353D03*
X018675Y012293D03*
X018698Y012336D03*
X018698Y012338D03*
X018698Y012341D03*
X018848Y012366D03*
X018848Y012368D03*
X018848Y012371D03*
X018093Y012586D03*
X018090Y012591D03*
X017955Y012556D03*
X017208Y012558D03*
X017203Y012406D03*
X017213Y012321D03*
X017168Y012246D03*
X017035Y012266D03*
X017335Y012263D03*
X016685Y012466D03*
X016685Y012468D03*
X016708Y012573D03*
X016878Y012563D03*
D45*
X016878Y012566D03*
X016898Y012636D03*
X016705Y012561D03*
X016705Y012558D03*
X016690Y012481D03*
X017038Y012298D03*
X017038Y012296D03*
X017038Y012293D03*
X017038Y012291D03*
X017038Y012288D03*
X017038Y012286D03*
X017215Y012316D03*
X017198Y012413D03*
X017205Y012561D03*
X017955Y012561D03*
X018343Y012483D03*
X018343Y012481D03*
X018343Y012478D03*
X018343Y012476D03*
X018343Y012473D03*
X018343Y012471D03*
X018343Y012468D03*
X018343Y012466D03*
X018343Y012463D03*
X018343Y012461D03*
X018343Y012458D03*
X018343Y012456D03*
X018343Y012453D03*
X018343Y012451D03*
X018343Y012448D03*
X018343Y012446D03*
X018343Y012443D03*
X018343Y012441D03*
X018343Y012438D03*
X018343Y012436D03*
X018343Y012433D03*
X018343Y012431D03*
X018343Y012428D03*
X018343Y012426D03*
X018343Y012423D03*
X018343Y012421D03*
X018343Y012418D03*
X018343Y012416D03*
X018343Y012413D03*
X018343Y012411D03*
X018343Y012408D03*
X018343Y012406D03*
X018523Y012311D03*
X018703Y012378D03*
X018703Y012381D03*
X018703Y012383D03*
X018703Y012386D03*
X018703Y012388D03*
X018703Y012391D03*
X018703Y012393D03*
X018703Y012396D03*
X018703Y012398D03*
X018703Y012473D03*
X018703Y012476D03*
X018703Y012478D03*
X018703Y012481D03*
X018703Y012483D03*
X018703Y012486D03*
X018703Y012488D03*
X018703Y012491D03*
X018843Y012491D03*
X018843Y012493D03*
X018843Y012496D03*
X018843Y012498D03*
X018843Y012501D03*
X018843Y012488D03*
X018843Y012486D03*
X018843Y012483D03*
X018843Y012481D03*
X018843Y012478D03*
X018843Y012476D03*
X018843Y012473D03*
X018843Y012471D03*
X018843Y012468D03*
X018843Y012466D03*
X018843Y012463D03*
X018843Y012461D03*
X018843Y012458D03*
X018843Y012456D03*
X018843Y012453D03*
X018843Y012451D03*
X018843Y012448D03*
X018843Y012446D03*
X018843Y012443D03*
X018843Y012441D03*
X018843Y012438D03*
X018843Y012436D03*
X018843Y012433D03*
X018843Y012431D03*
X018843Y012428D03*
X018843Y012426D03*
X018843Y012423D03*
X018843Y012421D03*
X019035Y012311D03*
X019193Y012288D03*
X019193Y012286D03*
X019360Y012568D03*
X018523Y012566D03*
X018605Y011701D03*
X018570Y011661D03*
X018785Y011668D03*
X018875Y011513D03*
X018998Y011508D03*
X019000Y011506D03*
X018985Y011656D03*
X019215Y011661D03*
X019218Y011663D03*
X019313Y011666D03*
X019315Y011663D03*
X019320Y011508D03*
X019318Y011506D03*
X019270Y011468D03*
X019223Y011503D03*
X019545Y011661D03*
X019828Y011471D03*
X019860Y011506D03*
X018350Y011626D03*
X018273Y011553D03*
X018325Y011468D03*
X018120Y011468D03*
X018168Y011663D03*
X018068Y011663D03*
X017670Y011696D03*
X017580Y011518D03*
X017578Y011516D03*
X017395Y011513D03*
X017305Y011668D03*
X017085Y011658D03*
X016973Y011658D03*
X016983Y011508D03*
X016860Y011493D03*
X016860Y011488D03*
X016770Y011506D03*
X016738Y011471D03*
X016763Y011571D03*
X016758Y011663D03*
X016518Y011501D03*
X016518Y011498D03*
X016558Y011411D03*
X016378Y011518D03*
X016368Y011578D03*
X016323Y011701D03*
X016103Y011696D03*
X016005Y011663D03*
X015908Y011663D03*
X015905Y011661D03*
X015913Y011503D03*
X015960Y011468D03*
X016008Y011506D03*
X016010Y011508D03*
X015788Y011511D03*
X015785Y011508D03*
X015345Y011516D03*
X015345Y011518D03*
X015343Y011513D03*
X015333Y011661D03*
X015330Y011663D03*
X016285Y011391D03*
D46*
X016282Y011393D03*
X016252Y011468D03*
X016369Y011581D03*
X016372Y011583D03*
X016519Y011496D03*
X016677Y011511D03*
X016767Y011568D03*
X016859Y011486D03*
X016859Y011483D03*
X016979Y011513D03*
X016982Y011511D03*
X017087Y011508D03*
X017087Y011656D03*
X016972Y011656D03*
X016969Y011653D03*
X016677Y011663D03*
X016159Y011656D03*
X016009Y011661D03*
X015902Y011656D03*
X016014Y011513D03*
X016012Y011511D03*
X015789Y011513D03*
X015682Y011513D03*
X015567Y011656D03*
X015459Y011661D03*
X015457Y011658D03*
X015337Y011658D03*
X015232Y011666D03*
X015232Y011511D03*
X015347Y011521D03*
X015349Y011523D03*
X015349Y011526D03*
X015352Y011531D03*
X017387Y011666D03*
X017399Y011518D03*
X017397Y011516D03*
X017582Y011521D03*
X017584Y011523D03*
X017584Y011526D03*
X017577Y011653D03*
X017574Y011656D03*
X017572Y011658D03*
X017727Y011656D03*
X017842Y011513D03*
X017949Y011511D03*
X018074Y011503D03*
X018172Y011508D03*
X018174Y011511D03*
X018174Y011513D03*
X018272Y011511D03*
X018274Y011508D03*
X018269Y011546D03*
X018272Y011551D03*
X018352Y011628D03*
X018354Y011631D03*
X018354Y011661D03*
X018352Y011663D03*
X018172Y011658D03*
X018169Y011661D03*
X018067Y011661D03*
X018064Y011658D03*
X018567Y011656D03*
X018677Y011656D03*
X018867Y011666D03*
X018982Y011651D03*
X018984Y011653D03*
X019102Y011656D03*
X019212Y011656D03*
X019319Y011661D03*
X019324Y011513D03*
X019322Y011511D03*
X019219Y011506D03*
X019102Y011508D03*
X018994Y011511D03*
X018879Y011518D03*
X018877Y011516D03*
X019544Y011658D03*
X019654Y011656D03*
X019767Y011511D03*
X019864Y011508D03*
X019857Y011568D03*
X019854Y011571D03*
X019192Y012253D03*
X019192Y012283D03*
X019369Y012326D03*
X019369Y012328D03*
X019359Y012566D03*
X019199Y012596D03*
X019199Y012598D03*
X019197Y012601D03*
X019197Y012603D03*
X019194Y012606D03*
X018704Y012471D03*
X018704Y012468D03*
X018704Y012466D03*
X018704Y012463D03*
X018704Y012461D03*
X018704Y012458D03*
X018704Y012456D03*
X018704Y012453D03*
X018704Y012451D03*
X018704Y012448D03*
X018704Y012446D03*
X018704Y012443D03*
X018704Y012441D03*
X018704Y012438D03*
X018704Y012436D03*
X018704Y012433D03*
X018704Y012431D03*
X018704Y012428D03*
X018704Y012426D03*
X018704Y012423D03*
X018704Y012421D03*
X018704Y012418D03*
X018704Y012416D03*
X018704Y012413D03*
X018704Y012411D03*
X018704Y012408D03*
X018704Y012406D03*
X018704Y012403D03*
X018704Y012401D03*
X017954Y012563D03*
X017337Y012271D03*
X016692Y012483D03*
X016692Y012486D03*
X016694Y012491D03*
X016707Y012556D03*
X016547Y012568D03*
D47*
X016707Y012581D03*
X016682Y012458D03*
X016879Y012561D03*
X016889Y012318D03*
X017047Y012308D03*
X017047Y012306D03*
X017212Y012326D03*
X017207Y012396D03*
X017207Y012398D03*
X017212Y012556D03*
X017957Y012548D03*
X018087Y012598D03*
X018352Y012556D03*
X018352Y012553D03*
X018352Y012551D03*
X018352Y012336D03*
X018352Y012333D03*
X018684Y012301D03*
X018687Y012303D03*
X018692Y012311D03*
X018692Y012313D03*
X018694Y012316D03*
X018694Y012318D03*
X018694Y012321D03*
X018852Y012343D03*
X018852Y012346D03*
X018852Y012348D03*
X018852Y012561D03*
X018852Y012563D03*
X018694Y012551D03*
X018694Y012548D03*
X019179Y012618D03*
X019204Y012573D03*
X019359Y012583D03*
X019369Y012308D03*
X019202Y012318D03*
X019202Y012251D03*
X018822Y011698D03*
X018864Y011506D03*
X018329Y011603D03*
X018327Y011601D03*
X018317Y011593D03*
X018304Y011583D03*
X018302Y011581D03*
X018299Y011578D03*
X018297Y011576D03*
X017912Y011473D03*
X017677Y011688D03*
X017342Y011698D03*
X017384Y011506D03*
X016577Y011396D03*
X016519Y011526D03*
X016519Y011528D03*
X016109Y011688D03*
X015297Y011473D03*
X019829Y011476D03*
D48*
X019865Y011511D03*
X019860Y011566D03*
X019768Y011663D03*
X019800Y011703D03*
X019655Y011653D03*
X019543Y011656D03*
X019325Y011651D03*
X019323Y011653D03*
X019323Y011656D03*
X019320Y011658D03*
X019213Y011658D03*
X019210Y011653D03*
X019208Y011651D03*
X019103Y011653D03*
X018980Y011648D03*
X018980Y011646D03*
X018978Y011643D03*
X018978Y011641D03*
X018975Y011633D03*
X018975Y011631D03*
X018973Y011606D03*
X018985Y011526D03*
X018988Y011521D03*
X018990Y011518D03*
X018990Y011516D03*
X018993Y011513D03*
X019043Y011468D03*
X019103Y011511D03*
X019215Y011511D03*
X019218Y011508D03*
X019325Y011516D03*
X019325Y011518D03*
X019328Y011521D03*
X019328Y011523D03*
X019330Y011528D03*
X019333Y011538D03*
X019335Y011551D03*
X019753Y011478D03*
X018880Y011521D03*
X018775Y011606D03*
X018783Y011666D03*
X018870Y011663D03*
X018873Y011661D03*
X018678Y011653D03*
X018568Y011658D03*
X018565Y011653D03*
X018355Y011658D03*
X018355Y011633D03*
X018270Y011548D03*
X018268Y011543D03*
X018268Y011541D03*
X018270Y011513D03*
X018183Y011533D03*
X018180Y011526D03*
X018180Y011523D03*
X018178Y011521D03*
X018178Y011518D03*
X018175Y011516D03*
X018070Y011506D03*
X018068Y011508D03*
X017953Y011516D03*
X017953Y011518D03*
X017950Y011513D03*
X017840Y011516D03*
X017728Y011653D03*
X017580Y011648D03*
X017578Y011651D03*
X017588Y011536D03*
X017588Y011533D03*
X017585Y011531D03*
X017585Y011528D03*
X017400Y011521D03*
X017393Y011661D03*
X017390Y011663D03*
X017303Y011666D03*
X016968Y011651D03*
X016968Y011648D03*
X016965Y011646D03*
X016965Y011643D03*
X016963Y011638D03*
X016963Y011636D03*
X016960Y011626D03*
X016960Y011623D03*
X016968Y011536D03*
X016970Y011528D03*
X016973Y011523D03*
X016975Y011521D03*
X016975Y011518D03*
X016978Y011516D03*
X017028Y011468D03*
X016863Y011501D03*
X016858Y011481D03*
X016858Y011478D03*
X016775Y011511D03*
X016773Y011508D03*
X016663Y011478D03*
X016518Y011491D03*
X016518Y011493D03*
X016375Y011588D03*
X016375Y011591D03*
X016373Y011586D03*
X016280Y011576D03*
X016250Y011466D03*
X016278Y011396D03*
X016163Y011653D03*
X016015Y011651D03*
X016013Y011653D03*
X016013Y011656D03*
X016010Y011658D03*
X015903Y011658D03*
X015900Y011653D03*
X015898Y011648D03*
X015905Y011511D03*
X015908Y011508D03*
X015910Y011506D03*
X016015Y011516D03*
X016015Y011518D03*
X016018Y011521D03*
X016018Y011523D03*
X016020Y011528D03*
X015790Y011516D03*
X015678Y011516D03*
X015568Y011653D03*
X015455Y011656D03*
X015345Y011643D03*
X015343Y011648D03*
X015340Y011651D03*
X015340Y011653D03*
X015338Y011656D03*
X015358Y011581D03*
X015358Y011573D03*
X015358Y011568D03*
X015355Y011548D03*
X015355Y011546D03*
X015355Y011543D03*
X015353Y011538D03*
X015353Y011536D03*
X015353Y011533D03*
X015350Y011528D03*
X015230Y011513D03*
X017195Y012416D03*
X017338Y012273D03*
X016695Y012493D03*
X016695Y012496D03*
X016693Y012488D03*
X016705Y012548D03*
X016705Y012551D03*
X016705Y012553D03*
X018523Y012308D03*
X019190Y012281D03*
X019190Y012278D03*
X019360Y012563D03*
X018175Y011653D03*
X018173Y011656D03*
X018178Y011648D03*
X018063Y011656D03*
X018060Y011653D03*
X018060Y011651D03*
X018058Y011646D03*
D49*
X017853Y011506D03*
X017518Y011698D03*
X017078Y011666D03*
X016738Y011476D03*
X016575Y011398D03*
X016573Y011403D03*
X016518Y011531D03*
X016265Y011666D03*
X015690Y011506D03*
X017033Y012261D03*
X017048Y012311D03*
X017048Y012313D03*
X017048Y012316D03*
X017048Y012318D03*
X017048Y012321D03*
X017048Y012331D03*
X017048Y012333D03*
X017048Y012336D03*
X017048Y012338D03*
X017048Y012341D03*
X017048Y012343D03*
X017048Y012346D03*
X017048Y012348D03*
X017048Y012351D03*
X017048Y012353D03*
X017048Y012356D03*
X017048Y012358D03*
X017048Y012361D03*
X017048Y012363D03*
X017048Y012366D03*
X017048Y012368D03*
X017048Y012371D03*
X017048Y012373D03*
X017048Y012376D03*
X017048Y012378D03*
X017048Y012381D03*
X017048Y012383D03*
X017048Y012386D03*
X017048Y012388D03*
X017048Y012391D03*
X017048Y012393D03*
X017048Y012396D03*
X017048Y012398D03*
X017048Y012401D03*
X017048Y012403D03*
X017048Y012406D03*
X017048Y012408D03*
X017048Y012411D03*
X017048Y012413D03*
X017048Y012416D03*
X017048Y012418D03*
X017048Y012421D03*
X017048Y012423D03*
X017048Y012426D03*
X017048Y012428D03*
X017048Y012431D03*
X017048Y012433D03*
X017048Y012436D03*
X017048Y012438D03*
X017048Y012441D03*
X017048Y012443D03*
X017048Y012446D03*
X017048Y012448D03*
X017048Y012451D03*
X017048Y012453D03*
X017048Y012456D03*
X017048Y012458D03*
X017048Y012461D03*
X017048Y012463D03*
X017048Y012466D03*
X017048Y012468D03*
X017048Y012471D03*
X017048Y012473D03*
X017048Y012476D03*
X017048Y012478D03*
X017048Y012481D03*
X017048Y012483D03*
X017048Y012486D03*
X017048Y012488D03*
X017048Y012491D03*
X017048Y012493D03*
X017048Y012496D03*
X017048Y012498D03*
X017048Y012501D03*
X017048Y012503D03*
X017048Y012506D03*
X017048Y012508D03*
X017048Y012511D03*
X017048Y012513D03*
X017048Y012516D03*
X017048Y012518D03*
X017048Y012521D03*
X017048Y012523D03*
X017048Y012526D03*
X017048Y012528D03*
X017048Y012531D03*
X017048Y012533D03*
X017048Y012536D03*
X017048Y012538D03*
X017048Y012541D03*
X017048Y012543D03*
X017048Y012546D03*
X017048Y012548D03*
X017048Y012551D03*
X017208Y012393D03*
X017208Y012391D03*
X016888Y012321D03*
X016590Y012313D03*
X016708Y012583D03*
X017958Y012546D03*
X017958Y012543D03*
X017975Y012471D03*
X018085Y012601D03*
X018083Y012603D03*
X018353Y012561D03*
X018353Y012558D03*
X018523Y012556D03*
X018693Y012556D03*
X018693Y012553D03*
X018853Y012566D03*
X018853Y012568D03*
X018853Y012571D03*
X018853Y012341D03*
X018853Y012338D03*
X018690Y012308D03*
X018688Y012306D03*
X018673Y012283D03*
X018523Y012321D03*
X018353Y012328D03*
X018353Y012331D03*
X019035Y012318D03*
X019203Y012321D03*
X019203Y012323D03*
X019370Y012306D03*
X019358Y012586D03*
X019175Y012621D03*
X019265Y011698D03*
X018323Y011598D03*
X018320Y011596D03*
X018313Y011591D03*
X018310Y011588D03*
X018308Y011586D03*
X018325Y011471D03*
D50*
X018307Y011698D03*
X018117Y011698D03*
X017524Y011471D03*
X017342Y011471D03*
X016574Y011401D03*
X016572Y011406D03*
X016519Y011533D03*
X016519Y011536D03*
X016264Y011473D03*
X015957Y011698D03*
X017334Y012258D03*
X017212Y012328D03*
X017212Y012331D03*
X017212Y012333D03*
X017212Y012336D03*
X017209Y012386D03*
X017209Y012388D03*
X017049Y012328D03*
X017049Y012326D03*
X017049Y012323D03*
X016887Y012323D03*
X016717Y012313D03*
X016714Y012318D03*
X016712Y012321D03*
X016679Y012456D03*
X016707Y012586D03*
X016542Y012563D03*
X017049Y012563D03*
X017049Y012561D03*
X017049Y012558D03*
X017049Y012556D03*
X017049Y012553D03*
X017049Y012566D03*
X018082Y012606D03*
X018354Y012566D03*
X018354Y012563D03*
X018357Y012568D03*
X018357Y012571D03*
X018522Y012553D03*
X018692Y012558D03*
X018692Y012561D03*
X018854Y012573D03*
X019027Y012556D03*
X019204Y012568D03*
X019204Y012571D03*
X019359Y012588D03*
X019519Y012561D03*
X019369Y012303D03*
X019204Y012326D03*
X019204Y012328D03*
X019037Y012321D03*
X018854Y012331D03*
X018854Y012333D03*
X018854Y012336D03*
X018672Y012281D03*
X018354Y012323D03*
X018354Y012326D03*
X019089Y011666D03*
X018822Y011471D03*
D51*
X018764Y011513D03*
X019109Y011696D03*
X019799Y011706D03*
X019369Y012368D03*
X019369Y012371D03*
X019359Y012523D03*
X019359Y012526D03*
X019097Y012611D03*
X017954Y011706D03*
X017834Y011476D03*
X017519Y011706D03*
X017372Y011568D03*
X017284Y011513D03*
X017094Y011696D03*
X016709Y011706D03*
X016599Y011411D03*
X015672Y011476D03*
X017197Y012568D03*
X018262Y011661D03*
D52*
X017957Y011698D03*
X017832Y011483D03*
X016857Y011471D03*
X016864Y011808D03*
X016457Y011698D03*
X015959Y011466D03*
X015794Y011698D03*
X015224Y011808D03*
X015219Y011471D03*
X016354Y011436D03*
X017342Y012288D03*
X017199Y012566D03*
X019112Y011688D03*
X019269Y011466D03*
X018822Y011466D03*
X019537Y012258D03*
X019534Y012261D03*
X019522Y012291D03*
X019522Y012293D03*
X019519Y012298D03*
X019369Y012346D03*
X019359Y012548D03*
D53*
X019360Y012546D03*
X019095Y012618D03*
X019523Y012288D03*
X019523Y012286D03*
X019525Y012283D03*
X019530Y012268D03*
X019533Y012263D03*
X019663Y011688D03*
X019753Y011471D03*
X019043Y011466D03*
X018690Y011471D03*
X018688Y011688D03*
X018365Y011506D03*
X018323Y011466D03*
X017740Y011471D03*
X017738Y011688D03*
X017343Y011466D03*
X017028Y011466D03*
X017098Y011688D03*
X016663Y011471D03*
X016353Y011438D03*
X015670Y011483D03*
X016170Y011688D03*
X017185Y012423D03*
X017343Y012293D03*
X017343Y012291D03*
X016910Y012631D03*
X018245Y012618D03*
X018523Y012303D03*
D54*
X018523Y012573D03*
X019360Y012541D03*
X019110Y011691D03*
X018770Y011508D03*
X019543Y011471D03*
X017955Y011701D03*
X017833Y011481D03*
X017290Y011508D03*
X016860Y011811D03*
X016580Y011701D03*
X016325Y011541D03*
X016350Y011443D03*
X015670Y011481D03*
X015575Y011691D03*
X015793Y011701D03*
X015220Y011468D03*
X017345Y012301D03*
X017345Y012303D03*
X017345Y012306D03*
X017348Y012311D03*
X017348Y012313D03*
X016550Y012573D03*
D55*
X016920Y012623D03*
X018523Y012301D03*
X019270Y011706D03*
X019865Y011651D03*
X016773Y011651D03*
X016348Y011451D03*
X015793Y011706D03*
X015283Y011706D03*
D56*
X016324Y011706D03*
X016704Y011611D03*
X016347Y011453D03*
X017339Y011706D03*
X018119Y011706D03*
X018309Y011706D03*
X018819Y011706D03*
X019369Y012373D03*
X019369Y012376D03*
X019359Y012518D03*
X019359Y012521D03*
D57*
X019359Y012516D03*
X019359Y012513D03*
X019369Y012381D03*
X019369Y012378D03*
X019587Y011706D03*
X019822Y011466D03*
X019837Y011466D03*
X018859Y011568D03*
X018759Y011518D03*
X018609Y011706D03*
X017837Y011701D03*
X017734Y011696D03*
X017469Y011513D03*
X017279Y011518D03*
X016714Y011611D03*
X016667Y011466D03*
X016347Y011456D03*
X016087Y011658D03*
X016444Y011701D03*
X015737Y011506D03*
X015497Y011706D03*
D58*
X016853Y011813D03*
X017280Y011516D03*
X017473Y011658D03*
X017163Y012263D03*
X016925Y012618D03*
X018248Y012608D03*
X019098Y012608D03*
X019078Y012251D03*
X018848Y011568D03*
X018760Y011516D03*
X019755Y011466D03*
D59*
X019075Y012248D03*
X018248Y012611D03*
X017220Y012306D03*
X017163Y012261D03*
X016923Y012621D03*
X016168Y011696D03*
X016858Y011466D03*
X017470Y011511D03*
X018373Y011513D03*
D60*
X017822Y011701D03*
X017474Y011508D03*
X016737Y011466D03*
X016459Y011701D03*
X015959Y011706D03*
X015222Y011466D03*
X017164Y012258D03*
X017177Y012426D03*
X018247Y012613D03*
X019097Y012613D03*
X019359Y012528D03*
X019369Y012366D03*
X019369Y012363D03*
X019072Y012246D03*
X019662Y011693D03*
D61*
X019662Y011691D03*
X019754Y011468D03*
X018687Y011691D03*
X018567Y011471D03*
X018369Y011508D03*
X017737Y011691D03*
X017479Y011663D03*
X016857Y011468D03*
X016169Y011691D03*
X015457Y011471D03*
X015222Y011811D03*
X016914Y012628D03*
X017349Y012316D03*
X017347Y012308D03*
X019067Y012243D03*
X019369Y012353D03*
X019369Y012356D03*
X019359Y012538D03*
D62*
X019200Y012588D03*
X019200Y012591D03*
X019188Y012611D03*
X019195Y012298D03*
X019195Y012296D03*
X019035Y012313D03*
X018845Y012386D03*
X018845Y012388D03*
X018845Y012391D03*
X018845Y012393D03*
X018845Y012396D03*
X018845Y012398D03*
X018845Y012521D03*
X018845Y012523D03*
X018845Y012526D03*
X018845Y012528D03*
X018700Y012516D03*
X018700Y012513D03*
X018700Y012511D03*
X018700Y012508D03*
X018700Y012363D03*
X018700Y012361D03*
X018700Y012358D03*
X018700Y012356D03*
X018700Y012353D03*
X018678Y012298D03*
X018523Y012563D03*
X018345Y012516D03*
X018345Y012513D03*
X018345Y012511D03*
X018345Y012508D03*
X018345Y012506D03*
X018345Y012503D03*
X018345Y012383D03*
X018345Y012381D03*
X018345Y012378D03*
X018345Y012376D03*
X018345Y012373D03*
X018100Y012571D03*
X018098Y012576D03*
X018095Y012581D03*
X017955Y012558D03*
X017200Y012411D03*
X017038Y012278D03*
X017038Y012276D03*
X016688Y012473D03*
X016105Y011693D03*
X015910Y011666D03*
X015918Y011501D03*
X015750Y011471D03*
X015683Y011511D03*
X015340Y011511D03*
X015298Y011471D03*
X015328Y011666D03*
X016518Y011508D03*
X016518Y011506D03*
X016678Y011508D03*
X016760Y011573D03*
X016990Y011503D03*
X017083Y011661D03*
X017340Y011701D03*
X017518Y011701D03*
X017575Y011511D03*
X017523Y011468D03*
X017393Y011511D03*
X017343Y011468D03*
X017723Y011658D03*
X018165Y011503D03*
X018278Y011558D03*
X018573Y011663D03*
X018673Y011661D03*
X018820Y011701D03*
X018873Y011511D03*
X018823Y011468D03*
X019220Y011666D03*
X019850Y011573D03*
D63*
X019030Y011706D03*
X018265Y011663D03*
X017478Y011506D03*
X017018Y011706D03*
X016663Y011468D03*
X016235Y011698D03*
X015793Y011703D03*
X018185Y012561D03*
X018245Y012616D03*
X019035Y012303D03*
X019095Y012616D03*
X019360Y012536D03*
D64*
X019224Y012506D03*
X019224Y012503D03*
X019224Y012396D03*
X019224Y012393D03*
X019369Y012271D03*
X019369Y012268D03*
X018872Y012278D03*
X018874Y012618D03*
X018524Y012381D03*
X018524Y012378D03*
X018524Y012376D03*
X018374Y012271D03*
X018369Y012608D03*
X019509Y012511D03*
X018824Y011681D03*
X018822Y011483D03*
X018324Y011483D03*
X018309Y011683D03*
X018117Y011686D03*
X018122Y011486D03*
X017699Y011681D03*
X017699Y011683D03*
X017522Y011683D03*
X017344Y011681D03*
X017342Y011483D03*
X017529Y011486D03*
X017054Y011471D03*
X016707Y011596D03*
X016134Y011681D03*
X016134Y011683D03*
X016132Y011686D03*
X015957Y011686D03*
X016662Y012423D03*
X019799Y011593D03*
D65*
X018325Y011473D03*
X016518Y011546D03*
X016518Y011548D03*
X016343Y011543D03*
X016268Y011671D03*
X016593Y012316D03*
X016725Y012298D03*
X016728Y012293D03*
X016883Y012331D03*
X016675Y012448D03*
X016708Y012591D03*
X017053Y012591D03*
X017053Y012588D03*
X017958Y012531D03*
X017930Y012316D03*
X018358Y012311D03*
X018358Y012308D03*
X018523Y012328D03*
X018668Y012273D03*
X018858Y012318D03*
X019035Y012326D03*
X019208Y012338D03*
X019208Y012341D03*
X019208Y012556D03*
X019208Y012558D03*
X019358Y012596D03*
X019515Y012551D03*
X019515Y012548D03*
X018858Y012586D03*
X018688Y012573D03*
X018523Y012548D03*
X018363Y012586D03*
D66*
X018523Y012498D03*
X018523Y012496D03*
X018523Y012493D03*
X018523Y012491D03*
X018523Y012488D03*
X018523Y012486D03*
X018523Y012391D03*
X018523Y012388D03*
X018523Y012386D03*
X018523Y012383D03*
X018658Y012256D03*
X018873Y012276D03*
X019225Y012398D03*
X019225Y012401D03*
X019225Y012498D03*
X019225Y012501D03*
X019358Y012621D03*
X019508Y012508D03*
X018670Y012611D03*
X018375Y012268D03*
X018310Y011681D03*
X018853Y011571D03*
X019270Y011486D03*
X019810Y011686D03*
X017523Y011681D03*
X017373Y011571D03*
X017053Y011473D03*
X016708Y011593D03*
X016720Y011686D03*
X016325Y011563D03*
X015960Y011486D03*
X015265Y011696D03*
X016660Y012421D03*
X016738Y012268D03*
X016708Y012611D03*
X017070Y012628D03*
D67*
X017055Y012601D03*
X017055Y012598D03*
X016880Y012341D03*
X016880Y012338D03*
X016730Y012288D03*
X016593Y012318D03*
X016675Y012446D03*
X016708Y012593D03*
X016708Y012596D03*
X016538Y012561D03*
X017960Y012521D03*
X017960Y012518D03*
X017960Y012516D03*
X018078Y012613D03*
X018368Y012596D03*
X018370Y012598D03*
X018523Y012543D03*
X018685Y012581D03*
X018860Y012591D03*
X018860Y012593D03*
X018860Y012311D03*
X018860Y012308D03*
X019033Y012331D03*
X019033Y012333D03*
X019210Y012348D03*
X019210Y012548D03*
X019210Y012551D03*
X018523Y012333D03*
X018360Y012303D03*
X018360Y012301D03*
X018608Y011693D03*
X018823Y011693D03*
X019033Y011693D03*
X019265Y011696D03*
X019270Y011476D03*
X019583Y011693D03*
X019785Y011606D03*
X019805Y011696D03*
X017910Y011478D03*
X017343Y011693D03*
X017018Y011693D03*
X015960Y011476D03*
X015750Y011478D03*
X015495Y011693D03*
D68*
X015955Y011693D03*
X016328Y011551D03*
X017343Y011691D03*
X017518Y011693D03*
X017525Y011476D03*
X018325Y011476D03*
X018823Y011691D03*
X019265Y011693D03*
X018663Y012266D03*
X018523Y012338D03*
X018363Y012296D03*
X018363Y012293D03*
X018523Y012538D03*
X018683Y012588D03*
X018863Y012598D03*
X019028Y012548D03*
X019213Y012541D03*
X019358Y012603D03*
X019513Y012538D03*
X019513Y012536D03*
X019370Y012288D03*
X019213Y012356D03*
X019213Y012358D03*
X019030Y012343D03*
X019030Y012341D03*
X018863Y012303D03*
X018863Y012301D03*
X017963Y012486D03*
X017960Y012503D03*
X017930Y012318D03*
X017220Y012548D03*
X017058Y012608D03*
X016878Y012548D03*
X016708Y012598D03*
X016878Y012351D03*
X016878Y012348D03*
X016735Y012281D03*
D69*
X016734Y012283D03*
X016732Y012286D03*
X016879Y012343D03*
X016879Y012346D03*
X017032Y012256D03*
X016674Y012443D03*
X016879Y012551D03*
X016879Y012553D03*
X017057Y012603D03*
X017057Y012606D03*
X017962Y012513D03*
X017962Y012511D03*
X017962Y012508D03*
X017962Y012506D03*
X017967Y012473D03*
X018077Y012616D03*
X018362Y012298D03*
X018524Y012336D03*
X018664Y012268D03*
X018862Y012306D03*
X019032Y012336D03*
X019032Y012338D03*
X019212Y012351D03*
X019212Y012353D03*
X019369Y012291D03*
X019514Y012541D03*
X019359Y012601D03*
X019212Y012546D03*
X019212Y012543D03*
X018862Y012596D03*
X018684Y012586D03*
X018684Y012583D03*
X018522Y012541D03*
X016714Y011696D03*
X016694Y011606D03*
X016332Y011548D03*
X018122Y011476D03*
D70*
X017912Y011476D03*
X017559Y011503D03*
X016519Y011543D03*
X016267Y011668D03*
X017032Y012258D03*
X016884Y012328D03*
X016727Y012296D03*
X016724Y012301D03*
X016677Y012451D03*
X017052Y012578D03*
X017052Y012581D03*
X017052Y012583D03*
X017052Y012586D03*
X017212Y012373D03*
X017212Y012371D03*
X017212Y012368D03*
X017212Y012366D03*
X017212Y012363D03*
X017212Y012361D03*
X017212Y012358D03*
X017212Y012356D03*
X017212Y012353D03*
X017212Y012351D03*
X017212Y012348D03*
X017212Y012346D03*
X017959Y012533D03*
X017959Y012536D03*
X018079Y012611D03*
X018359Y012578D03*
X018362Y012581D03*
X018362Y012583D03*
X018357Y012316D03*
X018357Y012313D03*
X018524Y012326D03*
X018669Y012276D03*
X018857Y012321D03*
X018857Y012323D03*
X019037Y012323D03*
X019207Y012333D03*
X019207Y012336D03*
X019369Y012301D03*
X019369Y012298D03*
X019359Y012591D03*
X019359Y012593D03*
X019207Y012561D03*
X019027Y012553D03*
X018857Y012581D03*
X018857Y012583D03*
X018689Y012571D03*
X018689Y012568D03*
X019517Y012556D03*
X019517Y012553D03*
X019032Y011696D03*
X018607Y011696D03*
D71*
X018825Y011676D03*
X018823Y011486D03*
X019270Y011488D03*
X019803Y011588D03*
X019370Y012263D03*
X019228Y012408D03*
X019228Y012491D03*
X019228Y012493D03*
X019358Y012623D03*
X018873Y012273D03*
X018523Y012403D03*
X018523Y012406D03*
X018523Y012408D03*
X018523Y012411D03*
X018523Y012413D03*
X018523Y012416D03*
X018523Y012418D03*
X018523Y012421D03*
X018523Y012423D03*
X018523Y012426D03*
X018523Y012428D03*
X018523Y012431D03*
X018523Y012433D03*
X018523Y012436D03*
X018523Y012438D03*
X018523Y012441D03*
X018523Y012443D03*
X018523Y012446D03*
X018523Y012448D03*
X018523Y012451D03*
X018523Y012453D03*
X018523Y012456D03*
X018523Y012458D03*
X018523Y012461D03*
X018523Y012463D03*
X018523Y012466D03*
X018523Y012468D03*
X018523Y012471D03*
X018523Y012473D03*
X018523Y012476D03*
X018378Y012266D03*
X017525Y011676D03*
X017528Y011671D03*
X017345Y011676D03*
X017343Y011486D03*
X017050Y011476D03*
X016710Y011591D03*
X016720Y011683D03*
X016325Y011566D03*
X015960Y011488D03*
X018323Y011488D03*
D72*
X018122Y011483D03*
X018117Y011688D03*
X017699Y011671D03*
X017527Y011483D03*
X017342Y011481D03*
X017344Y011683D03*
X016704Y011598D03*
X016284Y011476D03*
X015959Y011483D03*
X017029Y012251D03*
X016869Y012406D03*
X016869Y012408D03*
X016869Y012411D03*
X016869Y012413D03*
X016869Y012416D03*
X016869Y012418D03*
X016869Y012421D03*
X016869Y012423D03*
X016869Y012426D03*
X016869Y012428D03*
X016869Y012486D03*
X016869Y012488D03*
X016869Y012491D03*
X016869Y012493D03*
X016869Y012496D03*
X016869Y012498D03*
X016869Y012501D03*
X016869Y012503D03*
X016869Y012506D03*
X017067Y012623D03*
X017337Y012251D03*
X018372Y012276D03*
X018524Y012366D03*
X018522Y012513D03*
X018674Y012606D03*
X019022Y012513D03*
X019022Y012511D03*
X019022Y012508D03*
X019022Y012506D03*
X019022Y012503D03*
X019022Y012501D03*
X019022Y012411D03*
X019022Y012408D03*
X019022Y012406D03*
X019022Y012403D03*
X019022Y012401D03*
X019022Y012398D03*
X019022Y012396D03*
X019222Y012388D03*
X019222Y012386D03*
X019222Y012511D03*
X019222Y012513D03*
X019369Y012276D03*
X019369Y012273D03*
X019509Y012513D03*
X019509Y012516D03*
X018659Y012258D03*
X018824Y011683D03*
X018822Y011481D03*
X019269Y011483D03*
D73*
X019270Y011478D03*
X018660Y012263D03*
X018523Y012343D03*
X018523Y012346D03*
X018365Y012288D03*
X018523Y012533D03*
X018680Y012593D03*
X018865Y012603D03*
X019028Y012546D03*
X019028Y012543D03*
X019028Y012356D03*
X019028Y012353D03*
X019028Y012351D03*
X018865Y012296D03*
X018865Y012293D03*
X019215Y012363D03*
X019215Y012366D03*
X019215Y012531D03*
X019215Y012533D03*
X019358Y012608D03*
X019510Y012528D03*
X018075Y012618D03*
X017223Y012546D03*
X017060Y012613D03*
X016875Y012543D03*
X016875Y012541D03*
X016708Y012601D03*
X016670Y012438D03*
X016595Y012321D03*
X016735Y012278D03*
X016875Y012358D03*
X016875Y012361D03*
X016875Y012363D03*
X017030Y012253D03*
X016715Y011693D03*
X016698Y011603D03*
X016355Y011513D03*
X015960Y011478D03*
D74*
X015960Y011491D03*
X016293Y011478D03*
X016713Y011586D03*
X016720Y011678D03*
X017048Y011478D03*
X017343Y011488D03*
X017345Y011671D03*
X017530Y011496D03*
X018318Y011498D03*
X018320Y011496D03*
X018320Y011493D03*
X018823Y011488D03*
X018825Y011671D03*
X019063Y011478D03*
X019270Y011491D03*
X019805Y011583D03*
X019370Y012258D03*
X019230Y012416D03*
X019230Y012418D03*
X019230Y012483D03*
X019358Y012626D03*
X019848Y012626D03*
X019848Y012628D03*
X019848Y012631D03*
X019848Y012633D03*
X019848Y012636D03*
X019848Y012638D03*
X019848Y012641D03*
X019848Y012643D03*
X019848Y012646D03*
X019848Y012648D03*
X019848Y012651D03*
X019848Y012653D03*
X019848Y012656D03*
X019848Y012658D03*
X019848Y012661D03*
X019848Y012663D03*
X019848Y012666D03*
X019848Y012668D03*
X019848Y012671D03*
X019848Y012673D03*
X019848Y012676D03*
X019848Y012678D03*
X019848Y012681D03*
X019848Y012683D03*
X019848Y012686D03*
X019848Y012688D03*
X019848Y012691D03*
X019848Y012693D03*
X019848Y012696D03*
X019848Y012698D03*
X019848Y012701D03*
X019848Y012703D03*
X019848Y012706D03*
X019848Y012708D03*
X019848Y012711D03*
X019848Y012713D03*
X019848Y012716D03*
X019848Y012718D03*
X019848Y012721D03*
X019848Y012723D03*
X019848Y012726D03*
X019848Y012728D03*
X019848Y012731D03*
X019848Y012733D03*
X019848Y012736D03*
X019848Y012738D03*
X019848Y012741D03*
X019848Y012743D03*
X019848Y012746D03*
X019848Y012748D03*
X019848Y012751D03*
X019848Y012753D03*
X019848Y012623D03*
X019848Y012621D03*
X019848Y012618D03*
X019848Y012616D03*
X019848Y012613D03*
X019848Y012611D03*
X019848Y012608D03*
X019848Y012606D03*
X019848Y012603D03*
X019848Y012601D03*
X019848Y012598D03*
X019848Y012596D03*
X019848Y012593D03*
X019848Y012591D03*
X019848Y012588D03*
X019848Y012586D03*
X019848Y012583D03*
X019848Y012581D03*
X019848Y012578D03*
X019848Y012576D03*
X019848Y012573D03*
X019848Y012571D03*
X019848Y012568D03*
X019848Y012566D03*
X019848Y012563D03*
X019848Y012561D03*
X019848Y012558D03*
X019848Y012556D03*
X019848Y012553D03*
X019848Y012551D03*
X019848Y012548D03*
X019848Y012546D03*
X019848Y012543D03*
X019848Y012541D03*
X019848Y012538D03*
X019848Y012536D03*
X019848Y012533D03*
X019848Y012531D03*
X019848Y012528D03*
X019848Y012526D03*
X019848Y012523D03*
X019848Y012521D03*
X019848Y012518D03*
X019848Y012516D03*
X019848Y012513D03*
X019848Y012511D03*
X019848Y012508D03*
X019848Y012506D03*
X019848Y012503D03*
X019848Y012501D03*
X019848Y012498D03*
X019848Y012496D03*
X019848Y012493D03*
X019848Y012491D03*
X019848Y012488D03*
X019848Y012486D03*
X019848Y012483D03*
X019848Y012481D03*
X019848Y012478D03*
X019848Y012476D03*
X019848Y012473D03*
X019848Y012471D03*
X019848Y012468D03*
X019848Y012466D03*
X019848Y012463D03*
X019848Y012461D03*
X019848Y012458D03*
X019848Y012456D03*
X019848Y012453D03*
X019848Y012451D03*
X019848Y012448D03*
X019848Y012446D03*
X019848Y012443D03*
X019848Y012441D03*
X019848Y012438D03*
X019848Y012436D03*
X019848Y012433D03*
X019848Y012431D03*
X019848Y012428D03*
X019848Y012426D03*
X019848Y012423D03*
X019848Y012421D03*
X019848Y012418D03*
X019848Y012416D03*
X019848Y012413D03*
X019848Y012411D03*
X019848Y012408D03*
X019848Y012406D03*
X019848Y012403D03*
X019848Y012401D03*
X019848Y012398D03*
X019848Y012396D03*
X019848Y012393D03*
X019848Y012391D03*
X019848Y012388D03*
X019848Y012386D03*
X019848Y012383D03*
X019848Y012381D03*
X019848Y012378D03*
X019848Y012376D03*
X019848Y012373D03*
X019848Y012371D03*
X019848Y012368D03*
X019848Y012366D03*
X019848Y012363D03*
X019848Y012361D03*
X019848Y012358D03*
X019848Y012356D03*
X019848Y012353D03*
X019848Y012351D03*
X019848Y012348D03*
X019848Y012346D03*
X019848Y012343D03*
X019848Y012341D03*
X019848Y012338D03*
X019848Y012336D03*
X019848Y012333D03*
X019848Y012331D03*
X019848Y012328D03*
X019848Y012326D03*
X019848Y012323D03*
X019848Y012321D03*
X019848Y012318D03*
X019848Y012316D03*
X019848Y012313D03*
X019848Y012311D03*
X019848Y012308D03*
X019848Y012306D03*
X019848Y012303D03*
X019848Y012301D03*
X019848Y012298D03*
X019848Y012296D03*
X019848Y012293D03*
X019848Y012291D03*
X019848Y012288D03*
X019848Y012286D03*
X019848Y012283D03*
X019848Y012281D03*
X018658Y012253D03*
X018383Y012261D03*
X018165Y012378D03*
X018165Y012381D03*
X018165Y012383D03*
X018165Y012386D03*
X018165Y012388D03*
X018165Y012391D03*
X018165Y012393D03*
X018165Y012396D03*
X018165Y012398D03*
X018165Y012401D03*
X018165Y012403D03*
X018165Y012451D03*
X018165Y012453D03*
X018165Y012456D03*
X018165Y012458D03*
X018165Y012461D03*
X018165Y012463D03*
X018165Y012466D03*
X018165Y012468D03*
X018165Y012471D03*
X018165Y012473D03*
X018165Y012476D03*
X018165Y012478D03*
X018368Y012613D03*
X018665Y012618D03*
X017925Y012328D03*
X016708Y012613D03*
X015270Y011688D03*
D75*
X015498Y011688D03*
X015748Y011483D03*
X015960Y011481D03*
X015955Y011691D03*
X017020Y011688D03*
X017175Y012243D03*
X016873Y012373D03*
X016873Y012376D03*
X016873Y012378D03*
X016873Y012528D03*
X016873Y012531D03*
X016873Y012533D03*
X016708Y012603D03*
X016668Y012433D03*
X017063Y012618D03*
X017928Y012321D03*
X018073Y012621D03*
X018368Y012283D03*
X018523Y012351D03*
X018523Y012353D03*
X018660Y012261D03*
X018868Y012288D03*
X019025Y012366D03*
X019025Y012368D03*
X019025Y012371D03*
X019025Y012533D03*
X019025Y012536D03*
X018868Y012608D03*
X018678Y012598D03*
X018523Y012526D03*
X019218Y012526D03*
X019218Y012523D03*
X019218Y012373D03*
X019358Y012611D03*
X019510Y012526D03*
X019510Y012523D03*
X019585Y011688D03*
X019793Y011601D03*
X019265Y011691D03*
X019270Y011481D03*
X019033Y011688D03*
X018325Y011478D03*
D76*
X018307Y011691D03*
X018117Y011691D03*
X017909Y011483D03*
X017527Y011478D03*
X017519Y011691D03*
X017344Y011688D03*
X016324Y011556D03*
X016737Y012276D03*
X016874Y012366D03*
X016874Y012368D03*
X016874Y012371D03*
X016874Y012536D03*
X016874Y012538D03*
X017062Y012616D03*
X016669Y012436D03*
X018367Y012286D03*
X018524Y012348D03*
X018522Y012528D03*
X018522Y012531D03*
X018369Y012603D03*
X018679Y012596D03*
X018867Y012606D03*
X019027Y012541D03*
X019027Y012538D03*
X019027Y012363D03*
X019027Y012361D03*
X019027Y012358D03*
X018867Y012291D03*
X019217Y012368D03*
X019217Y012371D03*
X019217Y012528D03*
X019369Y012283D03*
X019369Y012281D03*
X019807Y011693D03*
X018824Y011688D03*
X018609Y011688D03*
D77*
X018308Y011688D03*
X018325Y011481D03*
X017700Y011666D03*
X017700Y011668D03*
X018370Y012278D03*
X018523Y012358D03*
X018523Y012361D03*
X018523Y012363D03*
X018523Y012516D03*
X018523Y012518D03*
X018675Y012603D03*
X018870Y012613D03*
X019023Y012523D03*
X019023Y012521D03*
X019023Y012518D03*
X019023Y012516D03*
X019023Y012393D03*
X019023Y012391D03*
X019023Y012388D03*
X019023Y012386D03*
X019023Y012383D03*
X018870Y012283D03*
X019220Y012381D03*
X019220Y012383D03*
X019220Y012516D03*
X019220Y012518D03*
X019358Y012616D03*
X019510Y012518D03*
X019265Y011688D03*
X019795Y011598D03*
X019808Y011691D03*
X017228Y012543D03*
X016870Y012516D03*
X016870Y012513D03*
X016870Y012511D03*
X016870Y012508D03*
X016870Y012403D03*
X016870Y012401D03*
X016870Y012398D03*
X016870Y012396D03*
X016870Y012393D03*
X016870Y012391D03*
X016665Y012428D03*
X016708Y012606D03*
X016133Y011668D03*
X016133Y011666D03*
X015955Y011688D03*
D78*
X015957Y011671D03*
X016297Y011693D03*
X016332Y011506D03*
X016709Y011481D03*
X017042Y011491D03*
X017362Y011576D03*
X018122Y011498D03*
X018842Y011576D03*
X019057Y011488D03*
X019267Y011671D03*
X018389Y012253D03*
X018159Y012326D03*
X018159Y012328D03*
X018159Y012331D03*
X018159Y012531D03*
X018159Y012533D03*
X018159Y012536D03*
X018157Y012543D03*
X018154Y012546D03*
X019237Y012463D03*
X019237Y012461D03*
X019237Y012438D03*
X016739Y012261D03*
X016652Y012406D03*
X016707Y012618D03*
X016387Y012601D03*
X016387Y012598D03*
X016387Y012596D03*
X016387Y012593D03*
X016387Y012401D03*
X016387Y012398D03*
X016387Y012308D03*
X016387Y012306D03*
X016387Y012303D03*
X015277Y011678D03*
D79*
X015273Y011686D03*
X015960Y011493D03*
X016298Y011481D03*
X016325Y011573D03*
X016715Y011581D03*
X016720Y011673D03*
X017045Y011483D03*
X017345Y011496D03*
X017533Y011501D03*
X018118Y011676D03*
X018825Y011496D03*
X019808Y011578D03*
X019810Y011671D03*
X019845Y012256D03*
X019845Y012258D03*
X019845Y012261D03*
X019845Y012263D03*
X019370Y012256D03*
X019233Y012423D03*
X019233Y012426D03*
X019233Y012473D03*
X019233Y012476D03*
X018663Y012621D03*
X018163Y012508D03*
X018163Y012506D03*
X018163Y012503D03*
X018163Y012501D03*
X018163Y012498D03*
X018148Y012553D03*
X018070Y012628D03*
X018163Y012358D03*
X018163Y012356D03*
X018163Y012353D03*
X018163Y012351D03*
X016708Y012616D03*
X016655Y012411D03*
X016383Y012383D03*
X016383Y012381D03*
X016383Y012378D03*
X016383Y012376D03*
X016383Y012373D03*
X016383Y012333D03*
X016383Y012331D03*
X016383Y012328D03*
X016383Y012326D03*
X016383Y012323D03*
D80*
X016392Y012291D03*
X016392Y012288D03*
X016392Y012416D03*
X016392Y012566D03*
X016392Y012568D03*
X016707Y012621D03*
X018154Y012306D03*
X018154Y012303D03*
X018654Y012628D03*
X019837Y012773D03*
X019607Y011686D03*
X019812Y011503D03*
X019804Y011491D03*
X019804Y011488D03*
X019052Y011501D03*
X019054Y011686D03*
X017037Y011501D03*
X016722Y011503D03*
X016719Y011501D03*
X016322Y011498D03*
X016319Y011496D03*
X016317Y011493D03*
X016314Y011491D03*
X016299Y011688D03*
X015727Y011486D03*
X015519Y011686D03*
X015269Y011481D03*
D81*
X015272Y011483D03*
X015517Y011676D03*
X015519Y011681D03*
X015519Y011683D03*
X015732Y011501D03*
X015732Y011498D03*
X015729Y011493D03*
X016302Y011683D03*
X016714Y011496D03*
X017039Y011681D03*
X017889Y011491D03*
X017892Y011496D03*
X017892Y011498D03*
X017894Y011503D03*
X018629Y011678D03*
X018629Y011681D03*
X019052Y011681D03*
X019054Y011683D03*
X019604Y011678D03*
X019604Y011676D03*
X019607Y011681D03*
X019607Y011683D03*
X019807Y011498D03*
X019807Y011496D03*
X018152Y012296D03*
X018152Y012298D03*
X016647Y012396D03*
X016394Y012421D03*
X016394Y012423D03*
X016394Y012561D03*
X016394Y012616D03*
X016394Y012283D03*
D82*
X016390Y012293D03*
X016390Y012411D03*
X016390Y012413D03*
X016390Y012571D03*
X016390Y012573D03*
X016390Y012611D03*
X016740Y012258D03*
X017040Y011686D03*
X017038Y011498D03*
X016713Y011488D03*
X016325Y011501D03*
X016310Y011488D03*
X017358Y011578D03*
X017888Y011486D03*
X018630Y011686D03*
X018838Y011578D03*
X019053Y011498D03*
X019053Y011496D03*
X019803Y011486D03*
X018655Y012248D03*
X018393Y012251D03*
X018155Y012308D03*
X018155Y012311D03*
X018070Y012631D03*
X018365Y012618D03*
X019240Y012451D03*
D83*
X018878Y012256D03*
X018150Y012293D03*
X018628Y011676D03*
X018625Y011673D03*
X018625Y011671D03*
X018625Y011668D03*
X018833Y011586D03*
X018833Y011583D03*
X019050Y011676D03*
X019050Y011678D03*
X019600Y011666D03*
X019603Y011671D03*
X019603Y011673D03*
X017893Y011501D03*
X017353Y011583D03*
X017353Y011586D03*
X017038Y011678D03*
X017035Y011676D03*
X016715Y011498D03*
X016303Y011681D03*
X015733Y011503D03*
X015730Y011496D03*
X015513Y011666D03*
X015515Y011671D03*
X015515Y011673D03*
X015518Y011678D03*
X015273Y011486D03*
X016740Y012256D03*
X016645Y012393D03*
X016395Y012426D03*
X016395Y012281D03*
X016395Y012618D03*
X019833Y012776D03*
D84*
X018893Y012633D03*
X018153Y012301D03*
X018878Y012258D03*
X018630Y011683D03*
X018835Y011581D03*
X017890Y011493D03*
X017888Y011488D03*
X017355Y011581D03*
X017040Y011683D03*
X016715Y011493D03*
X016713Y011491D03*
X016300Y011686D03*
X015728Y011491D03*
X015728Y011488D03*
X016393Y012286D03*
X016393Y012418D03*
X016393Y012563D03*
X016393Y012613D03*
X016648Y012398D03*
X017088Y012636D03*
X019805Y011493D03*
X019810Y011501D03*
D85*
X019602Y011668D03*
X019049Y011673D03*
X019047Y011671D03*
X018832Y011603D03*
X018832Y011601D03*
X018832Y011598D03*
X018832Y011596D03*
X018832Y011593D03*
X018832Y011591D03*
X018832Y011588D03*
X018624Y011666D03*
X018149Y012288D03*
X018149Y012291D03*
X018649Y012631D03*
X017034Y011673D03*
X017034Y011671D03*
X017352Y011603D03*
X017352Y011601D03*
X017352Y011598D03*
X017352Y011596D03*
X017352Y011593D03*
X017352Y011591D03*
X017352Y011588D03*
X016307Y011673D03*
X016304Y011678D03*
X015514Y011668D03*
X015284Y011503D03*
X015274Y011488D03*
X016397Y012278D03*
X016397Y012428D03*
X016707Y012623D03*
D86*
X016643Y012391D03*
X016398Y012431D03*
X016398Y012276D03*
X016398Y012621D03*
X016305Y011676D03*
X017033Y011668D03*
X018148Y012286D03*
X019148Y012626D03*
X019045Y011668D03*
X015283Y011501D03*
X015275Y011493D03*
X015275Y011491D03*
D87*
X015277Y011496D03*
X016399Y012273D03*
X016399Y012433D03*
X016399Y012623D03*
X016642Y012388D03*
X018147Y012283D03*
X018654Y012246D03*
X019364Y012251D03*
X018899Y012636D03*
D88*
X018145Y012281D03*
X018878Y012253D03*
X016400Y012271D03*
X016400Y012436D03*
X015278Y011498D03*
D89*
X018114Y011901D03*
D90*
X018115Y011903D03*
D91*
X018115Y011906D03*
D92*
X018115Y011908D03*
D93*
X018114Y011911D03*
D94*
X018115Y011913D03*
D95*
X018114Y011916D03*
X018114Y012966D03*
D96*
X018115Y011918D03*
D97*
X018114Y011921D03*
D98*
X018114Y011923D03*
X018114Y012958D03*
D99*
X018115Y012956D03*
X018115Y011926D03*
D100*
X018114Y011928D03*
X018114Y012953D03*
D101*
X018114Y012951D03*
X018114Y011931D03*
D102*
X018115Y011933D03*
X018115Y012948D03*
D103*
X018115Y011936D03*
D104*
X018114Y011938D03*
X018114Y012943D03*
D105*
X018114Y012941D03*
X018114Y011941D03*
D106*
X018114Y011943D03*
X018114Y012938D03*
D107*
X018114Y012936D03*
X018114Y011946D03*
D108*
X018114Y011948D03*
X018114Y012933D03*
D109*
X018115Y011951D03*
D110*
X018115Y011953D03*
X018115Y012928D03*
D111*
X018114Y011956D03*
D112*
X018114Y011958D03*
X018114Y012923D03*
D113*
X018114Y012921D03*
X018114Y011961D03*
D114*
X018115Y011963D03*
X018115Y012918D03*
D115*
X018114Y012916D03*
X018114Y011966D03*
D116*
X018114Y011968D03*
X018114Y012913D03*
D117*
X018115Y012911D03*
X018115Y011971D03*
D118*
X018114Y011973D03*
X018114Y012908D03*
D119*
X018114Y012906D03*
X018114Y011976D03*
D120*
X018115Y011978D03*
X018115Y012903D03*
D121*
X018114Y012901D03*
X018114Y011983D03*
X018114Y011981D03*
D122*
X018114Y011986D03*
X018114Y011988D03*
X018114Y012893D03*
X018114Y012896D03*
D123*
X018114Y012891D03*
X018114Y012888D03*
X018114Y011993D03*
X018114Y011991D03*
D124*
X018115Y011996D03*
X018115Y012886D03*
D125*
X018114Y012883D03*
X018114Y012001D03*
X018114Y011998D03*
D126*
X018115Y012003D03*
X018115Y012881D03*
D127*
X018114Y012878D03*
X018114Y012876D03*
X018114Y012873D03*
X018114Y012008D03*
X018114Y012006D03*
D128*
X018115Y012011D03*
X018115Y012871D03*
D129*
X018114Y012868D03*
X018114Y012866D03*
X018114Y012863D03*
X018114Y012018D03*
X018114Y012016D03*
X018114Y012013D03*
D130*
X018115Y012021D03*
X018115Y012023D03*
X018115Y012858D03*
X018115Y012861D03*
D131*
X018114Y012856D03*
X018114Y012853D03*
X018114Y012851D03*
X018114Y012848D03*
X018114Y012033D03*
X018114Y012031D03*
X018114Y012028D03*
X018114Y012026D03*
D132*
X018115Y012036D03*
X018115Y012038D03*
X018115Y012041D03*
X018115Y012043D03*
X018115Y012051D03*
X018115Y012056D03*
X018115Y012838D03*
X018115Y012841D03*
X018115Y012843D03*
X018115Y012846D03*
D133*
X018114Y012836D03*
X018114Y012833D03*
X018114Y012831D03*
X018114Y012828D03*
X018114Y012826D03*
X018114Y012823D03*
X018114Y012821D03*
X018114Y012818D03*
X018114Y012816D03*
X018114Y012813D03*
X018114Y012091D03*
X018114Y012088D03*
X018114Y012086D03*
X018114Y012083D03*
X018114Y012081D03*
X018114Y012078D03*
X018114Y012076D03*
X018114Y012073D03*
X018114Y012071D03*
X018114Y012068D03*
X018114Y012066D03*
X018114Y012063D03*
X018114Y012061D03*
X018114Y012058D03*
X018114Y012053D03*
X018114Y012048D03*
X018114Y012046D03*
D134*
X019533Y012093D03*
X019195Y012716D03*
D135*
X017708Y012093D03*
D136*
X019538Y012096D03*
X019538Y012098D03*
X019538Y012101D03*
X019538Y012103D03*
X019538Y012106D03*
X019538Y012108D03*
X019538Y012111D03*
X019538Y012113D03*
X019538Y012116D03*
X019538Y012118D03*
X019538Y012121D03*
X019538Y012123D03*
D137*
X017703Y012096D03*
D138*
X017699Y012098D03*
D139*
X017698Y012101D03*
D140*
X017697Y012103D03*
X017697Y012106D03*
X017697Y012108D03*
X017697Y012111D03*
X017697Y012113D03*
X017697Y012116D03*
X017697Y012118D03*
X017697Y012121D03*
X017697Y012123D03*
X017697Y012126D03*
X017697Y012128D03*
X017697Y012131D03*
X017697Y012133D03*
X017697Y012136D03*
X017697Y012138D03*
X017697Y012141D03*
X017697Y012143D03*
X017697Y012146D03*
X017697Y012148D03*
X017697Y012151D03*
X017697Y012153D03*
X017697Y012156D03*
X017697Y012158D03*
X017697Y012161D03*
X017697Y012163D03*
X017697Y012166D03*
X017697Y012168D03*
X017697Y012171D03*
X017697Y012173D03*
X017697Y012176D03*
X017697Y012178D03*
X017697Y012181D03*
X017697Y012183D03*
X017697Y012186D03*
X017697Y012188D03*
X017697Y012191D03*
X017697Y012193D03*
X017697Y012196D03*
X017697Y012198D03*
X017697Y012201D03*
X017697Y012203D03*
X017697Y012206D03*
X017697Y012208D03*
X017697Y012211D03*
X017697Y012213D03*
X017697Y012216D03*
X017697Y012218D03*
X017697Y012221D03*
X017697Y012223D03*
X017697Y012226D03*
X017697Y012228D03*
X017697Y012231D03*
X017697Y012233D03*
X017697Y012236D03*
X017697Y012238D03*
X017697Y012241D03*
D141*
X019189Y012718D03*
X019539Y012248D03*
X019539Y012246D03*
X019539Y012243D03*
X019539Y012241D03*
X019539Y012238D03*
X019539Y012236D03*
X019539Y012233D03*
X019539Y012231D03*
X019539Y012228D03*
X019539Y012226D03*
X019539Y012223D03*
X019539Y012221D03*
X019539Y012218D03*
X019539Y012216D03*
X019539Y012213D03*
X019539Y012211D03*
X019539Y012208D03*
X019539Y012206D03*
X019539Y012203D03*
X019539Y012201D03*
X019539Y012198D03*
X019539Y012196D03*
X019539Y012193D03*
X019539Y012191D03*
X019539Y012188D03*
X019539Y012186D03*
X019539Y012183D03*
X019539Y012181D03*
X019539Y012178D03*
X019539Y012176D03*
X019539Y012173D03*
X019539Y012171D03*
X019539Y012168D03*
X019539Y012166D03*
X019539Y012163D03*
X019539Y012161D03*
X019539Y012158D03*
X019539Y012156D03*
X019539Y012153D03*
X019539Y012151D03*
X019539Y012148D03*
X019539Y012146D03*
X019539Y012143D03*
X019539Y012141D03*
X019539Y012138D03*
X019539Y012136D03*
X019539Y012133D03*
X019539Y012131D03*
X019539Y012128D03*
X019539Y012126D03*
D142*
X019584Y012343D03*
X019584Y012346D03*
X018884Y012243D03*
X017717Y012478D03*
X017717Y012481D03*
X017717Y012483D03*
X017717Y012486D03*
X017717Y012488D03*
X017717Y012491D03*
X017717Y012493D03*
X017407Y012611D03*
X016427Y012636D03*
X016427Y012478D03*
D143*
X016410Y012453D03*
X016410Y012631D03*
X016638Y012366D03*
X016410Y012258D03*
X017423Y012408D03*
X018138Y012266D03*
X018653Y012243D03*
X018880Y012248D03*
X019600Y012606D03*
X019600Y012608D03*
D144*
X018237Y012243D03*
D145*
X017583Y012243D03*
D146*
X017429Y012328D03*
X017429Y012331D03*
X017429Y012333D03*
X017429Y012336D03*
X017429Y012338D03*
X017429Y012341D03*
X017429Y012343D03*
X017429Y012346D03*
X017429Y012348D03*
X017429Y012351D03*
X017429Y012353D03*
X017429Y012356D03*
X017429Y012358D03*
X017429Y012361D03*
X017429Y012363D03*
X017429Y012366D03*
X017429Y012368D03*
X017429Y012371D03*
X017429Y012373D03*
X017024Y012243D03*
X016639Y012381D03*
X016404Y012443D03*
X016404Y012266D03*
X018142Y012273D03*
X018879Y012251D03*
D147*
X019567Y012401D03*
X019567Y012403D03*
X019567Y012488D03*
X019567Y012491D03*
X018334Y012628D03*
X017734Y012606D03*
X017734Y012423D03*
X017729Y012266D03*
X016742Y012243D03*
X016444Y012506D03*
D148*
X016435Y012491D03*
X017398Y012458D03*
X017398Y012618D03*
X017725Y012581D03*
X017725Y012578D03*
X017725Y012431D03*
X017725Y012326D03*
X017725Y012323D03*
X017725Y012321D03*
X017725Y012318D03*
X017723Y012283D03*
X017723Y012281D03*
X016435Y012243D03*
X019575Y012373D03*
D149*
X019594Y012583D03*
X019594Y012586D03*
X018882Y012246D03*
X017417Y012426D03*
X017417Y012428D03*
X017417Y012568D03*
X017417Y012571D03*
X017417Y012573D03*
X017417Y012576D03*
X017417Y012593D03*
X017417Y012596D03*
X016642Y012338D03*
X016642Y012336D03*
X016639Y012346D03*
X016417Y012633D03*
D150*
X018239Y012246D03*
D151*
X017585Y012246D03*
D152*
X017719Y012438D03*
X017719Y012441D03*
X017719Y012443D03*
X017719Y012533D03*
X017719Y012536D03*
X017719Y012538D03*
X017719Y012541D03*
X017719Y012543D03*
X017719Y012546D03*
X017404Y012613D03*
X017404Y012451D03*
X016742Y012246D03*
X016429Y012481D03*
X019582Y012353D03*
X019582Y012351D03*
X019582Y012631D03*
D153*
X019583Y012348D03*
X018135Y012253D03*
X017718Y012446D03*
X017718Y012448D03*
X017718Y012451D03*
X017718Y012453D03*
X017718Y012456D03*
X017718Y012458D03*
X017718Y012461D03*
X017718Y012463D03*
X017718Y012466D03*
X017718Y012468D03*
X017718Y012471D03*
X017718Y012473D03*
X017718Y012476D03*
X017718Y012496D03*
X017718Y012498D03*
X017718Y012501D03*
X017718Y012503D03*
X017718Y012506D03*
X017718Y012508D03*
X017718Y012511D03*
X017718Y012513D03*
X017718Y012516D03*
X017718Y012518D03*
X017718Y012521D03*
X017718Y012523D03*
X017718Y012526D03*
X017718Y012528D03*
X017718Y012531D03*
X017405Y012448D03*
X016428Y012246D03*
D154*
X018240Y012248D03*
D155*
X017583Y012248D03*
D156*
X017415Y012431D03*
X017415Y012558D03*
X017415Y012561D03*
X017415Y012563D03*
X017415Y012566D03*
X017415Y012598D03*
X016648Y012323D03*
X016645Y012326D03*
X016645Y012328D03*
X016643Y012331D03*
X016643Y012333D03*
X016740Y012248D03*
X016418Y012463D03*
X019593Y012578D03*
X019593Y012581D03*
X019593Y012318D03*
X019593Y012316D03*
D157*
X019588Y012331D03*
X019588Y012333D03*
X019588Y012563D03*
X019588Y012628D03*
X018135Y012256D03*
X017410Y012441D03*
X017410Y012543D03*
X017410Y012606D03*
X016423Y012248D03*
D158*
X016409Y012451D03*
X016637Y012371D03*
X016637Y012368D03*
X016742Y012251D03*
X017424Y012401D03*
X017424Y012403D03*
X017424Y012406D03*
X018637Y012636D03*
X019152Y012628D03*
X019602Y012618D03*
X019602Y012616D03*
X019602Y012613D03*
X019602Y012611D03*
X019819Y012251D03*
D159*
X019572Y012386D03*
X018139Y012251D03*
X017727Y012271D03*
X017729Y012593D03*
X016439Y012496D03*
D160*
X017710Y012251D03*
D161*
X017414Y012433D03*
X017414Y012553D03*
X017414Y012556D03*
X017414Y012601D03*
X018137Y012258D03*
X019592Y012321D03*
X019592Y012576D03*
X019592Y012626D03*
X016419Y012466D03*
X016419Y012251D03*
D162*
X017732Y012253D03*
X017752Y012416D03*
D163*
X018143Y012276D03*
X016740Y012253D03*
X016640Y012383D03*
X016403Y012441D03*
X016403Y012626D03*
D164*
X016415Y012461D03*
X016415Y012253D03*
X016640Y012341D03*
X016640Y012343D03*
X016638Y012348D03*
X016638Y012351D03*
X016705Y012631D03*
X017418Y012591D03*
X017418Y012588D03*
X017418Y012586D03*
X017418Y012583D03*
X017418Y012581D03*
X017418Y012578D03*
X017418Y012423D03*
X018135Y012261D03*
X019595Y012588D03*
X019595Y012591D03*
X019595Y012623D03*
D165*
X019559Y012466D03*
X019559Y012463D03*
X019559Y012428D03*
X019559Y012426D03*
X017742Y012618D03*
X017737Y012256D03*
X016452Y012523D03*
X016452Y012526D03*
X016452Y012528D03*
X016452Y012531D03*
X016452Y012546D03*
X016452Y012548D03*
X016452Y012551D03*
X016452Y012553D03*
D166*
X016413Y012456D03*
X016413Y012256D03*
X016638Y012353D03*
X016638Y012356D03*
X016638Y012358D03*
X017420Y012416D03*
X017420Y012418D03*
X018138Y012263D03*
X019598Y012598D03*
D167*
X019562Y012473D03*
X019562Y012471D03*
X019562Y012421D03*
X019562Y012418D03*
X017739Y012421D03*
X017734Y012258D03*
X017739Y012616D03*
X017384Y012628D03*
X016449Y012558D03*
X016449Y012516D03*
D168*
X016448Y012513D03*
X017738Y012613D03*
X017733Y012261D03*
X019563Y012413D03*
X019563Y012416D03*
X019563Y012476D03*
X019563Y012478D03*
D169*
X018140Y012268D03*
X017425Y012396D03*
X017425Y012398D03*
X016638Y012373D03*
X016408Y012448D03*
X016408Y012261D03*
D170*
X016445Y012508D03*
X017388Y012626D03*
X017735Y012608D03*
X017730Y012263D03*
X019565Y012406D03*
X019565Y012408D03*
X019565Y012486D03*
D171*
X018140Y012271D03*
X017428Y012318D03*
X017428Y012321D03*
X017428Y012323D03*
X017428Y012326D03*
X017428Y012376D03*
X017428Y012378D03*
X017428Y012381D03*
X017428Y012383D03*
X017428Y012386D03*
X016638Y012378D03*
X016405Y012263D03*
X016405Y012628D03*
D172*
X016443Y012503D03*
X017390Y012466D03*
X017733Y012603D03*
X017728Y012268D03*
X019568Y012398D03*
X019568Y012493D03*
X019568Y012496D03*
D173*
X018644Y012633D03*
X018072Y012633D03*
X018144Y012278D03*
X016707Y012626D03*
X016642Y012386D03*
X016402Y012438D03*
X016402Y012268D03*
D174*
X017395Y012461D03*
X017395Y012621D03*
X017728Y012591D03*
X017728Y012588D03*
X017728Y012428D03*
X017725Y012276D03*
X017725Y012273D03*
X018335Y012626D03*
X019573Y012383D03*
X019573Y012381D03*
D175*
X019574Y012378D03*
X019574Y012376D03*
X017727Y012328D03*
X017724Y012278D03*
X017727Y012583D03*
X017727Y012586D03*
X016437Y012493D03*
D176*
X016434Y012488D03*
X017724Y012573D03*
X017724Y012576D03*
X017724Y012316D03*
X017724Y012313D03*
X017724Y012311D03*
X017724Y012308D03*
X017724Y012306D03*
X017724Y012303D03*
X017722Y012288D03*
X017722Y012286D03*
X019577Y012368D03*
X019577Y012371D03*
D177*
X019578Y012366D03*
X019578Y012363D03*
X017723Y012301D03*
X017723Y012298D03*
X017723Y012296D03*
X017723Y012293D03*
X017723Y012291D03*
X017723Y012433D03*
X017723Y012566D03*
X017723Y012568D03*
X017723Y012571D03*
X017400Y012456D03*
D178*
X017413Y012436D03*
X017413Y012551D03*
X016420Y012468D03*
X019590Y012571D03*
X019590Y012573D03*
X019590Y012326D03*
X019590Y012323D03*
D179*
X019589Y012328D03*
X019589Y012566D03*
X019589Y012568D03*
X017412Y012548D03*
X017412Y012546D03*
X017412Y012603D03*
X017412Y012438D03*
X016422Y012471D03*
D180*
X017799Y012331D03*
D181*
X017800Y012333D03*
X017800Y012336D03*
D182*
X017409Y012443D03*
X016424Y012473D03*
X019587Y012338D03*
X019587Y012336D03*
D183*
X017802Y012338D03*
D184*
X017408Y012446D03*
X017408Y012608D03*
X016705Y012633D03*
X016425Y012476D03*
X018335Y012621D03*
X019585Y012341D03*
D185*
X017803Y012341D03*
X017803Y012343D03*
D186*
X017804Y012346D03*
X017804Y012348D03*
D187*
X017805Y012351D03*
X017805Y012353D03*
X017805Y012356D03*
D188*
X017720Y012436D03*
X017720Y012548D03*
X017720Y012551D03*
X017720Y012553D03*
X017720Y012556D03*
X016430Y012483D03*
X019580Y012358D03*
X019580Y012356D03*
D189*
X017807Y012358D03*
X017807Y012361D03*
X017807Y012363D03*
X017807Y012366D03*
D190*
X017722Y012558D03*
X017722Y012561D03*
X017722Y012563D03*
X017402Y012616D03*
X017402Y012453D03*
X018334Y012623D03*
X019579Y012361D03*
X016432Y012486D03*
D191*
X016637Y012363D03*
X016637Y012361D03*
X017422Y012411D03*
X017422Y012413D03*
X019599Y012601D03*
X019599Y012603D03*
X019599Y012621D03*
D192*
X017808Y012378D03*
X017808Y012376D03*
X017808Y012373D03*
X017808Y012371D03*
X017808Y012368D03*
D193*
X017427Y012388D03*
X017427Y012391D03*
X017427Y012393D03*
X016707Y012628D03*
X016639Y012376D03*
X016407Y012446D03*
D194*
X017809Y012401D03*
X017809Y012398D03*
X017809Y012396D03*
X017809Y012393D03*
X017809Y012391D03*
X017809Y012388D03*
X017809Y012386D03*
X017809Y012383D03*
X017809Y012381D03*
D195*
X017730Y012596D03*
X017393Y012463D03*
X016440Y012498D03*
X019570Y012391D03*
X019570Y012388D03*
D196*
X019569Y012393D03*
X019569Y012396D03*
X017732Y012426D03*
X017732Y012598D03*
X017732Y012601D03*
X017392Y012623D03*
X016704Y012636D03*
X016442Y012501D03*
D197*
X017810Y012411D03*
X017810Y012408D03*
X017810Y012406D03*
X017810Y012403D03*
D198*
X017737Y012611D03*
X017387Y012468D03*
X016447Y012511D03*
X019564Y012483D03*
X019564Y012481D03*
X019564Y012411D03*
D199*
X017769Y012413D03*
D200*
X017744Y012418D03*
X017379Y012473D03*
X017379Y012631D03*
X019557Y012456D03*
X019557Y012436D03*
D201*
X019597Y012593D03*
X019597Y012596D03*
X017419Y012421D03*
X016414Y012458D03*
D202*
X016450Y012518D03*
X016450Y012521D03*
X016450Y012556D03*
X017383Y012471D03*
X019560Y012468D03*
X019560Y012423D03*
D203*
X019558Y012431D03*
X019558Y012433D03*
X019558Y012458D03*
X019558Y012461D03*
X018335Y012631D03*
X017743Y012621D03*
X016453Y012543D03*
X016453Y012541D03*
X016453Y012538D03*
X016453Y012536D03*
X016453Y012533D03*
D204*
X017745Y012623D03*
X019555Y012453D03*
X019555Y012451D03*
X019555Y012441D03*
X019555Y012438D03*
D205*
X019554Y012443D03*
X019554Y012446D03*
X019554Y012448D03*
D206*
X017374Y012476D03*
D207*
X017368Y012478D03*
D208*
X017344Y012481D03*
X017344Y012483D03*
X017344Y012486D03*
X017344Y012488D03*
X017344Y012491D03*
X017344Y012493D03*
X017344Y012496D03*
X017344Y012498D03*
X017344Y012501D03*
X017344Y012503D03*
X017344Y012506D03*
X017344Y012508D03*
X017344Y012511D03*
X017344Y012513D03*
X017344Y012516D03*
X017344Y012518D03*
X017344Y012521D03*
X017344Y012523D03*
X017344Y012526D03*
X017344Y012528D03*
X017344Y012531D03*
X017344Y012533D03*
D209*
X017345Y012536D03*
X017345Y012538D03*
X017345Y012541D03*
D210*
X017748Y012626D03*
D211*
X017750Y012628D03*
X017373Y012633D03*
D212*
X019239Y012631D03*
D213*
X018334Y012633D03*
X017754Y012631D03*
D214*
X019369Y012633D03*
D215*
X017759Y012633D03*
X017364Y012636D03*
D216*
X019363Y012636D03*
D217*
X018234Y012636D03*
D218*
X017767Y012636D03*
D219*
X019255Y012638D03*
X019255Y012641D03*
X019255Y012643D03*
X019255Y012646D03*
X019255Y012648D03*
X019255Y012651D03*
X019255Y012653D03*
X019255Y012656D03*
X019255Y012658D03*
X019255Y012661D03*
X019255Y012663D03*
X019255Y012666D03*
X019255Y012668D03*
X019255Y012671D03*
X019255Y012673D03*
X019255Y012676D03*
X019255Y012678D03*
X019255Y012681D03*
X019255Y012683D03*
X019255Y012686D03*
X019255Y012688D03*
X019255Y012691D03*
X019255Y012693D03*
X019255Y012696D03*
X019255Y012698D03*
X019255Y012701D03*
X019255Y012703D03*
X019255Y012706D03*
X019255Y012708D03*
X019255Y012711D03*
X019255Y012713D03*
D220*
X018168Y012713D03*
X018168Y012711D03*
X018168Y012708D03*
X018168Y012706D03*
X018168Y012703D03*
X018168Y012701D03*
X018168Y012698D03*
X018168Y012696D03*
X018168Y012693D03*
X018168Y012691D03*
X018168Y012688D03*
X018168Y012686D03*
X018168Y012683D03*
X018168Y012681D03*
X018168Y012678D03*
X018168Y012676D03*
X018168Y012673D03*
X018168Y012671D03*
X018168Y012668D03*
X018168Y012666D03*
X018168Y012663D03*
X018168Y012661D03*
X018168Y012658D03*
X018168Y012656D03*
X018168Y012653D03*
X018168Y012651D03*
X018168Y012648D03*
X018168Y012646D03*
X018168Y012643D03*
X018168Y012641D03*
X018168Y012638D03*
X018168Y012716D03*
X018168Y012718D03*
X018168Y012721D03*
X018168Y012723D03*
X018168Y012726D03*
X018168Y012728D03*
X018168Y012731D03*
X018168Y012733D03*
X018168Y012736D03*
X018168Y012738D03*
X018168Y012741D03*
X018168Y012763D03*
D221*
X017267Y012763D03*
X017267Y012761D03*
X017267Y012766D03*
X017267Y012768D03*
X017264Y012753D03*
X017264Y012751D03*
X017264Y012748D03*
X017264Y012746D03*
X017264Y012743D03*
X017264Y012741D03*
X017264Y012738D03*
X017264Y012736D03*
X017264Y012733D03*
X017264Y012731D03*
X017264Y012728D03*
X017264Y012726D03*
X017264Y012723D03*
X017264Y012721D03*
X017264Y012718D03*
X017264Y012716D03*
X017264Y012713D03*
X017264Y012711D03*
X017264Y012708D03*
X017264Y012706D03*
X017264Y012703D03*
X017264Y012701D03*
X017264Y012698D03*
X017264Y012696D03*
X017264Y012693D03*
X017264Y012691D03*
X017264Y012688D03*
X017264Y012686D03*
X017264Y012683D03*
X017264Y012681D03*
X017264Y012678D03*
X017264Y012676D03*
X017264Y012673D03*
X017264Y012671D03*
X017264Y012668D03*
X017264Y012666D03*
X017264Y012663D03*
X017264Y012661D03*
X017264Y012658D03*
X017264Y012656D03*
X017264Y012653D03*
X017264Y012651D03*
X017264Y012648D03*
X017264Y012646D03*
X017264Y012643D03*
X017264Y012641D03*
X017264Y012638D03*
D222*
X016620Y012638D03*
X016620Y012641D03*
X016620Y012643D03*
X016620Y012646D03*
X016620Y012648D03*
X016620Y012651D03*
X016620Y012653D03*
X016620Y012656D03*
X016620Y012658D03*
X016620Y012661D03*
X016620Y012663D03*
X016620Y012666D03*
X016620Y012668D03*
X016620Y012671D03*
X016620Y012673D03*
X016620Y012676D03*
X016620Y012678D03*
X016620Y012681D03*
X016620Y012683D03*
X016620Y012686D03*
X016620Y012688D03*
X016620Y012691D03*
X016620Y012693D03*
X016620Y012696D03*
X016620Y012698D03*
X016620Y012701D03*
X016620Y012703D03*
X016620Y012706D03*
X016620Y012708D03*
X016620Y012711D03*
X016620Y012713D03*
X016620Y012716D03*
X016620Y012718D03*
X016620Y012721D03*
X016620Y012723D03*
X016620Y012726D03*
X016620Y012728D03*
X016620Y012731D03*
X016620Y012733D03*
X016620Y012736D03*
X016620Y012738D03*
X016620Y012741D03*
X016620Y012743D03*
X016620Y012746D03*
X016620Y012748D03*
X016620Y012751D03*
X016620Y012753D03*
X016620Y012756D03*
X016620Y012758D03*
X016620Y012761D03*
X016620Y012763D03*
X016620Y012766D03*
X016620Y012768D03*
X016620Y012771D03*
X016620Y012773D03*
X016620Y012776D03*
X016620Y012778D03*
X016620Y012781D03*
X016620Y012783D03*
D223*
X019188Y012721D03*
D224*
X019187Y012723D03*
D225*
X019185Y012726D03*
D226*
X019184Y012728D03*
X019184Y012731D03*
D227*
X019183Y012733D03*
X019183Y012736D03*
X019183Y012738D03*
D228*
X019182Y012741D03*
X019182Y012743D03*
X019182Y012746D03*
X019182Y012748D03*
X019182Y012751D03*
D229*
X019352Y012808D03*
X018169Y012761D03*
X018169Y012758D03*
X018169Y012756D03*
X018169Y012753D03*
X018169Y012751D03*
X018169Y012748D03*
X018169Y012746D03*
X018169Y012743D03*
D230*
X019182Y012753D03*
X019182Y012756D03*
X019182Y012758D03*
X019182Y012761D03*
X019182Y012763D03*
X019182Y012766D03*
X019182Y012768D03*
X019182Y012771D03*
X019182Y012773D03*
X019182Y012776D03*
D231*
X017265Y012758D03*
X017265Y012756D03*
D232*
X018167Y012766D03*
D233*
X018165Y012768D03*
D234*
X018164Y012771D03*
D235*
X017268Y012771D03*
X017268Y012773D03*
X017268Y012776D03*
D236*
X018162Y012773D03*
X019344Y012811D03*
D237*
X018158Y012776D03*
D238*
X019365Y012778D03*
X019365Y012781D03*
X019365Y012783D03*
X019365Y012786D03*
X019365Y012788D03*
D239*
X018148Y012778D03*
D240*
X017270Y012778D03*
D241*
X017872Y012781D03*
X017872Y012783D03*
X017872Y012786D03*
X017872Y012788D03*
D242*
X016622Y012788D03*
X016622Y012786D03*
X016622Y012791D03*
X016622Y012793D03*
X016622Y012796D03*
X016622Y012798D03*
D243*
X019364Y012793D03*
X019364Y012791D03*
D244*
X017870Y012791D03*
D245*
X017870Y012793D03*
X017870Y012796D03*
D246*
X019363Y012796D03*
D247*
X019362Y012798D03*
D248*
X017869Y012798D03*
D249*
X019360Y012801D03*
D250*
X017867Y012801D03*
D251*
X016623Y012801D03*
X016623Y012803D03*
X016623Y012806D03*
X016623Y012808D03*
D252*
X019359Y012803D03*
D253*
X017865Y012803D03*
D254*
X019357Y012806D03*
D255*
X017863Y012806D03*
D256*
X017859Y012808D03*
D257*
X017853Y012811D03*
D258*
X016624Y012811D03*
D259*
X018115Y012898D03*
D260*
X018115Y012926D03*
D261*
X018114Y012931D03*
D262*
X018114Y012946D03*
D263*
X018115Y012961D03*
D264*
X018114Y012963D03*
D265*
X018114Y012968D03*
D266*
X018114Y012971D03*
D267*
X018114Y012973D03*
D268*
X018114Y012976D03*
D269*
X018115Y012978D03*
D270*
X018115Y012981D03*
M02*
