G75*
%MOIN*%
%OFA0B0*%
%FSLAX24Y24*%
%IPPOS*%
%LPD*%
%AMOC8*
5,1,8,0,0,1.08239X$1,22.5*
%
%ADD10C,0.0000*%
%ADD11C,0.0600*%
%ADD12C,0.0476*%
%ADD13C,0.1502*%
%ADD14C,0.0160*%
%ADD15C,0.0260*%
%ADD16C,0.0100*%
D10*
X005835Y002933D02*
X021395Y002933D01*
X021467Y002935D01*
X021538Y002941D01*
X021609Y002950D01*
X021680Y002963D01*
X021750Y002980D01*
X021818Y003000D01*
X021886Y003024D01*
X021952Y003051D01*
X022017Y003082D01*
X022080Y003117D01*
X022141Y003154D01*
X022200Y003195D01*
X022257Y003238D01*
X022312Y003285D01*
X022364Y003334D01*
X022413Y003386D01*
X022460Y003441D01*
X022503Y003498D01*
X022544Y003557D01*
X022581Y003618D01*
X022616Y003681D01*
X022647Y003746D01*
X022674Y003812D01*
X022698Y003880D01*
X022718Y003948D01*
X022735Y004018D01*
X022748Y004089D01*
X022757Y004160D01*
X022763Y004231D01*
X022765Y004303D01*
X022765Y012063D01*
X022763Y012135D01*
X022757Y012206D01*
X022748Y012277D01*
X022735Y012348D01*
X022718Y012418D01*
X022698Y012486D01*
X022674Y012554D01*
X022647Y012620D01*
X022616Y012685D01*
X022581Y012748D01*
X022544Y012809D01*
X022503Y012868D01*
X022460Y012925D01*
X022413Y012980D01*
X022364Y013032D01*
X022312Y013081D01*
X022257Y013128D01*
X022200Y013171D01*
X022141Y013212D01*
X022080Y013249D01*
X022017Y013284D01*
X021952Y013315D01*
X021886Y013342D01*
X021818Y013366D01*
X021750Y013386D01*
X021680Y013403D01*
X021609Y013416D01*
X021538Y013425D01*
X021467Y013431D01*
X021395Y013433D01*
X005835Y013433D01*
X005763Y013431D01*
X005692Y013425D01*
X005621Y013416D01*
X005550Y013403D01*
X005480Y013386D01*
X005412Y013366D01*
X005344Y013342D01*
X005278Y013315D01*
X005213Y013284D01*
X005150Y013249D01*
X005089Y013212D01*
X005030Y013171D01*
X004973Y013128D01*
X004918Y013081D01*
X004866Y013032D01*
X004817Y012980D01*
X004770Y012925D01*
X004727Y012868D01*
X004686Y012809D01*
X004649Y012748D01*
X004614Y012685D01*
X004583Y012620D01*
X004556Y012554D01*
X004532Y012486D01*
X004512Y012418D01*
X004495Y012348D01*
X004482Y012277D01*
X004473Y012206D01*
X004467Y012135D01*
X004465Y012063D01*
X004465Y004303D01*
X004467Y004231D01*
X004473Y004160D01*
X004482Y004089D01*
X004495Y004018D01*
X004512Y003948D01*
X004532Y003880D01*
X004556Y003812D01*
X004583Y003746D01*
X004614Y003681D01*
X004649Y003618D01*
X004686Y003557D01*
X004727Y003498D01*
X004770Y003441D01*
X004817Y003386D01*
X004866Y003334D01*
X004918Y003285D01*
X004973Y003238D01*
X005030Y003195D01*
X005089Y003154D01*
X005150Y003117D01*
X005213Y003082D01*
X005278Y003051D01*
X005344Y003024D01*
X005412Y003000D01*
X005480Y002980D01*
X005550Y002963D01*
X005621Y002950D01*
X005692Y002941D01*
X005763Y002935D01*
X005835Y002933D01*
D11*
X011065Y003433D03*
X012065Y003433D03*
X013065Y003433D03*
X014065Y003433D03*
X015065Y003433D03*
X016065Y003433D03*
X006979Y006229D03*
X005979Y006229D03*
X004979Y006229D03*
X004979Y007229D03*
X005979Y007229D03*
X006979Y007229D03*
X007965Y011933D03*
X007965Y012933D03*
D12*
X009972Y012233D03*
X010759Y012233D03*
D13*
X005865Y012033D03*
X021365Y012033D03*
X021365Y004333D03*
X005865Y004333D03*
D14*
X005785Y004360D02*
X004645Y004360D01*
X004645Y004303D02*
X004645Y005885D01*
X004667Y005863D01*
X004728Y005819D01*
X004795Y005785D01*
X004867Y005761D01*
X004942Y005749D01*
X004959Y005749D01*
X004959Y006209D01*
X004999Y006209D01*
X004999Y005749D01*
X005017Y005749D01*
X005092Y005761D01*
X005164Y005785D01*
X005231Y005819D01*
X005292Y005863D01*
X005346Y005917D01*
X005390Y005978D01*
X005424Y006045D01*
X005448Y006117D01*
X005459Y006192D01*
X005459Y006209D01*
X005000Y006209D01*
X005000Y006249D01*
X005459Y006249D01*
X005459Y006267D01*
X005448Y006342D01*
X005424Y006414D01*
X005390Y006481D01*
X005346Y006542D01*
X005292Y006596D01*
X005231Y006640D01*
X005164Y006674D01*
X005092Y006698D01*
X005017Y006709D01*
X004999Y006709D01*
X004999Y006249D01*
X004959Y006249D01*
X004959Y006709D01*
X004942Y006709D01*
X004867Y006698D01*
X004795Y006674D01*
X004728Y006640D01*
X004667Y006596D01*
X004645Y006574D01*
X004645Y006913D01*
X004719Y006839D01*
X004888Y006769D01*
X005071Y006769D01*
X005240Y006839D01*
X005369Y006969D01*
X005439Y007138D01*
X005439Y007321D01*
X005419Y007371D01*
X005540Y007371D01*
X005519Y007321D02*
X005519Y007138D01*
X005590Y006969D01*
X005719Y006839D01*
X005888Y006769D01*
X006071Y006769D01*
X006240Y006839D01*
X006369Y006969D01*
X006439Y007138D01*
X006439Y007321D01*
X006369Y007490D01*
X006240Y007619D01*
X006071Y007689D01*
X005888Y007689D01*
X005719Y007619D01*
X005590Y007490D01*
X005519Y007321D01*
X005519Y007213D02*
X005439Y007213D01*
X005419Y007371D02*
X005970Y007923D01*
X007578Y007923D01*
X007755Y007746D01*
X007878Y007623D01*
X010452Y007623D01*
X010484Y007655D01*
X010519Y007569D01*
X010601Y007487D01*
X010708Y007443D01*
X010758Y007443D01*
X010778Y007423D01*
X013889Y007423D01*
X013875Y007391D01*
X013875Y007276D01*
X013919Y007169D01*
X014001Y007087D01*
X014075Y007057D01*
X014075Y006976D01*
X014119Y006869D01*
X014201Y006787D01*
X014308Y006743D01*
X014423Y006743D01*
X014530Y006787D01*
X014611Y006869D01*
X014655Y006976D01*
X014655Y007091D01*
X014611Y007198D01*
X014585Y007223D01*
X016689Y007223D01*
X016675Y007191D01*
X016675Y007076D01*
X016719Y006969D01*
X016801Y006887D01*
X016908Y006843D01*
X017023Y006843D01*
X017130Y006887D01*
X017211Y006969D01*
X017255Y007076D01*
X017255Y007191D01*
X017242Y007223D01*
X017452Y007223D01*
X017575Y007346D01*
X017575Y007346D01*
X017852Y007623D01*
X019652Y007623D01*
X019775Y007746D01*
X019775Y007746D01*
X019972Y007943D01*
X020023Y007943D01*
X020130Y007987D01*
X020211Y008069D01*
X020255Y008176D01*
X020255Y008291D01*
X020211Y008398D01*
X020130Y008479D01*
X020023Y008523D01*
X019908Y008523D01*
X019801Y008479D01*
X019719Y008398D01*
X019675Y008291D01*
X019675Y008240D01*
X019655Y008220D01*
X019655Y008291D01*
X019611Y008398D01*
X019530Y008479D01*
X019423Y008523D01*
X019308Y008523D01*
X019201Y008479D01*
X019119Y008398D01*
X019075Y008291D01*
X019075Y008176D01*
X019119Y008069D01*
X019145Y008043D01*
X017678Y008043D01*
X017555Y007920D01*
X017278Y007643D01*
X016985Y007643D01*
X017011Y007669D01*
X017055Y007776D01*
X017055Y007891D01*
X017011Y007998D01*
X016930Y008079D01*
X016823Y008123D01*
X016708Y008123D01*
X016601Y008079D01*
X016565Y008043D01*
X012052Y008043D01*
X011852Y008243D01*
X010478Y008243D01*
X010355Y008120D01*
X010278Y008043D01*
X008052Y008043D01*
X007769Y008327D01*
X007811Y008369D01*
X007855Y008476D01*
X007855Y008591D01*
X007811Y008698D01*
X007730Y008779D01*
X007623Y008823D01*
X007508Y008823D01*
X007401Y008779D01*
X007319Y008698D01*
X007275Y008591D01*
X007275Y008476D01*
X007319Y008369D01*
X007345Y008343D01*
X005796Y008343D01*
X005673Y008220D01*
X005122Y007668D01*
X005071Y007689D01*
X004888Y007689D01*
X004719Y007619D01*
X004645Y007546D01*
X004645Y012063D01*
X004656Y012219D01*
X004736Y012519D01*
X004891Y012788D01*
X005111Y013007D01*
X005380Y013163D01*
X005680Y013243D01*
X005835Y013253D01*
X007635Y013253D01*
X007575Y013194D01*
X007505Y013025D01*
X007505Y012842D01*
X007575Y012673D01*
X007705Y012543D01*
X007874Y012473D01*
X008057Y012473D01*
X008226Y012543D01*
X008355Y012673D01*
X008425Y012842D01*
X008425Y013025D01*
X008355Y013194D01*
X008296Y013253D01*
X021395Y013253D01*
X021551Y013243D01*
X021851Y013163D01*
X022120Y013007D01*
X022339Y012788D01*
X022495Y012519D01*
X022575Y012219D01*
X022585Y012063D01*
X022585Y005798D01*
X022523Y005823D01*
X022408Y005823D01*
X022301Y005779D01*
X022219Y005698D01*
X022175Y005591D01*
X022175Y005476D01*
X022219Y005369D01*
X022301Y005287D01*
X022408Y005243D01*
X022523Y005243D01*
X022585Y005269D01*
X022585Y004303D01*
X022575Y004148D01*
X022495Y003848D01*
X022495Y003848D01*
X022339Y003579D01*
X022120Y003359D01*
X021851Y003204D01*
X021551Y003124D01*
X021395Y003113D01*
X016396Y003113D01*
X016455Y003173D01*
X016525Y003342D01*
X016525Y003525D01*
X016455Y003694D01*
X016326Y003823D01*
X016157Y003893D01*
X015974Y003893D01*
X015805Y003823D01*
X015675Y003694D01*
X015605Y003525D01*
X015605Y003342D01*
X015675Y003173D01*
X015735Y003113D01*
X015396Y003113D01*
X015455Y003173D01*
X015525Y003342D01*
X015525Y003525D01*
X015455Y003694D01*
X015326Y003823D01*
X015157Y003893D01*
X014974Y003893D01*
X014805Y003823D01*
X014675Y003694D01*
X014605Y003525D01*
X014605Y003342D01*
X014675Y003173D01*
X014735Y003113D01*
X014396Y003113D01*
X014455Y003173D01*
X014525Y003342D01*
X014525Y003525D01*
X014455Y003694D01*
X014326Y003823D01*
X014157Y003893D01*
X013974Y003893D01*
X013805Y003823D01*
X013675Y003694D01*
X013605Y003525D01*
X013605Y003342D01*
X013675Y003173D01*
X013735Y003113D01*
X013396Y003113D01*
X013455Y003173D01*
X013525Y003342D01*
X013525Y003525D01*
X013455Y003694D01*
X013326Y003823D01*
X013157Y003893D01*
X012974Y003893D01*
X012805Y003823D01*
X012675Y003694D01*
X012605Y003525D01*
X012605Y003342D01*
X012675Y003173D01*
X012735Y003113D01*
X012424Y003113D01*
X012431Y003121D01*
X012476Y003182D01*
X012510Y003249D01*
X012534Y003321D01*
X012545Y003396D01*
X012545Y003413D01*
X012085Y003413D01*
X012085Y003453D01*
X012045Y003453D01*
X012045Y003413D01*
X011585Y003413D01*
X011585Y003396D01*
X011597Y003321D01*
X011620Y003249D01*
X011655Y003182D01*
X011699Y003121D01*
X011707Y003113D01*
X011424Y003113D01*
X011431Y003121D01*
X011476Y003182D01*
X011510Y003249D01*
X011534Y003321D01*
X011545Y003396D01*
X011545Y003413D01*
X011085Y003413D01*
X011085Y003453D01*
X011045Y003453D01*
X011045Y003413D01*
X010585Y003413D01*
X010585Y003396D01*
X010597Y003321D01*
X010620Y003249D01*
X010655Y003182D01*
X010699Y003121D01*
X010707Y003113D01*
X005835Y003113D01*
X005680Y003124D01*
X005380Y003204D01*
X005111Y003359D01*
X004891Y003579D01*
X004736Y003848D01*
X004656Y004148D01*
X004645Y004303D01*
X004652Y004201D02*
X004943Y004201D01*
X004946Y004177D02*
X004969Y004075D01*
X005004Y003976D01*
X005049Y003882D01*
X005105Y003794D01*
X005170Y003712D01*
X005244Y003638D01*
X005326Y003573D01*
X005414Y003517D01*
X005508Y003472D01*
X005607Y003437D01*
X005709Y003414D01*
X005785Y003405D01*
X005785Y004253D01*
X005945Y004253D01*
X005945Y003405D01*
X006022Y003414D01*
X006124Y003437D01*
X006222Y003472D01*
X006316Y003517D01*
X006405Y003573D01*
X006487Y003638D01*
X006561Y003712D01*
X006626Y003794D01*
X006682Y003882D01*
X006727Y003976D01*
X006762Y004075D01*
X006785Y004177D01*
X006793Y004253D01*
X005945Y004253D01*
X005945Y004413D01*
X006793Y004413D01*
X006785Y004490D01*
X006762Y004592D01*
X006727Y004690D01*
X006682Y004784D01*
X006626Y004873D01*
X006561Y004955D01*
X006487Y005029D01*
X006405Y005094D01*
X006316Y005150D01*
X006222Y005195D01*
X006124Y005230D01*
X006022Y005253D01*
X005945Y005261D01*
X005945Y004413D01*
X005785Y004413D01*
X005785Y004253D01*
X004937Y004253D01*
X004946Y004177D01*
X004980Y004043D02*
X004684Y004043D01*
X004726Y003884D02*
X005048Y003884D01*
X005159Y003726D02*
X004806Y003726D01*
X004903Y003567D02*
X005334Y003567D01*
X005061Y003409D02*
X005754Y003409D01*
X005785Y003409D02*
X005945Y003409D01*
X005977Y003409D02*
X009075Y003409D01*
X009075Y003376D02*
X009119Y003269D01*
X009201Y003187D01*
X009308Y003143D01*
X009423Y003143D01*
X009530Y003187D01*
X009611Y003269D01*
X009655Y003376D01*
X009655Y003491D01*
X009611Y003598D01*
X009530Y003679D01*
X009423Y003723D01*
X009308Y003723D01*
X009201Y003679D01*
X009119Y003598D01*
X009075Y003491D01*
X009075Y003376D01*
X009138Y003250D02*
X005300Y003250D01*
X005785Y003567D02*
X005945Y003567D01*
X005945Y003726D02*
X005785Y003726D01*
X005785Y003884D02*
X005945Y003884D01*
X005945Y004043D02*
X005785Y004043D01*
X005785Y004201D02*
X005945Y004201D01*
X005945Y004360D02*
X021285Y004360D01*
X021285Y004413D02*
X021285Y004253D01*
X021445Y004253D01*
X021445Y003405D01*
X021522Y003414D01*
X021624Y003437D01*
X021722Y003472D01*
X021816Y003517D01*
X021905Y003573D01*
X021987Y003638D01*
X022061Y003712D01*
X022126Y003794D01*
X022182Y003882D01*
X022227Y003976D01*
X022262Y004075D01*
X022285Y004177D01*
X022293Y004253D01*
X021445Y004253D01*
X021445Y004413D01*
X022293Y004413D01*
X022285Y004490D01*
X022262Y004592D01*
X022227Y004690D01*
X022182Y004784D01*
X022126Y004873D01*
X022061Y004955D01*
X021987Y005029D01*
X021905Y005094D01*
X021816Y005150D01*
X021722Y005195D01*
X021624Y005230D01*
X021522Y005253D01*
X021445Y005261D01*
X021445Y004413D01*
X021285Y004413D01*
X020437Y004413D01*
X020446Y004490D01*
X020469Y004592D01*
X020504Y004690D01*
X020549Y004784D01*
X020605Y004873D01*
X020670Y004955D01*
X020744Y005029D01*
X020826Y005094D01*
X020914Y005150D01*
X021008Y005195D01*
X021107Y005230D01*
X021209Y005253D01*
X021285Y005261D01*
X021285Y004413D01*
X021285Y004518D02*
X021445Y004518D01*
X021445Y004360D02*
X022585Y004360D01*
X022585Y004518D02*
X022278Y004518D01*
X022232Y004677D02*
X022585Y004677D01*
X022585Y004835D02*
X022150Y004835D01*
X022022Y004994D02*
X022585Y004994D01*
X022585Y005152D02*
X021811Y005152D01*
X021445Y005152D02*
X021285Y005152D01*
X021285Y004994D02*
X021445Y004994D01*
X021445Y004835D02*
X021285Y004835D01*
X021285Y004677D02*
X021445Y004677D01*
X020709Y004994D02*
X006522Y004994D01*
X006650Y004835D02*
X020581Y004835D01*
X020499Y004677D02*
X006732Y004677D01*
X006778Y004518D02*
X020452Y004518D01*
X020437Y004253D02*
X020446Y004177D01*
X020469Y004075D01*
X020504Y003976D01*
X020549Y003882D01*
X020605Y003794D01*
X020670Y003712D01*
X020744Y003638D01*
X020826Y003573D01*
X020914Y003517D01*
X021008Y003472D01*
X021107Y003437D01*
X021209Y003414D01*
X021285Y003405D01*
X021285Y004253D01*
X020437Y004253D01*
X020443Y004201D02*
X006788Y004201D01*
X006750Y004043D02*
X020480Y004043D01*
X020548Y003884D02*
X016179Y003884D01*
X015952Y003884D02*
X015179Y003884D01*
X014952Y003884D02*
X014179Y003884D01*
X013952Y003884D02*
X013179Y003884D01*
X012952Y003884D02*
X012231Y003884D01*
X012250Y003878D02*
X012178Y003902D01*
X012103Y003913D01*
X012085Y003913D01*
X012085Y003453D01*
X012545Y003453D01*
X012545Y003471D01*
X012534Y003546D01*
X012510Y003618D01*
X012476Y003685D01*
X012431Y003746D01*
X012378Y003799D01*
X012317Y003844D01*
X012250Y003878D01*
X012085Y003884D02*
X012045Y003884D01*
X012045Y003913D02*
X012028Y003913D01*
X011953Y003902D01*
X011881Y003878D01*
X011814Y003844D01*
X011753Y003799D01*
X011699Y003746D01*
X011655Y003685D01*
X011620Y003618D01*
X011597Y003546D01*
X011585Y003471D01*
X011585Y003453D01*
X012045Y003453D01*
X012045Y003913D01*
X011900Y003884D02*
X011231Y003884D01*
X011250Y003878D02*
X011178Y003902D01*
X011103Y003913D01*
X011085Y003913D01*
X011085Y003453D01*
X011545Y003453D01*
X011545Y003471D01*
X011534Y003546D01*
X011510Y003618D01*
X011476Y003685D01*
X011431Y003746D01*
X011378Y003799D01*
X011317Y003844D01*
X011250Y003878D01*
X011085Y003884D02*
X011045Y003884D01*
X011045Y003913D02*
X011028Y003913D01*
X010953Y003902D01*
X010881Y003878D01*
X010814Y003844D01*
X010753Y003799D01*
X010699Y003746D01*
X010655Y003685D01*
X010620Y003618D01*
X010597Y003546D01*
X010585Y003471D01*
X010585Y003453D01*
X011045Y003453D01*
X011045Y003913D01*
X010900Y003884D02*
X006683Y003884D01*
X006572Y003726D02*
X010685Y003726D01*
X010604Y003567D02*
X009624Y003567D01*
X009655Y003409D02*
X010585Y003409D01*
X010620Y003250D02*
X009592Y003250D01*
X009107Y003567D02*
X006396Y003567D01*
X005785Y004413D02*
X004937Y004413D01*
X004946Y004490D01*
X004969Y004592D01*
X005004Y004690D01*
X005049Y004784D01*
X005105Y004873D01*
X005170Y004955D01*
X005244Y005029D01*
X005326Y005094D01*
X005414Y005150D01*
X005508Y005195D01*
X005607Y005230D01*
X005709Y005253D01*
X005785Y005261D01*
X005785Y004413D01*
X005785Y004518D02*
X005945Y004518D01*
X005945Y004677D02*
X005785Y004677D01*
X005785Y004835D02*
X005945Y004835D01*
X005945Y004994D02*
X005785Y004994D01*
X005785Y005152D02*
X005945Y005152D01*
X006311Y005152D02*
X020920Y005152D01*
X022178Y005469D02*
X014853Y005469D01*
X014855Y005476D02*
X014811Y005369D01*
X014730Y005287D01*
X014623Y005243D01*
X014508Y005243D01*
X014401Y005287D01*
X014319Y005369D01*
X014275Y005476D01*
X014275Y005591D01*
X014319Y005698D01*
X014401Y005779D01*
X014508Y005823D01*
X014623Y005823D01*
X014730Y005779D01*
X014811Y005698D01*
X014855Y005591D01*
X014855Y005476D01*
X014840Y005628D02*
X022191Y005628D01*
X022318Y005786D02*
X014712Y005786D01*
X014418Y005786D02*
X013855Y005786D01*
X013855Y005791D02*
X013811Y005898D01*
X013730Y005979D01*
X013623Y006023D01*
X013508Y006023D01*
X013401Y005979D01*
X013319Y005898D01*
X013315Y005888D01*
X013311Y005898D01*
X013230Y005979D01*
X013123Y006023D01*
X013008Y006023D01*
X012901Y005979D01*
X012819Y005898D01*
X012775Y005791D01*
X012775Y005676D01*
X012819Y005569D01*
X012901Y005487D01*
X013008Y005443D01*
X013123Y005443D01*
X013230Y005487D01*
X013311Y005569D01*
X013315Y005579D01*
X013319Y005569D01*
X013401Y005487D01*
X013508Y005443D01*
X013623Y005443D01*
X013730Y005487D01*
X013811Y005569D01*
X013855Y005676D01*
X013855Y005791D01*
X013836Y005628D02*
X014291Y005628D01*
X014278Y005469D02*
X013686Y005469D01*
X013445Y005469D02*
X013186Y005469D01*
X012945Y005469D02*
X008086Y005469D01*
X008130Y005487D02*
X008211Y005569D01*
X008255Y005676D01*
X008255Y005791D01*
X008211Y005898D01*
X008130Y005979D01*
X008023Y006023D01*
X007908Y006023D01*
X007801Y005979D01*
X007719Y005898D01*
X007675Y005791D01*
X007675Y005676D01*
X007719Y005569D01*
X007801Y005487D01*
X007908Y005443D01*
X008023Y005443D01*
X008130Y005487D01*
X008236Y005628D02*
X010361Y005628D01*
X010401Y005587D02*
X010508Y005543D01*
X010623Y005543D01*
X010730Y005587D01*
X010811Y005669D01*
X010855Y005776D01*
X010855Y005891D01*
X010811Y005998D01*
X010730Y006079D01*
X010623Y006123D01*
X010508Y006123D01*
X010401Y006079D01*
X010319Y005998D01*
X010275Y005891D01*
X010275Y005776D01*
X010319Y005669D01*
X010401Y005587D01*
X010275Y005786D02*
X008255Y005786D01*
X008164Y005945D02*
X010298Y005945D01*
X010459Y006103D02*
X007425Y006103D01*
X007439Y006138D02*
X007369Y005969D01*
X007240Y005839D01*
X007071Y005769D01*
X006888Y005769D01*
X006719Y005839D01*
X006590Y005969D01*
X006519Y006138D01*
X006519Y006321D01*
X006590Y006490D01*
X006719Y006619D01*
X006888Y006689D01*
X007071Y006689D01*
X007240Y006619D01*
X007369Y006490D01*
X007439Y006321D01*
X007439Y006138D01*
X007439Y006262D02*
X015363Y006262D01*
X015408Y006243D02*
X015301Y006287D01*
X015219Y006369D01*
X015175Y006476D01*
X015175Y006591D01*
X015219Y006698D01*
X015301Y006779D01*
X015408Y006823D01*
X015523Y006823D01*
X015630Y006779D01*
X015711Y006698D01*
X015755Y006591D01*
X015755Y006476D01*
X015711Y006369D01*
X015630Y006287D01*
X015523Y006243D01*
X015408Y006243D01*
X015568Y006262D02*
X022585Y006262D01*
X022585Y006420D02*
X018862Y006420D01*
X018830Y006387D02*
X018911Y006469D01*
X018955Y006576D01*
X018955Y006691D01*
X018911Y006798D01*
X018830Y006879D01*
X018723Y006923D01*
X018608Y006923D01*
X018501Y006879D01*
X018419Y006798D01*
X018375Y006691D01*
X018375Y006576D01*
X018419Y006469D01*
X018501Y006387D01*
X018608Y006343D01*
X018723Y006343D01*
X018830Y006387D01*
X018955Y006579D02*
X022585Y006579D01*
X022585Y006737D02*
X018936Y006737D01*
X018789Y006896D02*
X022585Y006896D01*
X022585Y007054D02*
X017246Y007054D01*
X017246Y007213D02*
X022585Y007213D01*
X022585Y007371D02*
X017600Y007371D01*
X017759Y007530D02*
X022585Y007530D01*
X022585Y007688D02*
X019717Y007688D01*
X019876Y007847D02*
X022585Y007847D01*
X022585Y008005D02*
X020147Y008005D01*
X020250Y008164D02*
X022585Y008164D01*
X022585Y008322D02*
X020242Y008322D01*
X020126Y008481D02*
X022585Y008481D01*
X022585Y008639D02*
X021581Y008639D01*
X021611Y008669D02*
X021530Y008587D01*
X021423Y008543D01*
X021308Y008543D01*
X021201Y008587D01*
X021119Y008669D01*
X021075Y008776D01*
X021075Y008891D01*
X021119Y008998D01*
X021201Y009079D01*
X021308Y009123D01*
X021423Y009123D01*
X021530Y009079D01*
X021611Y008998D01*
X021655Y008891D01*
X021655Y008776D01*
X021611Y008669D01*
X021655Y008798D02*
X022585Y008798D01*
X022585Y008956D02*
X021628Y008956D01*
X021444Y009115D02*
X022585Y009115D01*
X022585Y009273D02*
X018913Y009273D01*
X018911Y009269D02*
X018955Y009376D01*
X018955Y009491D01*
X018911Y009598D01*
X018885Y009623D01*
X019475Y009623D01*
X019475Y009576D01*
X019519Y009469D01*
X019601Y009387D01*
X019708Y009343D01*
X019823Y009343D01*
X019930Y009387D01*
X020011Y009469D01*
X020055Y009576D01*
X020055Y009691D01*
X020011Y009798D01*
X019930Y009879D01*
X019823Y009923D01*
X019772Y009923D01*
X019652Y010043D01*
X017752Y010043D01*
X017252Y010543D01*
X014855Y010543D01*
X014855Y010591D01*
X014811Y010698D01*
X014730Y010779D01*
X014623Y010823D01*
X014508Y010823D01*
X014401Y010779D01*
X014319Y010698D01*
X014275Y010591D01*
X014275Y010476D01*
X014319Y010369D01*
X014401Y010287D01*
X014508Y010243D01*
X014558Y010243D01*
X014678Y010123D01*
X017078Y010123D01*
X017455Y009746D01*
X017578Y009623D01*
X018445Y009623D01*
X018419Y009598D01*
X018375Y009491D01*
X018375Y009376D01*
X018419Y009269D01*
X018501Y009187D01*
X018608Y009143D01*
X018723Y009143D01*
X018830Y009187D01*
X018911Y009269D01*
X018955Y009432D02*
X019557Y009432D01*
X019475Y009590D02*
X018914Y009590D01*
X018416Y009590D02*
X012132Y009590D01*
X012130Y009587D02*
X012211Y009669D01*
X012255Y009776D01*
X012255Y009891D01*
X012211Y009998D01*
X012130Y010079D01*
X012023Y010123D01*
X011908Y010123D01*
X011801Y010079D01*
X011719Y009998D01*
X011675Y009891D01*
X011675Y009776D01*
X011719Y009669D01*
X011801Y009587D01*
X011908Y009543D01*
X012023Y009543D01*
X012130Y009587D01*
X012244Y009749D02*
X017453Y009749D01*
X017294Y009907D02*
X012249Y009907D01*
X012143Y010066D02*
X017136Y010066D01*
X017413Y010383D02*
X022585Y010383D01*
X022585Y010541D02*
X017254Y010541D01*
X017719Y010869D02*
X017801Y010787D01*
X017908Y010743D01*
X018023Y010743D01*
X018130Y010787D01*
X018211Y010869D01*
X018255Y010976D01*
X018255Y011091D01*
X018211Y011198D01*
X018130Y011279D01*
X018023Y011323D01*
X017908Y011323D01*
X017801Y011279D01*
X017719Y011198D01*
X017675Y011091D01*
X017675Y010976D01*
X017719Y010869D01*
X017730Y010858D02*
X012650Y010858D01*
X012630Y010879D02*
X012711Y010798D01*
X012755Y010691D01*
X012755Y010576D01*
X012711Y010469D01*
X012630Y010387D01*
X012523Y010343D01*
X012408Y010343D01*
X012301Y010387D01*
X012219Y010469D01*
X012175Y010576D01*
X012175Y010691D01*
X012219Y010798D01*
X012301Y010879D01*
X012408Y010923D01*
X012523Y010923D01*
X012630Y010879D01*
X012523Y011043D02*
X012630Y011087D01*
X012711Y011169D01*
X012755Y011276D01*
X012755Y011391D01*
X012711Y011498D01*
X012630Y011579D01*
X012523Y011623D01*
X012408Y011623D01*
X012301Y011579D01*
X012219Y011498D01*
X012175Y011391D01*
X012175Y011276D01*
X012219Y011169D01*
X012301Y011087D01*
X012408Y011043D01*
X012523Y011043D01*
X012714Y011175D02*
X014475Y011175D01*
X014475Y011176D02*
X014519Y011069D01*
X014601Y010987D01*
X014708Y010943D01*
X014823Y010943D01*
X014930Y010987D01*
X015011Y011069D01*
X015055Y011176D01*
X015055Y011291D01*
X015042Y011323D01*
X015352Y011323D01*
X015752Y011723D01*
X018778Y011723D01*
X018975Y011526D01*
X018975Y011476D01*
X019019Y011369D01*
X019101Y011287D01*
X019208Y011243D01*
X019323Y011243D01*
X019430Y011287D01*
X019511Y011369D01*
X019555Y011476D01*
X019555Y011591D01*
X019511Y011698D01*
X019430Y011779D01*
X019323Y011823D01*
X019272Y011823D01*
X018952Y012143D01*
X016085Y012143D01*
X016111Y012169D01*
X016155Y012276D01*
X016155Y012391D01*
X016111Y012498D01*
X016030Y012579D01*
X015923Y012623D01*
X015808Y012623D01*
X015701Y012579D01*
X015619Y012498D01*
X015575Y012391D01*
X015575Y012276D01*
X015619Y012169D01*
X015645Y012143D01*
X015578Y012143D01*
X015455Y012020D01*
X015178Y011743D01*
X014565Y011743D01*
X014530Y011779D01*
X014423Y011823D01*
X014308Y011823D01*
X014201Y011779D01*
X014119Y011698D01*
X014075Y011591D01*
X014075Y011476D01*
X014119Y011369D01*
X014201Y011287D01*
X014308Y011243D01*
X014423Y011243D01*
X014475Y011265D01*
X014475Y011176D01*
X014572Y011017D02*
X004645Y011017D01*
X004645Y011175D02*
X005501Y011175D01*
X005508Y011172D02*
X005607Y011137D01*
X005709Y011114D01*
X005785Y011105D01*
X005785Y011953D01*
X005945Y011953D01*
X005945Y011105D01*
X006022Y011114D01*
X006124Y011137D01*
X006222Y011172D01*
X006316Y011217D01*
X006405Y011273D01*
X006487Y011338D01*
X006561Y011412D01*
X006626Y011494D01*
X006682Y011582D01*
X006727Y011676D01*
X006762Y011775D01*
X006785Y011877D01*
X006793Y011953D01*
X005945Y011953D01*
X005945Y012113D01*
X006793Y012113D01*
X006785Y012190D01*
X006762Y012292D01*
X006727Y012390D01*
X006682Y012484D01*
X006626Y012573D01*
X006561Y012655D01*
X006487Y012729D01*
X006405Y012794D01*
X006316Y012850D01*
X006222Y012895D01*
X006124Y012930D01*
X006022Y012953D01*
X005945Y012961D01*
X005945Y012113D01*
X005785Y012113D01*
X005785Y011953D01*
X004937Y011953D01*
X004946Y011877D01*
X004969Y011775D01*
X005004Y011676D01*
X005049Y011582D01*
X005105Y011494D01*
X005170Y011412D01*
X005244Y011338D01*
X005326Y011273D01*
X005414Y011217D01*
X005508Y011172D01*
X005785Y011175D02*
X005945Y011175D01*
X005945Y011334D02*
X005785Y011334D01*
X005785Y011492D02*
X005945Y011492D01*
X005945Y011651D02*
X005785Y011651D01*
X005785Y011809D02*
X005945Y011809D01*
X005945Y011968D02*
X007485Y011968D01*
X007485Y011971D02*
X007485Y011953D01*
X007945Y011953D01*
X007945Y011913D01*
X007985Y011913D01*
X007985Y011453D01*
X008003Y011453D01*
X008078Y011465D01*
X008150Y011488D01*
X008217Y011523D01*
X008278Y011567D01*
X008331Y011621D01*
X008376Y011682D01*
X008410Y011749D01*
X008434Y011821D01*
X008445Y011896D01*
X008445Y011913D01*
X007985Y011913D01*
X007985Y011953D01*
X008445Y011953D01*
X008445Y011971D01*
X008434Y012046D01*
X008410Y012118D01*
X008376Y012185D01*
X008331Y012246D01*
X008278Y012299D01*
X008217Y012344D01*
X008150Y012378D01*
X008078Y012402D01*
X008003Y012413D01*
X007985Y012413D01*
X007985Y011953D01*
X007945Y011953D01*
X007945Y012413D01*
X007928Y012413D01*
X007853Y012402D01*
X007781Y012378D01*
X007714Y012344D01*
X007653Y012299D01*
X007599Y012246D01*
X007555Y012185D01*
X007520Y012118D01*
X007497Y012046D01*
X007485Y011971D01*
X007485Y011913D02*
X007485Y011896D01*
X007497Y011821D01*
X007520Y011749D01*
X007555Y011682D01*
X007599Y011621D01*
X007653Y011567D01*
X007714Y011523D01*
X007781Y011488D01*
X007853Y011465D01*
X007928Y011453D01*
X007945Y011453D01*
X007945Y011913D01*
X007485Y011913D01*
X007501Y011809D02*
X006769Y011809D01*
X006715Y011651D02*
X007577Y011651D01*
X007774Y011492D02*
X006625Y011492D01*
X006482Y011334D02*
X012175Y011334D01*
X012217Y011492D02*
X008157Y011492D01*
X007985Y011492D02*
X007945Y011492D01*
X007945Y011651D02*
X007985Y011651D01*
X007985Y011809D02*
X007945Y011809D01*
X007945Y011968D02*
X007985Y011968D01*
X007985Y012126D02*
X007945Y012126D01*
X007945Y012285D02*
X007985Y012285D01*
X008293Y012285D02*
X009557Y012285D01*
X009554Y012266D02*
X009564Y012331D01*
X009584Y012394D01*
X009614Y012452D01*
X009653Y012506D01*
X009699Y012552D01*
X009753Y012591D01*
X009811Y012621D01*
X009874Y012641D01*
X009939Y012651D01*
X009972Y012651D01*
X010005Y012651D01*
X010069Y012641D01*
X010132Y012621D01*
X010191Y012591D01*
X010244Y012552D01*
X010290Y012506D01*
X010329Y012452D01*
X010359Y012394D01*
X010375Y012345D01*
X010422Y012459D01*
X010534Y012571D01*
X010680Y012631D01*
X010838Y012631D01*
X010984Y012571D01*
X011096Y012459D01*
X011157Y012312D01*
X011157Y012154D01*
X011096Y012008D01*
X010984Y011896D01*
X010838Y011836D01*
X010680Y011836D01*
X010534Y011896D01*
X010422Y012008D01*
X010375Y012122D01*
X010359Y012073D01*
X010329Y012014D01*
X010290Y011961D01*
X010244Y011915D01*
X010191Y011876D01*
X010132Y011846D01*
X010069Y011826D01*
X010005Y011816D01*
X009972Y011816D01*
X009972Y012233D01*
X009972Y012233D01*
X009972Y011816D01*
X009939Y011816D01*
X009874Y011826D01*
X009811Y011846D01*
X009753Y011876D01*
X009699Y011915D01*
X009653Y011961D01*
X009614Y012014D01*
X009584Y012073D01*
X009564Y012135D01*
X009554Y012200D01*
X009554Y012233D01*
X009972Y012233D01*
X009972Y012233D01*
X009972Y012233D01*
X009972Y012651D01*
X009972Y012233D01*
X009554Y012233D01*
X009554Y012266D01*
X009567Y012126D02*
X008406Y012126D01*
X008445Y011968D02*
X009648Y011968D01*
X009972Y011968D02*
X009972Y011968D01*
X009972Y012126D02*
X009972Y012126D01*
X009972Y012285D02*
X009972Y012285D01*
X009972Y012443D02*
X009972Y012443D01*
X009972Y012602D02*
X009972Y012602D01*
X010169Y012602D02*
X010609Y012602D01*
X010415Y012443D02*
X010334Y012443D01*
X009775Y012602D02*
X008284Y012602D01*
X008392Y012760D02*
X017582Y012760D01*
X017601Y012779D02*
X017519Y012698D01*
X017475Y012591D01*
X017475Y012476D01*
X017519Y012369D01*
X017601Y012287D01*
X017708Y012243D01*
X017823Y012243D01*
X017930Y012287D01*
X018011Y012369D01*
X018055Y012476D01*
X018055Y012591D01*
X018011Y012698D01*
X017930Y012779D01*
X017823Y012823D01*
X017708Y012823D01*
X017601Y012779D01*
X017480Y012602D02*
X015975Y012602D01*
X015756Y012602D02*
X010909Y012602D01*
X011103Y012443D02*
X015597Y012443D01*
X015575Y012285D02*
X011157Y012285D01*
X011145Y012126D02*
X015561Y012126D01*
X015403Y011968D02*
X011056Y011968D01*
X010462Y011968D02*
X010295Y011968D01*
X009610Y012443D02*
X006701Y012443D01*
X006763Y012285D02*
X007638Y012285D01*
X007525Y012126D02*
X006792Y012126D01*
X005945Y012126D02*
X005785Y012126D01*
X005785Y012113D02*
X005785Y012961D01*
X005709Y012953D01*
X005607Y012930D01*
X005508Y012895D01*
X005414Y012850D01*
X005326Y012794D01*
X005244Y012729D01*
X005170Y012655D01*
X005105Y012573D01*
X005049Y012484D01*
X005004Y012390D01*
X004969Y012292D01*
X004946Y012190D01*
X004937Y012113D01*
X005785Y012113D01*
X005785Y011968D02*
X004645Y011968D01*
X004649Y012126D02*
X004939Y012126D01*
X004968Y012285D02*
X004673Y012285D01*
X004716Y012443D02*
X005029Y012443D01*
X005128Y012602D02*
X004784Y012602D01*
X004875Y012760D02*
X005283Y012760D01*
X005022Y012919D02*
X005577Y012919D01*
X005785Y012919D02*
X005945Y012919D01*
X005945Y012760D02*
X005785Y012760D01*
X005785Y012602D02*
X005945Y012602D01*
X005945Y012443D02*
X005785Y012443D01*
X005785Y012285D02*
X005945Y012285D01*
X006603Y012602D02*
X007646Y012602D01*
X007539Y012760D02*
X006447Y012760D01*
X006154Y012919D02*
X007505Y012919D01*
X007527Y013077D02*
X005232Y013077D01*
X005653Y013236D02*
X007617Y013236D01*
X008313Y013236D02*
X021578Y013236D01*
X021522Y012953D02*
X021445Y012961D01*
X021445Y012113D01*
X022293Y012113D01*
X022285Y012190D01*
X022262Y012292D01*
X022227Y012390D01*
X022182Y012484D01*
X022126Y012573D01*
X022061Y012655D01*
X021987Y012729D01*
X021905Y012794D01*
X021816Y012850D01*
X021722Y012895D01*
X021624Y012930D01*
X021522Y012953D01*
X021445Y012919D02*
X021285Y012919D01*
X021285Y012961D02*
X021209Y012953D01*
X021107Y012930D01*
X021008Y012895D01*
X020914Y012850D01*
X020826Y012794D01*
X020744Y012729D01*
X020670Y012655D01*
X020605Y012573D01*
X020549Y012484D01*
X020504Y012390D01*
X020469Y012292D01*
X020446Y012190D01*
X020437Y012113D01*
X021285Y012113D01*
X021285Y011953D01*
X021445Y011953D01*
X021445Y011105D01*
X021522Y011114D01*
X021624Y011137D01*
X021722Y011172D01*
X021816Y011217D01*
X021905Y011273D01*
X021987Y011338D01*
X022061Y011412D01*
X022126Y011494D01*
X022182Y011582D01*
X022227Y011676D01*
X022262Y011775D01*
X022285Y011877D01*
X022293Y011953D01*
X021445Y011953D01*
X021445Y012113D01*
X021285Y012113D01*
X021285Y012961D01*
X021285Y012760D02*
X021445Y012760D01*
X021445Y012602D02*
X021285Y012602D01*
X021285Y012443D02*
X021445Y012443D01*
X021445Y012285D02*
X021285Y012285D01*
X021285Y012126D02*
X021445Y012126D01*
X021445Y011968D02*
X022585Y011968D01*
X022581Y012126D02*
X022292Y012126D01*
X022263Y012285D02*
X022557Y012285D01*
X022515Y012443D02*
X022201Y012443D01*
X022103Y012602D02*
X022447Y012602D01*
X022355Y012760D02*
X021947Y012760D01*
X022208Y012919D02*
X021654Y012919D01*
X021999Y013077D02*
X008404Y013077D01*
X008425Y012919D02*
X021077Y012919D01*
X020783Y012760D02*
X017948Y012760D01*
X018051Y012602D02*
X020628Y012602D01*
X020529Y012443D02*
X018042Y012443D01*
X017923Y012285D02*
X020468Y012285D01*
X020439Y012126D02*
X018969Y012126D01*
X019128Y011968D02*
X021285Y011968D01*
X021285Y011953D02*
X020437Y011953D01*
X020446Y011877D01*
X020469Y011775D01*
X020504Y011676D01*
X020549Y011582D01*
X020605Y011494D01*
X020670Y011412D01*
X020744Y011338D01*
X020826Y011273D01*
X020914Y011217D01*
X021008Y011172D01*
X021107Y011137D01*
X021209Y011114D01*
X021285Y011105D01*
X021285Y011953D01*
X021285Y011809D02*
X021445Y011809D01*
X021445Y011651D02*
X021285Y011651D01*
X021285Y011492D02*
X021445Y011492D01*
X021445Y011334D02*
X021285Y011334D01*
X021285Y011175D02*
X021445Y011175D01*
X021730Y011175D02*
X022585Y011175D01*
X022585Y011017D02*
X018255Y011017D01*
X018220Y011175D02*
X021001Y011175D01*
X020749Y011334D02*
X019476Y011334D01*
X019555Y011492D02*
X020606Y011492D01*
X020516Y011651D02*
X019531Y011651D01*
X019357Y011809D02*
X020461Y011809D01*
X019055Y011334D02*
X015363Y011334D01*
X015521Y011492D02*
X018975Y011492D01*
X018851Y011651D02*
X015680Y011651D01*
X015244Y011809D02*
X014457Y011809D01*
X014274Y011809D02*
X008430Y011809D01*
X008353Y011651D02*
X014100Y011651D01*
X014075Y011492D02*
X012713Y011492D01*
X012755Y011334D02*
X014155Y011334D01*
X014959Y011017D02*
X017675Y011017D01*
X017710Y011175D02*
X015055Y011175D01*
X014809Y010700D02*
X022585Y010700D01*
X022585Y010858D02*
X018200Y010858D01*
X017571Y010224D02*
X022585Y010224D01*
X022585Y010066D02*
X017730Y010066D01*
X017623Y009423D02*
X017508Y009423D01*
X017401Y009379D01*
X017319Y009298D01*
X017275Y009191D01*
X017275Y009076D01*
X017319Y008969D01*
X017401Y008887D01*
X017508Y008843D01*
X017623Y008843D01*
X017730Y008887D01*
X017811Y008969D01*
X017855Y009076D01*
X017855Y009191D01*
X017811Y009298D01*
X017730Y009379D01*
X017623Y009423D01*
X017821Y009273D02*
X018418Y009273D01*
X018375Y009432D02*
X011964Y009432D01*
X011975Y009420D02*
X011852Y009543D01*
X011485Y009543D01*
X011511Y009569D01*
X011555Y009676D01*
X011555Y009791D01*
X011511Y009898D01*
X011430Y009979D01*
X011323Y010023D01*
X011208Y010023D01*
X011101Y009979D01*
X011019Y009898D01*
X010975Y009791D01*
X010975Y009676D01*
X011019Y009569D01*
X011045Y009543D01*
X009352Y009543D01*
X008975Y009920D01*
X008975Y010333D01*
X009011Y010369D01*
X009055Y010476D01*
X009055Y010591D01*
X009011Y010698D01*
X008930Y010779D01*
X008823Y010823D01*
X008708Y010823D01*
X008601Y010779D01*
X008519Y010698D01*
X008475Y010591D01*
X008475Y010476D01*
X008519Y010369D01*
X008555Y010333D01*
X008555Y009746D01*
X008678Y009623D01*
X009178Y009123D01*
X011678Y009123D01*
X012175Y008626D01*
X012175Y008576D01*
X012219Y008469D01*
X012301Y008387D01*
X012408Y008343D01*
X012523Y008343D01*
X012630Y008387D01*
X012711Y008469D01*
X012755Y008576D01*
X012755Y008691D01*
X012711Y008798D01*
X015908Y008798D01*
X015919Y008769D02*
X016001Y008687D01*
X016108Y008643D01*
X016223Y008643D01*
X016330Y008687D01*
X016411Y008769D01*
X016455Y008876D01*
X016455Y008991D01*
X016411Y009098D01*
X016330Y009179D01*
X016223Y009223D01*
X016108Y009223D01*
X016001Y009179D01*
X015919Y009098D01*
X015875Y008991D01*
X015875Y008876D01*
X015919Y008769D01*
X016008Y008623D02*
X015901Y008579D01*
X015819Y008498D01*
X015775Y008391D01*
X015775Y008276D01*
X015819Y008169D01*
X015901Y008087D01*
X016008Y008043D01*
X016123Y008043D01*
X016230Y008087D01*
X016311Y008169D01*
X016355Y008276D01*
X016355Y008391D01*
X016311Y008498D01*
X016230Y008579D01*
X016123Y008623D01*
X016008Y008623D01*
X015813Y008481D02*
X012716Y008481D01*
X012755Y008639D02*
X021149Y008639D01*
X021075Y008798D02*
X017023Y008798D01*
X017011Y008769D02*
X017055Y008876D01*
X017055Y008991D01*
X017011Y009098D01*
X016930Y009179D01*
X016823Y009223D01*
X016708Y009223D01*
X016601Y009179D01*
X016519Y009098D01*
X016475Y008991D01*
X016475Y008876D01*
X016519Y008769D01*
X016601Y008687D01*
X016708Y008643D01*
X016823Y008643D01*
X016930Y008687D01*
X017011Y008769D01*
X017055Y008956D02*
X017332Y008956D01*
X017275Y009115D02*
X016994Y009115D01*
X017309Y009273D02*
X014221Y009273D01*
X014211Y009298D02*
X014130Y009379D01*
X014023Y009423D01*
X013908Y009423D01*
X013801Y009379D01*
X013719Y009298D01*
X013675Y009191D01*
X013675Y009076D01*
X013719Y008969D01*
X013801Y008887D01*
X013908Y008843D01*
X014023Y008843D01*
X014130Y008887D01*
X014211Y008969D01*
X014255Y009076D01*
X014255Y009191D01*
X014211Y009298D01*
X014255Y009115D02*
X015937Y009115D01*
X015875Y008956D02*
X014198Y008956D01*
X013732Y008956D02*
X012998Y008956D01*
X013011Y008969D02*
X013055Y009076D01*
X013055Y009191D01*
X013011Y009298D01*
X012930Y009379D01*
X012823Y009423D01*
X012708Y009423D01*
X012601Y009379D01*
X012519Y009298D01*
X012475Y009191D01*
X012475Y009076D01*
X012519Y008969D01*
X012595Y008893D01*
X012523Y008923D01*
X012472Y008923D01*
X011975Y009420D01*
X012122Y009273D02*
X012509Y009273D01*
X012475Y009115D02*
X012281Y009115D01*
X012439Y008956D02*
X012532Y008956D01*
X012636Y008873D02*
X012708Y008843D01*
X012823Y008843D01*
X012930Y008887D01*
X013011Y008969D01*
X013055Y009115D02*
X013675Y009115D01*
X013709Y009273D02*
X013021Y009273D01*
X012636Y008873D02*
X012711Y008798D01*
X012162Y008639D02*
X010535Y008639D01*
X010555Y008591D02*
X010511Y008698D01*
X010430Y008779D01*
X010323Y008823D01*
X010208Y008823D01*
X010101Y008779D01*
X010019Y008698D01*
X009975Y008591D01*
X009975Y008476D01*
X010019Y008369D01*
X010101Y008287D01*
X010208Y008243D01*
X010323Y008243D01*
X010430Y008287D01*
X010511Y008369D01*
X010555Y008476D01*
X010555Y008591D01*
X010555Y008481D02*
X012215Y008481D01*
X012004Y008798D02*
X010385Y008798D01*
X010146Y008798D02*
X007685Y008798D01*
X007832Y008956D02*
X004645Y008956D01*
X004645Y008798D02*
X007446Y008798D01*
X007295Y008639D02*
X004645Y008639D01*
X004645Y008481D02*
X007275Y008481D01*
X007773Y008322D02*
X009275Y008322D01*
X009275Y008276D02*
X009319Y008169D01*
X009401Y008087D01*
X009508Y008043D01*
X009623Y008043D01*
X009730Y008087D01*
X009811Y008169D01*
X009855Y008276D01*
X009855Y008391D01*
X009811Y008498D01*
X009730Y008579D01*
X009623Y008623D01*
X009508Y008623D01*
X009401Y008579D01*
X009319Y008498D01*
X009275Y008391D01*
X009275Y008276D01*
X009325Y008164D02*
X007932Y008164D01*
X007655Y007847D02*
X005894Y007847D01*
X005885Y007688D02*
X005735Y007688D01*
X005629Y007530D02*
X005577Y007530D01*
X005141Y007688D02*
X005074Y007688D01*
X004885Y007688D02*
X004645Y007688D01*
X004645Y007847D02*
X005300Y007847D01*
X005458Y008005D02*
X004645Y008005D01*
X004645Y008164D02*
X005617Y008164D01*
X005775Y008322D02*
X004645Y008322D01*
X006074Y007688D02*
X006885Y007688D01*
X006888Y007689D02*
X006719Y007619D01*
X006590Y007490D01*
X006519Y007321D01*
X006519Y007138D01*
X006590Y006969D01*
X006719Y006839D01*
X006888Y006769D01*
X007071Y006769D01*
X007240Y006839D01*
X007369Y006969D01*
X007439Y007138D01*
X007439Y007321D01*
X007369Y007490D01*
X007240Y007619D01*
X007071Y007689D01*
X006888Y007689D01*
X007074Y007688D02*
X007813Y007688D01*
X007330Y007530D02*
X010559Y007530D01*
X010708Y007023D02*
X010601Y006979D01*
X010519Y006898D01*
X010475Y006791D01*
X010475Y006676D01*
X010519Y006569D01*
X010601Y006487D01*
X010708Y006443D01*
X010823Y006443D01*
X010930Y006487D01*
X011011Y006569D01*
X011055Y006676D01*
X011055Y006791D01*
X011011Y006898D01*
X010930Y006979D01*
X010823Y007023D01*
X010708Y007023D01*
X010519Y006896D02*
X007296Y006896D01*
X007405Y007054D02*
X014075Y007054D01*
X014108Y006896D02*
X011012Y006896D01*
X011055Y006737D02*
X015259Y006737D01*
X015175Y006579D02*
X011015Y006579D01*
X010515Y006579D02*
X007281Y006579D01*
X007398Y006420D02*
X015198Y006420D01*
X015732Y006420D02*
X018468Y006420D01*
X018375Y006579D02*
X015755Y006579D01*
X015671Y006737D02*
X018395Y006737D01*
X018541Y006896D02*
X017138Y006896D01*
X016793Y006896D02*
X014622Y006896D01*
X014655Y007054D02*
X016684Y007054D01*
X016684Y007213D02*
X014596Y007213D01*
X013901Y007213D02*
X007439Y007213D01*
X007419Y007371D02*
X013875Y007371D01*
X011932Y008164D02*
X015825Y008164D01*
X015775Y008322D02*
X010464Y008322D01*
X010399Y008164D02*
X009806Y008164D01*
X009855Y008322D02*
X010066Y008322D01*
X009975Y008481D02*
X009818Y008481D01*
X009995Y008639D02*
X007835Y008639D01*
X007855Y008481D02*
X009313Y008481D01*
X008311Y008969D02*
X008355Y009076D01*
X008355Y009191D01*
X008311Y009298D01*
X008230Y009379D01*
X008123Y009423D01*
X008008Y009423D01*
X007901Y009379D01*
X007819Y009298D01*
X007775Y009191D01*
X007775Y009076D01*
X007819Y008969D01*
X007901Y008887D01*
X008008Y008843D01*
X008123Y008843D01*
X008230Y008887D01*
X008311Y008969D01*
X008298Y008956D02*
X011845Y008956D01*
X011687Y009115D02*
X008355Y009115D01*
X008321Y009273D02*
X009028Y009273D01*
X008870Y009432D02*
X007837Y009432D01*
X007855Y009476D02*
X007811Y009369D01*
X007730Y009287D01*
X007623Y009243D01*
X007508Y009243D01*
X007401Y009287D01*
X007319Y009369D01*
X007275Y009476D01*
X007275Y009591D01*
X007319Y009698D01*
X007401Y009779D01*
X007508Y009823D01*
X007623Y009823D01*
X007730Y009779D01*
X007811Y009698D01*
X007855Y009591D01*
X007855Y009476D01*
X007855Y009590D02*
X008711Y009590D01*
X008555Y009749D02*
X007760Y009749D01*
X007623Y009943D02*
X007730Y009987D01*
X007811Y010069D01*
X007855Y010176D01*
X007855Y010291D01*
X007811Y010398D01*
X007730Y010479D01*
X007623Y010523D01*
X007508Y010523D01*
X007401Y010479D01*
X007319Y010398D01*
X007275Y010291D01*
X007275Y010176D01*
X007319Y010069D01*
X007401Y009987D01*
X007508Y009943D01*
X007623Y009943D01*
X007808Y010066D02*
X008555Y010066D01*
X008555Y010224D02*
X007855Y010224D01*
X007817Y010383D02*
X008514Y010383D01*
X008475Y010541D02*
X004645Y010541D01*
X004645Y010383D02*
X007313Y010383D01*
X007275Y010224D02*
X004645Y010224D01*
X004645Y010066D02*
X007323Y010066D01*
X007371Y009749D02*
X004645Y009749D01*
X004645Y009907D02*
X008555Y009907D01*
X008988Y009907D02*
X011029Y009907D01*
X010975Y009749D02*
X009147Y009749D01*
X009305Y009590D02*
X011011Y009590D01*
X011520Y009590D02*
X011798Y009590D01*
X011686Y009749D02*
X011555Y009749D01*
X011501Y009907D02*
X011682Y009907D01*
X011788Y010066D02*
X008975Y010066D01*
X008975Y010224D02*
X014577Y010224D01*
X014314Y010383D02*
X012618Y010383D01*
X012741Y010541D02*
X014275Y010541D01*
X014322Y010700D02*
X012752Y010700D01*
X012280Y010858D02*
X004645Y010858D01*
X004645Y010700D02*
X008522Y010700D01*
X009009Y010700D02*
X012179Y010700D01*
X012190Y010541D02*
X009055Y010541D01*
X009017Y010383D02*
X012312Y010383D01*
X012217Y011175D02*
X006230Y011175D01*
X005249Y011334D02*
X004645Y011334D01*
X004645Y011492D02*
X005106Y011492D01*
X005016Y011651D02*
X004645Y011651D01*
X004645Y011809D02*
X004961Y011809D01*
X004645Y009590D02*
X007275Y009590D01*
X007293Y009432D02*
X004645Y009432D01*
X004645Y009273D02*
X007435Y009273D01*
X007695Y009273D02*
X007809Y009273D01*
X007775Y009115D02*
X004645Y009115D01*
X006330Y007530D02*
X006629Y007530D01*
X006540Y007371D02*
X006419Y007371D01*
X006439Y007213D02*
X006519Y007213D01*
X006554Y007054D02*
X006405Y007054D01*
X006296Y006896D02*
X006663Y006896D01*
X006240Y006619D02*
X006071Y006689D01*
X005888Y006689D01*
X005719Y006619D01*
X005590Y006490D01*
X005519Y006321D01*
X005519Y006138D01*
X005590Y005969D01*
X005719Y005839D01*
X005888Y005769D01*
X006071Y005769D01*
X006240Y005839D01*
X006369Y005969D01*
X006439Y006138D01*
X006439Y006321D01*
X006369Y006490D01*
X006240Y006619D01*
X006281Y006579D02*
X006678Y006579D01*
X006561Y006420D02*
X006398Y006420D01*
X006439Y006262D02*
X006519Y006262D01*
X006534Y006103D02*
X006425Y006103D01*
X006345Y005945D02*
X006614Y005945D01*
X006847Y005786D02*
X006112Y005786D01*
X005847Y005786D02*
X005167Y005786D01*
X004999Y005786D02*
X004959Y005786D01*
X004959Y005945D02*
X004999Y005945D01*
X004999Y006103D02*
X004959Y006103D01*
X004959Y006262D02*
X004999Y006262D01*
X004999Y006420D02*
X004959Y006420D01*
X004959Y006579D02*
X004999Y006579D01*
X005309Y006579D02*
X005678Y006579D01*
X005561Y006420D02*
X005421Y006420D01*
X005459Y006262D02*
X005519Y006262D01*
X005534Y006103D02*
X005443Y006103D01*
X005366Y005945D02*
X005614Y005945D01*
X004792Y005786D02*
X004645Y005786D01*
X004645Y005628D02*
X007695Y005628D01*
X007675Y005786D02*
X007112Y005786D01*
X007345Y005945D02*
X007767Y005945D01*
X007845Y005469D02*
X004645Y005469D01*
X004645Y005311D02*
X014378Y005311D01*
X014753Y005311D02*
X022278Y005311D01*
X022585Y005945D02*
X013764Y005945D01*
X013367Y005945D02*
X013264Y005945D01*
X012867Y005945D02*
X010833Y005945D01*
X010855Y005786D02*
X012775Y005786D01*
X012795Y005628D02*
X010770Y005628D01*
X010671Y006103D02*
X022585Y006103D01*
X017640Y008005D02*
X017003Y008005D01*
X017055Y007847D02*
X017482Y007847D01*
X017555Y007920D02*
X017555Y007920D01*
X017323Y007688D02*
X017019Y007688D01*
X016306Y008164D02*
X019080Y008164D01*
X019088Y008322D02*
X016355Y008322D01*
X016318Y008481D02*
X019205Y008481D01*
X019526Y008481D02*
X019805Y008481D01*
X019688Y008322D02*
X019642Y008322D01*
X021102Y008956D02*
X017798Y008956D01*
X017855Y009115D02*
X021287Y009115D01*
X020055Y009590D02*
X022585Y009590D01*
X022585Y009432D02*
X019974Y009432D01*
X020031Y009749D02*
X022585Y009749D01*
X022585Y009907D02*
X019862Y009907D01*
X016537Y009115D02*
X016394Y009115D01*
X016455Y008956D02*
X016475Y008956D01*
X016508Y008798D02*
X016423Y008798D01*
X010475Y006737D02*
X004645Y006737D01*
X004645Y006579D02*
X004650Y006579D01*
X004645Y006896D02*
X004663Y006896D01*
X005296Y006896D02*
X005663Y006896D01*
X005554Y007054D02*
X005405Y007054D01*
X005420Y005152D02*
X004645Y005152D01*
X004645Y004994D02*
X005209Y004994D01*
X005081Y004835D02*
X004645Y004835D01*
X004645Y004677D02*
X004999Y004677D01*
X004952Y004518D02*
X004645Y004518D01*
X011045Y003726D02*
X011085Y003726D01*
X011085Y003567D02*
X011045Y003567D01*
X011446Y003726D02*
X011685Y003726D01*
X011604Y003567D02*
X011526Y003567D01*
X011545Y003409D02*
X011585Y003409D01*
X011620Y003250D02*
X011511Y003250D01*
X012045Y003567D02*
X012085Y003567D01*
X012085Y003726D02*
X012045Y003726D01*
X012446Y003726D02*
X012707Y003726D01*
X012623Y003567D02*
X012526Y003567D01*
X012545Y003409D02*
X012605Y003409D01*
X012643Y003250D02*
X012511Y003250D01*
X013487Y003250D02*
X013643Y003250D01*
X013605Y003409D02*
X013525Y003409D01*
X013508Y003567D02*
X013623Y003567D01*
X013707Y003726D02*
X013423Y003726D01*
X014423Y003726D02*
X014707Y003726D01*
X014623Y003567D02*
X014508Y003567D01*
X014525Y003409D02*
X014605Y003409D01*
X014643Y003250D02*
X014487Y003250D01*
X015487Y003250D02*
X015643Y003250D01*
X015605Y003409D02*
X015525Y003409D01*
X015508Y003567D02*
X015623Y003567D01*
X015707Y003726D02*
X015423Y003726D01*
X016423Y003726D02*
X020659Y003726D01*
X020834Y003567D02*
X016508Y003567D01*
X016525Y003409D02*
X021254Y003409D01*
X021285Y003409D02*
X021445Y003409D01*
X021477Y003409D02*
X022169Y003409D01*
X022328Y003567D02*
X021896Y003567D01*
X022072Y003726D02*
X022424Y003726D01*
X022504Y003884D02*
X022183Y003884D01*
X022250Y004043D02*
X022547Y004043D01*
X022579Y004201D02*
X022288Y004201D01*
X021445Y004201D02*
X021285Y004201D01*
X021285Y004043D02*
X021445Y004043D01*
X021445Y003884D02*
X021285Y003884D01*
X021285Y003726D02*
X021445Y003726D01*
X021445Y003567D02*
X021285Y003567D01*
X021931Y003250D02*
X016487Y003250D01*
X021982Y011334D02*
X022585Y011334D01*
X022585Y011492D02*
X022125Y011492D01*
X022215Y011651D02*
X022585Y011651D01*
X022585Y011809D02*
X022269Y011809D01*
X017607Y012285D02*
X016155Y012285D01*
X016134Y012443D02*
X017489Y012443D01*
D15*
X017765Y012533D03*
X016865Y013133D03*
X015865Y012333D03*
X014365Y011533D03*
X014765Y011233D03*
X014965Y010733D03*
X014565Y010533D03*
X013865Y010533D03*
X012465Y010633D03*
X011565Y010933D03*
X012465Y011333D03*
X008765Y010533D03*
X007565Y010233D03*
X007565Y009533D03*
X008065Y009133D03*
X007565Y008533D03*
X009565Y008333D03*
X010265Y008533D03*
X010765Y007733D03*
X012465Y008633D03*
X012765Y009133D03*
X013965Y009133D03*
X011965Y009833D03*
X011265Y009733D03*
X016165Y008933D03*
X016765Y008933D03*
X017565Y009133D03*
X018665Y009433D03*
X019765Y009633D03*
X021365Y008833D03*
X019965Y008233D03*
X019365Y008233D03*
X021665Y007833D03*
X018665Y006633D03*
X016965Y007133D03*
X016765Y007833D03*
X016065Y008333D03*
X014165Y007333D03*
X013365Y007133D03*
X014365Y007033D03*
X015465Y006533D03*
X014065Y005733D03*
X013565Y005733D03*
X013065Y005733D03*
X012165Y006033D03*
X010565Y005833D03*
X010765Y006733D03*
X009465Y006733D03*
X007965Y005733D03*
X010865Y004533D03*
X009365Y003433D03*
X014565Y005533D03*
X015465Y005433D03*
X019365Y005033D03*
X021265Y006233D03*
X022465Y005533D03*
X017765Y010333D03*
X017965Y011033D03*
X019265Y011533D03*
X014065Y013133D03*
D16*
X015265Y011533D02*
X015665Y011933D01*
X018865Y011933D01*
X019265Y011533D01*
X017665Y009833D02*
X017165Y010333D01*
X014765Y010333D01*
X014565Y010533D01*
X014365Y011533D02*
X015265Y011533D01*
X017665Y009833D02*
X019565Y009833D01*
X019765Y009633D01*
X019965Y008233D02*
X019565Y007833D01*
X017765Y007833D01*
X017365Y007433D01*
X014665Y007433D01*
X014465Y007633D01*
X010865Y007633D01*
X010765Y007733D01*
X010565Y008033D02*
X011765Y008033D01*
X011965Y007833D01*
X016765Y007833D01*
X012465Y008633D02*
X011765Y009333D01*
X009265Y009333D01*
X008765Y009833D01*
X008765Y010533D01*
X007665Y008133D02*
X005883Y008133D01*
X004979Y007229D01*
X007665Y008133D02*
X007965Y007833D01*
X010365Y007833D01*
X010565Y008033D01*
M02*
