G75*
%MOIN*%
%OFA0B0*%
%FSLAX24Y24*%
%IPPOS*%
%LPD*%
%AMOC8*
5,1,8,0,0,1.08239X$1,22.5*
%
%ADD10C,0.0000*%
%ADD11C,0.0080*%
%ADD12C,0.0040*%
%ADD13R,0.0300X0.0180*%
%ADD14R,0.0180X0.0300*%
%ADD15C,0.0160*%
%ADD16C,0.0100*%
%ADD17C,0.0020*%
%ADD18C,0.0060*%
%ADD19R,0.0200X0.0200*%
D10*
X005835Y002933D02*
X021395Y002933D01*
X021467Y002935D01*
X021538Y002941D01*
X021609Y002950D01*
X021680Y002963D01*
X021750Y002980D01*
X021818Y003000D01*
X021886Y003024D01*
X021952Y003051D01*
X022017Y003082D01*
X022080Y003117D01*
X022141Y003154D01*
X022200Y003195D01*
X022257Y003238D01*
X022312Y003285D01*
X022364Y003334D01*
X022413Y003386D01*
X022460Y003441D01*
X022503Y003498D01*
X022544Y003557D01*
X022581Y003618D01*
X022616Y003681D01*
X022647Y003746D01*
X022674Y003812D01*
X022698Y003880D01*
X022718Y003948D01*
X022735Y004018D01*
X022748Y004089D01*
X022757Y004160D01*
X022763Y004231D01*
X022765Y004303D01*
X022765Y012063D01*
X022763Y012135D01*
X022757Y012206D01*
X022748Y012277D01*
X022735Y012348D01*
X022718Y012418D01*
X022698Y012486D01*
X022674Y012554D01*
X022647Y012620D01*
X022616Y012685D01*
X022581Y012748D01*
X022544Y012809D01*
X022503Y012868D01*
X022460Y012925D01*
X022413Y012980D01*
X022364Y013032D01*
X022312Y013081D01*
X022257Y013128D01*
X022200Y013171D01*
X022141Y013212D01*
X022080Y013249D01*
X022017Y013284D01*
X021952Y013315D01*
X021886Y013342D01*
X021818Y013366D01*
X021750Y013386D01*
X021680Y013403D01*
X021609Y013416D01*
X021538Y013425D01*
X021467Y013431D01*
X021395Y013433D01*
X005835Y013433D01*
X005763Y013431D01*
X005692Y013425D01*
X005621Y013416D01*
X005550Y013403D01*
X005480Y013386D01*
X005412Y013366D01*
X005344Y013342D01*
X005278Y013315D01*
X005213Y013284D01*
X005150Y013249D01*
X005089Y013212D01*
X005030Y013171D01*
X004973Y013128D01*
X004918Y013081D01*
X004866Y013032D01*
X004817Y012980D01*
X004770Y012925D01*
X004727Y012868D01*
X004686Y012809D01*
X004649Y012748D01*
X004614Y012685D01*
X004583Y012620D01*
X004556Y012554D01*
X004532Y012486D01*
X004512Y012418D01*
X004495Y012348D01*
X004482Y012277D01*
X004473Y012206D01*
X004467Y012135D01*
X004465Y012063D01*
X004465Y004303D01*
X004467Y004231D01*
X004473Y004160D01*
X004482Y004089D01*
X004495Y004018D01*
X004512Y003948D01*
X004532Y003880D01*
X004556Y003812D01*
X004583Y003746D01*
X004614Y003681D01*
X004649Y003618D01*
X004686Y003557D01*
X004727Y003498D01*
X004770Y003441D01*
X004817Y003386D01*
X004866Y003334D01*
X004918Y003285D01*
X004973Y003238D01*
X005030Y003195D01*
X005089Y003154D01*
X005150Y003117D01*
X005213Y003082D01*
X005278Y003051D01*
X005344Y003024D01*
X005412Y003000D01*
X005480Y002980D01*
X005550Y002963D01*
X005621Y002950D01*
X005692Y002941D01*
X005763Y002935D01*
X005835Y002933D01*
D11*
X005274Y004333D02*
X005276Y004381D01*
X005282Y004429D01*
X005292Y004476D01*
X005305Y004522D01*
X005323Y004567D01*
X005343Y004611D01*
X005368Y004653D01*
X005396Y004692D01*
X005426Y004729D01*
X005460Y004763D01*
X005497Y004795D01*
X005535Y004824D01*
X005576Y004849D01*
X005619Y004871D01*
X005664Y004889D01*
X005710Y004903D01*
X005757Y004914D01*
X005805Y004921D01*
X005853Y004924D01*
X005901Y004923D01*
X005949Y004918D01*
X005997Y004909D01*
X006043Y004897D01*
X006088Y004880D01*
X006132Y004860D01*
X006174Y004837D01*
X006214Y004810D01*
X006252Y004780D01*
X006287Y004747D01*
X006319Y004711D01*
X006349Y004673D01*
X006375Y004632D01*
X006397Y004589D01*
X006417Y004545D01*
X006432Y004500D01*
X006444Y004453D01*
X006452Y004405D01*
X006456Y004357D01*
X006456Y004309D01*
X006452Y004261D01*
X006444Y004213D01*
X006432Y004166D01*
X006417Y004121D01*
X006397Y004077D01*
X006375Y004034D01*
X006349Y003993D01*
X006319Y003955D01*
X006287Y003919D01*
X006252Y003886D01*
X006214Y003856D01*
X006174Y003829D01*
X006132Y003806D01*
X006088Y003786D01*
X006043Y003769D01*
X005997Y003757D01*
X005949Y003748D01*
X005901Y003743D01*
X005853Y003742D01*
X005805Y003745D01*
X005757Y003752D01*
X005710Y003763D01*
X005664Y003777D01*
X005619Y003795D01*
X005576Y003817D01*
X005535Y003842D01*
X005497Y003871D01*
X005460Y003903D01*
X005426Y003937D01*
X005396Y003974D01*
X005368Y004013D01*
X005343Y004055D01*
X005323Y004099D01*
X005305Y004144D01*
X005292Y004190D01*
X005282Y004237D01*
X005276Y004285D01*
X005274Y004333D01*
X005229Y005729D02*
X004729Y005729D01*
X004479Y005979D01*
X004479Y007479D01*
X004729Y007729D01*
X005229Y007729D01*
X005479Y007479D01*
X005479Y005979D01*
X005229Y005729D01*
X005479Y005979D02*
X005729Y005729D01*
X006229Y005729D01*
X006479Y005979D01*
X006479Y007479D01*
X006229Y007729D01*
X005729Y007729D01*
X005479Y007479D01*
X005465Y007533D02*
X005465Y007633D01*
X005565Y007633D01*
X005765Y007833D01*
X006165Y007833D01*
X006365Y007633D01*
X006365Y007733D01*
X006265Y007833D01*
X006165Y007833D01*
X006205Y007783D02*
X005755Y007783D01*
X005765Y007833D02*
X005665Y007833D01*
X005465Y007633D01*
X005465Y007733D01*
X005665Y007933D01*
X006265Y007933D01*
X006365Y007833D01*
X006365Y007733D01*
X006395Y007723D02*
X006425Y007593D01*
X006465Y007533D02*
X006465Y007733D01*
X006435Y007763D01*
X006455Y007683D01*
X006395Y007723D02*
X006295Y007843D01*
X006265Y007883D02*
X005625Y007883D01*
X005665Y007863D02*
X006435Y007763D01*
X006365Y007833D01*
X006479Y007479D02*
X006729Y007729D01*
X007229Y007729D01*
X007479Y007479D01*
X007479Y005979D01*
X007229Y005729D01*
X006729Y005729D01*
X006479Y005979D01*
X008853Y007233D02*
X008877Y007233D01*
X010175Y007155D02*
X010175Y007312D01*
X010175Y007647D02*
X010175Y007804D01*
X010175Y008139D02*
X010175Y008218D01*
X011356Y008218D01*
X011356Y008139D01*
X010596Y008076D02*
X010598Y008084D01*
X010603Y008091D01*
X010610Y008095D01*
X010618Y008096D01*
X010626Y008093D01*
X010632Y008088D01*
X010636Y008080D01*
X010636Y008072D01*
X010632Y008064D01*
X010626Y008059D01*
X010618Y008056D01*
X010610Y008057D01*
X010603Y008061D01*
X010598Y008068D01*
X010596Y008076D01*
X011356Y007804D02*
X011356Y007647D01*
X011356Y007312D02*
X011356Y007155D01*
X011356Y006820D02*
X011356Y006662D01*
X011356Y006328D02*
X011356Y006249D01*
X010175Y006249D01*
X010175Y006328D01*
X010175Y006662D02*
X010175Y006820D01*
X005505Y007593D02*
X005505Y007643D01*
X005198Y008352D02*
X005198Y008533D01*
X005320Y008625D01*
X005198Y008714D02*
X005198Y008533D01*
X005204Y008523D02*
X005320Y008447D01*
X005198Y009152D02*
X005198Y009333D01*
X005320Y009425D01*
X005198Y009514D02*
X005198Y009333D01*
X005204Y009323D02*
X005320Y009247D01*
X005198Y009952D02*
X005198Y010133D01*
X005320Y010225D01*
X005198Y010314D02*
X005198Y010133D01*
X005204Y010123D02*
X005320Y010047D01*
X008791Y010362D02*
X009105Y010362D01*
X009105Y011346D01*
X009578Y011346D01*
X009578Y011603D02*
X009204Y011603D01*
X009204Y013396D01*
X011527Y013396D01*
X011527Y011603D01*
X011153Y011603D01*
X011153Y012233D01*
X011940Y011740D02*
X011940Y010362D01*
X011625Y010362D01*
X011625Y011346D01*
X011153Y011346D01*
X009578Y011603D02*
X009578Y012233D01*
X008791Y011740D02*
X008791Y010362D01*
X008215Y011433D02*
X007715Y011433D01*
X007465Y011683D01*
X007465Y012183D01*
X007715Y012433D01*
X007465Y012683D01*
X007465Y013183D01*
X007715Y013433D01*
X008215Y013433D01*
X008465Y013183D01*
X008465Y012683D01*
X008215Y012433D01*
X008465Y012183D01*
X008465Y011683D01*
X008215Y011433D01*
X007355Y011934D02*
X007075Y011934D01*
X005274Y012033D02*
X005276Y012081D01*
X005282Y012129D01*
X005292Y012176D01*
X005305Y012222D01*
X005323Y012267D01*
X005343Y012311D01*
X005368Y012353D01*
X005396Y012392D01*
X005426Y012429D01*
X005460Y012463D01*
X005497Y012495D01*
X005535Y012524D01*
X005576Y012549D01*
X005619Y012571D01*
X005664Y012589D01*
X005710Y012603D01*
X005757Y012614D01*
X005805Y012621D01*
X005853Y012624D01*
X005901Y012623D01*
X005949Y012618D01*
X005997Y012609D01*
X006043Y012597D01*
X006088Y012580D01*
X006132Y012560D01*
X006174Y012537D01*
X006214Y012510D01*
X006252Y012480D01*
X006287Y012447D01*
X006319Y012411D01*
X006349Y012373D01*
X006375Y012332D01*
X006397Y012289D01*
X006417Y012245D01*
X006432Y012200D01*
X006444Y012153D01*
X006452Y012105D01*
X006456Y012057D01*
X006456Y012009D01*
X006452Y011961D01*
X006444Y011913D01*
X006432Y011866D01*
X006417Y011821D01*
X006397Y011777D01*
X006375Y011734D01*
X006349Y011693D01*
X006319Y011655D01*
X006287Y011619D01*
X006252Y011586D01*
X006214Y011556D01*
X006174Y011529D01*
X006132Y011506D01*
X006088Y011486D01*
X006043Y011469D01*
X005997Y011457D01*
X005949Y011448D01*
X005901Y011443D01*
X005853Y011442D01*
X005805Y011445D01*
X005757Y011452D01*
X005710Y011463D01*
X005664Y011477D01*
X005619Y011495D01*
X005576Y011517D01*
X005535Y011542D01*
X005497Y011571D01*
X005460Y011603D01*
X005426Y011637D01*
X005396Y011674D01*
X005368Y011713D01*
X005343Y011755D01*
X005323Y011799D01*
X005305Y011844D01*
X005292Y011890D01*
X005282Y011937D01*
X005276Y011985D01*
X005274Y012033D01*
X007075Y013034D02*
X007355Y013034D01*
X007215Y013174D02*
X007215Y012893D01*
X009578Y013314D02*
X011153Y013314D01*
X010815Y013074D02*
X010815Y012793D01*
X010675Y012934D02*
X010955Y012934D01*
X010055Y012934D02*
X009775Y012934D01*
X012998Y013014D02*
X012998Y012833D01*
X013120Y012925D01*
X012998Y012833D02*
X012998Y012652D01*
X013120Y012747D02*
X013004Y012823D01*
X015678Y011921D02*
X015678Y011783D01*
X015678Y011921D02*
X015816Y011921D01*
X017115Y011921D02*
X017253Y011921D01*
X017253Y011783D01*
X018553Y010733D02*
X018577Y010733D01*
X017253Y010484D02*
X017115Y010346D01*
X015816Y010346D02*
X015678Y010346D01*
X015678Y010484D01*
X015174Y009542D02*
X015157Y009525D01*
X019253Y008733D02*
X019277Y008733D01*
X021276Y008516D02*
X021276Y006390D01*
X021265Y006421D02*
X021265Y006445D01*
X021276Y006390D02*
X021274Y006369D01*
X021276Y006348D01*
X021282Y006328D01*
X021291Y006309D01*
X021303Y006292D01*
X021318Y006277D01*
X021335Y006266D01*
X021354Y006257D01*
X021374Y006252D01*
X021375Y006252D02*
X021532Y006252D01*
X020756Y006143D02*
X020756Y007324D01*
X021670Y006843D02*
X022261Y006843D01*
X022261Y008024D01*
X021670Y008024D01*
X021670Y006843D01*
X022398Y006252D02*
X022556Y006252D01*
X022556Y006253D02*
X022575Y006255D01*
X022594Y006260D01*
X022610Y006270D01*
X022625Y006282D01*
X022637Y006297D01*
X022647Y006313D01*
X022652Y006332D01*
X022654Y006351D01*
X022654Y008516D01*
X022653Y008533D01*
X022648Y008550D01*
X022641Y008565D01*
X022631Y008579D01*
X022619Y008591D01*
X022605Y008601D01*
X022590Y008608D01*
X022573Y008613D01*
X022556Y008614D01*
X022398Y008614D01*
X021532Y008614D02*
X021375Y008614D01*
X021356Y008612D01*
X021337Y008607D01*
X021321Y008597D01*
X021306Y008585D01*
X021294Y008570D01*
X021284Y008554D01*
X021279Y008535D01*
X021277Y008516D01*
X021910Y009441D02*
X022032Y009533D01*
X022032Y009352D01*
X022032Y009533D02*
X022032Y009714D01*
X021910Y009619D02*
X022026Y009543D01*
X022032Y010052D02*
X022032Y010233D01*
X021910Y010141D01*
X022032Y010233D02*
X022032Y010414D01*
X021910Y010319D02*
X022026Y010243D01*
X020774Y012033D02*
X020776Y012081D01*
X020782Y012129D01*
X020792Y012176D01*
X020805Y012222D01*
X020823Y012267D01*
X020843Y012311D01*
X020868Y012353D01*
X020896Y012392D01*
X020926Y012429D01*
X020960Y012463D01*
X020997Y012495D01*
X021035Y012524D01*
X021076Y012549D01*
X021119Y012571D01*
X021164Y012589D01*
X021210Y012603D01*
X021257Y012614D01*
X021305Y012621D01*
X021353Y012624D01*
X021401Y012623D01*
X021449Y012618D01*
X021497Y012609D01*
X021543Y012597D01*
X021588Y012580D01*
X021632Y012560D01*
X021674Y012537D01*
X021714Y012510D01*
X021752Y012480D01*
X021787Y012447D01*
X021819Y012411D01*
X021849Y012373D01*
X021875Y012332D01*
X021897Y012289D01*
X021917Y012245D01*
X021932Y012200D01*
X021944Y012153D01*
X021952Y012105D01*
X021956Y012057D01*
X021956Y012009D01*
X021952Y011961D01*
X021944Y011913D01*
X021932Y011866D01*
X021917Y011821D01*
X021897Y011777D01*
X021875Y011734D01*
X021849Y011693D01*
X021819Y011655D01*
X021787Y011619D01*
X021752Y011586D01*
X021714Y011556D01*
X021674Y011529D01*
X021632Y011506D01*
X021588Y011486D01*
X021543Y011469D01*
X021497Y011457D01*
X021449Y011448D01*
X021401Y011443D01*
X021353Y011442D01*
X021305Y011445D01*
X021257Y011452D01*
X021210Y011463D01*
X021164Y011477D01*
X021119Y011495D01*
X021076Y011517D01*
X021035Y011542D01*
X020997Y011571D01*
X020960Y011603D01*
X020926Y011637D01*
X020896Y011674D01*
X020868Y011713D01*
X020843Y011755D01*
X020823Y011799D01*
X020805Y011844D01*
X020792Y011890D01*
X020782Y011937D01*
X020776Y011985D01*
X020774Y012033D01*
X017765Y013021D02*
X017765Y013045D01*
X015865Y013021D02*
X015865Y013045D01*
X010765Y009045D02*
X010765Y009021D01*
X019575Y007009D02*
X019575Y006458D01*
X017851Y005434D02*
X017584Y005033D01*
X017851Y005033D02*
X017584Y005434D01*
X016877Y004833D02*
X016853Y004833D01*
X018784Y004534D02*
X019051Y004534D01*
X019051Y004467D01*
X018784Y004200D01*
X018784Y004133D01*
X019051Y004133D01*
X018295Y003783D02*
X018297Y003804D01*
X018303Y003825D01*
X018312Y003845D01*
X018325Y003862D01*
X018340Y003877D01*
X018358Y003889D01*
X018378Y003897D01*
X018399Y003902D01*
X018420Y003903D01*
X018442Y003900D01*
X018462Y003893D01*
X018481Y003883D01*
X018498Y003870D01*
X018512Y003854D01*
X018523Y003835D01*
X018531Y003815D01*
X018535Y003794D01*
X018535Y003772D01*
X018531Y003751D01*
X018523Y003731D01*
X018512Y003712D01*
X018498Y003696D01*
X018481Y003683D01*
X018462Y003673D01*
X018442Y003666D01*
X018420Y003663D01*
X018399Y003664D01*
X018378Y003669D01*
X018358Y003677D01*
X018340Y003689D01*
X018325Y003704D01*
X018312Y003721D01*
X018303Y003741D01*
X018297Y003762D01*
X018295Y003783D01*
X019734Y003434D02*
X019734Y003367D01*
X019868Y003234D01*
X019868Y003033D01*
X019868Y003234D02*
X020001Y003367D01*
X020001Y003434D01*
X020774Y004333D02*
X020776Y004381D01*
X020782Y004429D01*
X020792Y004476D01*
X020805Y004522D01*
X020823Y004567D01*
X020843Y004611D01*
X020868Y004653D01*
X020896Y004692D01*
X020926Y004729D01*
X020960Y004763D01*
X020997Y004795D01*
X021035Y004824D01*
X021076Y004849D01*
X021119Y004871D01*
X021164Y004889D01*
X021210Y004903D01*
X021257Y004914D01*
X021305Y004921D01*
X021353Y004924D01*
X021401Y004923D01*
X021449Y004918D01*
X021497Y004909D01*
X021543Y004897D01*
X021588Y004880D01*
X021632Y004860D01*
X021674Y004837D01*
X021714Y004810D01*
X021752Y004780D01*
X021787Y004747D01*
X021819Y004711D01*
X021849Y004673D01*
X021875Y004632D01*
X021897Y004589D01*
X021917Y004545D01*
X021932Y004500D01*
X021944Y004453D01*
X021952Y004405D01*
X021956Y004357D01*
X021956Y004309D01*
X021952Y004261D01*
X021944Y004213D01*
X021932Y004166D01*
X021917Y004121D01*
X021897Y004077D01*
X021875Y004034D01*
X021849Y003993D01*
X021819Y003955D01*
X021787Y003919D01*
X021752Y003886D01*
X021714Y003856D01*
X021674Y003829D01*
X021632Y003806D01*
X021588Y003786D01*
X021543Y003769D01*
X021497Y003757D01*
X021449Y003748D01*
X021401Y003743D01*
X021353Y003742D01*
X021305Y003745D01*
X021257Y003752D01*
X021210Y003763D01*
X021164Y003777D01*
X021119Y003795D01*
X021076Y003817D01*
X021035Y003842D01*
X020997Y003871D01*
X020960Y003903D01*
X020926Y003937D01*
X020896Y003974D01*
X020868Y004013D01*
X020843Y004055D01*
X020823Y004099D01*
X020805Y004144D01*
X020792Y004190D01*
X020782Y004237D01*
X020776Y004285D01*
X020774Y004333D01*
X016565Y003683D02*
X016565Y003183D01*
X016315Y002933D01*
X015815Y002933D01*
X015565Y003183D01*
X015315Y002933D01*
X014815Y002933D01*
X014565Y003183D01*
X014315Y002933D01*
X013815Y002933D01*
X013565Y003183D01*
X013315Y002933D01*
X012815Y002933D01*
X012565Y003183D01*
X012315Y002933D01*
X011815Y002933D01*
X011565Y003183D01*
X011315Y002933D01*
X010815Y002933D01*
X010565Y003183D01*
X010565Y003683D01*
X010815Y003933D01*
X011315Y003933D01*
X011565Y003683D01*
X011815Y003933D01*
X012315Y003933D01*
X012565Y003683D01*
X012815Y003933D01*
X013315Y003933D01*
X013565Y003683D01*
X013815Y003933D01*
X014315Y003933D01*
X014565Y003683D01*
X014815Y003933D01*
X015315Y003933D01*
X015565Y003683D01*
X015815Y003933D01*
X016315Y003933D01*
X016565Y003683D01*
D12*
X016845Y003729D02*
X017045Y003729D01*
X016845Y003595D01*
X017045Y003595D01*
X017045Y003508D02*
X016979Y003441D01*
X016979Y003474D02*
X016979Y003374D01*
X017045Y003374D02*
X016845Y003374D01*
X016845Y003474D01*
X016879Y003508D01*
X016945Y003508D01*
X016979Y003474D01*
X017012Y003287D02*
X016945Y003287D01*
X016945Y003220D01*
X016879Y003153D02*
X017012Y003153D01*
X017045Y003187D01*
X017045Y003253D01*
X017012Y003287D01*
X016879Y003287D02*
X016845Y003253D01*
X016845Y003187D01*
X016879Y003153D01*
X016361Y004153D02*
X016294Y004220D01*
X016327Y004220D02*
X016227Y004220D01*
X016227Y004153D02*
X016227Y004354D01*
X016327Y004354D01*
X016361Y004320D01*
X016361Y004253D01*
X016327Y004220D01*
X016140Y004354D02*
X016006Y004354D01*
X016073Y004354D02*
X016073Y004153D01*
X015919Y004187D02*
X015919Y004320D01*
X015885Y004354D01*
X015785Y004354D01*
X015785Y004153D01*
X015885Y004153D01*
X015919Y004187D01*
X015240Y004153D02*
X015106Y004287D01*
X015019Y004354D02*
X014885Y004354D01*
X014952Y004354D02*
X014952Y004153D01*
X015106Y004153D02*
X015240Y004287D01*
X014240Y004287D02*
X014106Y004153D01*
X014019Y004153D02*
X013952Y004220D01*
X013985Y004220D02*
X013885Y004220D01*
X013885Y004153D02*
X013885Y004354D01*
X013985Y004354D01*
X014019Y004320D01*
X014019Y004253D01*
X013985Y004220D01*
X014106Y004287D02*
X014240Y004153D01*
X013471Y004220D02*
X013471Y004354D01*
X013338Y004354D02*
X013338Y004220D01*
X013405Y004153D01*
X013471Y004220D01*
X013250Y004220D02*
X013217Y004253D01*
X013184Y004253D01*
X013217Y004253D02*
X013250Y004287D01*
X013250Y004320D01*
X013217Y004354D01*
X013150Y004354D01*
X013117Y004320D01*
X013117Y004187D02*
X013150Y004153D01*
X013217Y004153D01*
X013250Y004187D01*
X013250Y004220D01*
X013040Y004187D02*
X013040Y004153D01*
X013006Y004153D01*
X013006Y004187D01*
X013040Y004187D01*
X012919Y004187D02*
X012885Y004153D01*
X012819Y004153D01*
X012785Y004187D01*
X012852Y004253D02*
X012885Y004253D01*
X012919Y004220D01*
X012919Y004187D01*
X012885Y004253D02*
X012919Y004287D01*
X012919Y004320D01*
X012885Y004354D01*
X012819Y004354D01*
X012785Y004320D01*
X012361Y004320D02*
X012361Y004187D01*
X012327Y004153D01*
X012227Y004153D01*
X012227Y004354D01*
X012327Y004354D01*
X012361Y004320D01*
X012140Y004354D02*
X012140Y004153D01*
X012006Y004354D01*
X012006Y004153D01*
X011919Y004187D02*
X011919Y004253D01*
X011852Y004253D01*
X011785Y004320D02*
X011785Y004187D01*
X011819Y004153D01*
X011885Y004153D01*
X011919Y004187D01*
X011919Y004320D02*
X011885Y004354D01*
X011819Y004354D01*
X011785Y004320D01*
X011361Y004320D02*
X011361Y004187D01*
X011327Y004153D01*
X011227Y004153D01*
X011227Y004354D01*
X011327Y004354D01*
X011361Y004320D01*
X011140Y004354D02*
X011140Y004153D01*
X011006Y004354D01*
X011006Y004153D01*
X010919Y004187D02*
X010919Y004253D01*
X010852Y004253D01*
X010785Y004320D02*
X010785Y004187D01*
X010819Y004153D01*
X010885Y004153D01*
X010919Y004187D01*
X010919Y004320D02*
X010885Y004354D01*
X010819Y004354D01*
X010785Y004320D01*
X010345Y003729D02*
X010245Y003629D01*
X010279Y003595D02*
X010145Y003729D01*
X010145Y003595D02*
X010345Y003595D01*
X010345Y003508D02*
X010345Y003374D01*
X010145Y003374D01*
X010179Y003287D02*
X010212Y003287D01*
X010245Y003253D01*
X010245Y003153D01*
X010145Y003153D02*
X010145Y003253D01*
X010179Y003287D01*
X010245Y003253D02*
X010279Y003287D01*
X010312Y003287D01*
X010345Y003253D01*
X010345Y003153D01*
X010145Y003153D01*
X011585Y004953D02*
X011719Y004953D01*
X011652Y004953D02*
X011652Y005154D01*
X011585Y005087D01*
X011619Y005253D02*
X011685Y005253D01*
X011719Y005287D01*
X011806Y005253D02*
X011940Y005253D01*
X011873Y005253D02*
X011873Y005454D01*
X011806Y005387D01*
X011719Y005420D02*
X011685Y005454D01*
X011619Y005454D01*
X011585Y005420D01*
X011585Y005287D01*
X011619Y005253D01*
X011806Y005120D02*
X011840Y005154D01*
X011906Y005154D01*
X011940Y005120D01*
X011806Y004987D01*
X011840Y004953D01*
X011906Y004953D01*
X011940Y004987D01*
X011940Y005120D01*
X012027Y005087D02*
X012027Y004987D01*
X012061Y004953D01*
X012161Y004953D01*
X012161Y005087D01*
X012248Y005053D02*
X012315Y005053D01*
X012248Y004953D02*
X012248Y005154D01*
X012382Y005154D01*
X012161Y005287D02*
X012127Y005253D01*
X012061Y005253D01*
X012027Y005287D01*
X012161Y005420D01*
X012161Y005287D01*
X012161Y005420D02*
X012127Y005454D01*
X012061Y005454D01*
X012027Y005420D01*
X012027Y005287D01*
X011806Y005120D02*
X011806Y004987D01*
X011774Y005853D02*
X011908Y005987D01*
X011908Y006020D01*
X011874Y006054D01*
X011808Y006054D01*
X011774Y006020D01*
X011687Y005987D02*
X011687Y005853D01*
X011774Y005853D02*
X011908Y005853D01*
X011687Y005953D02*
X011553Y005953D01*
X011553Y005987D02*
X011620Y006054D01*
X011687Y005987D01*
X011553Y005987D02*
X011553Y005853D01*
X011466Y005887D02*
X011432Y005853D01*
X011366Y005853D01*
X011332Y005887D01*
X011332Y005953D02*
X011399Y005987D01*
X011432Y005987D01*
X011466Y005953D01*
X011466Y005887D01*
X011332Y005953D02*
X011332Y006054D01*
X011466Y006054D01*
X011178Y006054D02*
X011178Y005853D01*
X011111Y005853D02*
X011245Y005853D01*
X011111Y005987D02*
X011178Y006054D01*
X010957Y006054D02*
X010957Y005853D01*
X010890Y005853D02*
X011024Y005853D01*
X010890Y005987D02*
X010957Y006054D01*
X010803Y006020D02*
X010769Y006054D01*
X010703Y006054D01*
X010669Y006020D01*
X010736Y005953D02*
X010769Y005953D01*
X010803Y005920D01*
X010803Y005887D01*
X010769Y005853D01*
X010703Y005853D01*
X010669Y005887D01*
X010769Y005953D02*
X010803Y005987D01*
X010803Y006020D01*
X010361Y005853D02*
X010227Y005853D01*
X010227Y006054D01*
X010140Y006020D02*
X010106Y006054D01*
X010006Y006054D01*
X010006Y005853D01*
X010006Y005920D02*
X010106Y005920D01*
X010140Y005953D01*
X010140Y006020D01*
X009919Y006054D02*
X009919Y005853D01*
X009785Y005853D02*
X009785Y006054D01*
X009852Y005987D01*
X009919Y006054D01*
X008540Y006053D02*
X008540Y005987D01*
X008506Y005953D01*
X008440Y005953D01*
X008406Y005987D01*
X008406Y006053D02*
X008473Y006087D01*
X008506Y006087D01*
X008540Y006053D01*
X008540Y006154D02*
X008406Y006154D01*
X008406Y006053D01*
X008319Y006053D02*
X008285Y006020D01*
X008185Y006020D01*
X008185Y005953D02*
X008185Y006154D01*
X008285Y006154D01*
X008319Y006120D01*
X008319Y006053D01*
X008252Y006020D02*
X008319Y005953D01*
X008306Y005554D02*
X008340Y005520D01*
X008206Y005387D01*
X008240Y005353D01*
X008306Y005353D01*
X008340Y005387D01*
X008340Y005520D01*
X008306Y005554D02*
X008240Y005554D01*
X008206Y005520D01*
X008206Y005387D01*
X008119Y005353D02*
X007985Y005353D01*
X008052Y005353D02*
X008052Y005554D01*
X007985Y005487D01*
X008427Y005520D02*
X008461Y005554D01*
X008527Y005554D01*
X008561Y005520D01*
X008427Y005387D01*
X008461Y005353D01*
X008527Y005353D01*
X008561Y005387D01*
X008561Y005520D01*
X008427Y005520D02*
X008427Y005387D01*
X007487Y005453D02*
X007454Y005420D01*
X007354Y005420D01*
X007354Y005353D02*
X007354Y005554D01*
X007454Y005554D01*
X007487Y005520D01*
X007487Y005453D01*
X007266Y005420D02*
X007266Y005387D01*
X007233Y005353D01*
X007166Y005353D01*
X007133Y005387D01*
X007166Y005453D02*
X007233Y005453D01*
X007266Y005420D01*
X007266Y005520D02*
X007233Y005554D01*
X007166Y005554D01*
X007133Y005520D01*
X007133Y005487D01*
X007166Y005453D01*
X007052Y005353D02*
X006985Y005353D01*
X007019Y005353D02*
X007019Y005554D01*
X007052Y005554D02*
X006985Y005554D01*
X007719Y007153D02*
X007685Y007187D01*
X007819Y007320D01*
X007819Y007187D01*
X007785Y007153D01*
X007719Y007153D01*
X007685Y007187D02*
X007685Y007320D01*
X007719Y007354D01*
X007785Y007354D01*
X007819Y007320D01*
X007785Y007453D02*
X007819Y007487D01*
X007785Y007453D02*
X007719Y007453D01*
X007685Y007487D01*
X007685Y007620D01*
X007719Y007654D01*
X007785Y007654D01*
X007819Y007620D01*
X007906Y007587D02*
X007973Y007654D01*
X007973Y007453D01*
X007906Y007453D02*
X008040Y007453D01*
X008127Y007453D02*
X008261Y007453D01*
X008194Y007453D02*
X008194Y007654D01*
X008127Y007587D01*
X008084Y007354D02*
X008084Y007153D01*
X008150Y007153D02*
X008017Y007153D01*
X007940Y007153D02*
X007906Y007153D01*
X007906Y007187D01*
X007940Y007187D01*
X007940Y007153D01*
X008017Y007287D02*
X008084Y007354D01*
X008238Y007287D02*
X008238Y007187D01*
X008271Y007153D01*
X008371Y007153D01*
X008371Y007287D01*
X008459Y007253D02*
X008526Y007253D01*
X008459Y007153D02*
X008459Y007354D01*
X008592Y007354D01*
X010585Y008387D02*
X010619Y008353D01*
X010685Y008353D01*
X010719Y008387D01*
X010719Y008554D01*
X010806Y008520D02*
X010840Y008554D01*
X010906Y008554D01*
X010940Y008520D01*
X010940Y008487D01*
X010906Y008453D01*
X010940Y008420D01*
X010940Y008387D01*
X010906Y008353D01*
X010840Y008353D01*
X010806Y008387D01*
X010873Y008453D02*
X010906Y008453D01*
X010585Y008387D02*
X010585Y008554D01*
X010026Y008953D02*
X009959Y008953D01*
X009871Y008987D02*
X009871Y008853D01*
X009771Y008853D01*
X009738Y008887D01*
X009738Y008987D01*
X009650Y008853D02*
X009517Y008853D01*
X009584Y008853D02*
X009584Y009054D01*
X009517Y008987D01*
X009440Y008887D02*
X009440Y008853D01*
X009406Y008853D01*
X009406Y008887D01*
X009440Y008887D01*
X009319Y008887D02*
X009285Y008853D01*
X009219Y008853D01*
X009185Y008887D01*
X009319Y009020D01*
X009319Y008887D01*
X009319Y009020D02*
X009285Y009054D01*
X009219Y009054D01*
X009185Y009020D01*
X009185Y008887D01*
X009219Y009153D02*
X009285Y009153D01*
X009319Y009187D01*
X009406Y009187D02*
X009440Y009153D01*
X009506Y009153D01*
X009540Y009187D01*
X009540Y009320D01*
X009506Y009354D01*
X009440Y009354D01*
X009406Y009320D01*
X009406Y009287D01*
X009440Y009253D01*
X009540Y009253D01*
X009319Y009320D02*
X009285Y009354D01*
X009219Y009354D01*
X009185Y009320D01*
X009185Y009187D01*
X009219Y009153D01*
X009959Y009054D02*
X009959Y008853D01*
X009959Y009054D02*
X010092Y009054D01*
X008240Y010453D02*
X008140Y010553D01*
X008106Y010520D02*
X008240Y010654D01*
X008240Y010753D02*
X008140Y010853D01*
X008106Y010820D02*
X008240Y010954D01*
X008240Y011053D02*
X008140Y011153D01*
X008106Y011120D02*
X008240Y011254D01*
X008106Y011254D02*
X008106Y011053D01*
X008019Y011053D02*
X007885Y011053D01*
X007952Y011053D02*
X007952Y011254D01*
X007885Y011187D01*
X007952Y010954D02*
X007885Y010887D01*
X007952Y010954D02*
X007952Y010753D01*
X007885Y010753D02*
X008019Y010753D01*
X008106Y010753D02*
X008106Y010954D01*
X007640Y010920D02*
X007640Y010887D01*
X007606Y010853D01*
X007540Y010853D01*
X007506Y010887D01*
X007506Y010920D01*
X007540Y010954D01*
X007606Y010954D01*
X007640Y010920D01*
X007606Y010853D02*
X007640Y010820D01*
X007640Y010787D01*
X007606Y010753D01*
X007540Y010753D01*
X007506Y010787D01*
X007506Y010820D01*
X007540Y010853D01*
X007419Y010853D02*
X007419Y010920D01*
X007385Y010954D01*
X007285Y010954D01*
X007285Y010753D01*
X007285Y010820D02*
X007385Y010820D01*
X007419Y010853D01*
X007352Y010820D02*
X007419Y010753D01*
X007385Y010654D02*
X007419Y010620D01*
X007419Y010553D01*
X007385Y010520D01*
X007285Y010520D01*
X007285Y010453D02*
X007285Y010654D01*
X007385Y010654D01*
X007506Y010620D02*
X007506Y010587D01*
X007540Y010553D01*
X007640Y010553D01*
X007640Y010487D02*
X007640Y010620D01*
X007606Y010654D01*
X007540Y010654D01*
X007506Y010620D01*
X007506Y010487D02*
X007540Y010453D01*
X007606Y010453D01*
X007640Y010487D01*
X007419Y010453D02*
X007352Y010520D01*
X007885Y010453D02*
X008019Y010453D01*
X007952Y010453D02*
X007952Y010654D01*
X007885Y010587D01*
X008106Y010654D02*
X008106Y010453D01*
X007506Y011053D02*
X007506Y011087D01*
X007640Y011220D01*
X007640Y011254D01*
X007506Y011254D01*
X007419Y011220D02*
X007419Y011153D01*
X007385Y011120D01*
X007285Y011120D01*
X007285Y011053D02*
X007285Y011254D01*
X007385Y011254D01*
X007419Y011220D01*
X007352Y011120D02*
X007419Y011053D01*
X005515Y010654D02*
X005448Y010654D01*
X005482Y010654D02*
X005482Y010453D01*
X005515Y010453D02*
X005448Y010453D01*
X005361Y010487D02*
X005327Y010453D01*
X005261Y010453D01*
X005227Y010487D01*
X005261Y010553D02*
X005327Y010553D01*
X005361Y010520D01*
X005361Y010487D01*
X005261Y010553D02*
X005227Y010587D01*
X005227Y010620D01*
X005261Y010654D01*
X005327Y010654D01*
X005361Y010620D01*
X005140Y010620D02*
X005106Y010654D01*
X005040Y010654D01*
X005006Y010620D01*
X005006Y010587D01*
X005040Y010553D01*
X005106Y010553D01*
X005140Y010520D01*
X005140Y010487D01*
X005106Y010453D01*
X005040Y010453D01*
X005006Y010487D01*
X004919Y010453D02*
X004852Y010520D01*
X004885Y010520D02*
X004785Y010520D01*
X004785Y010453D02*
X004785Y010654D01*
X004885Y010654D01*
X004919Y010620D01*
X004919Y010553D01*
X004885Y010520D01*
X004919Y009854D02*
X004919Y009687D01*
X004885Y009653D01*
X004819Y009653D01*
X004785Y009687D01*
X004785Y009854D01*
X005006Y009753D02*
X005040Y009787D01*
X005140Y009787D01*
X005106Y009720D02*
X005040Y009720D01*
X005006Y009753D01*
X005006Y009653D02*
X005106Y009653D01*
X005140Y009687D01*
X005106Y009720D01*
X005227Y009720D02*
X005361Y009720D01*
X005361Y009753D01*
X005327Y009787D01*
X005261Y009787D01*
X005227Y009753D01*
X005227Y009687D01*
X005261Y009653D01*
X005327Y009653D01*
X005448Y009653D02*
X005448Y009787D01*
X005448Y009720D02*
X005515Y009787D01*
X005548Y009787D01*
X004785Y009054D02*
X004785Y008853D01*
X004919Y008853D01*
X005685Y008200D02*
X005685Y008167D01*
X005719Y008133D01*
X005785Y008133D01*
X005819Y008100D01*
X005819Y008067D01*
X005785Y008033D01*
X005719Y008033D01*
X005685Y008067D01*
X005685Y008200D02*
X005719Y008234D01*
X005785Y008234D01*
X005819Y008200D01*
X005906Y008200D02*
X005906Y008067D01*
X005940Y008033D01*
X006006Y008033D01*
X006040Y008067D01*
X006127Y008100D02*
X006261Y008234D01*
X006127Y008234D02*
X006127Y008033D01*
X006161Y008133D02*
X006261Y008033D01*
X006040Y008200D02*
X006006Y008234D01*
X005940Y008234D01*
X005906Y008200D01*
X013685Y009853D02*
X013819Y009987D01*
X013819Y010020D01*
X013785Y010054D01*
X013719Y010054D01*
X013685Y010020D01*
X013719Y010153D02*
X013785Y010153D01*
X013819Y010187D01*
X013906Y010187D02*
X013940Y010153D01*
X014006Y010153D01*
X014040Y010187D01*
X014040Y010220D01*
X014006Y010253D01*
X013906Y010253D01*
X013906Y010187D01*
X013906Y010253D02*
X013973Y010320D01*
X014040Y010354D01*
X013819Y010320D02*
X013785Y010354D01*
X013719Y010354D01*
X013685Y010320D01*
X013685Y010187D01*
X013719Y010153D01*
X013906Y009887D02*
X013940Y009887D01*
X013940Y009853D01*
X013906Y009853D01*
X013906Y009887D01*
X013819Y009853D02*
X013685Y009853D01*
X014017Y009853D02*
X014150Y009987D01*
X014150Y010020D01*
X014117Y010054D01*
X014050Y010054D01*
X014017Y010020D01*
X014017Y009853D02*
X014150Y009853D01*
X014238Y009853D02*
X014238Y009987D01*
X014338Y009987D01*
X014371Y009953D01*
X014371Y009853D01*
X014459Y009853D02*
X014459Y010054D01*
X014592Y010054D01*
X014526Y009953D02*
X014459Y009953D01*
X015721Y009956D02*
X015721Y009756D01*
X015854Y009756D02*
X015854Y009956D01*
X015787Y009889D01*
X015721Y009956D01*
X015942Y009956D02*
X015942Y009756D01*
X015942Y009822D02*
X016042Y009822D01*
X016075Y009856D01*
X016075Y009923D01*
X016042Y009956D01*
X015942Y009956D01*
X016163Y009956D02*
X016163Y009789D01*
X016196Y009756D01*
X016263Y009756D01*
X016296Y009789D01*
X016296Y009956D01*
X016384Y009923D02*
X016384Y009889D01*
X016417Y009856D01*
X016517Y009856D01*
X016517Y009923D02*
X016484Y009956D01*
X016417Y009956D01*
X016384Y009923D01*
X016517Y009923D02*
X016517Y009789D01*
X016484Y009756D01*
X016417Y009756D01*
X016384Y009789D01*
X016605Y009756D02*
X016738Y009756D01*
X016671Y009756D02*
X016671Y009956D01*
X016605Y009889D01*
X016826Y009856D02*
X016892Y009889D01*
X016926Y009889D01*
X016959Y009856D01*
X016959Y009789D01*
X016926Y009756D01*
X016859Y009756D01*
X016826Y009789D01*
X016826Y009856D02*
X016826Y009956D01*
X016959Y009956D01*
X017047Y009923D02*
X017047Y009789D01*
X017180Y009923D01*
X017180Y009789D01*
X017147Y009756D01*
X017080Y009756D01*
X017047Y009789D01*
X017047Y009923D02*
X017080Y009956D01*
X017147Y009956D01*
X017180Y009923D01*
X018785Y009220D02*
X018819Y009254D01*
X018885Y009254D01*
X018919Y009220D01*
X019006Y009187D02*
X019073Y009254D01*
X019073Y009053D01*
X019006Y009053D02*
X019140Y009053D01*
X019227Y009087D02*
X019261Y009053D01*
X019327Y009053D01*
X019361Y009087D01*
X019361Y009120D01*
X019327Y009153D01*
X019294Y009153D01*
X019327Y009153D02*
X019361Y009187D01*
X019361Y009220D01*
X019327Y009254D01*
X019261Y009254D01*
X019227Y009220D01*
X018919Y009087D02*
X018885Y009053D01*
X018819Y009053D01*
X018785Y009087D01*
X018785Y009220D01*
X019585Y009253D02*
X019719Y009253D01*
X019652Y009253D02*
X019652Y009454D01*
X019585Y009387D01*
X019527Y009553D02*
X019461Y009553D01*
X019427Y009587D01*
X019561Y009720D01*
X019561Y009587D01*
X019527Y009553D01*
X019427Y009587D02*
X019427Y009720D01*
X019461Y009754D01*
X019527Y009754D01*
X019561Y009720D01*
X019340Y009553D02*
X019206Y009553D01*
X019273Y009553D02*
X019273Y009754D01*
X019206Y009687D01*
X019119Y009720D02*
X019119Y009653D01*
X019085Y009620D01*
X018985Y009620D01*
X018985Y009553D02*
X018985Y009754D01*
X019085Y009754D01*
X019119Y009720D01*
X019052Y009620D02*
X019119Y009553D01*
X019806Y009454D02*
X019806Y009253D01*
X019806Y009320D02*
X019940Y009454D01*
X019840Y009353D02*
X019940Y009253D01*
X020585Y009120D02*
X020585Y008987D01*
X020619Y008953D01*
X020685Y008953D01*
X020719Y008987D01*
X020719Y009053D01*
X020652Y009053D01*
X020585Y009120D02*
X020619Y009154D01*
X020685Y009154D01*
X020719Y009120D01*
X020806Y009154D02*
X020906Y009154D01*
X020940Y009120D01*
X020940Y009053D01*
X020906Y009020D01*
X020806Y009020D01*
X020806Y008953D02*
X020806Y009154D01*
X021027Y009120D02*
X021027Y009087D01*
X021061Y009053D01*
X021127Y009053D01*
X021161Y009020D01*
X021161Y008987D01*
X021127Y008953D01*
X021061Y008953D01*
X021027Y008987D01*
X021027Y009120D02*
X021061Y009154D01*
X021127Y009154D01*
X021161Y009120D01*
X019692Y008454D02*
X019559Y008454D01*
X019559Y008253D01*
X019471Y008253D02*
X019471Y008387D01*
X019559Y008353D02*
X019626Y008353D01*
X019471Y008253D02*
X019371Y008253D01*
X019338Y008287D01*
X019338Y008387D01*
X019250Y008253D02*
X019117Y008253D01*
X019184Y008253D02*
X019184Y008454D01*
X019117Y008387D01*
X019040Y008287D02*
X019040Y008253D01*
X019006Y008253D01*
X019006Y008287D01*
X019040Y008287D01*
X018919Y008287D02*
X018885Y008253D01*
X018819Y008253D01*
X018785Y008287D01*
X018919Y008420D01*
X018919Y008287D01*
X018919Y008420D02*
X018885Y008454D01*
X018819Y008454D01*
X018785Y008420D01*
X018785Y008287D01*
X020085Y007954D02*
X020185Y007954D01*
X020219Y007920D01*
X020219Y007853D01*
X020185Y007820D01*
X020085Y007820D01*
X020085Y007753D02*
X020085Y007954D01*
X020152Y007820D02*
X020219Y007753D01*
X020306Y007787D02*
X020306Y007853D01*
X020340Y007887D01*
X020406Y007887D01*
X020440Y007853D01*
X020440Y007820D01*
X020306Y007820D01*
X020306Y007787D02*
X020340Y007753D01*
X020406Y007753D01*
X020527Y007753D02*
X020627Y007753D01*
X020661Y007787D01*
X020627Y007820D01*
X020561Y007820D01*
X020527Y007853D01*
X020561Y007887D01*
X020661Y007887D01*
X020748Y007853D02*
X020748Y007787D01*
X020782Y007753D01*
X020848Y007753D01*
X020882Y007820D02*
X020748Y007820D01*
X020748Y007853D02*
X020782Y007887D01*
X020848Y007887D01*
X020882Y007853D01*
X020882Y007820D01*
X020969Y007887D02*
X021036Y007887D01*
X021003Y007920D02*
X021003Y007787D01*
X021036Y007753D01*
X019540Y007553D02*
X019406Y007553D01*
X019506Y007654D01*
X019506Y007453D01*
X019319Y007487D02*
X019319Y007654D01*
X019185Y007654D02*
X019185Y007487D01*
X019219Y007453D01*
X019285Y007453D01*
X019319Y007487D01*
X016361Y006354D02*
X016227Y006220D01*
X016261Y006253D02*
X016361Y006153D01*
X016227Y006153D02*
X016227Y006354D01*
X016140Y006320D02*
X016006Y006187D01*
X016040Y006153D01*
X016106Y006153D01*
X016140Y006187D01*
X016140Y006320D01*
X016106Y006354D01*
X016040Y006354D01*
X016006Y006320D01*
X016006Y006187D01*
X015919Y006153D02*
X015785Y006153D01*
X015852Y006153D02*
X015852Y006354D01*
X015785Y006287D01*
X015785Y006453D02*
X015785Y006654D01*
X015885Y006654D01*
X015919Y006620D01*
X015919Y006553D01*
X015885Y006520D01*
X015785Y006520D01*
X015852Y006520D02*
X015919Y006453D01*
X016006Y006453D02*
X016140Y006453D01*
X016073Y006453D02*
X016073Y006654D01*
X016006Y006587D01*
X016040Y005354D02*
X015906Y005354D01*
X015906Y005253D01*
X015973Y005287D01*
X016006Y005287D01*
X016040Y005253D01*
X016040Y005187D01*
X016006Y005153D01*
X015940Y005153D01*
X015906Y005187D01*
X015819Y005187D02*
X015785Y005153D01*
X015719Y005153D01*
X015685Y005187D01*
X015685Y005320D01*
X015719Y005354D01*
X015785Y005354D01*
X015819Y005320D01*
X015785Y005054D02*
X015819Y005020D01*
X015685Y004887D01*
X015719Y004853D01*
X015785Y004853D01*
X015819Y004887D01*
X015819Y005020D01*
X015785Y005054D02*
X015719Y005054D01*
X015685Y005020D01*
X015685Y004887D01*
X015906Y004887D02*
X015940Y004887D01*
X015940Y004853D01*
X015906Y004853D01*
X015906Y004887D01*
X016017Y004853D02*
X016150Y004853D01*
X016084Y004853D02*
X016084Y005054D01*
X016017Y004987D01*
X016238Y004987D02*
X016238Y004887D01*
X016271Y004853D01*
X016371Y004853D01*
X016371Y004987D01*
X016459Y004953D02*
X016526Y004953D01*
X016459Y004853D02*
X016459Y005054D01*
X016592Y005054D01*
X019585Y005553D02*
X019585Y005754D01*
X019585Y005653D02*
X019719Y005653D01*
X019719Y005553D02*
X019719Y005754D01*
X019806Y005754D02*
X019940Y005754D01*
X019873Y005754D02*
X019873Y005553D01*
X020027Y005587D02*
X020061Y005553D01*
X020127Y005553D01*
X020161Y005587D01*
X020161Y005754D01*
X020248Y005720D02*
X020282Y005754D01*
X020348Y005754D01*
X020382Y005720D01*
X020382Y005687D01*
X020248Y005553D01*
X020382Y005553D01*
X020469Y005553D02*
X020603Y005553D01*
X020536Y005553D02*
X020536Y005754D01*
X020469Y005687D01*
X020690Y005754D02*
X020690Y005553D01*
X020790Y005553D01*
X020824Y005587D01*
X020824Y005720D01*
X020790Y005754D01*
X020690Y005754D01*
X020027Y005754D02*
X020027Y005587D01*
X015271Y007853D02*
X015171Y007953D01*
X015138Y007920D02*
X015271Y008054D01*
X015271Y008153D02*
X015171Y008253D01*
X015138Y008220D02*
X015271Y008354D01*
X015138Y008354D02*
X015138Y008153D01*
X015050Y008153D02*
X014917Y008153D01*
X015050Y008287D01*
X015050Y008320D01*
X015017Y008354D01*
X014950Y008354D01*
X014917Y008320D01*
X014906Y008453D02*
X014906Y008654D01*
X014806Y008553D01*
X014940Y008553D01*
X014906Y008753D02*
X014840Y008753D01*
X014806Y008787D01*
X014719Y008753D02*
X014652Y008820D01*
X014685Y008820D02*
X014585Y008820D01*
X014585Y008753D02*
X014585Y008954D01*
X014685Y008954D01*
X014719Y008920D01*
X014719Y008853D01*
X014685Y008820D01*
X014806Y008920D02*
X014840Y008954D01*
X014906Y008954D01*
X014940Y008920D01*
X014940Y008887D01*
X014906Y008853D01*
X014940Y008820D01*
X014940Y008787D01*
X014906Y008753D01*
X014906Y008853D02*
X014873Y008853D01*
X014685Y008654D02*
X014719Y008620D01*
X014719Y008553D01*
X014685Y008520D01*
X014585Y008520D01*
X014585Y008453D02*
X014585Y008654D01*
X014685Y008654D01*
X014652Y008520D02*
X014719Y008453D01*
X014685Y008354D02*
X014619Y008354D01*
X014585Y008320D01*
X014685Y008354D02*
X014719Y008320D01*
X014719Y008287D01*
X014585Y008153D01*
X014719Y008153D01*
X014806Y008153D02*
X014840Y008153D01*
X014840Y008187D01*
X014806Y008187D01*
X014806Y008153D01*
X014685Y008054D02*
X014619Y008054D01*
X014585Y008020D01*
X014685Y008054D02*
X014719Y008020D01*
X014719Y007987D01*
X014585Y007853D01*
X014719Y007853D01*
X014806Y007853D02*
X014840Y007853D01*
X014840Y007887D01*
X014806Y007887D01*
X014806Y007853D01*
X014917Y007853D02*
X015050Y007987D01*
X015050Y008020D01*
X015017Y008054D01*
X014950Y008054D01*
X014917Y008020D01*
X014917Y007853D02*
X015050Y007853D01*
X015138Y007853D02*
X015138Y008054D01*
X019485Y010053D02*
X019619Y010053D01*
X019552Y010053D02*
X019552Y010254D01*
X019485Y010187D01*
X019485Y010353D02*
X019485Y010554D01*
X019585Y010554D01*
X019619Y010520D01*
X019619Y010453D01*
X019585Y010420D01*
X019485Y010420D01*
X019552Y010420D02*
X019619Y010353D01*
X019706Y010387D02*
X019740Y010353D01*
X019806Y010353D01*
X019840Y010387D01*
X019840Y010420D01*
X019806Y010453D01*
X019706Y010453D01*
X019706Y010387D01*
X019706Y010453D02*
X019773Y010520D01*
X019840Y010554D01*
X019759Y010753D02*
X019759Y010954D01*
X019892Y010954D01*
X019826Y010853D02*
X019759Y010853D01*
X019671Y010887D02*
X019671Y010753D01*
X019571Y010753D01*
X019538Y010787D01*
X019538Y010887D01*
X019450Y010753D02*
X019317Y010753D01*
X019384Y010753D02*
X019384Y010954D01*
X019317Y010887D01*
X019240Y010787D02*
X019240Y010753D01*
X019206Y010753D01*
X019206Y010787D01*
X019240Y010787D01*
X019119Y010787D02*
X019085Y010753D01*
X019019Y010753D01*
X018985Y010787D01*
X019119Y010920D01*
X019119Y010787D01*
X019119Y010920D02*
X019085Y010954D01*
X019019Y010954D01*
X018985Y010920D01*
X018985Y010787D01*
X019019Y011053D02*
X019085Y011053D01*
X019119Y011087D01*
X019206Y011087D02*
X019206Y011120D01*
X019240Y011153D01*
X019306Y011153D01*
X019340Y011120D01*
X019340Y011087D01*
X019306Y011053D01*
X019240Y011053D01*
X019206Y011087D01*
X019240Y011153D02*
X019206Y011187D01*
X019206Y011220D01*
X019240Y011254D01*
X019306Y011254D01*
X019340Y011220D01*
X019340Y011187D01*
X019306Y011153D01*
X019119Y011220D02*
X019085Y011254D01*
X019019Y011254D01*
X018985Y011220D01*
X018985Y011087D01*
X019019Y011053D01*
X019706Y010254D02*
X019706Y010053D01*
X019706Y010120D02*
X019840Y010254D01*
X019740Y010153D02*
X019840Y010053D01*
X021185Y010553D02*
X021319Y010687D01*
X021406Y010653D02*
X021506Y010653D01*
X021540Y010620D01*
X021540Y010587D01*
X021506Y010553D01*
X021406Y010553D01*
X021406Y010754D01*
X021506Y010754D01*
X021540Y010720D01*
X021540Y010687D01*
X021506Y010653D01*
X021627Y010653D02*
X021661Y010687D01*
X021727Y010687D01*
X021761Y010653D01*
X021761Y010620D01*
X021627Y010620D01*
X021627Y010587D02*
X021627Y010653D01*
X021627Y010587D02*
X021661Y010553D01*
X021727Y010553D01*
X021848Y010587D02*
X021848Y010653D01*
X021882Y010687D01*
X021948Y010687D01*
X021982Y010653D01*
X021982Y010620D01*
X021848Y010620D01*
X021848Y010587D02*
X021882Y010553D01*
X021948Y010553D01*
X022069Y010653D02*
X022203Y010653D01*
X022290Y010720D02*
X022290Y010587D01*
X022324Y010553D01*
X022390Y010553D01*
X022424Y010587D01*
X022424Y010720D01*
X022390Y010754D01*
X022324Y010754D01*
X022290Y010720D01*
X022511Y010754D02*
X022645Y010553D01*
X022645Y010754D01*
X022511Y010754D02*
X022511Y010553D01*
X021319Y010553D02*
X021185Y010687D01*
X019148Y012853D02*
X019148Y013054D01*
X019282Y013054D01*
X019215Y012953D02*
X019148Y012953D01*
X019061Y012953D02*
X019061Y012853D01*
X019061Y012953D02*
X019027Y012987D01*
X018927Y012987D01*
X018927Y012853D01*
X018840Y012887D02*
X018806Y012853D01*
X018740Y012853D01*
X018706Y012887D01*
X018840Y013020D01*
X018840Y012887D01*
X018840Y013020D02*
X018806Y013054D01*
X018740Y013054D01*
X018706Y013020D01*
X018706Y012887D01*
X018619Y012853D02*
X018485Y012853D01*
X018552Y012853D02*
X018552Y013054D01*
X018485Y012987D01*
X018519Y013153D02*
X018585Y013153D01*
X018619Y013187D01*
X018706Y013187D02*
X018706Y013153D01*
X018706Y013187D02*
X018840Y013320D01*
X018840Y013354D01*
X018706Y013354D01*
X018619Y013320D02*
X018585Y013354D01*
X018519Y013354D01*
X018485Y013320D01*
X018485Y013187D01*
X018519Y013153D01*
X015575Y012123D02*
X015542Y012156D01*
X015475Y012156D01*
X015442Y012123D01*
X015354Y012156D02*
X015354Y011989D01*
X015321Y011956D01*
X015254Y011956D01*
X015221Y011989D01*
X015221Y012156D01*
X015442Y011956D02*
X015575Y012089D01*
X015575Y012123D01*
X015575Y011956D02*
X015442Y011956D01*
X014582Y011953D02*
X014515Y012020D01*
X014548Y012020D02*
X014448Y012020D01*
X014448Y011953D02*
X014448Y012154D01*
X014548Y012154D01*
X014582Y012120D01*
X014582Y012053D01*
X014548Y012020D01*
X014361Y011987D02*
X014327Y011953D01*
X014261Y011953D01*
X014227Y011987D01*
X014361Y012120D01*
X014361Y011987D01*
X014361Y012120D02*
X014327Y012154D01*
X014261Y012154D01*
X014227Y012120D01*
X014227Y011987D01*
X014140Y011987D02*
X014106Y011953D01*
X014040Y011953D01*
X014006Y011987D01*
X013919Y011987D02*
X013885Y011953D01*
X013819Y011953D01*
X013785Y011987D01*
X013852Y012053D02*
X013885Y012053D01*
X013919Y012020D01*
X013919Y011987D01*
X013885Y012053D02*
X013919Y012087D01*
X013919Y012120D01*
X013885Y012154D01*
X013819Y012154D01*
X013785Y012120D01*
X013785Y012253D02*
X013785Y012454D01*
X013885Y012454D01*
X013919Y012420D01*
X013919Y012353D01*
X013885Y012320D01*
X013785Y012320D01*
X013852Y012320D02*
X013919Y012253D01*
X014006Y012253D02*
X014140Y012387D01*
X014140Y012420D01*
X014106Y012454D01*
X014040Y012454D01*
X014006Y012420D01*
X014006Y012253D02*
X014140Y012253D01*
X014106Y012154D02*
X014140Y012120D01*
X014140Y012087D01*
X014106Y012053D01*
X014140Y012020D01*
X014140Y011987D01*
X014106Y012053D02*
X014073Y012053D01*
X014006Y012120D02*
X014040Y012154D01*
X014106Y012154D01*
X014319Y012853D02*
X014285Y012887D01*
X014419Y013020D01*
X014419Y012887D01*
X014385Y012853D01*
X014319Y012853D01*
X014285Y012887D02*
X014285Y013020D01*
X014319Y013054D01*
X014385Y013054D01*
X014419Y013020D01*
X014385Y013153D02*
X014419Y013187D01*
X014385Y013153D02*
X014319Y013153D01*
X014285Y013187D01*
X014285Y013320D01*
X014319Y013354D01*
X014385Y013354D01*
X014419Y013320D01*
X014506Y013287D02*
X014573Y013354D01*
X014573Y013153D01*
X014506Y013153D02*
X014640Y013153D01*
X014727Y013153D02*
X014861Y013287D01*
X014861Y013320D01*
X014827Y013354D01*
X014761Y013354D01*
X014727Y013320D01*
X014727Y013153D02*
X014861Y013153D01*
X014838Y012987D02*
X014838Y012887D01*
X014871Y012853D01*
X014971Y012853D01*
X014971Y012987D01*
X015059Y012953D02*
X015126Y012953D01*
X015059Y012853D02*
X015059Y013054D01*
X015192Y013054D01*
X014750Y012853D02*
X014617Y012853D01*
X014684Y012853D02*
X014684Y013054D01*
X014617Y012987D01*
X014540Y012887D02*
X014540Y012853D01*
X014506Y012853D01*
X014506Y012887D01*
X014540Y012887D01*
X013469Y013287D02*
X013436Y013287D01*
X013369Y013220D01*
X013369Y013153D02*
X013369Y013287D01*
X013282Y013253D02*
X013282Y013220D01*
X013148Y013220D01*
X013148Y013187D02*
X013148Y013253D01*
X013182Y013287D01*
X013248Y013287D01*
X013282Y013253D01*
X013248Y013153D02*
X013182Y013153D01*
X013148Y013187D01*
X013061Y013187D02*
X013061Y013287D01*
X013061Y013187D02*
X013027Y013153D01*
X012994Y013187D01*
X012961Y013153D01*
X012927Y013187D01*
X012927Y013287D01*
X012840Y013253D02*
X012806Y013287D01*
X012740Y013287D01*
X012706Y013253D01*
X012706Y013187D01*
X012740Y013153D01*
X012806Y013153D01*
X012840Y013187D01*
X012840Y013253D01*
X012619Y013253D02*
X012619Y013320D01*
X012585Y013354D01*
X012485Y013354D01*
X012485Y013153D01*
X012485Y013220D02*
X012585Y013220D01*
X012619Y013253D01*
D13*
X012965Y008233D03*
X014165Y008233D03*
X016865Y006233D03*
D14*
X009165Y005733D03*
X006665Y008533D03*
X006665Y009333D03*
X006665Y010133D03*
X013065Y012133D03*
X020565Y010233D03*
X020565Y009533D03*
D15*
X017377Y010133D02*
X017353Y010133D01*
D16*
X018365Y005533D02*
X018065Y005233D01*
X018365Y004933D01*
X018065Y005233D02*
X019865Y005233D01*
X019865Y003533D01*
X020165Y003833D01*
X019665Y004033D02*
X019565Y004233D01*
X019715Y004283D01*
X019565Y004233D02*
X019591Y004210D01*
X019619Y004190D01*
X019650Y004173D01*
X019682Y004159D01*
X019715Y004149D01*
X019749Y004143D01*
X019784Y004140D01*
X019819Y004141D01*
X019853Y004146D01*
X019887Y004155D01*
X019920Y004168D01*
X019951Y004184D01*
X019980Y004203D01*
X020006Y004225D01*
X020031Y004250D01*
X020052Y004278D01*
X020070Y004307D01*
X020085Y004339D01*
X020096Y004372D01*
X020104Y004406D01*
X020108Y004441D01*
X020108Y004475D01*
X020104Y004510D01*
X020096Y004544D01*
X020085Y004577D01*
X020070Y004609D01*
X020052Y004638D01*
X020031Y004666D01*
X020006Y004691D01*
X019980Y004713D01*
X019951Y004732D01*
X019920Y004748D01*
X019887Y004761D01*
X019853Y004770D01*
X019819Y004775D01*
X019784Y004776D01*
X019749Y004773D01*
X019715Y004767D01*
X019682Y004757D01*
X019650Y004743D01*
X019619Y004726D01*
X019591Y004706D01*
X019565Y004683D01*
X018815Y005033D02*
X018840Y005011D01*
X018867Y004992D01*
X018897Y004976D01*
X018928Y004964D01*
X018960Y004955D01*
X018993Y004951D01*
X019026Y004950D01*
X019059Y004953D01*
X019092Y004961D01*
X019123Y004972D01*
X019153Y004986D01*
X019181Y005004D01*
X019207Y005025D01*
X019230Y005049D01*
X019250Y005076D01*
X019267Y005105D01*
X019281Y005135D01*
X019290Y005167D01*
X019296Y005200D01*
X019298Y005233D01*
X019296Y005266D01*
X019290Y005299D01*
X019281Y005331D01*
X019267Y005361D01*
X019250Y005390D01*
X019230Y005417D01*
X019207Y005441D01*
X019181Y005462D01*
X019153Y005480D01*
X019123Y005494D01*
X019092Y005505D01*
X019059Y005513D01*
X019026Y005516D01*
X018993Y005515D01*
X018960Y005511D01*
X018928Y005502D01*
X018897Y005490D01*
X018867Y005474D01*
X018840Y005455D01*
X018815Y005433D01*
X018965Y005383D01*
X018815Y005433D02*
X018865Y005583D01*
X019565Y003833D02*
X019865Y003533D01*
X018615Y003533D02*
X018638Y003559D01*
X018658Y003587D01*
X018675Y003618D01*
X018689Y003650D01*
X018699Y003683D01*
X018705Y003717D01*
X018708Y003752D01*
X018707Y003787D01*
X018702Y003821D01*
X018693Y003855D01*
X018680Y003888D01*
X018664Y003919D01*
X018645Y003948D01*
X018623Y003974D01*
X018598Y003999D01*
X018570Y004020D01*
X018541Y004038D01*
X018509Y004053D01*
X018476Y004064D01*
X018442Y004072D01*
X018407Y004076D01*
X018373Y004076D01*
X018338Y004072D01*
X018304Y004064D01*
X018271Y004053D01*
X018239Y004038D01*
X018210Y004020D01*
X018182Y003999D01*
X018157Y003974D01*
X018135Y003948D01*
X018116Y003919D01*
X018100Y003888D01*
X018087Y003855D01*
X018078Y003821D01*
X018073Y003787D01*
X018072Y003752D01*
X018075Y003717D01*
X018081Y003683D01*
X018091Y003650D01*
X018105Y003618D01*
X018122Y003587D01*
X018142Y003559D01*
X018165Y003533D01*
X018015Y003583D01*
X018165Y003533D02*
X018215Y003683D01*
D17*
X018402Y003783D02*
X018416Y003783D01*
X018416Y003797D01*
X018402Y003797D01*
X018402Y003783D01*
D18*
X009090Y003564D02*
X008990Y003564D01*
X009040Y003564D02*
X009040Y003263D01*
X008990Y003263D02*
X009090Y003263D01*
X008858Y003313D02*
X008858Y003514D01*
X008808Y003564D01*
X008658Y003564D01*
X008658Y003263D01*
X008808Y003263D01*
X008858Y003313D01*
X008527Y003564D02*
X008327Y003564D01*
X008427Y003564D02*
X008427Y003263D01*
X008095Y003413D02*
X007995Y003413D01*
X007995Y003263D02*
X007995Y003564D01*
X008195Y003564D01*
D19*
X020365Y006733D03*
M02*
